<?xml version="1.0" encoding="utf-8" standalone="no"?>
<!DOCTYPE svg PUBLIC "-//W3C//DTD SVG 1.1//EN"
  "http://www.w3.org/Graphics/SVG/1.1/DTD/svg11.dtd">
<!-- Created with matplotlib (http://matplotlib.org/) -->
<svg height="345.6pt" version="1.1" viewBox="0 0 460.8 345.6" width="460.8pt" xmlns="http://www.w3.org/2000/svg" xmlns:xlink="http://www.w3.org/1999/xlink">
 <defs>
  <style type="text/css">
*{stroke-linecap:butt;stroke-linejoin:round;}
  </style>
 </defs>
 <g id="figure_1">
  <g id="patch_1">
   <path d="M 0 345.6 
L 460.8 345.6 
L 460.8 0 
L 0 0 
z
" style="fill:#ffffff;"/>
  </g>
  <g id="axes_1">
   <g id="patch_2">
    <path d="M 57.6 307.584 
L 414.72 307.584 
L 414.72 41.472 
L 57.6 41.472 
z
" style="fill:#ffffff;"/>
   </g>
   <g id="matplotlib.axis_1">
    <g id="xtick_1">
     <g id="line2d_1">
      <defs>
       <path d="M 0 0 
L 0 3.5 
" id="mb879fea5b7" style="stroke:#000000;stroke-width:0.8;"/>
      </defs>
      <g>
       <use style="stroke:#000000;stroke-width:0.8;" x="125.482314" xlink:href="#mb879fea5b7" y="307.584"/>
      </g>
     </g>
     <g id="text_1">
      <!-- 10000 -->
      <defs>
       <path d="M 12.40625 8.296875 
L 28.515625 8.296875 
L 28.515625 63.921875 
L 10.984375 60.40625 
L 10.984375 69.390625 
L 28.421875 72.90625 
L 38.28125 72.90625 
L 38.28125 8.296875 
L 54.390625 8.296875 
L 54.390625 0 
L 12.40625 0 
z
" id="DejaVuSans-31"/>
       <path d="M 31.78125 66.40625 
Q 24.171875 66.40625 20.328125 58.90625 
Q 16.5 51.421875 16.5 36.375 
Q 16.5 21.390625 20.328125 13.890625 
Q 24.171875 6.390625 31.78125 6.390625 
Q 39.453125 6.390625 43.28125 13.890625 
Q 47.125 21.390625 47.125 36.375 
Q 47.125 51.421875 43.28125 58.90625 
Q 39.453125 66.40625 31.78125 66.40625 
z
M 31.78125 74.21875 
Q 44.046875 74.21875 50.515625 64.515625 
Q 56.984375 54.828125 56.984375 36.375 
Q 56.984375 17.96875 50.515625 8.265625 
Q 44.046875 -1.421875 31.78125 -1.421875 
Q 19.53125 -1.421875 13.0625 8.265625 
Q 6.59375 17.96875 6.59375 36.375 
Q 6.59375 54.828125 13.0625 64.515625 
Q 19.53125 74.21875 31.78125 74.21875 
z
" id="DejaVuSans-30"/>
      </defs>
      <g transform="translate(109.576064 322.182437)scale(0.1 -0.1)">
       <use xlink:href="#DejaVuSans-31"/>
       <use x="63.623047" xlink:href="#DejaVuSans-30"/>
       <use x="127.246094" xlink:href="#DejaVuSans-30"/>
       <use x="190.869141" xlink:href="#DejaVuSans-30"/>
       <use x="254.492188" xlink:href="#DejaVuSans-30"/>
      </g>
     </g>
    </g>
    <g id="xtick_2">
     <g id="line2d_2">
      <g>
       <use style="stroke:#000000;stroke-width:0.8;" x="199.267438" xlink:href="#mb879fea5b7" y="307.584"/>
      </g>
     </g>
     <g id="text_2">
      <!-- 20000 -->
      <defs>
       <path d="M 19.1875 8.296875 
L 53.609375 8.296875 
L 53.609375 0 
L 7.328125 0 
L 7.328125 8.296875 
Q 12.9375 14.109375 22.625 23.890625 
Q 32.328125 33.6875 34.8125 36.53125 
Q 39.546875 41.84375 41.421875 45.53125 
Q 43.3125 49.21875 43.3125 52.78125 
Q 43.3125 58.59375 39.234375 62.25 
Q 35.15625 65.921875 28.609375 65.921875 
Q 23.96875 65.921875 18.8125 64.3125 
Q 13.671875 62.703125 7.8125 59.421875 
L 7.8125 69.390625 
Q 13.765625 71.78125 18.9375 73 
Q 24.125 74.21875 28.421875 74.21875 
Q 39.75 74.21875 46.484375 68.546875 
Q 53.21875 62.890625 53.21875 53.421875 
Q 53.21875 48.921875 51.53125 44.890625 
Q 49.859375 40.875 45.40625 35.40625 
Q 44.1875 33.984375 37.640625 27.21875 
Q 31.109375 20.453125 19.1875 8.296875 
z
" id="DejaVuSans-32"/>
      </defs>
      <g transform="translate(183.361188 322.182437)scale(0.1 -0.1)">
       <use xlink:href="#DejaVuSans-32"/>
       <use x="63.623047" xlink:href="#DejaVuSans-30"/>
       <use x="127.246094" xlink:href="#DejaVuSans-30"/>
       <use x="190.869141" xlink:href="#DejaVuSans-30"/>
       <use x="254.492188" xlink:href="#DejaVuSans-30"/>
      </g>
     </g>
    </g>
    <g id="xtick_3">
     <g id="line2d_3">
      <g>
       <use style="stroke:#000000;stroke-width:0.8;" x="273.052562" xlink:href="#mb879fea5b7" y="307.584"/>
      </g>
     </g>
     <g id="text_3">
      <!-- 30000 -->
      <defs>
       <path d="M 40.578125 39.3125 
Q 47.65625 37.796875 51.625 33 
Q 55.609375 28.21875 55.609375 21.1875 
Q 55.609375 10.40625 48.1875 4.484375 
Q 40.765625 -1.421875 27.09375 -1.421875 
Q 22.515625 -1.421875 17.65625 -0.515625 
Q 12.796875 0.390625 7.625 2.203125 
L 7.625 11.71875 
Q 11.71875 9.328125 16.59375 8.109375 
Q 21.484375 6.890625 26.8125 6.890625 
Q 36.078125 6.890625 40.9375 10.546875 
Q 45.796875 14.203125 45.796875 21.1875 
Q 45.796875 27.640625 41.28125 31.265625 
Q 36.765625 34.90625 28.71875 34.90625 
L 20.21875 34.90625 
L 20.21875 43.015625 
L 29.109375 43.015625 
Q 36.375 43.015625 40.234375 45.921875 
Q 44.09375 48.828125 44.09375 54.296875 
Q 44.09375 59.90625 40.109375 62.90625 
Q 36.140625 65.921875 28.71875 65.921875 
Q 24.65625 65.921875 20.015625 65.03125 
Q 15.375 64.15625 9.8125 62.3125 
L 9.8125 71.09375 
Q 15.4375 72.65625 20.34375 73.4375 
Q 25.25 74.21875 29.59375 74.21875 
Q 40.828125 74.21875 47.359375 69.109375 
Q 53.90625 64.015625 53.90625 55.328125 
Q 53.90625 49.265625 50.4375 45.09375 
Q 46.96875 40.921875 40.578125 39.3125 
z
" id="DejaVuSans-33"/>
      </defs>
      <g transform="translate(257.146312 322.182437)scale(0.1 -0.1)">
       <use xlink:href="#DejaVuSans-33"/>
       <use x="63.623047" xlink:href="#DejaVuSans-30"/>
       <use x="127.246094" xlink:href="#DejaVuSans-30"/>
       <use x="190.869141" xlink:href="#DejaVuSans-30"/>
       <use x="254.492188" xlink:href="#DejaVuSans-30"/>
      </g>
     </g>
    </g>
    <g id="xtick_4">
     <g id="line2d_4">
      <g>
       <use style="stroke:#000000;stroke-width:0.8;" x="346.837686" xlink:href="#mb879fea5b7" y="307.584"/>
      </g>
     </g>
     <g id="text_4">
      <!-- 40000 -->
      <defs>
       <path d="M 37.796875 64.3125 
L 12.890625 25.390625 
L 37.796875 25.390625 
z
M 35.203125 72.90625 
L 47.609375 72.90625 
L 47.609375 25.390625 
L 58.015625 25.390625 
L 58.015625 17.1875 
L 47.609375 17.1875 
L 47.609375 0 
L 37.796875 0 
L 37.796875 17.1875 
L 4.890625 17.1875 
L 4.890625 26.703125 
z
" id="DejaVuSans-34"/>
      </defs>
      <g transform="translate(330.931436 322.182437)scale(0.1 -0.1)">
       <use xlink:href="#DejaVuSans-34"/>
       <use x="63.623047" xlink:href="#DejaVuSans-30"/>
       <use x="127.246094" xlink:href="#DejaVuSans-30"/>
       <use x="190.869141" xlink:href="#DejaVuSans-30"/>
       <use x="254.492188" xlink:href="#DejaVuSans-30"/>
      </g>
     </g>
    </g>
    <g id="text_5">
     <!-- Iter -->
     <defs>
      <path d="M 9.8125 72.90625 
L 19.671875 72.90625 
L 19.671875 0 
L 9.8125 0 
z
" id="DejaVuSans-49"/>
      <path d="M 18.3125 70.21875 
L 18.3125 54.6875 
L 36.8125 54.6875 
L 36.8125 47.703125 
L 18.3125 47.703125 
L 18.3125 18.015625 
Q 18.3125 11.328125 20.140625 9.421875 
Q 21.96875 7.515625 27.59375 7.515625 
L 36.8125 7.515625 
L 36.8125 0 
L 27.59375 0 
Q 17.1875 0 13.234375 3.875 
Q 9.28125 7.765625 9.28125 18.015625 
L 9.28125 47.703125 
L 2.6875 47.703125 
L 2.6875 54.6875 
L 9.28125 54.6875 
L 9.28125 70.21875 
z
" id="DejaVuSans-74"/>
      <path d="M 56.203125 29.59375 
L 56.203125 25.203125 
L 14.890625 25.203125 
Q 15.484375 15.921875 20.484375 11.0625 
Q 25.484375 6.203125 34.421875 6.203125 
Q 39.59375 6.203125 44.453125 7.46875 
Q 49.3125 8.734375 54.109375 11.28125 
L 54.109375 2.78125 
Q 49.265625 0.734375 44.1875 -0.34375 
Q 39.109375 -1.421875 33.890625 -1.421875 
Q 20.796875 -1.421875 13.15625 6.1875 
Q 5.515625 13.8125 5.515625 26.8125 
Q 5.515625 40.234375 12.765625 48.109375 
Q 20.015625 56 32.328125 56 
Q 43.359375 56 49.78125 48.890625 
Q 56.203125 41.796875 56.203125 29.59375 
z
M 47.21875 32.234375 
Q 47.125 39.59375 43.09375 43.984375 
Q 39.0625 48.390625 32.421875 48.390625 
Q 24.90625 48.390625 20.390625 44.140625 
Q 15.875 39.890625 15.1875 32.171875 
z
" id="DejaVuSans-65"/>
      <path d="M 41.109375 46.296875 
Q 39.59375 47.171875 37.8125 47.578125 
Q 36.03125 48 33.890625 48 
Q 26.265625 48 22.1875 43.046875 
Q 18.109375 38.09375 18.109375 28.8125 
L 18.109375 0 
L 9.078125 0 
L 9.078125 54.6875 
L 18.109375 54.6875 
L 18.109375 46.1875 
Q 20.953125 51.171875 25.484375 53.578125 
Q 30.03125 56 36.53125 56 
Q 37.453125 56 38.578125 55.875 
Q 39.703125 55.765625 41.0625 55.515625 
z
" id="DejaVuSans-72"/>
     </defs>
     <g transform="translate(224.165937 338.899937)scale(0.14 -0.14)">
      <use xlink:href="#DejaVuSans-49"/>
      <use x="29.492188" xlink:href="#DejaVuSans-74"/>
      <use x="68.701172" xlink:href="#DejaVuSans-65"/>
      <use x="130.224609" xlink:href="#DejaVuSans-72"/>
     </g>
    </g>
   </g>
   <g id="matplotlib.axis_2">
    <g id="ytick_1">
     <g id="line2d_5">
      <defs>
       <path d="M 0 0 
L -3.5 0 
" id="mb535a1184d" style="stroke:#000000;stroke-width:0.8;"/>
      </defs>
      <g>
       <use style="stroke:#000000;stroke-width:0.8;" x="57.6" xlink:href="#mb535a1184d" y="307.584"/>
      </g>
     </g>
     <g id="text_6">
      <!-- 0.0 -->
      <defs>
       <path d="M 10.6875 12.40625 
L 21 12.40625 
L 21 0 
L 10.6875 0 
z
" id="DejaVuSans-2e"/>
      </defs>
      <g transform="translate(34.696875 311.383219)scale(0.1 -0.1)">
       <use xlink:href="#DejaVuSans-30"/>
       <use x="63.623047" xlink:href="#DejaVuSans-2e"/>
       <use x="95.410156" xlink:href="#DejaVuSans-30"/>
      </g>
     </g>
    </g>
    <g id="ytick_2">
     <g id="line2d_6">
      <g>
       <use style="stroke:#000000;stroke-width:0.8;" x="57.6" xlink:href="#mb535a1184d" y="263.232"/>
      </g>
     </g>
     <g id="text_7">
      <!-- 0.5 -->
      <defs>
       <path d="M 10.796875 72.90625 
L 49.515625 72.90625 
L 49.515625 64.59375 
L 19.828125 64.59375 
L 19.828125 46.734375 
Q 21.96875 47.46875 24.109375 47.828125 
Q 26.265625 48.1875 28.421875 48.1875 
Q 40.625 48.1875 47.75 41.5 
Q 54.890625 34.8125 54.890625 23.390625 
Q 54.890625 11.625 47.5625 5.09375 
Q 40.234375 -1.421875 26.90625 -1.421875 
Q 22.3125 -1.421875 17.546875 -0.640625 
Q 12.796875 0.140625 7.71875 1.703125 
L 7.71875 11.625 
Q 12.109375 9.234375 16.796875 8.0625 
Q 21.484375 6.890625 26.703125 6.890625 
Q 35.15625 6.890625 40.078125 11.328125 
Q 45.015625 15.765625 45.015625 23.390625 
Q 45.015625 31 40.078125 35.4375 
Q 35.15625 39.890625 26.703125 39.890625 
Q 22.75 39.890625 18.8125 39.015625 
Q 14.890625 38.140625 10.796875 36.28125 
z
" id="DejaVuSans-35"/>
      </defs>
      <g transform="translate(34.696875 267.031219)scale(0.1 -0.1)">
       <use xlink:href="#DejaVuSans-30"/>
       <use x="63.623047" xlink:href="#DejaVuSans-2e"/>
       <use x="95.410156" xlink:href="#DejaVuSans-35"/>
      </g>
     </g>
    </g>
    <g id="ytick_3">
     <g id="line2d_7">
      <g>
       <use style="stroke:#000000;stroke-width:0.8;" x="57.6" xlink:href="#mb535a1184d" y="218.88"/>
      </g>
     </g>
     <g id="text_8">
      <!-- 1.0 -->
      <g transform="translate(34.696875 222.679219)scale(0.1 -0.1)">
       <use xlink:href="#DejaVuSans-31"/>
       <use x="63.623047" xlink:href="#DejaVuSans-2e"/>
       <use x="95.410156" xlink:href="#DejaVuSans-30"/>
      </g>
     </g>
    </g>
    <g id="ytick_4">
     <g id="line2d_8">
      <g>
       <use style="stroke:#000000;stroke-width:0.8;" x="57.6" xlink:href="#mb535a1184d" y="174.528"/>
      </g>
     </g>
     <g id="text_9">
      <!-- 1.5 -->
      <g transform="translate(34.696875 178.327219)scale(0.1 -0.1)">
       <use xlink:href="#DejaVuSans-31"/>
       <use x="63.623047" xlink:href="#DejaVuSans-2e"/>
       <use x="95.410156" xlink:href="#DejaVuSans-35"/>
      </g>
     </g>
    </g>
    <g id="ytick_5">
     <g id="line2d_9">
      <g>
       <use style="stroke:#000000;stroke-width:0.8;" x="57.6" xlink:href="#mb535a1184d" y="130.176"/>
      </g>
     </g>
     <g id="text_10">
      <!-- 2.0 -->
      <g transform="translate(34.696875 133.975219)scale(0.1 -0.1)">
       <use xlink:href="#DejaVuSans-32"/>
       <use x="63.623047" xlink:href="#DejaVuSans-2e"/>
       <use x="95.410156" xlink:href="#DejaVuSans-30"/>
      </g>
     </g>
    </g>
    <g id="ytick_6">
     <g id="line2d_10">
      <g>
       <use style="stroke:#000000;stroke-width:0.8;" x="57.6" xlink:href="#mb535a1184d" y="85.824"/>
      </g>
     </g>
     <g id="text_11">
      <!-- 2.5 -->
      <g transform="translate(34.696875 89.623219)scale(0.1 -0.1)">
       <use xlink:href="#DejaVuSans-32"/>
       <use x="63.623047" xlink:href="#DejaVuSans-2e"/>
       <use x="95.410156" xlink:href="#DejaVuSans-35"/>
      </g>
     </g>
    </g>
    <g id="ytick_7">
     <g id="line2d_11">
      <g>
       <use style="stroke:#000000;stroke-width:0.8;" x="57.6" xlink:href="#mb535a1184d" y="41.472"/>
      </g>
     </g>
     <g id="text_12">
      <!-- 3.0 -->
      <g transform="translate(34.696875 45.271219)scale(0.1 -0.1)">
       <use xlink:href="#DejaVuSans-33"/>
       <use x="63.623047" xlink:href="#DejaVuSans-2e"/>
       <use x="95.410156" xlink:href="#DejaVuSans-30"/>
      </g>
     </g>
    </g>
    <g id="text_13">
     <!-- Mutual Information -->
     <defs>
      <path d="M 9.8125 72.90625 
L 24.515625 72.90625 
L 43.109375 23.296875 
L 61.8125 72.90625 
L 76.515625 72.90625 
L 76.515625 0 
L 66.890625 0 
L 66.890625 64.015625 
L 48.09375 14.015625 
L 38.1875 14.015625 
L 19.390625 64.015625 
L 19.390625 0 
L 9.8125 0 
z
" id="DejaVuSans-4d"/>
      <path d="M 8.5 21.578125 
L 8.5 54.6875 
L 17.484375 54.6875 
L 17.484375 21.921875 
Q 17.484375 14.15625 20.5 10.265625 
Q 23.53125 6.390625 29.59375 6.390625 
Q 36.859375 6.390625 41.078125 11.03125 
Q 45.3125 15.671875 45.3125 23.6875 
L 45.3125 54.6875 
L 54.296875 54.6875 
L 54.296875 0 
L 45.3125 0 
L 45.3125 8.40625 
Q 42.046875 3.421875 37.71875 1 
Q 33.40625 -1.421875 27.6875 -1.421875 
Q 18.265625 -1.421875 13.375 4.4375 
Q 8.5 10.296875 8.5 21.578125 
z
M 31.109375 56 
z
" id="DejaVuSans-75"/>
      <path d="M 34.28125 27.484375 
Q 23.390625 27.484375 19.1875 25 
Q 14.984375 22.515625 14.984375 16.5 
Q 14.984375 11.71875 18.140625 8.90625 
Q 21.296875 6.109375 26.703125 6.109375 
Q 34.1875 6.109375 38.703125 11.40625 
Q 43.21875 16.703125 43.21875 25.484375 
L 43.21875 27.484375 
z
M 52.203125 31.203125 
L 52.203125 0 
L 43.21875 0 
L 43.21875 8.296875 
Q 40.140625 3.328125 35.546875 0.953125 
Q 30.953125 -1.421875 24.3125 -1.421875 
Q 15.921875 -1.421875 10.953125 3.296875 
Q 6 8.015625 6 15.921875 
Q 6 25.140625 12.171875 29.828125 
Q 18.359375 34.515625 30.609375 34.515625 
L 43.21875 34.515625 
L 43.21875 35.40625 
Q 43.21875 41.609375 39.140625 45 
Q 35.0625 48.390625 27.6875 48.390625 
Q 23 48.390625 18.546875 47.265625 
Q 14.109375 46.140625 10.015625 43.890625 
L 10.015625 52.203125 
Q 14.9375 54.109375 19.578125 55.046875 
Q 24.21875 56 28.609375 56 
Q 40.484375 56 46.34375 49.84375 
Q 52.203125 43.703125 52.203125 31.203125 
z
" id="DejaVuSans-61"/>
      <path d="M 9.421875 75.984375 
L 18.40625 75.984375 
L 18.40625 0 
L 9.421875 0 
z
" id="DejaVuSans-6c"/>
      <path id="DejaVuSans-20"/>
      <path d="M 54.890625 33.015625 
L 54.890625 0 
L 45.90625 0 
L 45.90625 32.71875 
Q 45.90625 40.484375 42.875 44.328125 
Q 39.84375 48.1875 33.796875 48.1875 
Q 26.515625 48.1875 22.3125 43.546875 
Q 18.109375 38.921875 18.109375 30.90625 
L 18.109375 0 
L 9.078125 0 
L 9.078125 54.6875 
L 18.109375 54.6875 
L 18.109375 46.1875 
Q 21.34375 51.125 25.703125 53.5625 
Q 30.078125 56 35.796875 56 
Q 45.21875 56 50.046875 50.171875 
Q 54.890625 44.34375 54.890625 33.015625 
z
" id="DejaVuSans-6e"/>
      <path d="M 37.109375 75.984375 
L 37.109375 68.5 
L 28.515625 68.5 
Q 23.6875 68.5 21.796875 66.546875 
Q 19.921875 64.59375 19.921875 59.515625 
L 19.921875 54.6875 
L 34.71875 54.6875 
L 34.71875 47.703125 
L 19.921875 47.703125 
L 19.921875 0 
L 10.890625 0 
L 10.890625 47.703125 
L 2.296875 47.703125 
L 2.296875 54.6875 
L 10.890625 54.6875 
L 10.890625 58.5 
Q 10.890625 67.625 15.140625 71.796875 
Q 19.390625 75.984375 28.609375 75.984375 
z
" id="DejaVuSans-66"/>
      <path d="M 30.609375 48.390625 
Q 23.390625 48.390625 19.1875 42.75 
Q 14.984375 37.109375 14.984375 27.296875 
Q 14.984375 17.484375 19.15625 11.84375 
Q 23.34375 6.203125 30.609375 6.203125 
Q 37.796875 6.203125 41.984375 11.859375 
Q 46.1875 17.53125 46.1875 27.296875 
Q 46.1875 37.015625 41.984375 42.703125 
Q 37.796875 48.390625 30.609375 48.390625 
z
M 30.609375 56 
Q 42.328125 56 49.015625 48.375 
Q 55.71875 40.765625 55.71875 27.296875 
Q 55.71875 13.875 49.015625 6.21875 
Q 42.328125 -1.421875 30.609375 -1.421875 
Q 18.84375 -1.421875 12.171875 6.21875 
Q 5.515625 13.875 5.515625 27.296875 
Q 5.515625 40.765625 12.171875 48.375 
Q 18.84375 56 30.609375 56 
z
" id="DejaVuSans-6f"/>
      <path d="M 52 44.1875 
Q 55.375 50.25 60.0625 53.125 
Q 64.75 56 71.09375 56 
Q 79.640625 56 84.28125 50.015625 
Q 88.921875 44.046875 88.921875 33.015625 
L 88.921875 0 
L 79.890625 0 
L 79.890625 32.71875 
Q 79.890625 40.578125 77.09375 44.375 
Q 74.3125 48.1875 68.609375 48.1875 
Q 61.625 48.1875 57.5625 43.546875 
Q 53.515625 38.921875 53.515625 30.90625 
L 53.515625 0 
L 44.484375 0 
L 44.484375 32.71875 
Q 44.484375 40.625 41.703125 44.40625 
Q 38.921875 48.1875 33.109375 48.1875 
Q 26.21875 48.1875 22.15625 43.53125 
Q 18.109375 38.875 18.109375 30.90625 
L 18.109375 0 
L 9.078125 0 
L 9.078125 54.6875 
L 18.109375 54.6875 
L 18.109375 46.1875 
Q 21.1875 51.21875 25.484375 53.609375 
Q 29.78125 56 35.6875 56 
Q 41.65625 56 45.828125 52.96875 
Q 50 49.953125 52 44.1875 
z
" id="DejaVuSans-6d"/>
      <path d="M 9.421875 54.6875 
L 18.40625 54.6875 
L 18.40625 0 
L 9.421875 0 
z
M 9.421875 75.984375 
L 18.40625 75.984375 
L 18.40625 64.59375 
L 9.421875 64.59375 
z
" id="DejaVuSans-69"/>
     </defs>
     <g transform="translate(27.785312 241.285031)rotate(-90)scale(0.14 -0.14)">
      <use xlink:href="#DejaVuSans-4d"/>
      <use x="86.279297" xlink:href="#DejaVuSans-75"/>
      <use x="149.658203" xlink:href="#DejaVuSans-74"/>
      <use x="188.867188" xlink:href="#DejaVuSans-75"/>
      <use x="252.246094" xlink:href="#DejaVuSans-61"/>
      <use x="313.525391" xlink:href="#DejaVuSans-6c"/>
      <use x="341.308594" xlink:href="#DejaVuSans-20"/>
      <use x="373.095703" xlink:href="#DejaVuSans-49"/>
      <use x="402.587891" xlink:href="#DejaVuSans-6e"/>
      <use x="465.966797" xlink:href="#DejaVuSans-66"/>
      <use x="501.171875" xlink:href="#DejaVuSans-6f"/>
      <use x="562.353516" xlink:href="#DejaVuSans-72"/>
      <use x="603.451172" xlink:href="#DejaVuSans-6d"/>
      <use x="700.863281" xlink:href="#DejaVuSans-61"/>
      <use x="762.142578" xlink:href="#DejaVuSans-74"/>
      <use x="801.351562" xlink:href="#DejaVuSans-69"/>
      <use x="829.134766" xlink:href="#DejaVuSans-6f"/>
      <use x="890.316406" xlink:href="#DejaVuSans-6e"/>
     </g>
    </g>
   </g>
   <g id="line2d_12">
    <path clip-path="url(#p973300e142)" d="M 73.832727 251.842766 
L 77.521983 254.038143 
L 81.21124 251.497946 
L 84.900496 251.209367 
L 88.589752 249.14649 
L 92.279008 251.966034 
L 95.968264 252.305025 
L 99.657521 256.258515 
L 103.346777 255.85009 
L 107.036033 254.400546 
L 110.725289 252.431642 
L 114.414545 250.200076 
L 118.103802 250.272433 
L 121.793058 253.126223 
L 125.482314 253.74693 
L 129.17157 253.509983 
L 132.860826 253.113062 
L 136.550083 252.315739 
L 140.239339 251.274778 
L 143.928595 251.919443 
L 147.617851 254.161161 
L 151.307107 255.198455 
L 154.996364 252.310963 
L 158.68562 249.323142 
L 162.374876 250.439089 
L 166.064132 249.757604 
L 169.753388 249.664207 
L 173.442645 250.430193 
L 177.131901 251.548323 
L 180.821157 252.079723 
L 184.510413 248.9387 
L 188.199669 250.857851 
L 191.888926 254.363808 
L 195.578182 255.746706 
L 199.267438 257.429664 
L 202.956694 258.799001 
L 206.64595 260.655628 
L 210.335207 257.430385 
L 214.024463 259.086241 
L 217.713719 260.439423 
L 221.402975 259.923206 
L 225.092231 256.389876 
L 228.781488 255.568441 
L 232.470744 254.26231 
L 236.16 251.285558 
L 239.849256 251.811291 
L 243.538512 252.135454 
L 247.227769 255.351092 
L 250.917025 251.002108 
L 254.606281 248.313496 
L 258.295537 252.214483 
L 261.984793 256.238968 
L 265.67405 256.548562 
L 269.363306 258.952874 
L 273.052562 259.863132 
L 276.741818 260.333813 
L 280.431074 258.1594 
L 284.120331 254.87655 
L 287.809587 259.555452 
L 291.498843 263.499756 
L 295.188099 263.635988 
L 298.877355 261.211915 
L 302.566612 258.115924 
L 306.255868 256.141768 
L 309.945124 258.157499 
L 313.63438 256.046087 
L 317.323636 253.883319 
L 321.012893 255.523106 
L 324.702149 251.042844 
L 328.391405 252.196644 
L 332.080661 253.239681 
L 335.769917 250.616687 
L 339.459174 252.930246 
L 343.14843 252.710434 
L 346.837686 250.671072 
L 350.526942 253.24801 
L 354.216198 257.098495 
L 357.905455 257.153662 
L 361.594711 259.321526 
L 365.283967 257.163533 
L 368.973223 255.054263 
L 372.662479 258.134396 
L 376.351736 256.851412 
L 380.040992 255.742363 
L 383.730248 256.912945 
L 387.419504 255.076654 
L 391.10876 253.067329 
L 394.798017 252.376115 
L 398.487273 249.78274 
" style="fill:none;stroke:#0000ff;stroke-linecap:square;stroke-width:1.5;"/>
   </g>
   <g id="line2d_13">
    <path clip-path="url(#p973300e142)" d="M 73.832727 252.488874 
L 77.521983 255.518987 
L 81.21124 250.518313 
L 84.900496 251.228141 
L 88.589752 248.701351 
L 92.279008 247.811682 
L 95.968264 242.164474 
L 99.657521 241.540438 
L 103.346777 239.553637 
L 107.036033 242.789811 
L 110.725289 242.365122 
L 114.414545 241.941953 
L 118.103802 249.438064 
L 121.793058 258.185536 
L 125.482314 258.426264 
L 129.17157 258.779939 
L 132.860826 255.696857 
L 136.550083 258.453263 
L 140.239339 261.307861 
L 143.928595 254.812196 
L 147.617851 254.100883 
L 151.307107 251.797384 
L 154.996364 242.085611 
L 158.68562 238.917283 
L 162.374876 235.433138 
L 166.064132 232.890581 
L 169.753388 235.402162 
L 173.442645 232.799056 
L 177.131901 233.005006 
L 180.821157 238.973309 
L 184.510413 233.383989 
L 188.199669 236.52424 
L 191.888926 242.821075 
L 195.578182 242.397456 
L 199.267438 240.214076 
L 202.956694 242.986467 
L 206.64595 245.867388 
L 210.335207 245.464487 
L 214.024463 241.040151 
L 217.713719 243.047956 
L 221.402975 248.305961 
L 225.092231 241.642233 
L 228.781488 244.632717 
L 232.470744 242.685702 
L 236.16 240.600754 
L 239.849256 236.822343 
L 243.538512 236.118166 
L 247.227769 237.033767 
L 250.917025 241.014409 
L 254.606281 238.350823 
L 258.295537 235.76361 
L 261.984793 240.839572 
L 265.67405 235.969025 
L 269.363306 229.961956 
L 273.052562 240.54315 
L 276.741818 239.993624 
L 280.431074 234.428972 
L 284.120331 231.227983 
L 287.809587 229.866166 
L 291.498843 226.681778 
L 295.188099 224.177272 
L 298.877355 224.049259 
L 302.566612 220.193128 
L 306.255868 229.891389 
L 309.945124 229.317188 
L 313.63438 233.092334 
L 317.323636 236.342053 
L 321.012893 239.576788 
L 324.702149 243.261187 
L 328.391405 245.560206 
L 332.080661 252.540508 
L 335.769917 250.660302 
L 339.459174 253.181459 
L 343.14843 248.186216 
L 346.837686 245.48222 
L 350.526942 238.539622 
L 354.216198 242.423798 
L 357.905455 242.94196 
L 361.594711 240.50032 
L 365.283967 244.803732 
L 368.973223 242.595351 
L 372.662479 245.345151 
L 376.351736 245.754992 
L 380.040992 242.378682 
L 383.730248 244.045556 
L 387.419504 251.787085 
L 391.10876 247.974285 
L 394.798017 243.991887 
L 398.487273 246.818212 
" style="fill:none;stroke:#ff8c00;stroke-linecap:square;stroke-width:1.5;"/>
   </g>
   <g id="line2d_14">
    <path clip-path="url(#p973300e142)" d="M 73.832727 248.078481 
L 77.521983 251.074849 
L 81.21124 247.974535 
L 84.900496 248.455638 
L 88.589752 246.034885 
L 92.279008 245.562767 
L 95.968264 240.297095 
L 99.657521 239.566961 
L 103.346777 237.825167 
L 107.036033 240.335765 
L 110.725289 240.303255 
L 114.414545 239.618466 
L 118.103802 246.290366 
L 121.793058 254.364331 
L 125.482314 254.111991 
L 129.17157 253.047025 
L 132.860826 250.366697 
L 136.550083 253.864439 
L 140.239339 257.075339 
L 143.928595 251.704449 
L 147.617851 251.50296 
L 151.307107 248.258325 
L 154.996364 239.222132 
L 158.68562 236.154413 
L 162.374876 233.434155 
L 166.064132 231.564827 
L 169.753388 233.380384 
L 173.442645 229.803157 
L 177.131901 229.424185 
L 180.821157 235.082303 
L 184.510413 229.326913 
L 188.199669 232.890091 
L 191.888926 238.392279 
L 195.578182 238.272634 
L 199.267438 235.386697 
L 202.956694 238.559764 
L 206.64595 241.6093 
L 210.335207 241.640347 
L 214.024463 238.56468 
L 217.713719 241.449627 
L 221.402975 247.289483 
L 225.092231 240.283621 
L 228.781488 243.345177 
L 232.470744 241.390819 
L 236.16 240.823369 
L 239.849256 237.568749 
L 243.538512 237.758334 
L 247.227769 238.994272 
L 250.917025 241.741671 
L 254.606281 239.135088 
L 258.295537 236.584636 
L 261.984793 243.179525 
L 265.67405 237.278722 
L 269.363306 231.524351 
L 273.052562 239.980594 
L 276.741818 239.83084 
L 280.431074 235.091907 
L 284.120331 231.618084 
L 287.809587 232.073964 
L 291.498843 228.914891 
L 295.188099 226.075182 
L 298.877355 225.500418 
L 302.566612 222.49586 
L 306.255868 232.636883 
L 309.945124 233.337826 
L 313.63438 235.719845 
L 317.323636 237.560676 
L 321.012893 240.115496 
L 324.702149 242.989492 
L 328.391405 245.826074 
L 332.080661 253.74558 
L 335.769917 251.640561 
L 339.459174 254.368768 
L 343.14843 248.974513 
L 346.837686 244.914306 
L 350.526942 240.093008 
L 354.216198 242.320818 
L 357.905455 242.907645 
L 361.594711 239.413122 
L 365.283967 241.979151 
L 368.973223 239.301315 
L 372.662479 242.865582 
L 376.351736 243.521286 
L 380.040992 241.566068 
L 383.730248 245.456999 
L 387.419504 253.233121 
L 391.10876 251.373479 
L 394.798017 247.962422 
L 398.487273 251.013936 
" style="fill:none;stroke:#008000;stroke-linecap:square;stroke-width:1.5;"/>
   </g>
   <g id="line2d_15">
    <path clip-path="url(#p973300e142)" d="M 73.832727 217.946708 
L 77.521983 218.386076 
L 81.21124 215.044938 
L 84.900496 216.783226 
L 88.589752 216.226211 
L 92.279008 214.175449 
L 95.968264 211.242951 
L 99.657521 211.737634 
L 103.346777 209.896954 
L 107.036033 211.962452 
L 110.725289 211.602228 
L 114.414545 212.082502 
L 118.103802 219.457734 
L 121.793058 226.336235 
L 125.482314 226.413066 
L 129.17157 228.125565 
L 132.860826 224.997858 
L 136.550083 225.884925 
L 140.239339 228.506149 
L 143.928595 223.843082 
L 147.617851 221.17684 
L 151.307107 215.86038 
L 154.996364 208.859568 
L 158.68562 204.468235 
L 162.374876 201.394927 
L 166.064132 199.635284 
L 169.753388 202.667311 
L 173.442645 199.182877 
L 177.131901 197.978687 
L 180.821157 202.992878 
L 184.510413 200.173214 
L 188.199669 204.270691 
L 191.888926 209.682075 
L 195.578182 209.273272 
L 199.267438 207.104067 
L 202.956694 208.247402 
L 206.64595 208.579383 
L 210.335207 209.989819 
L 214.024463 208.867293 
L 217.713719 211.139088 
L 221.402975 215.939483 
L 225.092231 211.901615 
L 228.781488 212.494216 
L 232.470744 212.040811 
L 236.16 209.389698 
L 239.849256 205.249473 
L 243.538512 205.806838 
L 247.227769 206.422535 
L 250.917025 207.382116 
L 254.606281 205.465083 
L 258.295537 204.542841 
L 261.984793 209.080594 
L 265.67405 206.941545 
L 269.363306 202.051995 
L 273.052562 212.004171 
L 276.741818 214.912042 
L 280.431074 212.449378 
L 284.120331 210.854392 
L 287.809587 210.33366 
L 291.498843 209.714531 
L 295.188099 205.747578 
L 298.877355 203.766569 
L 302.566612 201.775617 
L 306.255868 208.532291 
L 309.945124 209.410239 
L 313.63438 210.831576 
L 317.323636 214.114838 
L 321.012893 214.561622 
L 324.702149 214.720934 
L 328.391405 214.662125 
L 332.080661 221.133884 
L 335.769917 219.735752 
L 339.459174 219.968062 
L 343.14843 217.863047 
L 346.837686 215.325626 
L 350.526942 211.42444 
L 354.216198 209.219252 
L 357.905455 211.87222 
L 361.594711 212.103812 
L 365.283967 215.87936 
L 368.973223 214.105743 
L 372.662479 217.703494 
L 376.351736 218.539444 
L 380.040992 213.660118 
L 383.730248 213.875209 
L 387.419504 219.63453 
L 391.10876 219.356171 
L 394.798017 216.356361 
L 398.487273 219.300134 
" style="fill:none;stroke:#ff0000;stroke-linecap:square;stroke-width:1.5;"/>
   </g>
   <g id="line2d_16">
    <path clip-path="url(#p973300e142)" d="M 73.832727 199.656908 
L 77.521983 207.998585 
L 81.21124 211.659626 
L 84.900496 214.257669 
L 88.589752 214.563271 
L 92.279008 219.800286 
L 95.968264 218.073643 
L 99.657521 220.628821 
L 103.346777 220.785881 
L 107.036033 223.865887 
L 110.725289 222.385545 
L 114.414545 221.050161 
L 118.103802 219.925608 
L 121.793058 225.625127 
L 125.482314 224.553641 
L 129.17157 222.968234 
L 132.860826 221.379545 
L 136.550083 220.618582 
L 140.239339 225.113599 
L 143.928595 222.615139 
L 147.617851 224.034766 
L 151.307107 220.596266 
L 154.996364 216.494228 
L 158.68562 212.60035 
L 162.374876 210.947144 
L 166.064132 206.466845 
L 169.753388 208.628258 
L 173.442645 205.861171 
L 177.131901 205.651661 
L 180.821157 207.158561 
L 184.510413 202.446475 
L 188.199669 203.449249 
L 191.888926 206.738819 
L 195.578182 208.414819 
L 199.267438 203.973315 
L 202.956694 206.49355 
L 206.64595 205.943643 
L 210.335207 207.7585 
L 214.024463 204.168189 
L 217.713719 209.080157 
L 221.402975 214.000261 
L 225.092231 211.006933 
L 228.781488 213.400182 
L 232.470744 207.801006 
L 236.16 208.975272 
L 239.849256 206.527821 
L 243.538512 207.33348 
L 247.227769 206.024979 
L 250.917025 207.083782 
L 254.606281 203.303207 
L 258.295537 198.932657 
L 261.984793 202.513979 
L 265.67405 196.285758 
L 269.363306 195.65759 
L 273.052562 202.268429 
L 276.741818 202.516447 
L 280.431074 198.187816 
L 284.120331 196.907076 
L 287.809587 195.99864 
L 291.498843 194.78382 
L 295.188099 192.336761 
L 298.877355 193.528579 
L 302.566612 194.271911 
L 306.255868 201.278899 
L 309.945124 201.581594 
L 313.63438 203.720951 
L 317.323636 207.153916 
L 321.012893 206.734642 
L 324.702149 211.053444 
L 328.391405 213.014772 
L 332.080661 224.4605 
L 335.769917 221.003911 
L 339.459174 221.093875 
L 343.14843 220.608532 
L 346.837686 218.696455 
L 350.526942 214.12146 
L 354.216198 214.098165 
L 357.905455 215.297231 
L 361.594711 213.765234 
L 365.283967 212.478919 
L 368.973223 205.612132 
L 372.662479 205.877971 
L 376.351736 205.80871 
L 380.040992 201.364411 
L 383.730248 203.243008 
L 387.419504 212.211595 
L 391.10876 211.105545 
L 394.798017 209.79307 
L 398.487273 211.036482 
" style="fill:none;stroke:#800080;stroke-linecap:square;stroke-width:1.5;"/>
   </g>
   <g id="patch_3">
    <path d="M 57.6 307.584 
L 57.6 41.472 
" style="fill:none;stroke:#000000;stroke-linecap:square;stroke-linejoin:miter;stroke-width:0.8;"/>
   </g>
   <g id="patch_4">
    <path d="M 414.72 307.584 
L 414.72 41.472 
" style="fill:none;stroke:#000000;stroke-linecap:square;stroke-linejoin:miter;stroke-width:0.8;"/>
   </g>
   <g id="patch_5">
    <path d="M 57.6 307.584 
L 414.72 307.584 
" style="fill:none;stroke:#000000;stroke-linecap:square;stroke-linejoin:miter;stroke-width:0.8;"/>
   </g>
   <g id="patch_6">
    <path d="M 57.6 41.472 
L 414.72 41.472 
" style="fill:none;stroke:#000000;stroke-linecap:square;stroke-linejoin:miter;stroke-width:0.8;"/>
   </g>
   <g id="text_14">
    <!-- Verification for Theorem 6 -->
    <defs>
     <path d="M 28.609375 0 
L 0.78125 72.90625 
L 11.078125 72.90625 
L 34.1875 11.53125 
L 57.328125 72.90625 
L 67.578125 72.90625 
L 39.796875 0 
z
" id="DejaVuSans-56"/>
     <path d="M 48.78125 52.59375 
L 48.78125 44.1875 
Q 44.96875 46.296875 41.140625 47.34375 
Q 37.3125 48.390625 33.40625 48.390625 
Q 24.65625 48.390625 19.8125 42.84375 
Q 14.984375 37.3125 14.984375 27.296875 
Q 14.984375 17.28125 19.8125 11.734375 
Q 24.65625 6.203125 33.40625 6.203125 
Q 37.3125 6.203125 41.140625 7.25 
Q 44.96875 8.296875 48.78125 10.40625 
L 48.78125 2.09375 
Q 45.015625 0.34375 40.984375 -0.53125 
Q 36.96875 -1.421875 32.421875 -1.421875 
Q 20.0625 -1.421875 12.78125 6.34375 
Q 5.515625 14.109375 5.515625 27.296875 
Q 5.515625 40.671875 12.859375 48.328125 
Q 20.21875 56 33.015625 56 
Q 37.15625 56 41.109375 55.140625 
Q 45.0625 54.296875 48.78125 52.59375 
z
" id="DejaVuSans-63"/>
     <path d="M -0.296875 72.90625 
L 61.375 72.90625 
L 61.375 64.59375 
L 35.5 64.59375 
L 35.5 0 
L 25.59375 0 
L 25.59375 64.59375 
L -0.296875 64.59375 
z
" id="DejaVuSans-54"/>
     <path d="M 54.890625 33.015625 
L 54.890625 0 
L 45.90625 0 
L 45.90625 32.71875 
Q 45.90625 40.484375 42.875 44.328125 
Q 39.84375 48.1875 33.796875 48.1875 
Q 26.515625 48.1875 22.3125 43.546875 
Q 18.109375 38.921875 18.109375 30.90625 
L 18.109375 0 
L 9.078125 0 
L 9.078125 75.984375 
L 18.109375 75.984375 
L 18.109375 46.1875 
Q 21.34375 51.125 25.703125 53.5625 
Q 30.078125 56 35.796875 56 
Q 45.21875 56 50.046875 50.171875 
Q 54.890625 44.34375 54.890625 33.015625 
z
" id="DejaVuSans-68"/>
     <path d="M 33.015625 40.375 
Q 26.375 40.375 22.484375 35.828125 
Q 18.609375 31.296875 18.609375 23.390625 
Q 18.609375 15.53125 22.484375 10.953125 
Q 26.375 6.390625 33.015625 6.390625 
Q 39.65625 6.390625 43.53125 10.953125 
Q 47.40625 15.53125 47.40625 23.390625 
Q 47.40625 31.296875 43.53125 35.828125 
Q 39.65625 40.375 33.015625 40.375 
z
M 52.59375 71.296875 
L 52.59375 62.3125 
Q 48.875 64.0625 45.09375 64.984375 
Q 41.3125 65.921875 37.59375 65.921875 
Q 27.828125 65.921875 22.671875 59.328125 
Q 17.53125 52.734375 16.796875 39.40625 
Q 19.671875 43.65625 24.015625 45.921875 
Q 28.375 48.1875 33.59375 48.1875 
Q 44.578125 48.1875 50.953125 41.515625 
Q 57.328125 34.859375 57.328125 23.390625 
Q 57.328125 12.15625 50.6875 5.359375 
Q 44.046875 -1.421875 33.015625 -1.421875 
Q 20.359375 -1.421875 13.671875 8.265625 
Q 6.984375 17.96875 6.984375 36.375 
Q 6.984375 53.65625 15.1875 63.9375 
Q 23.390625 74.21875 37.203125 74.21875 
Q 40.921875 74.21875 44.703125 73.484375 
Q 48.484375 72.75 52.59375 71.296875 
z
" id="DejaVuSans-36"/>
    </defs>
    <g transform="translate(144.237969 35.472)scale(0.14 -0.14)">
     <use xlink:href="#DejaVuSans-56"/>
     <use x="68.298828" xlink:href="#DejaVuSans-65"/>
     <use x="129.822266" xlink:href="#DejaVuSans-72"/>
     <use x="170.935547" xlink:href="#DejaVuSans-69"/>
     <use x="198.71875" xlink:href="#DejaVuSans-66"/>
     <use x="233.923828" xlink:href="#DejaVuSans-69"/>
     <use x="261.707031" xlink:href="#DejaVuSans-63"/>
     <use x="316.6875" xlink:href="#DejaVuSans-61"/>
     <use x="377.966797" xlink:href="#DejaVuSans-74"/>
     <use x="417.175781" xlink:href="#DejaVuSans-69"/>
     <use x="444.958984" xlink:href="#DejaVuSans-6f"/>
     <use x="506.140625" xlink:href="#DejaVuSans-6e"/>
     <use x="569.519531" xlink:href="#DejaVuSans-20"/>
     <use x="601.306641" xlink:href="#DejaVuSans-66"/>
     <use x="636.511719" xlink:href="#DejaVuSans-6f"/>
     <use x="697.693359" xlink:href="#DejaVuSans-72"/>
     <use x="738.806641" xlink:href="#DejaVuSans-20"/>
     <use x="770.59375" xlink:href="#DejaVuSans-54"/>
     <use x="831.677734" xlink:href="#DejaVuSans-68"/>
     <use x="895.056641" xlink:href="#DejaVuSans-65"/>
     <use x="956.580078" xlink:href="#DejaVuSans-6f"/>
     <use x="1017.761719" xlink:href="#DejaVuSans-72"/>
     <use x="1058.84375" xlink:href="#DejaVuSans-65"/>
     <use x="1120.367188" xlink:href="#DejaVuSans-6d"/>
     <use x="1217.779297" xlink:href="#DejaVuSans-20"/>
     <use x="1249.566406" xlink:href="#DejaVuSans-36"/>
    </g>
   </g>
   <g id="legend_1">
    <g id="patch_7">
     <path d="M 326.72 136.772 
L 407.72 136.772 
Q 409.72 136.772 409.72 134.772 
L 409.72 48.472 
Q 409.72 46.472 407.72 46.472 
L 326.72 46.472 
Q 324.72 46.472 324.72 48.472 
L 324.72 134.772 
Q 324.72 136.772 326.72 136.772 
z
" style="fill:#ffffff;opacity:0.8;stroke:#cccccc;stroke-linejoin:miter;"/>
    </g>
    <g id="line2d_17">
     <path d="M 328.72 55.792313 
L 348.72 55.792313 
" style="fill:none;stroke:#0000ff;stroke-linecap:square;stroke-width:1.5;"/>
    </g>
    <g id="line2d_18"/>
    <g id="text_15">
     <!-- $I(x_t,\hat{x}_{t+1})$ -->
     <defs>
      <path d="M 16.890625 72.90625 
L 26.8125 72.90625 
L 12.59375 0 
L 2.6875 0 
z
" id="DejaVuSans-Oblique-49"/>
      <path d="M 31 75.875 
Q 24.46875 64.65625 21.28125 53.65625 
Q 18.109375 42.671875 18.109375 31.390625 
Q 18.109375 20.125 21.3125 9.0625 
Q 24.515625 -2 31 -13.1875 
L 23.1875 -13.1875 
Q 15.875 -1.703125 12.234375 9.375 
Q 8.59375 20.453125 8.59375 31.390625 
Q 8.59375 42.28125 12.203125 53.3125 
Q 15.828125 64.359375 23.1875 75.875 
z
" id="DejaVuSans-28"/>
      <path d="M 60.015625 54.6875 
L 34.90625 27.875 
L 50.296875 0 
L 39.984375 0 
L 28.421875 21.6875 
L 8.296875 0 
L -2.59375 0 
L 24.3125 28.8125 
L 10.015625 54.6875 
L 20.3125 54.6875 
L 30.8125 34.90625 
L 49.125 54.6875 
z
" id="DejaVuSans-Oblique-78"/>
      <path d="M 42.28125 54.6875 
L 40.921875 47.703125 
L 23 47.703125 
L 17.1875 18.015625 
Q 16.890625 16.359375 16.75 15.234375 
Q 16.609375 14.109375 16.609375 13.484375 
Q 16.609375 10.359375 18.484375 8.9375 
Q 20.359375 7.515625 24.515625 7.515625 
L 33.59375 7.515625 
L 32.078125 0 
L 23.484375 0 
Q 15.484375 0 11.546875 3.125 
Q 7.625 6.25 7.625 12.59375 
Q 7.625 13.71875 7.765625 15.0625 
Q 7.90625 16.40625 8.203125 18.015625 
L 14.015625 47.703125 
L 6.390625 47.703125 
L 7.8125 54.6875 
L 15.28125 54.6875 
L 18.3125 70.21875 
L 27.296875 70.21875 
L 24.3125 54.6875 
z
" id="DejaVuSans-Oblique-74"/>
      <path d="M 11.71875 12.40625 
L 22.015625 12.40625 
L 22.015625 4 
L 14.015625 -11.625 
L 7.71875 -11.625 
L 11.71875 4 
z
" id="DejaVuSans-2c"/>
      <path d="M -28.609375 79.984375 
L -21.390625 79.984375 
L -9.421875 61.625 
L -16.21875 61.625 
L -25 73.578125 
L -33.796875 61.625 
L -40.578125 61.625 
z
M -25 56 
z
" id="DejaVuSans-302"/>
      <path d="M 46 62.703125 
L 46 35.5 
L 73.1875 35.5 
L 73.1875 27.203125 
L 46 27.203125 
L 46 0 
L 37.796875 0 
L 37.796875 27.203125 
L 10.59375 27.203125 
L 10.59375 35.5 
L 37.796875 35.5 
L 37.796875 62.703125 
z
" id="DejaVuSans-2b"/>
      <path d="M 8.015625 75.875 
L 15.828125 75.875 
Q 23.140625 64.359375 26.78125 53.3125 
Q 30.421875 42.28125 30.421875 31.390625 
Q 30.421875 20.453125 26.78125 9.375 
Q 23.140625 -1.703125 15.828125 -13.1875 
L 8.015625 -13.1875 
Q 14.5 -2 17.703125 9.0625 
Q 20.90625 20.125 20.90625 31.390625 
Q 20.90625 42.671875 17.703125 53.65625 
Q 14.5 64.65625 8.015625 75.875 
z
" id="DejaVuSans-29"/>
     </defs>
     <g transform="translate(356.72 59.292313)scale(0.1 -0.1)">
      <use transform="translate(0 0.828125)" xlink:href="#DejaVuSans-Oblique-49"/>
      <use transform="translate(29.492188 0.828125)" xlink:href="#DejaVuSans-28"/>
      <use transform="translate(68.505859 0.828125)" xlink:href="#DejaVuSans-Oblique-78"/>
      <use transform="translate(127.685547 -15.578125)scale(0.7)" xlink:href="#DejaVuSans-Oblique-74"/>
      <use transform="translate(157.866211 0.828125)" xlink:href="#DejaVuSans-2c"/>
      <use transform="translate(271.508789 12.015625)" xlink:href="#DejaVuSans-302"/>
      <use transform="translate(209.135742 0.828125)" xlink:href="#DejaVuSans-Oblique-78"/>
      <use transform="translate(269.272461 -15.578125)scale(0.7)" xlink:href="#DejaVuSans-Oblique-74"/>
      <use transform="translate(310.356445 -15.578125)scale(0.7)" xlink:href="#DejaVuSans-2b"/>
      <use transform="translate(382.646484 -15.578125)scale(0.7)" xlink:href="#DejaVuSans-31"/>
      <use transform="translate(429.916992 0.828125)" xlink:href="#DejaVuSans-29"/>
     </g>
    </g>
    <g id="line2d_19">
     <path d="M 328.72 72.872 
L 348.72 72.872 
" style="fill:none;stroke:#ff8c00;stroke-linecap:square;stroke-width:1.5;"/>
    </g>
    <g id="line2d_20"/>
    <g id="text_16">
     <!-- $I(x_t,y_{t}^{q=1})$ -->
     <defs>
      <path d="M 24.8125 -5.078125 
Q 18.5625 -15.578125 14.625 -18.1875 
Q 10.6875 -20.796875 4.59375 -20.796875 
L -2.484375 -20.796875 
L -0.984375 -13.28125 
L 4.203125 -13.28125 
Q 7.953125 -13.28125 10.59375 -11.234375 
Q 13.234375 -9.1875 16.5 -3.21875 
L 19.28125 2 
L 7.171875 54.6875 
L 16.703125 54.6875 
L 25.78125 12.796875 
L 50.875 54.6875 
L 60.296875 54.6875 
z
" id="DejaVuSans-Oblique-79"/>
      <path d="M 41.703125 8.203125 
Q 38.09375 3.46875 33.171875 1.015625 
Q 28.265625 -1.421875 22.3125 -1.421875 
Q 14.015625 -1.421875 9.296875 4.171875 
Q 4.59375 9.765625 4.59375 19.578125 
Q 4.59375 27.484375 7.5 34.859375 
Q 10.40625 42.234375 15.828125 48.09375 
Q 19.34375 51.90625 23.90625 53.953125 
Q 28.46875 56 33.5 56 
Q 39.546875 56 43.453125 53.609375 
Q 47.359375 51.21875 49.125 46.390625 
L 50.6875 54.59375 
L 59.71875 54.59375 
L 45.125 -20.609375 
L 36.078125 -20.609375 
z
M 13.921875 20.90625 
Q 13.921875 13.671875 16.9375 9.890625 
Q 19.96875 6.109375 25.6875 6.109375 
Q 34.1875 6.109375 40.1875 14.234375 
Q 46.1875 22.359375 46.1875 33.984375 
Q 46.1875 41.015625 43.078125 44.75 
Q 39.984375 48.484375 34.1875 48.484375 
Q 29.9375 48.484375 26.3125 46.5 
Q 22.703125 44.53125 20.015625 40.71875 
Q 17.1875 36.71875 15.546875 31.34375 
Q 13.921875 25.984375 13.921875 20.90625 
z
" id="DejaVuSans-Oblique-71"/>
      <path d="M 10.59375 45.40625 
L 73.1875 45.40625 
L 73.1875 37.203125 
L 10.59375 37.203125 
z
M 10.59375 25.484375 
L 73.1875 25.484375 
L 73.1875 17.1875 
L 10.59375 17.1875 
z
" id="DejaVuSans-3d"/>
     </defs>
     <g transform="translate(356.72 76.372)scale(0.1 -0.1)">
      <use transform="translate(0 0.229688)" xlink:href="#DejaVuSans-Oblique-49"/>
      <use transform="translate(29.492188 0.229688)" xlink:href="#DejaVuSans-28"/>
      <use transform="translate(68.505859 0.229688)" xlink:href="#DejaVuSans-Oblique-78"/>
      <use transform="translate(127.685547 -16.176562)scale(0.7)" xlink:href="#DejaVuSans-Oblique-74"/>
      <use transform="translate(157.866211 0.229688)" xlink:href="#DejaVuSans-2c"/>
      <use transform="translate(209.135742 0.229688)" xlink:href="#DejaVuSans-Oblique-79"/>
      <use transform="translate(272.781576 48.965625)scale(0.7)" xlink:href="#DejaVuSans-Oblique-71"/>
      <use transform="translate(330.852865 48.965625)scale(0.7)" xlink:href="#DejaVuSans-3d"/>
      <use transform="translate(403.142904 48.965625)scale(0.7)" xlink:href="#DejaVuSans-31"/>
      <use transform="translate(268.31543 -27.114062)scale(0.7)" xlink:href="#DejaVuSans-Oblique-74"/>
      <use transform="translate(450.413411 0.229688)" xlink:href="#DejaVuSans-29"/>
     </g>
    </g>
    <g id="line2d_21">
     <path d="M 328.72 90.772 
L 348.72 90.772 
" style="fill:none;stroke:#008000;stroke-linecap:square;stroke-width:1.5;"/>
    </g>
    <g id="line2d_22"/>
    <g id="text_17">
     <!-- $I(x_t,y_{t}^{q=2})$ -->
     <g transform="translate(356.72 94.272)scale(0.1 -0.1)">
      <use transform="translate(0 0.310938)" xlink:href="#DejaVuSans-Oblique-49"/>
      <use transform="translate(29.492188 0.310938)" xlink:href="#DejaVuSans-28"/>
      <use transform="translate(68.505859 0.310938)" xlink:href="#DejaVuSans-Oblique-78"/>
      <use transform="translate(127.685547 -16.095312)scale(0.7)" xlink:href="#DejaVuSans-Oblique-74"/>
      <use transform="translate(157.866211 0.310938)" xlink:href="#DejaVuSans-2c"/>
      <use transform="translate(209.135742 0.310938)" xlink:href="#DejaVuSans-Oblique-79"/>
      <use transform="translate(272.781576 49.046875)scale(0.7)" xlink:href="#DejaVuSans-Oblique-71"/>
      <use transform="translate(330.852865 49.046875)scale(0.7)" xlink:href="#DejaVuSans-3d"/>
      <use transform="translate(403.142904 49.046875)scale(0.7)" xlink:href="#DejaVuSans-32"/>
      <use transform="translate(268.31543 -27.032812)scale(0.7)" xlink:href="#DejaVuSans-Oblique-74"/>
      <use transform="translate(450.413411 0.310938)" xlink:href="#DejaVuSans-29"/>
     </g>
    </g>
    <g id="line2d_23">
     <path d="M 328.72 108.672 
L 348.72 108.672 
" style="fill:none;stroke:#ff0000;stroke-linecap:square;stroke-width:1.5;"/>
    </g>
    <g id="line2d_24"/>
    <g id="text_18">
     <!-- $I(x_t,y_{t}^{q=3})$ -->
     <g transform="translate(356.72 112.172)scale(0.1 -0.1)">
      <use transform="translate(0 0.310938)" xlink:href="#DejaVuSans-Oblique-49"/>
      <use transform="translate(29.492188 0.310938)" xlink:href="#DejaVuSans-28"/>
      <use transform="translate(68.505859 0.310938)" xlink:href="#DejaVuSans-Oblique-78"/>
      <use transform="translate(127.685547 -16.095312)scale(0.7)" xlink:href="#DejaVuSans-Oblique-74"/>
      <use transform="translate(157.866211 0.310938)" xlink:href="#DejaVuSans-2c"/>
      <use transform="translate(209.135742 0.310938)" xlink:href="#DejaVuSans-Oblique-79"/>
      <use transform="translate(272.781576 49.046875)scale(0.7)" xlink:href="#DejaVuSans-Oblique-71"/>
      <use transform="translate(330.852865 49.046875)scale(0.7)" xlink:href="#DejaVuSans-3d"/>
      <use transform="translate(403.142904 49.046875)scale(0.7)" xlink:href="#DejaVuSans-33"/>
      <use transform="translate(268.31543 -27.032812)scale(0.7)" xlink:href="#DejaVuSans-Oblique-74"/>
      <use transform="translate(450.413411 0.310938)" xlink:href="#DejaVuSans-29"/>
     </g>
    </g>
    <g id="line2d_25">
     <path d="M 328.72 126.472 
L 348.72 126.472 
" style="fill:none;stroke:#800080;stroke-linecap:square;stroke-width:1.5;"/>
    </g>
    <g id="line2d_26"/>
    <g id="text_19">
     <!-- $I(x_t,y_{t}^{q=4})$ -->
     <g transform="translate(356.72 129.972)scale(0.1 -0.1)">
      <use transform="translate(0 0.229688)" xlink:href="#DejaVuSans-Oblique-49"/>
      <use transform="translate(29.492188 0.229688)" xlink:href="#DejaVuSans-28"/>
      <use transform="translate(68.505859 0.229688)" xlink:href="#DejaVuSans-Oblique-78"/>
      <use transform="translate(127.685547 -16.176562)scale(0.7)" xlink:href="#DejaVuSans-Oblique-74"/>
      <use transform="translate(157.866211 0.229688)" xlink:href="#DejaVuSans-2c"/>
      <use transform="translate(209.135742 0.229688)" xlink:href="#DejaVuSans-Oblique-79"/>
      <use transform="translate(272.781576 48.965625)scale(0.7)" xlink:href="#DejaVuSans-Oblique-71"/>
      <use transform="translate(330.852865 48.965625)scale(0.7)" xlink:href="#DejaVuSans-3d"/>
      <use transform="translate(403.142904 48.965625)scale(0.7)" xlink:href="#DejaVuSans-34"/>
      <use transform="translate(268.31543 -27.114062)scale(0.7)" xlink:href="#DejaVuSans-Oblique-74"/>
      <use transform="translate(450.413411 0.229688)" xlink:href="#DejaVuSans-29"/>
     </g>
    </g>
   </g>
  </g>
 </g>
 <defs>
  <clipPath id="p973300e142">
   <rect height="266.112" width="357.12" x="57.6" y="41.472"/>
  </clipPath>
 </defs>
</svg>
