<?xml version="1.0" encoding="utf-8" standalone="no"?>
<!DOCTYPE svg PUBLIC "-//W3C//DTD SVG 1.1//EN"
  "http://www.w3.org/Graphics/SVG/1.1/DTD/svg11.dtd">
<!-- Created with matplotlib (http://matplotlib.org/) -->
<svg height="345.6pt" version="1.1" viewBox="0 0 460.8 345.6" width="460.8pt" xmlns="http://www.w3.org/2000/svg" xmlns:xlink="http://www.w3.org/1999/xlink">
 <defs>
  <style type="text/css">
*{stroke-linecap:butt;stroke-linejoin:round;}
  </style>
 </defs>
 <g id="figure_1">
  <g id="patch_1">
   <path d="M 0 345.6 
L 460.8 345.6 
L 460.8 0 
L 0 0 
z
" style="fill:#ffffff;"/>
  </g>
  <g id="axes_1">
   <g id="patch_2">
    <path d="M 57.6 307.584 
L 414.72 307.584 
L 414.72 41.472 
L 57.6 41.472 
z
" style="fill:#ffffff;"/>
   </g>
   <g id="matplotlib.axis_1">
    <g id="xtick_1">
     <g id="line2d_1">
      <defs>
       <path d="M 0 0 
L 0 3.5 
" id="maa5b2b03f5" style="stroke:#000000;stroke-width:0.8;"/>
      </defs>
      <g>
       <use style="stroke:#000000;stroke-width:0.8;" x="59.562198" xlink:href="#maa5b2b03f5" y="307.584"/>
      </g>
     </g>
     <g id="text_1">
      <!-- 0 -->
      <defs>
       <path d="M 31.78125 66.40625 
Q 24.171875 66.40625 20.328125 58.90625 
Q 16.5 51.421875 16.5 36.375 
Q 16.5 21.390625 20.328125 13.890625 
Q 24.171875 6.390625 31.78125 6.390625 
Q 39.453125 6.390625 43.28125 13.890625 
Q 47.125 21.390625 47.125 36.375 
Q 47.125 51.421875 43.28125 58.90625 
Q 39.453125 66.40625 31.78125 66.40625 
z
M 31.78125 74.21875 
Q 44.046875 74.21875 50.515625 64.515625 
Q 56.984375 54.828125 56.984375 36.375 
Q 56.984375 17.96875 50.515625 8.265625 
Q 44.046875 -1.421875 31.78125 -1.421875 
Q 19.53125 -1.421875 13.0625 8.265625 
Q 6.59375 17.96875 6.59375 36.375 
Q 6.59375 54.828125 13.0625 64.515625 
Q 19.53125 74.21875 31.78125 74.21875 
z
" id="DejaVuSans-30"/>
      </defs>
      <g transform="translate(56.380948 322.182437)scale(0.1 -0.1)">
       <use xlink:href="#DejaVuSans-30"/>
      </g>
     </g>
    </g>
    <g id="xtick_2">
     <g id="line2d_2">
      <g>
       <use style="stroke:#000000;stroke-width:0.8;" x="130.914845" xlink:href="#maa5b2b03f5" y="307.584"/>
      </g>
     </g>
     <g id="text_2">
      <!-- 10000 -->
      <defs>
       <path d="M 12.40625 8.296875 
L 28.515625 8.296875 
L 28.515625 63.921875 
L 10.984375 60.40625 
L 10.984375 69.390625 
L 28.421875 72.90625 
L 38.28125 72.90625 
L 38.28125 8.296875 
L 54.390625 8.296875 
L 54.390625 0 
L 12.40625 0 
z
" id="DejaVuSans-31"/>
      </defs>
      <g transform="translate(115.008595 322.182437)scale(0.1 -0.1)">
       <use xlink:href="#DejaVuSans-31"/>
       <use x="63.623047" xlink:href="#DejaVuSans-30"/>
       <use x="127.246094" xlink:href="#DejaVuSans-30"/>
       <use x="190.869141" xlink:href="#DejaVuSans-30"/>
       <use x="254.492188" xlink:href="#DejaVuSans-30"/>
      </g>
     </g>
    </g>
    <g id="xtick_3">
     <g id="line2d_3">
      <g>
       <use style="stroke:#000000;stroke-width:0.8;" x="202.267493" xlink:href="#maa5b2b03f5" y="307.584"/>
      </g>
     </g>
     <g id="text_3">
      <!-- 20000 -->
      <defs>
       <path d="M 19.1875 8.296875 
L 53.609375 8.296875 
L 53.609375 0 
L 7.328125 0 
L 7.328125 8.296875 
Q 12.9375 14.109375 22.625 23.890625 
Q 32.328125 33.6875 34.8125 36.53125 
Q 39.546875 41.84375 41.421875 45.53125 
Q 43.3125 49.21875 43.3125 52.78125 
Q 43.3125 58.59375 39.234375 62.25 
Q 35.15625 65.921875 28.609375 65.921875 
Q 23.96875 65.921875 18.8125 64.3125 
Q 13.671875 62.703125 7.8125 59.421875 
L 7.8125 69.390625 
Q 13.765625 71.78125 18.9375 73 
Q 24.125 74.21875 28.421875 74.21875 
Q 39.75 74.21875 46.484375 68.546875 
Q 53.21875 62.890625 53.21875 53.421875 
Q 53.21875 48.921875 51.53125 44.890625 
Q 49.859375 40.875 45.40625 35.40625 
Q 44.1875 33.984375 37.640625 27.21875 
Q 31.109375 20.453125 19.1875 8.296875 
z
" id="DejaVuSans-32"/>
      </defs>
      <g transform="translate(186.361243 322.182437)scale(0.1 -0.1)">
       <use xlink:href="#DejaVuSans-32"/>
       <use x="63.623047" xlink:href="#DejaVuSans-30"/>
       <use x="127.246094" xlink:href="#DejaVuSans-30"/>
       <use x="190.869141" xlink:href="#DejaVuSans-30"/>
       <use x="254.492188" xlink:href="#DejaVuSans-30"/>
      </g>
     </g>
    </g>
    <g id="xtick_4">
     <g id="line2d_4">
      <g>
       <use style="stroke:#000000;stroke-width:0.8;" x="273.62014" xlink:href="#maa5b2b03f5" y="307.584"/>
      </g>
     </g>
     <g id="text_4">
      <!-- 30000 -->
      <defs>
       <path d="M 40.578125 39.3125 
Q 47.65625 37.796875 51.625 33 
Q 55.609375 28.21875 55.609375 21.1875 
Q 55.609375 10.40625 48.1875 4.484375 
Q 40.765625 -1.421875 27.09375 -1.421875 
Q 22.515625 -1.421875 17.65625 -0.515625 
Q 12.796875 0.390625 7.625 2.203125 
L 7.625 11.71875 
Q 11.71875 9.328125 16.59375 8.109375 
Q 21.484375 6.890625 26.8125 6.890625 
Q 36.078125 6.890625 40.9375 10.546875 
Q 45.796875 14.203125 45.796875 21.1875 
Q 45.796875 27.640625 41.28125 31.265625 
Q 36.765625 34.90625 28.71875 34.90625 
L 20.21875 34.90625 
L 20.21875 43.015625 
L 29.109375 43.015625 
Q 36.375 43.015625 40.234375 45.921875 
Q 44.09375 48.828125 44.09375 54.296875 
Q 44.09375 59.90625 40.109375 62.90625 
Q 36.140625 65.921875 28.71875 65.921875 
Q 24.65625 65.921875 20.015625 65.03125 
Q 15.375 64.15625 9.8125 62.3125 
L 9.8125 71.09375 
Q 15.4375 72.65625 20.34375 73.4375 
Q 25.25 74.21875 29.59375 74.21875 
Q 40.828125 74.21875 47.359375 69.109375 
Q 53.90625 64.015625 53.90625 55.328125 
Q 53.90625 49.265625 50.4375 45.09375 
Q 46.96875 40.921875 40.578125 39.3125 
z
" id="DejaVuSans-33"/>
      </defs>
      <g transform="translate(257.71389 322.182437)scale(0.1 -0.1)">
       <use xlink:href="#DejaVuSans-33"/>
       <use x="63.623047" xlink:href="#DejaVuSans-30"/>
       <use x="127.246094" xlink:href="#DejaVuSans-30"/>
       <use x="190.869141" xlink:href="#DejaVuSans-30"/>
       <use x="254.492188" xlink:href="#DejaVuSans-30"/>
      </g>
     </g>
    </g>
    <g id="xtick_5">
     <g id="line2d_5">
      <g>
       <use style="stroke:#000000;stroke-width:0.8;" x="344.972787" xlink:href="#maa5b2b03f5" y="307.584"/>
      </g>
     </g>
     <g id="text_5">
      <!-- 40000 -->
      <defs>
       <path d="M 37.796875 64.3125 
L 12.890625 25.390625 
L 37.796875 25.390625 
z
M 35.203125 72.90625 
L 47.609375 72.90625 
L 47.609375 25.390625 
L 58.015625 25.390625 
L 58.015625 17.1875 
L 47.609375 17.1875 
L 47.609375 0 
L 37.796875 0 
L 37.796875 17.1875 
L 4.890625 17.1875 
L 4.890625 26.703125 
z
" id="DejaVuSans-34"/>
      </defs>
      <g transform="translate(329.066537 322.182437)scale(0.1 -0.1)">
       <use xlink:href="#DejaVuSans-34"/>
       <use x="63.623047" xlink:href="#DejaVuSans-30"/>
       <use x="127.246094" xlink:href="#DejaVuSans-30"/>
       <use x="190.869141" xlink:href="#DejaVuSans-30"/>
       <use x="254.492188" xlink:href="#DejaVuSans-30"/>
      </g>
     </g>
    </g>
    <g id="text_6">
     <!-- Iter -->
     <defs>
      <path d="M 9.8125 72.90625 
L 19.671875 72.90625 
L 19.671875 0 
L 9.8125 0 
z
" id="DejaVuSans-49"/>
      <path d="M 18.3125 70.21875 
L 18.3125 54.6875 
L 36.8125 54.6875 
L 36.8125 47.703125 
L 18.3125 47.703125 
L 18.3125 18.015625 
Q 18.3125 11.328125 20.140625 9.421875 
Q 21.96875 7.515625 27.59375 7.515625 
L 36.8125 7.515625 
L 36.8125 0 
L 27.59375 0 
Q 17.1875 0 13.234375 3.875 
Q 9.28125 7.765625 9.28125 18.015625 
L 9.28125 47.703125 
L 2.6875 47.703125 
L 2.6875 54.6875 
L 9.28125 54.6875 
L 9.28125 70.21875 
z
" id="DejaVuSans-74"/>
      <path d="M 56.203125 29.59375 
L 56.203125 25.203125 
L 14.890625 25.203125 
Q 15.484375 15.921875 20.484375 11.0625 
Q 25.484375 6.203125 34.421875 6.203125 
Q 39.59375 6.203125 44.453125 7.46875 
Q 49.3125 8.734375 54.109375 11.28125 
L 54.109375 2.78125 
Q 49.265625 0.734375 44.1875 -0.34375 
Q 39.109375 -1.421875 33.890625 -1.421875 
Q 20.796875 -1.421875 13.15625 6.1875 
Q 5.515625 13.8125 5.515625 26.8125 
Q 5.515625 40.234375 12.765625 48.109375 
Q 20.015625 56 32.328125 56 
Q 43.359375 56 49.78125 48.890625 
Q 56.203125 41.796875 56.203125 29.59375 
z
M 47.21875 32.234375 
Q 47.125 39.59375 43.09375 43.984375 
Q 39.0625 48.390625 32.421875 48.390625 
Q 24.90625 48.390625 20.390625 44.140625 
Q 15.875 39.890625 15.1875 32.171875 
z
" id="DejaVuSans-65"/>
      <path d="M 41.109375 46.296875 
Q 39.59375 47.171875 37.8125 47.578125 
Q 36.03125 48 33.890625 48 
Q 26.265625 48 22.1875 43.046875 
Q 18.109375 38.09375 18.109375 28.8125 
L 18.109375 0 
L 9.078125 0 
L 9.078125 54.6875 
L 18.109375 54.6875 
L 18.109375 46.1875 
Q 20.953125 51.171875 25.484375 53.578125 
Q 30.03125 56 36.53125 56 
Q 37.453125 56 38.578125 55.875 
Q 39.703125 55.765625 41.0625 55.515625 
z
" id="DejaVuSans-72"/>
     </defs>
     <g transform="translate(225.022656 338.140094)scale(0.13 -0.13)">
      <use xlink:href="#DejaVuSans-49"/>
      <use x="29.492188" xlink:href="#DejaVuSans-74"/>
      <use x="68.701172" xlink:href="#DejaVuSans-65"/>
      <use x="130.224609" xlink:href="#DejaVuSans-72"/>
     </g>
    </g>
   </g>
   <g id="matplotlib.axis_2">
    <g id="ytick_1">
     <g id="line2d_6">
      <defs>
       <path d="M 0 0 
L -3.5 0 
" id="m715dbcde51" style="stroke:#000000;stroke-width:0.8;"/>
      </defs>
      <g>
       <use style="stroke:#000000;stroke-width:0.8;" x="57.6" xlink:href="#m715dbcde51" y="307.584"/>
      </g>
     </g>
     <g id="text_7">
      <!-- 0.0 -->
      <defs>
       <path d="M 10.6875 12.40625 
L 21 12.40625 
L 21 0 
L 10.6875 0 
z
" id="DejaVuSans-2e"/>
      </defs>
      <g transform="translate(34.696875 311.383219)scale(0.1 -0.1)">
       <use xlink:href="#DejaVuSans-30"/>
       <use x="63.623047" xlink:href="#DejaVuSans-2e"/>
       <use x="95.410156" xlink:href="#DejaVuSans-30"/>
      </g>
     </g>
    </g>
    <g id="ytick_2">
     <g id="line2d_7">
      <g>
       <use style="stroke:#000000;stroke-width:0.8;" x="57.6" xlink:href="#m715dbcde51" y="263.232"/>
      </g>
     </g>
     <g id="text_8">
      <!-- 0.5 -->
      <defs>
       <path d="M 10.796875 72.90625 
L 49.515625 72.90625 
L 49.515625 64.59375 
L 19.828125 64.59375 
L 19.828125 46.734375 
Q 21.96875 47.46875 24.109375 47.828125 
Q 26.265625 48.1875 28.421875 48.1875 
Q 40.625 48.1875 47.75 41.5 
Q 54.890625 34.8125 54.890625 23.390625 
Q 54.890625 11.625 47.5625 5.09375 
Q 40.234375 -1.421875 26.90625 -1.421875 
Q 22.3125 -1.421875 17.546875 -0.640625 
Q 12.796875 0.140625 7.71875 1.703125 
L 7.71875 11.625 
Q 12.109375 9.234375 16.796875 8.0625 
Q 21.484375 6.890625 26.703125 6.890625 
Q 35.15625 6.890625 40.078125 11.328125 
Q 45.015625 15.765625 45.015625 23.390625 
Q 45.015625 31 40.078125 35.4375 
Q 35.15625 39.890625 26.703125 39.890625 
Q 22.75 39.890625 18.8125 39.015625 
Q 14.890625 38.140625 10.796875 36.28125 
z
" id="DejaVuSans-35"/>
      </defs>
      <g transform="translate(34.696875 267.031219)scale(0.1 -0.1)">
       <use xlink:href="#DejaVuSans-30"/>
       <use x="63.623047" xlink:href="#DejaVuSans-2e"/>
       <use x="95.410156" xlink:href="#DejaVuSans-35"/>
      </g>
     </g>
    </g>
    <g id="ytick_3">
     <g id="line2d_8">
      <g>
       <use style="stroke:#000000;stroke-width:0.8;" x="57.6" xlink:href="#m715dbcde51" y="218.88"/>
      </g>
     </g>
     <g id="text_9">
      <!-- 1.0 -->
      <g transform="translate(34.696875 222.679219)scale(0.1 -0.1)">
       <use xlink:href="#DejaVuSans-31"/>
       <use x="63.623047" xlink:href="#DejaVuSans-2e"/>
       <use x="95.410156" xlink:href="#DejaVuSans-30"/>
      </g>
     </g>
    </g>
    <g id="ytick_4">
     <g id="line2d_9">
      <g>
       <use style="stroke:#000000;stroke-width:0.8;" x="57.6" xlink:href="#m715dbcde51" y="174.528"/>
      </g>
     </g>
     <g id="text_10">
      <!-- 1.5 -->
      <g transform="translate(34.696875 178.327219)scale(0.1 -0.1)">
       <use xlink:href="#DejaVuSans-31"/>
       <use x="63.623047" xlink:href="#DejaVuSans-2e"/>
       <use x="95.410156" xlink:href="#DejaVuSans-35"/>
      </g>
     </g>
    </g>
    <g id="ytick_5">
     <g id="line2d_10">
      <g>
       <use style="stroke:#000000;stroke-width:0.8;" x="57.6" xlink:href="#m715dbcde51" y="130.176"/>
      </g>
     </g>
     <g id="text_11">
      <!-- 2.0 -->
      <g transform="translate(34.696875 133.975219)scale(0.1 -0.1)">
       <use xlink:href="#DejaVuSans-32"/>
       <use x="63.623047" xlink:href="#DejaVuSans-2e"/>
       <use x="95.410156" xlink:href="#DejaVuSans-30"/>
      </g>
     </g>
    </g>
    <g id="ytick_6">
     <g id="line2d_11">
      <g>
       <use style="stroke:#000000;stroke-width:0.8;" x="57.6" xlink:href="#m715dbcde51" y="85.824"/>
      </g>
     </g>
     <g id="text_12">
      <!-- 2.5 -->
      <g transform="translate(34.696875 89.623219)scale(0.1 -0.1)">
       <use xlink:href="#DejaVuSans-32"/>
       <use x="63.623047" xlink:href="#DejaVuSans-2e"/>
       <use x="95.410156" xlink:href="#DejaVuSans-35"/>
      </g>
     </g>
    </g>
    <g id="ytick_7">
     <g id="line2d_12">
      <g>
       <use style="stroke:#000000;stroke-width:0.8;" x="57.6" xlink:href="#m715dbcde51" y="41.472"/>
      </g>
     </g>
     <g id="text_13">
      <!-- 3.0 -->
      <g transform="translate(34.696875 45.271219)scale(0.1 -0.1)">
       <use xlink:href="#DejaVuSans-33"/>
       <use x="63.623047" xlink:href="#DejaVuSans-2e"/>
       <use x="95.410156" xlink:href="#DejaVuSans-30"/>
      </g>
     </g>
    </g>
    <g id="text_14">
     <!-- Mutual Information Scale(q)=2 -->
     <defs>
      <path d="M 9.8125 72.90625 
L 24.515625 72.90625 
L 43.109375 23.296875 
L 61.8125 72.90625 
L 76.515625 72.90625 
L 76.515625 0 
L 66.890625 0 
L 66.890625 64.015625 
L 48.09375 14.015625 
L 38.1875 14.015625 
L 19.390625 64.015625 
L 19.390625 0 
L 9.8125 0 
z
" id="DejaVuSans-4d"/>
      <path d="M 8.5 21.578125 
L 8.5 54.6875 
L 17.484375 54.6875 
L 17.484375 21.921875 
Q 17.484375 14.15625 20.5 10.265625 
Q 23.53125 6.390625 29.59375 6.390625 
Q 36.859375 6.390625 41.078125 11.03125 
Q 45.3125 15.671875 45.3125 23.6875 
L 45.3125 54.6875 
L 54.296875 54.6875 
L 54.296875 0 
L 45.3125 0 
L 45.3125 8.40625 
Q 42.046875 3.421875 37.71875 1 
Q 33.40625 -1.421875 27.6875 -1.421875 
Q 18.265625 -1.421875 13.375 4.4375 
Q 8.5 10.296875 8.5 21.578125 
z
M 31.109375 56 
z
" id="DejaVuSans-75"/>
      <path d="M 34.28125 27.484375 
Q 23.390625 27.484375 19.1875 25 
Q 14.984375 22.515625 14.984375 16.5 
Q 14.984375 11.71875 18.140625 8.90625 
Q 21.296875 6.109375 26.703125 6.109375 
Q 34.1875 6.109375 38.703125 11.40625 
Q 43.21875 16.703125 43.21875 25.484375 
L 43.21875 27.484375 
z
M 52.203125 31.203125 
L 52.203125 0 
L 43.21875 0 
L 43.21875 8.296875 
Q 40.140625 3.328125 35.546875 0.953125 
Q 30.953125 -1.421875 24.3125 -1.421875 
Q 15.921875 -1.421875 10.953125 3.296875 
Q 6 8.015625 6 15.921875 
Q 6 25.140625 12.171875 29.828125 
Q 18.359375 34.515625 30.609375 34.515625 
L 43.21875 34.515625 
L 43.21875 35.40625 
Q 43.21875 41.609375 39.140625 45 
Q 35.0625 48.390625 27.6875 48.390625 
Q 23 48.390625 18.546875 47.265625 
Q 14.109375 46.140625 10.015625 43.890625 
L 10.015625 52.203125 
Q 14.9375 54.109375 19.578125 55.046875 
Q 24.21875 56 28.609375 56 
Q 40.484375 56 46.34375 49.84375 
Q 52.203125 43.703125 52.203125 31.203125 
z
" id="DejaVuSans-61"/>
      <path d="M 9.421875 75.984375 
L 18.40625 75.984375 
L 18.40625 0 
L 9.421875 0 
z
" id="DejaVuSans-6c"/>
      <path id="DejaVuSans-20"/>
      <path d="M 54.890625 33.015625 
L 54.890625 0 
L 45.90625 0 
L 45.90625 32.71875 
Q 45.90625 40.484375 42.875 44.328125 
Q 39.84375 48.1875 33.796875 48.1875 
Q 26.515625 48.1875 22.3125 43.546875 
Q 18.109375 38.921875 18.109375 30.90625 
L 18.109375 0 
L 9.078125 0 
L 9.078125 54.6875 
L 18.109375 54.6875 
L 18.109375 46.1875 
Q 21.34375 51.125 25.703125 53.5625 
Q 30.078125 56 35.796875 56 
Q 45.21875 56 50.046875 50.171875 
Q 54.890625 44.34375 54.890625 33.015625 
z
" id="DejaVuSans-6e"/>
      <path d="M 37.109375 75.984375 
L 37.109375 68.5 
L 28.515625 68.5 
Q 23.6875 68.5 21.796875 66.546875 
Q 19.921875 64.59375 19.921875 59.515625 
L 19.921875 54.6875 
L 34.71875 54.6875 
L 34.71875 47.703125 
L 19.921875 47.703125 
L 19.921875 0 
L 10.890625 0 
L 10.890625 47.703125 
L 2.296875 47.703125 
L 2.296875 54.6875 
L 10.890625 54.6875 
L 10.890625 58.5 
Q 10.890625 67.625 15.140625 71.796875 
Q 19.390625 75.984375 28.609375 75.984375 
z
" id="DejaVuSans-66"/>
      <path d="M 30.609375 48.390625 
Q 23.390625 48.390625 19.1875 42.75 
Q 14.984375 37.109375 14.984375 27.296875 
Q 14.984375 17.484375 19.15625 11.84375 
Q 23.34375 6.203125 30.609375 6.203125 
Q 37.796875 6.203125 41.984375 11.859375 
Q 46.1875 17.53125 46.1875 27.296875 
Q 46.1875 37.015625 41.984375 42.703125 
Q 37.796875 48.390625 30.609375 48.390625 
z
M 30.609375 56 
Q 42.328125 56 49.015625 48.375 
Q 55.71875 40.765625 55.71875 27.296875 
Q 55.71875 13.875 49.015625 6.21875 
Q 42.328125 -1.421875 30.609375 -1.421875 
Q 18.84375 -1.421875 12.171875 6.21875 
Q 5.515625 13.875 5.515625 27.296875 
Q 5.515625 40.765625 12.171875 48.375 
Q 18.84375 56 30.609375 56 
z
" id="DejaVuSans-6f"/>
      <path d="M 52 44.1875 
Q 55.375 50.25 60.0625 53.125 
Q 64.75 56 71.09375 56 
Q 79.640625 56 84.28125 50.015625 
Q 88.921875 44.046875 88.921875 33.015625 
L 88.921875 0 
L 79.890625 0 
L 79.890625 32.71875 
Q 79.890625 40.578125 77.09375 44.375 
Q 74.3125 48.1875 68.609375 48.1875 
Q 61.625 48.1875 57.5625 43.546875 
Q 53.515625 38.921875 53.515625 30.90625 
L 53.515625 0 
L 44.484375 0 
L 44.484375 32.71875 
Q 44.484375 40.625 41.703125 44.40625 
Q 38.921875 48.1875 33.109375 48.1875 
Q 26.21875 48.1875 22.15625 43.53125 
Q 18.109375 38.875 18.109375 30.90625 
L 18.109375 0 
L 9.078125 0 
L 9.078125 54.6875 
L 18.109375 54.6875 
L 18.109375 46.1875 
Q 21.1875 51.21875 25.484375 53.609375 
Q 29.78125 56 35.6875 56 
Q 41.65625 56 45.828125 52.96875 
Q 50 49.953125 52 44.1875 
z
" id="DejaVuSans-6d"/>
      <path d="M 9.421875 54.6875 
L 18.40625 54.6875 
L 18.40625 0 
L 9.421875 0 
z
M 9.421875 75.984375 
L 18.40625 75.984375 
L 18.40625 64.59375 
L 9.421875 64.59375 
z
" id="DejaVuSans-69"/>
      <path d="M 53.515625 70.515625 
L 53.515625 60.890625 
Q 47.90625 63.578125 42.921875 64.890625 
Q 37.9375 66.21875 33.296875 66.21875 
Q 25.25 66.21875 20.875 63.09375 
Q 16.5 59.96875 16.5 54.203125 
Q 16.5 49.359375 19.40625 46.890625 
Q 22.3125 44.4375 30.421875 42.921875 
L 36.375 41.703125 
Q 47.40625 39.59375 52.65625 34.296875 
Q 57.90625 29 57.90625 20.125 
Q 57.90625 9.515625 50.796875 4.046875 
Q 43.703125 -1.421875 29.984375 -1.421875 
Q 24.8125 -1.421875 18.96875 -0.25 
Q 13.140625 0.921875 6.890625 3.21875 
L 6.890625 13.375 
Q 12.890625 10.015625 18.65625 8.296875 
Q 24.421875 6.59375 29.984375 6.59375 
Q 38.421875 6.59375 43.015625 9.90625 
Q 47.609375 13.234375 47.609375 19.390625 
Q 47.609375 24.75 44.3125 27.78125 
Q 41.015625 30.8125 33.5 32.328125 
L 27.484375 33.5 
Q 16.453125 35.6875 11.515625 40.375 
Q 6.59375 45.0625 6.59375 53.421875 
Q 6.59375 63.09375 13.40625 68.65625 
Q 20.21875 74.21875 32.171875 74.21875 
Q 37.3125 74.21875 42.625 73.28125 
Q 47.953125 72.359375 53.515625 70.515625 
z
" id="DejaVuSans-53"/>
      <path d="M 48.78125 52.59375 
L 48.78125 44.1875 
Q 44.96875 46.296875 41.140625 47.34375 
Q 37.3125 48.390625 33.40625 48.390625 
Q 24.65625 48.390625 19.8125 42.84375 
Q 14.984375 37.3125 14.984375 27.296875 
Q 14.984375 17.28125 19.8125 11.734375 
Q 24.65625 6.203125 33.40625 6.203125 
Q 37.3125 6.203125 41.140625 7.25 
Q 44.96875 8.296875 48.78125 10.40625 
L 48.78125 2.09375 
Q 45.015625 0.34375 40.984375 -0.53125 
Q 36.96875 -1.421875 32.421875 -1.421875 
Q 20.0625 -1.421875 12.78125 6.34375 
Q 5.515625 14.109375 5.515625 27.296875 
Q 5.515625 40.671875 12.859375 48.328125 
Q 20.21875 56 33.015625 56 
Q 37.15625 56 41.109375 55.140625 
Q 45.0625 54.296875 48.78125 52.59375 
z
" id="DejaVuSans-63"/>
      <path d="M 31 75.875 
Q 24.46875 64.65625 21.28125 53.65625 
Q 18.109375 42.671875 18.109375 31.390625 
Q 18.109375 20.125 21.3125 9.0625 
Q 24.515625 -2 31 -13.1875 
L 23.1875 -13.1875 
Q 15.875 -1.703125 12.234375 9.375 
Q 8.59375 20.453125 8.59375 31.390625 
Q 8.59375 42.28125 12.203125 53.3125 
Q 15.828125 64.359375 23.1875 75.875 
z
" id="DejaVuSans-28"/>
      <path d="M 14.796875 27.296875 
Q 14.796875 17.390625 18.875 11.75 
Q 22.953125 6.109375 30.078125 6.109375 
Q 37.203125 6.109375 41.296875 11.75 
Q 45.40625 17.390625 45.40625 27.296875 
Q 45.40625 37.203125 41.296875 42.84375 
Q 37.203125 48.484375 30.078125 48.484375 
Q 22.953125 48.484375 18.875 42.84375 
Q 14.796875 37.203125 14.796875 27.296875 
z
M 45.40625 8.203125 
Q 42.578125 3.328125 38.25 0.953125 
Q 33.9375 -1.421875 27.875 -1.421875 
Q 17.96875 -1.421875 11.734375 6.484375 
Q 5.515625 14.40625 5.515625 27.296875 
Q 5.515625 40.1875 11.734375 48.09375 
Q 17.96875 56 27.875 56 
Q 33.9375 56 38.25 53.625 
Q 42.578125 51.265625 45.40625 46.390625 
L 45.40625 54.6875 
L 54.390625 54.6875 
L 54.390625 -20.796875 
L 45.40625 -20.796875 
z
" id="DejaVuSans-71"/>
      <path d="M 8.015625 75.875 
L 15.828125 75.875 
Q 23.140625 64.359375 26.78125 53.3125 
Q 30.421875 42.28125 30.421875 31.390625 
Q 30.421875 20.453125 26.78125 9.375 
Q 23.140625 -1.703125 15.828125 -13.1875 
L 8.015625 -13.1875 
Q 14.5 -2 17.703125 9.0625 
Q 20.90625 20.125 20.90625 31.390625 
Q 20.90625 42.671875 17.703125 53.65625 
Q 14.5 64.65625 8.015625 75.875 
z
" id="DejaVuSans-29"/>
      <path d="M 10.59375 45.40625 
L 73.1875 45.40625 
L 73.1875 37.203125 
L 10.59375 37.203125 
z
M 10.59375 25.484375 
L 73.1875 25.484375 
L 73.1875 17.1875 
L 10.59375 17.1875 
z
" id="DejaVuSans-3d"/>
     </defs>
     <g transform="translate(27.993281 274.852453)rotate(-90)scale(0.13 -0.13)">
      <use xlink:href="#DejaVuSans-4d"/>
      <use x="86.279297" xlink:href="#DejaVuSans-75"/>
      <use x="149.658203" xlink:href="#DejaVuSans-74"/>
      <use x="188.867188" xlink:href="#DejaVuSans-75"/>
      <use x="252.246094" xlink:href="#DejaVuSans-61"/>
      <use x="313.525391" xlink:href="#DejaVuSans-6c"/>
      <use x="341.308594" xlink:href="#DejaVuSans-20"/>
      <use x="373.095703" xlink:href="#DejaVuSans-49"/>
      <use x="402.587891" xlink:href="#DejaVuSans-6e"/>
      <use x="465.966797" xlink:href="#DejaVuSans-66"/>
      <use x="501.171875" xlink:href="#DejaVuSans-6f"/>
      <use x="562.353516" xlink:href="#DejaVuSans-72"/>
      <use x="603.451172" xlink:href="#DejaVuSans-6d"/>
      <use x="700.863281" xlink:href="#DejaVuSans-61"/>
      <use x="762.142578" xlink:href="#DejaVuSans-74"/>
      <use x="801.351562" xlink:href="#DejaVuSans-69"/>
      <use x="829.134766" xlink:href="#DejaVuSans-6f"/>
      <use x="890.316406" xlink:href="#DejaVuSans-6e"/>
      <use x="953.695312" xlink:href="#DejaVuSans-20"/>
      <use x="985.482422" xlink:href="#DejaVuSans-53"/>
      <use x="1048.958984" xlink:href="#DejaVuSans-63"/>
      <use x="1103.939453" xlink:href="#DejaVuSans-61"/>
      <use x="1165.21875" xlink:href="#DejaVuSans-6c"/>
      <use x="1193.001953" xlink:href="#DejaVuSans-65"/>
      <use x="1254.525391" xlink:href="#DejaVuSans-28"/>
      <use x="1293.539062" xlink:href="#DejaVuSans-71"/>
      <use x="1357.015625" xlink:href="#DejaVuSans-29"/>
      <use x="1396.029297" xlink:href="#DejaVuSans-3d"/>
      <use x="1479.818359" xlink:href="#DejaVuSans-32"/>
     </g>
    </g>
   </g>
   <g id="line2d_13">
    <path clip-path="url(#p1966533db1)" d="M 73.832727 237.643494 
L 77.40036 230.10954 
L 80.967992 229.412032 
L 84.535624 229.182029 
L 88.103257 227.323075 
L 91.670889 225.339592 
L 95.238521 227.465442 
L 98.806154 224.9148 
L 102.373786 227.052054 
L 105.941419 227.908449 
L 109.509051 229.218202 
L 113.076683 230.231014 
L 116.644316 230.692146 
L 120.211948 230.421373 
L 123.77958 233.186545 
L 127.347213 234.489159 
L 130.914845 237.839744 
L 134.482478 236.300333 
L 138.05011 235.211379 
L 141.617742 235.510976 
L 145.185375 237.073923 
L 148.753007 234.347032 
L 152.320639 235.099306 
L 155.888272 233.162314 
L 159.455904 234.565411 
L 163.023536 233.595984 
L 166.591169 228.709751 
L 170.158801 228.53811 
L 173.726434 230.364345 
L 177.294066 230.387032 
L 180.861698 231.492728 
L 184.429331 233.144924 
L 187.996963 231.263349 
L 191.564595 234.63318 
L 195.132228 230.512874 
L 198.69986 233.329554 
L 202.267493 236.725266 
L 205.835125 238.011345 
L 209.402757 238.860671 
L 212.97039 238.829556 
L 216.538022 237.949526 
L 220.105654 237.534186 
L 223.673287 238.282018 
L 227.240919 237.880685 
L 230.808551 244.023796 
L 234.376184 240.908014 
L 237.943816 242.615749 
L 241.511449 242.72286 
L 245.079081 241.249454 
L 248.646713 239.741455 
L 252.214346 240.304497 
L 255.781978 240.29036 
L 259.34961 241.279074 
L 262.917243 238.284636 
L 266.484875 234.157827 
L 270.052507 233.180938 
L 273.62014 229.335963 
L 277.187772 229.774151 
L 280.755405 229.665761 
L 284.323037 226.987527 
L 287.890669 225.941284 
L 291.458302 224.288315 
L 295.025934 220.105448 
L 298.593566 220.573298 
L 302.161199 219.656441 
L 305.728831 220.291682 
L 309.296464 221.723898 
L 312.864096 220.983429 
L 316.431728 222.052804 
L 319.999361 227.186573 
L 323.566993 228.409554 
L 327.134625 231.432541 
L 330.702258 232.576409 
L 334.26989 235.434674 
L 337.837522 234.63 
L 341.405155 235.686575 
L 344.972787 236.112178 
L 348.54042 236.851011 
L 352.108052 237.686125 
L 355.675684 236.8478 
L 359.243317 236.630761 
L 362.810949 233.65211 
L 366.378581 235.201439 
L 369.946214 233.778354 
L 373.513846 233.445028 
L 377.081479 233.23372 
L 380.649111 232.161753 
L 384.216743 232.555622 
L 387.784376 230.948551 
L 391.352008 230.165473 
L 394.91964 229.888249 
L 398.487273 233.73322 
" style="fill:none;stroke:#8a2be2;stroke-linecap:square;stroke-width:1.5;"/>
   </g>
   <g id="line2d_14">
    <path clip-path="url(#p1966533db1)" d="M 73.832727 178.25911 
L 77.40036 163.851014 
L 80.967992 175.659374 
L 84.535624 180.012607 
L 88.103257 183.850724 
L 91.670889 185.112977 
L 95.238521 187.009049 
L 98.806154 185.400291 
L 102.373786 184.515737 
L 105.941419 181.972433 
L 109.509051 183.86279 
L 113.076683 188.841309 
L 116.644316 188.456478 
L 120.211948 191.188779 
L 123.77958 195.923538 
L 127.347213 195.761079 
L 130.914845 196.832959 
L 134.482478 199.772901 
L 138.05011 202.12736 
L 141.617742 205.375401 
L 145.185375 204.10725 
L 148.753007 199.61488 
L 152.320639 197.493287 
L 155.888272 193.316083 
L 159.455904 194.481854 
L 163.023536 195.074067 
L 166.591169 199.504907 
L 170.158801 202.963435 
L 173.726434 203.423897 
L 177.294066 202.426735 
L 180.861698 202.402489 
L 184.429331 208.887043 
L 187.996963 214.128657 
L 191.564595 221.272699 
L 195.132228 219.157453 
L 198.69986 226.533018 
L 202.267493 228.473053 
L 205.835125 223.705371 
L 209.402757 226.082798 
L 212.97039 227.163514 
L 216.538022 230.992389 
L 220.105654 231.339289 
L 223.673287 230.243312 
L 227.240919 232.098857 
L 230.808551 232.886373 
L 234.376184 228.941786 
L 237.943816 229.673745 
L 241.511449 234.488059 
L 245.079081 229.072392 
L 248.646713 226.958397 
L 252.214346 224.858611 
L 255.781978 222.415626 
L 259.34961 225.25749 
L 262.917243 221.733897 
L 266.484875 226.299958 
L 270.052507 229.556602 
L 273.62014 225.790855 
L 277.187772 224.643678 
L 280.755405 230.246275 
L 284.323037 226.154343 
L 287.890669 226.739641 
L 291.458302 227.344173 
L 295.025934 224.981284 
L 298.593566 225.958789 
L 302.161199 222.807508 
L 305.728831 220.566253 
L 309.296464 221.595438 
L 312.864096 220.864159 
L 316.431728 224.895466 
L 319.999361 228.601328 
L 323.566993 226.846682 
L 327.134625 231.078536 
L 330.702258 229.208612 
L 334.26989 227.888971 
L 337.837522 225.483064 
L 341.405155 226.075774 
L 344.972787 229.673383 
L 348.54042 233.659075 
L 352.108052 229.065793 
L 355.675684 229.300301 
L 359.243317 235.658913 
L 362.810949 235.443971 
L 366.378581 235.276807 
L 369.946214 235.592941 
L 373.513846 237.548018 
L 377.081479 241.1278 
L 380.649111 237.270221 
L 384.216743 238.456381 
L 387.784376 238.018257 
L 391.352008 235.404776 
L 394.91964 230.389182 
L 398.487273 225.326758 
" style="fill:none;stroke:#008080;stroke-linecap:square;stroke-width:1.5;"/>
   </g>
   <g id="line2d_15">
    <path clip-path="url(#p1966533db1)" d="M 73.832727 262.005985 
L 77.40036 254.472584 
L 80.967992 250.677206 
L 84.535624 246.188787 
L 88.103257 243.432243 
L 91.670889 242.101329 
L 95.238521 244.790718 
L 98.806154 242.468434 
L 102.373786 240.205444 
L 105.941419 238.858413 
L 109.509051 235.532659 
L 113.076683 237.066502 
L 116.644316 236.115796 
L 120.211948 235.985517 
L 123.77958 238.621915 
L 127.347213 238.008765 
L 130.914845 240.459808 
L 134.482478 238.390268 
L 138.05011 239.499207 
L 141.617742 240.116061 
L 145.185375 244.257913 
L 148.753007 244.149854 
L 152.320639 243.695143 
L 155.888272 242.782314 
L 159.455904 244.014328 
L 163.023536 245.212765 
L 166.591169 243.490098 
L 170.158801 242.887571 
L 173.726434 242.61648 
L 177.294066 241.867651 
L 180.861698 241.947473 
L 184.429331 241.62196 
L 187.996963 242.715289 
L 191.564595 242.792032 
L 195.132228 240.742049 
L 198.69986 240.398862 
L 202.267493 241.709924 
L 205.835125 238.872371 
L 209.402757 240.153352 
L 212.97039 240.940096 
L 216.538022 240.499043 
L 220.105654 240.264183 
L 223.673287 239.18573 
L 227.240919 243.550633 
L 230.808551 245.254713 
L 234.376184 243.211509 
L 237.943816 239.369667 
L 241.511449 241.998645 
L 245.079081 240.933294 
L 248.646713 239.687641 
L 252.214346 239.960589 
L 255.781978 240.914832 
L 259.34961 240.101032 
L 262.917243 237.76135 
L 266.484875 236.24376 
L 270.052507 238.977174 
L 273.62014 240.462711 
L 277.187772 243.18214 
L 280.755405 241.427036 
L 284.323037 241.455731 
L 287.890669 241.948791 
L 291.458302 240.236432 
L 295.025934 242.316757 
L 298.593566 243.943564 
L 302.161199 240.929042 
L 305.728831 238.18919 
L 309.296464 238.79683 
L 312.864096 237.460175 
L 316.431728 238.415934 
L 319.999361 236.874974 
L 323.566993 235.015537 
L 327.134625 234.981937 
L 330.702258 229.631435 
L 334.26989 228.368554 
L 337.837522 227.908854 
L 341.405155 229.981765 
L 344.972787 229.670926 
L 348.54042 231.317058 
L 352.108052 230.859004 
L 355.675684 227.339741 
L 359.243317 228.651236 
L 362.810949 230.905007 
L 366.378581 235.180439 
L 369.946214 237.173921 
L 373.513846 239.875184 
L 377.081479 240.122779 
L 380.649111 234.832317 
L 384.216743 234.190422 
L 387.784376 232.371741 
L 391.352008 233.806261 
L 394.91964 234.852295 
L 398.487273 233.799045 
" style="fill:none;stroke:#0000ff;stroke-linecap:square;stroke-width:1.5;"/>
   </g>
   <g id="patch_3">
    <path d="M 57.6 307.584 
L 57.6 41.472 
" style="fill:none;stroke:#000000;stroke-linecap:square;stroke-linejoin:miter;stroke-width:0.8;"/>
   </g>
   <g id="patch_4">
    <path d="M 414.72 307.584 
L 414.72 41.472 
" style="fill:none;stroke:#000000;stroke-linecap:square;stroke-linejoin:miter;stroke-width:0.8;"/>
   </g>
   <g id="patch_5">
    <path d="M 57.6 307.584 
L 414.72 307.584 
" style="fill:none;stroke:#000000;stroke-linecap:square;stroke-linejoin:miter;stroke-width:0.8;"/>
   </g>
   <g id="patch_6">
    <path d="M 57.6 41.472 
L 414.72 41.472 
" style="fill:none;stroke:#000000;stroke-linecap:square;stroke-linejoin:miter;stroke-width:0.8;"/>
   </g>
   <g id="text_15">
    <!-- Verification for Theorem 2 when Scale(q)=2 -->
    <defs>
     <path d="M 28.609375 0 
L 0.78125 72.90625 
L 11.078125 72.90625 
L 34.1875 11.53125 
L 57.328125 72.90625 
L 67.578125 72.90625 
L 39.796875 0 
z
" id="DejaVuSans-56"/>
     <path d="M -0.296875 72.90625 
L 61.375 72.90625 
L 61.375 64.59375 
L 35.5 64.59375 
L 35.5 0 
L 25.59375 0 
L 25.59375 64.59375 
L -0.296875 64.59375 
z
" id="DejaVuSans-54"/>
     <path d="M 54.890625 33.015625 
L 54.890625 0 
L 45.90625 0 
L 45.90625 32.71875 
Q 45.90625 40.484375 42.875 44.328125 
Q 39.84375 48.1875 33.796875 48.1875 
Q 26.515625 48.1875 22.3125 43.546875 
Q 18.109375 38.921875 18.109375 30.90625 
L 18.109375 0 
L 9.078125 0 
L 9.078125 75.984375 
L 18.109375 75.984375 
L 18.109375 46.1875 
Q 21.34375 51.125 25.703125 53.5625 
Q 30.078125 56 35.796875 56 
Q 45.21875 56 50.046875 50.171875 
Q 54.890625 44.34375 54.890625 33.015625 
z
" id="DejaVuSans-68"/>
     <path d="M 4.203125 54.6875 
L 13.1875 54.6875 
L 24.421875 12.015625 
L 35.59375 54.6875 
L 46.1875 54.6875 
L 57.421875 12.015625 
L 68.609375 54.6875 
L 77.59375 54.6875 
L 63.28125 0 
L 52.6875 0 
L 40.921875 44.828125 
L 29.109375 0 
L 18.5 0 
z
" id="DejaVuSans-77"/>
    </defs>
    <g transform="translate(81.824219 35.472)scale(0.14 -0.14)">
     <use xlink:href="#DejaVuSans-56"/>
     <use x="68.298828" xlink:href="#DejaVuSans-65"/>
     <use x="129.822266" xlink:href="#DejaVuSans-72"/>
     <use x="170.935547" xlink:href="#DejaVuSans-69"/>
     <use x="198.71875" xlink:href="#DejaVuSans-66"/>
     <use x="233.923828" xlink:href="#DejaVuSans-69"/>
     <use x="261.707031" xlink:href="#DejaVuSans-63"/>
     <use x="316.6875" xlink:href="#DejaVuSans-61"/>
     <use x="377.966797" xlink:href="#DejaVuSans-74"/>
     <use x="417.175781" xlink:href="#DejaVuSans-69"/>
     <use x="444.958984" xlink:href="#DejaVuSans-6f"/>
     <use x="506.140625" xlink:href="#DejaVuSans-6e"/>
     <use x="569.519531" xlink:href="#DejaVuSans-20"/>
     <use x="601.306641" xlink:href="#DejaVuSans-66"/>
     <use x="636.511719" xlink:href="#DejaVuSans-6f"/>
     <use x="697.693359" xlink:href="#DejaVuSans-72"/>
     <use x="738.806641" xlink:href="#DejaVuSans-20"/>
     <use x="770.59375" xlink:href="#DejaVuSans-54"/>
     <use x="831.677734" xlink:href="#DejaVuSans-68"/>
     <use x="895.056641" xlink:href="#DejaVuSans-65"/>
     <use x="956.580078" xlink:href="#DejaVuSans-6f"/>
     <use x="1017.761719" xlink:href="#DejaVuSans-72"/>
     <use x="1058.84375" xlink:href="#DejaVuSans-65"/>
     <use x="1120.367188" xlink:href="#DejaVuSans-6d"/>
     <use x="1217.779297" xlink:href="#DejaVuSans-20"/>
     <use x="1249.566406" xlink:href="#DejaVuSans-32"/>
     <use x="1313.189453" xlink:href="#DejaVuSans-20"/>
     <use x="1344.976562" xlink:href="#DejaVuSans-77"/>
     <use x="1426.763672" xlink:href="#DejaVuSans-68"/>
     <use x="1490.142578" xlink:href="#DejaVuSans-65"/>
     <use x="1551.666016" xlink:href="#DejaVuSans-6e"/>
     <use x="1615.044922" xlink:href="#DejaVuSans-20"/>
     <use x="1646.832031" xlink:href="#DejaVuSans-53"/>
     <use x="1710.308594" xlink:href="#DejaVuSans-63"/>
     <use x="1765.289062" xlink:href="#DejaVuSans-61"/>
     <use x="1826.568359" xlink:href="#DejaVuSans-6c"/>
     <use x="1854.351562" xlink:href="#DejaVuSans-65"/>
     <use x="1915.875" xlink:href="#DejaVuSans-28"/>
     <use x="1954.888672" xlink:href="#DejaVuSans-71"/>
     <use x="2018.365234" xlink:href="#DejaVuSans-29"/>
     <use x="2057.378906" xlink:href="#DejaVuSans-3d"/>
     <use x="2141.167969" xlink:href="#DejaVuSans-32"/>
    </g>
   </g>
   <g id="legend_1">
    <g id="patch_7">
     <path d="M 314.62 94.750125 
L 407.72 94.750125 
Q 409.72 94.750125 409.72 92.750125 
L 409.72 48.472 
Q 409.72 46.472 407.72 46.472 
L 314.62 46.472 
Q 312.62 46.472 312.62 48.472 
L 312.62 92.750125 
Q 312.62 94.750125 314.62 94.750125 
z
" style="fill:#ffffff;opacity:0.8;stroke:#cccccc;stroke-linejoin:miter;"/>
    </g>
    <g id="line2d_16">
     <path d="M 316.62 54.570437 
L 336.62 54.570437 
" style="fill:none;stroke:#8a2be2;stroke-linecap:square;stroke-width:1.5;"/>
    </g>
    <g id="line2d_17"/>
    <g id="text_16">
     <!-- $I(x_t,x_{t+1})$ -->
     <defs>
      <path d="M 16.890625 72.90625 
L 26.8125 72.90625 
L 12.59375 0 
L 2.6875 0 
z
" id="DejaVuSans-Oblique-49"/>
      <path d="M 60.015625 54.6875 
L 34.90625 27.875 
L 50.296875 0 
L 39.984375 0 
L 28.421875 21.6875 
L 8.296875 0 
L -2.59375 0 
L 24.3125 28.8125 
L 10.015625 54.6875 
L 20.3125 54.6875 
L 30.8125 34.90625 
L 49.125 54.6875 
z
" id="DejaVuSans-Oblique-78"/>
      <path d="M 42.28125 54.6875 
L 40.921875 47.703125 
L 23 47.703125 
L 17.1875 18.015625 
Q 16.890625 16.359375 16.75 15.234375 
Q 16.609375 14.109375 16.609375 13.484375 
Q 16.609375 10.359375 18.484375 8.9375 
Q 20.359375 7.515625 24.515625 7.515625 
L 33.59375 7.515625 
L 32.078125 0 
L 23.484375 0 
Q 15.484375 0 11.546875 3.125 
Q 7.625 6.25 7.625 12.59375 
Q 7.625 13.71875 7.765625 15.0625 
Q 7.90625 16.40625 8.203125 18.015625 
L 14.015625 47.703125 
L 6.390625 47.703125 
L 7.8125 54.6875 
L 15.28125 54.6875 
L 18.3125 70.21875 
L 27.296875 70.21875 
L 24.3125 54.6875 
z
" id="DejaVuSans-Oblique-74"/>
      <path d="M 11.71875 12.40625 
L 22.015625 12.40625 
L 22.015625 4 
L 14.015625 -11.625 
L 7.71875 -11.625 
L 11.71875 4 
z
" id="DejaVuSans-2c"/>
      <path d="M 46 62.703125 
L 46 35.5 
L 73.1875 35.5 
L 73.1875 27.203125 
L 46 27.203125 
L 46 0 
L 37.796875 0 
L 37.796875 27.203125 
L 10.59375 27.203125 
L 10.59375 35.5 
L 37.796875 35.5 
L 37.796875 62.703125 
z
" id="DejaVuSans-2b"/>
     </defs>
     <g transform="translate(344.62 58.070437)scale(0.1 -0.1)">
      <use transform="translate(0 0.125)" xlink:href="#DejaVuSans-Oblique-49"/>
      <use transform="translate(29.492188 0.125)" xlink:href="#DejaVuSans-28"/>
      <use transform="translate(68.505859 0.125)" xlink:href="#DejaVuSans-Oblique-78"/>
      <use transform="translate(127.685547 -16.28125)scale(0.7)" xlink:href="#DejaVuSans-Oblique-74"/>
      <use transform="translate(157.866211 0.125)" xlink:href="#DejaVuSans-2c"/>
      <use transform="translate(209.135742 0.125)" xlink:href="#DejaVuSans-Oblique-78"/>
      <use transform="translate(268.31543 -16.28125)scale(0.7)" xlink:href="#DejaVuSans-Oblique-74"/>
      <use transform="translate(309.399414 -16.28125)scale(0.7)" xlink:href="#DejaVuSans-2b"/>
      <use transform="translate(381.689453 -16.28125)scale(0.7)" xlink:href="#DejaVuSans-31"/>
      <use transform="translate(428.959961 0.125)" xlink:href="#DejaVuSans-29"/>
     </g>
    </g>
    <g id="line2d_18">
     <path d="M 316.62 69.250125 
L 336.62 69.250125 
" style="fill:none;stroke:#008080;stroke-linecap:square;stroke-width:1.5;"/>
    </g>
    <g id="line2d_19"/>
    <g id="text_17">
     <!-- $I(y_t,y(t+1))$ -->
     <defs>
      <path d="M 24.8125 -5.078125 
Q 18.5625 -15.578125 14.625 -18.1875 
Q 10.6875 -20.796875 4.59375 -20.796875 
L -2.484375 -20.796875 
L -0.984375 -13.28125 
L 4.203125 -13.28125 
Q 7.953125 -13.28125 10.59375 -11.234375 
Q 13.234375 -9.1875 16.5 -3.21875 
L 19.28125 2 
L 7.171875 54.6875 
L 16.703125 54.6875 
L 25.78125 12.796875 
L 50.875 54.6875 
L 60.296875 54.6875 
z
" id="DejaVuSans-Oblique-79"/>
     </defs>
     <g transform="translate(344.62 72.750125)scale(0.1 -0.1)">
      <use transform="translate(0 0.125)" xlink:href="#DejaVuSans-Oblique-49"/>
      <use transform="translate(29.492188 0.125)" xlink:href="#DejaVuSans-28"/>
      <use transform="translate(68.505859 0.125)" xlink:href="#DejaVuSans-Oblique-79"/>
      <use transform="translate(127.685547 -16.28125)scale(0.7)" xlink:href="#DejaVuSans-Oblique-74"/>
      <use transform="translate(157.866211 0.125)" xlink:href="#DejaVuSans-2c"/>
      <use transform="translate(209.135742 0.125)" xlink:href="#DejaVuSans-Oblique-79"/>
      <use transform="translate(268.31543 0.125)" xlink:href="#DejaVuSans-28"/>
      <use transform="translate(307.329102 0.125)" xlink:href="#DejaVuSans-Oblique-74"/>
      <use transform="translate(366.020508 0.125)" xlink:href="#DejaVuSans-2b"/>
      <use transform="translate(469.291992 0.125)" xlink:href="#DejaVuSans-31"/>
      <use transform="translate(532.915039 0.125)" xlink:href="#DejaVuSans-29"/>
      <use transform="translate(571.928711 0.125)" xlink:href="#DejaVuSans-29"/>
     </g>
    </g>
    <g id="line2d_20">
     <path d="M 316.62 85.170437 
L 336.62 85.170437 
" style="fill:none;stroke:#0000ff;stroke-linecap:square;stroke-width:1.5;"/>
    </g>
    <g id="line2d_21"/>
    <g id="text_18">
     <!-- $I(x_t,\hat{x}_{t+1})$ -->
     <defs>
      <path d="M -28.609375 79.984375 
L -21.390625 79.984375 
L -9.421875 61.625 
L -16.21875 61.625 
L -25 73.578125 
L -33.796875 61.625 
L -40.578125 61.625 
z
M -25 56 
z
" id="DejaVuSans-302"/>
     </defs>
     <g transform="translate(344.62 88.670437)scale(0.1 -0.1)">
      <use transform="translate(0 0.828125)" xlink:href="#DejaVuSans-Oblique-49"/>
      <use transform="translate(29.492188 0.828125)" xlink:href="#DejaVuSans-28"/>
      <use transform="translate(68.505859 0.828125)" xlink:href="#DejaVuSans-Oblique-78"/>
      <use transform="translate(127.685547 -15.578125)scale(0.7)" xlink:href="#DejaVuSans-Oblique-74"/>
      <use transform="translate(157.866211 0.828125)" xlink:href="#DejaVuSans-2c"/>
      <use transform="translate(271.508789 12.015625)" xlink:href="#DejaVuSans-302"/>
      <use transform="translate(209.135742 0.828125)" xlink:href="#DejaVuSans-Oblique-78"/>
      <use transform="translate(269.272461 -15.578125)scale(0.7)" xlink:href="#DejaVuSans-Oblique-74"/>
      <use transform="translate(310.356445 -15.578125)scale(0.7)" xlink:href="#DejaVuSans-2b"/>
      <use transform="translate(382.646484 -15.578125)scale(0.7)" xlink:href="#DejaVuSans-31"/>
      <use transform="translate(429.916992 0.828125)" xlink:href="#DejaVuSans-29"/>
     </g>
    </g>
   </g>
  </g>
 </g>
 <defs>
  <clipPath id="p1966533db1">
   <rect height="266.112" width="357.12" x="57.6" y="41.472"/>
  </clipPath>
 </defs>
</svg>
