<?xml version="1.0" encoding="utf-8" standalone="no"?>
<!DOCTYPE svg PUBLIC "-//W3C//DTD SVG 1.1//EN"
  "http://www.w3.org/Graphics/SVG/1.1/DTD/svg11.dtd">
<!-- Created with matplotlib (http://matplotlib.org/) -->
<svg height="345.6pt" version="1.1" viewBox="0 0 460.8 345.6" width="460.8pt" xmlns="http://www.w3.org/2000/svg" xmlns:xlink="http://www.w3.org/1999/xlink">
 <defs>
  <style type="text/css">
*{stroke-linecap:butt;stroke-linejoin:round;}
  </style>
 </defs>
 <g id="figure_1">
  <g id="patch_1">
   <path d="M 0 345.6 
L 460.8 345.6 
L 460.8 0 
L 0 0 
z
" style="fill:#ffffff;"/>
  </g>
  <g id="axes_1">
   <g id="patch_2">
    <path d="M 57.6 307.584 
L 414.72 307.584 
L 414.72 41.472 
L 57.6 41.472 
z
" style="fill:#ffffff;"/>
   </g>
   <g id="matplotlib.axis_1">
    <g id="xtick_1">
     <g id="line2d_1">
      <defs>
       <path d="M 0 0 
L 0 3.5 
" id="m936014dfa5" style="stroke:#000000;stroke-width:0.8;"/>
      </defs>
      <g>
       <use style="stroke:#000000;stroke-width:0.8;" x="125.482314" xlink:href="#m936014dfa5" y="307.584"/>
      </g>
     </g>
     <g id="text_1">
      <!-- 10000 -->
      <defs>
       <path d="M 12.40625 8.296875 
L 28.515625 8.296875 
L 28.515625 63.921875 
L 10.984375 60.40625 
L 10.984375 69.390625 
L 28.421875 72.90625 
L 38.28125 72.90625 
L 38.28125 8.296875 
L 54.390625 8.296875 
L 54.390625 0 
L 12.40625 0 
z
" id="DejaVuSans-31"/>
       <path d="M 31.78125 66.40625 
Q 24.171875 66.40625 20.328125 58.90625 
Q 16.5 51.421875 16.5 36.375 
Q 16.5 21.390625 20.328125 13.890625 
Q 24.171875 6.390625 31.78125 6.390625 
Q 39.453125 6.390625 43.28125 13.890625 
Q 47.125 21.390625 47.125 36.375 
Q 47.125 51.421875 43.28125 58.90625 
Q 39.453125 66.40625 31.78125 66.40625 
z
M 31.78125 74.21875 
Q 44.046875 74.21875 50.515625 64.515625 
Q 56.984375 54.828125 56.984375 36.375 
Q 56.984375 17.96875 50.515625 8.265625 
Q 44.046875 -1.421875 31.78125 -1.421875 
Q 19.53125 -1.421875 13.0625 8.265625 
Q 6.59375 17.96875 6.59375 36.375 
Q 6.59375 54.828125 13.0625 64.515625 
Q 19.53125 74.21875 31.78125 74.21875 
z
" id="DejaVuSans-30"/>
      </defs>
      <g transform="translate(109.576064 322.182437)scale(0.1 -0.1)">
       <use xlink:href="#DejaVuSans-31"/>
       <use x="63.623047" xlink:href="#DejaVuSans-30"/>
       <use x="127.246094" xlink:href="#DejaVuSans-30"/>
       <use x="190.869141" xlink:href="#DejaVuSans-30"/>
       <use x="254.492188" xlink:href="#DejaVuSans-30"/>
      </g>
     </g>
    </g>
    <g id="xtick_2">
     <g id="line2d_2">
      <g>
       <use style="stroke:#000000;stroke-width:0.8;" x="199.267438" xlink:href="#m936014dfa5" y="307.584"/>
      </g>
     </g>
     <g id="text_2">
      <!-- 20000 -->
      <defs>
       <path d="M 19.1875 8.296875 
L 53.609375 8.296875 
L 53.609375 0 
L 7.328125 0 
L 7.328125 8.296875 
Q 12.9375 14.109375 22.625 23.890625 
Q 32.328125 33.6875 34.8125 36.53125 
Q 39.546875 41.84375 41.421875 45.53125 
Q 43.3125 49.21875 43.3125 52.78125 
Q 43.3125 58.59375 39.234375 62.25 
Q 35.15625 65.921875 28.609375 65.921875 
Q 23.96875 65.921875 18.8125 64.3125 
Q 13.671875 62.703125 7.8125 59.421875 
L 7.8125 69.390625 
Q 13.765625 71.78125 18.9375 73 
Q 24.125 74.21875 28.421875 74.21875 
Q 39.75 74.21875 46.484375 68.546875 
Q 53.21875 62.890625 53.21875 53.421875 
Q 53.21875 48.921875 51.53125 44.890625 
Q 49.859375 40.875 45.40625 35.40625 
Q 44.1875 33.984375 37.640625 27.21875 
Q 31.109375 20.453125 19.1875 8.296875 
z
" id="DejaVuSans-32"/>
      </defs>
      <g transform="translate(183.361188 322.182437)scale(0.1 -0.1)">
       <use xlink:href="#DejaVuSans-32"/>
       <use x="63.623047" xlink:href="#DejaVuSans-30"/>
       <use x="127.246094" xlink:href="#DejaVuSans-30"/>
       <use x="190.869141" xlink:href="#DejaVuSans-30"/>
       <use x="254.492188" xlink:href="#DejaVuSans-30"/>
      </g>
     </g>
    </g>
    <g id="xtick_3">
     <g id="line2d_3">
      <g>
       <use style="stroke:#000000;stroke-width:0.8;" x="273.052562" xlink:href="#m936014dfa5" y="307.584"/>
      </g>
     </g>
     <g id="text_3">
      <!-- 30000 -->
      <defs>
       <path d="M 40.578125 39.3125 
Q 47.65625 37.796875 51.625 33 
Q 55.609375 28.21875 55.609375 21.1875 
Q 55.609375 10.40625 48.1875 4.484375 
Q 40.765625 -1.421875 27.09375 -1.421875 
Q 22.515625 -1.421875 17.65625 -0.515625 
Q 12.796875 0.390625 7.625 2.203125 
L 7.625 11.71875 
Q 11.71875 9.328125 16.59375 8.109375 
Q 21.484375 6.890625 26.8125 6.890625 
Q 36.078125 6.890625 40.9375 10.546875 
Q 45.796875 14.203125 45.796875 21.1875 
Q 45.796875 27.640625 41.28125 31.265625 
Q 36.765625 34.90625 28.71875 34.90625 
L 20.21875 34.90625 
L 20.21875 43.015625 
L 29.109375 43.015625 
Q 36.375 43.015625 40.234375 45.921875 
Q 44.09375 48.828125 44.09375 54.296875 
Q 44.09375 59.90625 40.109375 62.90625 
Q 36.140625 65.921875 28.71875 65.921875 
Q 24.65625 65.921875 20.015625 65.03125 
Q 15.375 64.15625 9.8125 62.3125 
L 9.8125 71.09375 
Q 15.4375 72.65625 20.34375 73.4375 
Q 25.25 74.21875 29.59375 74.21875 
Q 40.828125 74.21875 47.359375 69.109375 
Q 53.90625 64.015625 53.90625 55.328125 
Q 53.90625 49.265625 50.4375 45.09375 
Q 46.96875 40.921875 40.578125 39.3125 
z
" id="DejaVuSans-33"/>
      </defs>
      <g transform="translate(257.146312 322.182437)scale(0.1 -0.1)">
       <use xlink:href="#DejaVuSans-33"/>
       <use x="63.623047" xlink:href="#DejaVuSans-30"/>
       <use x="127.246094" xlink:href="#DejaVuSans-30"/>
       <use x="190.869141" xlink:href="#DejaVuSans-30"/>
       <use x="254.492188" xlink:href="#DejaVuSans-30"/>
      </g>
     </g>
    </g>
    <g id="xtick_4">
     <g id="line2d_4">
      <g>
       <use style="stroke:#000000;stroke-width:0.8;" x="346.837686" xlink:href="#m936014dfa5" y="307.584"/>
      </g>
     </g>
     <g id="text_4">
      <!-- 40000 -->
      <defs>
       <path d="M 37.796875 64.3125 
L 12.890625 25.390625 
L 37.796875 25.390625 
z
M 35.203125 72.90625 
L 47.609375 72.90625 
L 47.609375 25.390625 
L 58.015625 25.390625 
L 58.015625 17.1875 
L 47.609375 17.1875 
L 47.609375 0 
L 37.796875 0 
L 37.796875 17.1875 
L 4.890625 17.1875 
L 4.890625 26.703125 
z
" id="DejaVuSans-34"/>
      </defs>
      <g transform="translate(330.931436 322.182437)scale(0.1 -0.1)">
       <use xlink:href="#DejaVuSans-34"/>
       <use x="63.623047" xlink:href="#DejaVuSans-30"/>
       <use x="127.246094" xlink:href="#DejaVuSans-30"/>
       <use x="190.869141" xlink:href="#DejaVuSans-30"/>
       <use x="254.492188" xlink:href="#DejaVuSans-30"/>
      </g>
     </g>
    </g>
    <g id="text_5">
     <!-- Iter -->
     <defs>
      <path d="M 9.8125 72.90625 
L 19.671875 72.90625 
L 19.671875 0 
L 9.8125 0 
z
" id="DejaVuSans-49"/>
      <path d="M 18.3125 70.21875 
L 18.3125 54.6875 
L 36.8125 54.6875 
L 36.8125 47.703125 
L 18.3125 47.703125 
L 18.3125 18.015625 
Q 18.3125 11.328125 20.140625 9.421875 
Q 21.96875 7.515625 27.59375 7.515625 
L 36.8125 7.515625 
L 36.8125 0 
L 27.59375 0 
Q 17.1875 0 13.234375 3.875 
Q 9.28125 7.765625 9.28125 18.015625 
L 9.28125 47.703125 
L 2.6875 47.703125 
L 2.6875 54.6875 
L 9.28125 54.6875 
L 9.28125 70.21875 
z
" id="DejaVuSans-74"/>
      <path d="M 56.203125 29.59375 
L 56.203125 25.203125 
L 14.890625 25.203125 
Q 15.484375 15.921875 20.484375 11.0625 
Q 25.484375 6.203125 34.421875 6.203125 
Q 39.59375 6.203125 44.453125 7.46875 
Q 49.3125 8.734375 54.109375 11.28125 
L 54.109375 2.78125 
Q 49.265625 0.734375 44.1875 -0.34375 
Q 39.109375 -1.421875 33.890625 -1.421875 
Q 20.796875 -1.421875 13.15625 6.1875 
Q 5.515625 13.8125 5.515625 26.8125 
Q 5.515625 40.234375 12.765625 48.109375 
Q 20.015625 56 32.328125 56 
Q 43.359375 56 49.78125 48.890625 
Q 56.203125 41.796875 56.203125 29.59375 
z
M 47.21875 32.234375 
Q 47.125 39.59375 43.09375 43.984375 
Q 39.0625 48.390625 32.421875 48.390625 
Q 24.90625 48.390625 20.390625 44.140625 
Q 15.875 39.890625 15.1875 32.171875 
z
" id="DejaVuSans-65"/>
      <path d="M 41.109375 46.296875 
Q 39.59375 47.171875 37.8125 47.578125 
Q 36.03125 48 33.890625 48 
Q 26.265625 48 22.1875 43.046875 
Q 18.109375 38.09375 18.109375 28.8125 
L 18.109375 0 
L 9.078125 0 
L 9.078125 54.6875 
L 18.109375 54.6875 
L 18.109375 46.1875 
Q 20.953125 51.171875 25.484375 53.578125 
Q 30.03125 56 36.53125 56 
Q 37.453125 56 38.578125 55.875 
Q 39.703125 55.765625 41.0625 55.515625 
z
" id="DejaVuSans-72"/>
     </defs>
     <g transform="translate(225.022656 338.140094)scale(0.13 -0.13)">
      <use xlink:href="#DejaVuSans-49"/>
      <use x="29.492188" xlink:href="#DejaVuSans-74"/>
      <use x="68.701172" xlink:href="#DejaVuSans-65"/>
      <use x="130.224609" xlink:href="#DejaVuSans-72"/>
     </g>
    </g>
   </g>
   <g id="matplotlib.axis_2">
    <g id="ytick_1">
     <g id="line2d_5">
      <defs>
       <path d="M 0 0 
L -3.5 0 
" id="meca5b5c6db" style="stroke:#000000;stroke-width:0.8;"/>
      </defs>
      <g>
       <use style="stroke:#000000;stroke-width:0.8;" x="57.6" xlink:href="#meca5b5c6db" y="307.584"/>
      </g>
     </g>
     <g id="text_6">
      <!-- 1.50 -->
      <defs>
       <path d="M 10.6875 12.40625 
L 21 12.40625 
L 21 0 
L 10.6875 0 
z
" id="DejaVuSans-2e"/>
       <path d="M 10.796875 72.90625 
L 49.515625 72.90625 
L 49.515625 64.59375 
L 19.828125 64.59375 
L 19.828125 46.734375 
Q 21.96875 47.46875 24.109375 47.828125 
Q 26.265625 48.1875 28.421875 48.1875 
Q 40.625 48.1875 47.75 41.5 
Q 54.890625 34.8125 54.890625 23.390625 
Q 54.890625 11.625 47.5625 5.09375 
Q 40.234375 -1.421875 26.90625 -1.421875 
Q 22.3125 -1.421875 17.546875 -0.640625 
Q 12.796875 0.140625 7.71875 1.703125 
L 7.71875 11.625 
Q 12.109375 9.234375 16.796875 8.0625 
Q 21.484375 6.890625 26.703125 6.890625 
Q 35.15625 6.890625 40.078125 11.328125 
Q 45.015625 15.765625 45.015625 23.390625 
Q 45.015625 31 40.078125 35.4375 
Q 35.15625 39.890625 26.703125 39.890625 
Q 22.75 39.890625 18.8125 39.015625 
Q 14.890625 38.140625 10.796875 36.28125 
z
" id="DejaVuSans-35"/>
      </defs>
      <g transform="translate(28.334375 311.383219)scale(0.1 -0.1)">
       <use xlink:href="#DejaVuSans-31"/>
       <use x="63.623047" xlink:href="#DejaVuSans-2e"/>
       <use x="95.410156" xlink:href="#DejaVuSans-35"/>
       <use x="159.033203" xlink:href="#DejaVuSans-30"/>
      </g>
     </g>
    </g>
    <g id="ytick_2">
     <g id="line2d_6">
      <g>
       <use style="stroke:#000000;stroke-width:0.8;" x="57.6" xlink:href="#meca5b5c6db" y="274.32"/>
      </g>
     </g>
     <g id="text_7">
      <!-- 1.75 -->
      <defs>
       <path d="M 8.203125 72.90625 
L 55.078125 72.90625 
L 55.078125 68.703125 
L 28.609375 0 
L 18.3125 0 
L 43.21875 64.59375 
L 8.203125 64.59375 
z
" id="DejaVuSans-37"/>
      </defs>
      <g transform="translate(28.334375 278.119219)scale(0.1 -0.1)">
       <use xlink:href="#DejaVuSans-31"/>
       <use x="63.623047" xlink:href="#DejaVuSans-2e"/>
       <use x="95.410156" xlink:href="#DejaVuSans-37"/>
       <use x="159.033203" xlink:href="#DejaVuSans-35"/>
      </g>
     </g>
    </g>
    <g id="ytick_3">
     <g id="line2d_7">
      <g>
       <use style="stroke:#000000;stroke-width:0.8;" x="57.6" xlink:href="#meca5b5c6db" y="241.056"/>
      </g>
     </g>
     <g id="text_8">
      <!-- 2.00 -->
      <g transform="translate(28.334375 244.855219)scale(0.1 -0.1)">
       <use xlink:href="#DejaVuSans-32"/>
       <use x="63.623047" xlink:href="#DejaVuSans-2e"/>
       <use x="95.410156" xlink:href="#DejaVuSans-30"/>
       <use x="159.033203" xlink:href="#DejaVuSans-30"/>
      </g>
     </g>
    </g>
    <g id="ytick_4">
     <g id="line2d_8">
      <g>
       <use style="stroke:#000000;stroke-width:0.8;" x="57.6" xlink:href="#meca5b5c6db" y="207.792"/>
      </g>
     </g>
     <g id="text_9">
      <!-- 2.25 -->
      <g transform="translate(28.334375 211.591219)scale(0.1 -0.1)">
       <use xlink:href="#DejaVuSans-32"/>
       <use x="63.623047" xlink:href="#DejaVuSans-2e"/>
       <use x="95.410156" xlink:href="#DejaVuSans-32"/>
       <use x="159.033203" xlink:href="#DejaVuSans-35"/>
      </g>
     </g>
    </g>
    <g id="ytick_5">
     <g id="line2d_9">
      <g>
       <use style="stroke:#000000;stroke-width:0.8;" x="57.6" xlink:href="#meca5b5c6db" y="174.528"/>
      </g>
     </g>
     <g id="text_10">
      <!-- 2.50 -->
      <g transform="translate(28.334375 178.327219)scale(0.1 -0.1)">
       <use xlink:href="#DejaVuSans-32"/>
       <use x="63.623047" xlink:href="#DejaVuSans-2e"/>
       <use x="95.410156" xlink:href="#DejaVuSans-35"/>
       <use x="159.033203" xlink:href="#DejaVuSans-30"/>
      </g>
     </g>
    </g>
    <g id="ytick_6">
     <g id="line2d_10">
      <g>
       <use style="stroke:#000000;stroke-width:0.8;" x="57.6" xlink:href="#meca5b5c6db" y="141.264"/>
      </g>
     </g>
     <g id="text_11">
      <!-- 2.75 -->
      <g transform="translate(28.334375 145.063219)scale(0.1 -0.1)">
       <use xlink:href="#DejaVuSans-32"/>
       <use x="63.623047" xlink:href="#DejaVuSans-2e"/>
       <use x="95.410156" xlink:href="#DejaVuSans-37"/>
       <use x="159.033203" xlink:href="#DejaVuSans-35"/>
      </g>
     </g>
    </g>
    <g id="ytick_7">
     <g id="line2d_11">
      <g>
       <use style="stroke:#000000;stroke-width:0.8;" x="57.6" xlink:href="#meca5b5c6db" y="108"/>
      </g>
     </g>
     <g id="text_12">
      <!-- 3.00 -->
      <g transform="translate(28.334375 111.799219)scale(0.1 -0.1)">
       <use xlink:href="#DejaVuSans-33"/>
       <use x="63.623047" xlink:href="#DejaVuSans-2e"/>
       <use x="95.410156" xlink:href="#DejaVuSans-30"/>
       <use x="159.033203" xlink:href="#DejaVuSans-30"/>
      </g>
     </g>
    </g>
    <g id="ytick_8">
     <g id="line2d_12">
      <g>
       <use style="stroke:#000000;stroke-width:0.8;" x="57.6" xlink:href="#meca5b5c6db" y="74.736"/>
      </g>
     </g>
     <g id="text_13">
      <!-- 3.25 -->
      <g transform="translate(28.334375 78.535219)scale(0.1 -0.1)">
       <use xlink:href="#DejaVuSans-33"/>
       <use x="63.623047" xlink:href="#DejaVuSans-2e"/>
       <use x="95.410156" xlink:href="#DejaVuSans-32"/>
       <use x="159.033203" xlink:href="#DejaVuSans-35"/>
      </g>
     </g>
    </g>
    <g id="ytick_9">
     <g id="line2d_13">
      <g>
       <use style="stroke:#000000;stroke-width:0.8;" x="57.6" xlink:href="#meca5b5c6db" y="41.472"/>
      </g>
     </g>
     <g id="text_14">
      <!-- 3.50 -->
      <g transform="translate(28.334375 45.271219)scale(0.1 -0.1)">
       <use xlink:href="#DejaVuSans-33"/>
       <use x="63.623047" xlink:href="#DejaVuSans-2e"/>
       <use x="95.410156" xlink:href="#DejaVuSans-35"/>
       <use x="159.033203" xlink:href="#DejaVuSans-30"/>
      </g>
     </g>
    </g>
    <g id="text_15">
     <!-- Mutual Information -->
     <defs>
      <path d="M 9.8125 72.90625 
L 24.515625 72.90625 
L 43.109375 23.296875 
L 61.8125 72.90625 
L 76.515625 72.90625 
L 76.515625 0 
L 66.890625 0 
L 66.890625 64.015625 
L 48.09375 14.015625 
L 38.1875 14.015625 
L 19.390625 64.015625 
L 19.390625 0 
L 9.8125 0 
z
" id="DejaVuSans-4d"/>
      <path d="M 8.5 21.578125 
L 8.5 54.6875 
L 17.484375 54.6875 
L 17.484375 21.921875 
Q 17.484375 14.15625 20.5 10.265625 
Q 23.53125 6.390625 29.59375 6.390625 
Q 36.859375 6.390625 41.078125 11.03125 
Q 45.3125 15.671875 45.3125 23.6875 
L 45.3125 54.6875 
L 54.296875 54.6875 
L 54.296875 0 
L 45.3125 0 
L 45.3125 8.40625 
Q 42.046875 3.421875 37.71875 1 
Q 33.40625 -1.421875 27.6875 -1.421875 
Q 18.265625 -1.421875 13.375 4.4375 
Q 8.5 10.296875 8.5 21.578125 
z
M 31.109375 56 
z
" id="DejaVuSans-75"/>
      <path d="M 34.28125 27.484375 
Q 23.390625 27.484375 19.1875 25 
Q 14.984375 22.515625 14.984375 16.5 
Q 14.984375 11.71875 18.140625 8.90625 
Q 21.296875 6.109375 26.703125 6.109375 
Q 34.1875 6.109375 38.703125 11.40625 
Q 43.21875 16.703125 43.21875 25.484375 
L 43.21875 27.484375 
z
M 52.203125 31.203125 
L 52.203125 0 
L 43.21875 0 
L 43.21875 8.296875 
Q 40.140625 3.328125 35.546875 0.953125 
Q 30.953125 -1.421875 24.3125 -1.421875 
Q 15.921875 -1.421875 10.953125 3.296875 
Q 6 8.015625 6 15.921875 
Q 6 25.140625 12.171875 29.828125 
Q 18.359375 34.515625 30.609375 34.515625 
L 43.21875 34.515625 
L 43.21875 35.40625 
Q 43.21875 41.609375 39.140625 45 
Q 35.0625 48.390625 27.6875 48.390625 
Q 23 48.390625 18.546875 47.265625 
Q 14.109375 46.140625 10.015625 43.890625 
L 10.015625 52.203125 
Q 14.9375 54.109375 19.578125 55.046875 
Q 24.21875 56 28.609375 56 
Q 40.484375 56 46.34375 49.84375 
Q 52.203125 43.703125 52.203125 31.203125 
z
" id="DejaVuSans-61"/>
      <path d="M 9.421875 75.984375 
L 18.40625 75.984375 
L 18.40625 0 
L 9.421875 0 
z
" id="DejaVuSans-6c"/>
      <path id="DejaVuSans-20"/>
      <path d="M 54.890625 33.015625 
L 54.890625 0 
L 45.90625 0 
L 45.90625 32.71875 
Q 45.90625 40.484375 42.875 44.328125 
Q 39.84375 48.1875 33.796875 48.1875 
Q 26.515625 48.1875 22.3125 43.546875 
Q 18.109375 38.921875 18.109375 30.90625 
L 18.109375 0 
L 9.078125 0 
L 9.078125 54.6875 
L 18.109375 54.6875 
L 18.109375 46.1875 
Q 21.34375 51.125 25.703125 53.5625 
Q 30.078125 56 35.796875 56 
Q 45.21875 56 50.046875 50.171875 
Q 54.890625 44.34375 54.890625 33.015625 
z
" id="DejaVuSans-6e"/>
      <path d="M 37.109375 75.984375 
L 37.109375 68.5 
L 28.515625 68.5 
Q 23.6875 68.5 21.796875 66.546875 
Q 19.921875 64.59375 19.921875 59.515625 
L 19.921875 54.6875 
L 34.71875 54.6875 
L 34.71875 47.703125 
L 19.921875 47.703125 
L 19.921875 0 
L 10.890625 0 
L 10.890625 47.703125 
L 2.296875 47.703125 
L 2.296875 54.6875 
L 10.890625 54.6875 
L 10.890625 58.5 
Q 10.890625 67.625 15.140625 71.796875 
Q 19.390625 75.984375 28.609375 75.984375 
z
" id="DejaVuSans-66"/>
      <path d="M 30.609375 48.390625 
Q 23.390625 48.390625 19.1875 42.75 
Q 14.984375 37.109375 14.984375 27.296875 
Q 14.984375 17.484375 19.15625 11.84375 
Q 23.34375 6.203125 30.609375 6.203125 
Q 37.796875 6.203125 41.984375 11.859375 
Q 46.1875 17.53125 46.1875 27.296875 
Q 46.1875 37.015625 41.984375 42.703125 
Q 37.796875 48.390625 30.609375 48.390625 
z
M 30.609375 56 
Q 42.328125 56 49.015625 48.375 
Q 55.71875 40.765625 55.71875 27.296875 
Q 55.71875 13.875 49.015625 6.21875 
Q 42.328125 -1.421875 30.609375 -1.421875 
Q 18.84375 -1.421875 12.171875 6.21875 
Q 5.515625 13.875 5.515625 27.296875 
Q 5.515625 40.765625 12.171875 48.375 
Q 18.84375 56 30.609375 56 
z
" id="DejaVuSans-6f"/>
      <path d="M 52 44.1875 
Q 55.375 50.25 60.0625 53.125 
Q 64.75 56 71.09375 56 
Q 79.640625 56 84.28125 50.015625 
Q 88.921875 44.046875 88.921875 33.015625 
L 88.921875 0 
L 79.890625 0 
L 79.890625 32.71875 
Q 79.890625 40.578125 77.09375 44.375 
Q 74.3125 48.1875 68.609375 48.1875 
Q 61.625 48.1875 57.5625 43.546875 
Q 53.515625 38.921875 53.515625 30.90625 
L 53.515625 0 
L 44.484375 0 
L 44.484375 32.71875 
Q 44.484375 40.625 41.703125 44.40625 
Q 38.921875 48.1875 33.109375 48.1875 
Q 26.21875 48.1875 22.15625 43.53125 
Q 18.109375 38.875 18.109375 30.90625 
L 18.109375 0 
L 9.078125 0 
L 9.078125 54.6875 
L 18.109375 54.6875 
L 18.109375 46.1875 
Q 21.1875 51.21875 25.484375 53.609375 
Q 29.78125 56 35.6875 56 
Q 41.65625 56 45.828125 52.96875 
Q 50 49.953125 52 44.1875 
z
" id="DejaVuSans-6d"/>
      <path d="M 9.421875 54.6875 
L 18.40625 54.6875 
L 18.40625 0 
L 9.421875 0 
z
M 9.421875 75.984375 
L 18.40625 75.984375 
L 18.40625 64.59375 
L 9.421875 64.59375 
z
" id="DejaVuSans-69"/>
     </defs>
     <g transform="translate(21.630781 236.516672)rotate(-90)scale(0.13 -0.13)">
      <use xlink:href="#DejaVuSans-4d"/>
      <use x="86.279297" xlink:href="#DejaVuSans-75"/>
      <use x="149.658203" xlink:href="#DejaVuSans-74"/>
      <use x="188.867188" xlink:href="#DejaVuSans-75"/>
      <use x="252.246094" xlink:href="#DejaVuSans-61"/>
      <use x="313.525391" xlink:href="#DejaVuSans-6c"/>
      <use x="341.308594" xlink:href="#DejaVuSans-20"/>
      <use x="373.095703" xlink:href="#DejaVuSans-49"/>
      <use x="402.587891" xlink:href="#DejaVuSans-6e"/>
      <use x="465.966797" xlink:href="#DejaVuSans-66"/>
      <use x="501.171875" xlink:href="#DejaVuSans-6f"/>
      <use x="562.353516" xlink:href="#DejaVuSans-72"/>
      <use x="603.451172" xlink:href="#DejaVuSans-6d"/>
      <use x="700.863281" xlink:href="#DejaVuSans-61"/>
      <use x="762.142578" xlink:href="#DejaVuSans-74"/>
      <use x="801.351562" xlink:href="#DejaVuSans-69"/>
      <use x="829.134766" xlink:href="#DejaVuSans-6f"/>
      <use x="890.316406" xlink:href="#DejaVuSans-6e"/>
     </g>
    </g>
   </g>
   <g id="line2d_14">
    <path clip-path="url(#pcab4d02ff1)" d="M 73.832727 191.13574 
L 77.521983 159.970642 
L 81.21124 164.264822 
L 84.900496 174.1473 
L 88.589752 192.113562 
L 92.279008 191.942787 
L 95.968264 197.285119 
L 99.657521 191.757396 
L 103.346777 190.858732 
L 107.036033 197.235826 
L 110.725289 203.097074 
L 114.414545 203.874417 
L 118.103802 200.543063 
L 121.793058 200.555457 
L 125.482314 184.149878 
L 129.17157 195.908611 
L 132.860826 190.147796 
L 136.550083 202.167408 
L 140.239339 197.156637 
L 143.928595 197.115847 
L 147.617851 196.504619 
L 151.307107 201.95461 
L 154.996364 200.902162 
L 158.68562 190.796096 
L 162.374876 195.053561 
L 166.064132 195.936245 
L 169.753388 195.906115 
L 173.442645 188.925682 
L 177.131901 205.097954 
L 180.821157 199.479136 
L 184.510413 188.908925 
L 188.199669 177.797808 
L 191.888926 184.245221 
L 195.578182 195.056498 
L 199.267438 190.244206 
L 202.956694 184.633382 
L 206.64595 191.35746 
L 210.335207 191.651571 
L 214.024463 179.554275 
L 217.713719 184.214074 
L 221.402975 195.421519 
L 225.092231 199.593661 
L 228.781488 194.715628 
L 232.470744 183.995374 
L 236.16 191.078146 
L 239.849256 184.308232 
L 243.538512 178.741835 
L 247.227769 179.212077 
L 250.917025 185.338904 
L 254.606281 180.315592 
L 258.295537 179.830944 
L 261.984793 179.890735 
L 265.67405 173.062445 
L 269.363306 172.887582 
L 273.052562 170.954042 
L 276.741818 172.868218 
L 280.431074 177.690719 
L 284.120331 178.251657 
L 287.809587 179.694193 
L 291.498843 179.800972 
L 295.188099 174.022265 
L 298.877355 170.104248 
L 302.566612 180.779736 
L 306.255868 192.328045 
L 309.945124 187.677381 
L 313.63438 190.540495 
L 317.323636 191.85028 
L 321.012893 189.839542 
L 324.702149 184.654709 
L 328.391405 179.265465 
L 332.080661 179.850009 
L 335.769917 185.417098 
L 339.459174 180.184248 
L 343.14843 180.106322 
L 346.837686 179.331702 
L 350.526942 176.061455 
L 354.216198 169.521721 
L 357.905455 170.20447 
L 361.594711 169.327796 
L 365.283967 169.309152 
L 368.973223 179.338438 
L 372.662479 178.202938 
L 376.351736 182.606074 
L 380.040992 182.761801 
L 383.730248 193.872222 
L 387.419504 192.768878 
L 391.10876 204.421242 
L 394.798017 205.240268 
L 398.487273 211.482414 
" style="fill:none;stroke:#228b22;stroke-linecap:square;stroke-width:1.5;"/>
   </g>
   <g id="line2d_15">
    <path clip-path="url(#pcab4d02ff1)" d="M 73.832727 126.67335 
L 77.521983 127.423813 
L 81.21124 130.56113 
L 84.900496 141.8816 
L 88.589752 162.364452 
L 92.279008 169.565889 
L 95.968264 175.358602 
L 99.657521 171.05836 
L 103.346777 168.823531 
L 107.036033 174.378273 
L 110.725289 179.359172 
L 114.414545 178.229407 
L 118.103802 174.542805 
L 121.793058 170.26651 
L 125.482314 151.357878 
L 129.17157 161.851281 
L 132.860826 155.650405 
L 136.550083 166.538924 
L 140.239339 160.900982 
L 143.928595 164.784063 
L 147.617851 167.537951 
L 151.307107 176.414809 
L 154.996364 178.464352 
L 158.68562 172.243926 
L 162.374876 181.504047 
L 166.064132 186.047216 
L 169.753388 188.937931 
L 173.442645 183.693258 
L 177.131901 204.559756 
L 180.821157 198.346467 
L 184.510413 186.167191 
L 188.199669 174.472388 
L 191.888926 180.800721 
L 195.578182 192.263368 
L 199.267438 184.997217 
L 202.956694 178.921366 
L 206.64595 184.036223 
L 210.335207 185.521857 
L 214.024463 173.042556 
L 217.713719 177.944518 
L 221.402975 190.043862 
L 225.092231 195.210619 
L 228.781488 189.696308 
L 232.470744 177.816145 
L 236.16 184.359595 
L 239.849256 176.779927 
L 243.538512 176.070299 
L 247.227769 176.02347 
L 250.917025 179.912223 
L 254.606281 173.729998 
L 258.295537 172.114155 
L 261.984793 171.938636 
L 265.67405 165.154907 
L 269.363306 164.443931 
L 273.052562 164.750647 
L 276.741818 167.484542 
L 280.431074 167.062476 
L 284.120331 167.811564 
L 287.809587 171.237136 
L 291.498843 171.693859 
L 295.188099 167.450623 
L 298.877355 163.249237 
L 302.566612 174.624286 
L 306.255868 187.595991 
L 309.945124 181.167148 
L 313.63438 183.092681 
L 317.323636 185.268474 
L 321.012893 184.264151 
L 324.702149 177.469836 
L 328.391405 172.091637 
L 332.080661 172.310839 
L 335.769917 178.062331 
L 339.459174 172.604567 
L 343.14843 173.149412 
L 346.837686 172.951265 
L 350.526942 170.09834 
L 354.216198 163.420961 
L 357.905455 163.909329 
L 361.594711 165.119377 
L 365.283967 165.757509 
L 368.973223 176.438852 
L 372.662479 175.047858 
L 376.351736 175.042333 
L 380.040992 174.492483 
L 383.730248 181.293516 
L 387.419504 181.229875 
L 391.10876 193.413678 
L 394.798017 194.115754 
L 398.487273 199.308223 
" style="fill:none;stroke:#800080;stroke-dasharray:9.6,2.4,1.5,2.4;stroke-dashoffset:0;stroke-width:1.5;"/>
   </g>
   <g id="line2d_16">
    <path clip-path="url(#pcab4d02ff1)" d="M 73.832727 155.506511 
L 77.521983 158.175517 
L 81.21124 163.95256 
L 84.900496 174.889903 
L 88.589752 191.492451 
L 92.279008 191.189939 
L 95.968264 195.754216 
L 99.657521 189.636226 
L 103.346777 188.212842 
L 107.036033 194.139137 
L 110.725289 198.581816 
L 114.414545 199.346329 
L 118.103802 196.519971 
L 121.793058 195.199924 
L 125.482314 179.965424 
L 129.17157 192.013795 
L 132.860826 187.73385 
L 136.550083 199.642998 
L 140.239339 195.220933 
L 143.928595 196.138377 
L 147.617851 196.259631 
L 151.307107 201.130841 
L 154.996364 199.554329 
L 158.68562 189.640523 
L 162.374876 195.000515 
L 166.064132 194.052247 
L 169.753388 194.751053 
L 173.442645 187.506378 
L 177.131901 204.139075 
L 180.821157 197.607727 
L 184.510413 187.289644 
L 188.199669 176.225455 
L 191.888926 181.965367 
L 195.578182 193.357239 
L 199.267438 187.158519 
L 202.956694 183.695288 
L 206.64595 188.938627 
L 210.335207 190.550742 
L 214.024463 178.526469 
L 217.713719 183.849144 
L 221.402975 194.076606 
L 225.092231 197.473731 
L 228.781488 193.559436 
L 232.470744 181.4567 
L 236.16 187.901003 
L 239.849256 181.256648 
L 243.538512 180.071752 
L 247.227769 179.633888 
L 250.917025 185.303997 
L 254.606281 180.150876 
L 258.295537 181.037514 
L 261.984793 183.124169 
L 265.67405 176.661362 
L 269.363306 176.837587 
L 273.052562 175.655853 
L 276.741818 176.476472 
L 280.431074 176.859385 
L 284.120331 177.414709 
L 287.809587 178.073644 
L 291.498843 178.18624 
L 295.188099 172.895057 
L 298.877355 166.718649 
L 302.566612 177.62377 
L 306.255868 189.075361 
L 309.945124 184.223376 
L 313.63438 187.365085 
L 317.323636 188.131278 
L 321.012893 181.799154 
L 324.702149 176.670855 
L 328.391405 170.697022 
L 332.080661 170.801216 
L 335.769917 177.226297 
L 339.459174 171.744311 
L 343.14843 171.925201 
L 346.837686 171.402598 
L 350.526942 167.811099 
L 354.216198 161.471233 
L 357.905455 166.484231 
L 361.594711 166.34321 
L 365.283967 166.839352 
L 368.973223 176.37349 
L 372.662479 175.169223 
L 376.351736 174.867921 
L 380.040992 176.094906 
L 383.730248 186.586002 
L 387.419504 185.794358 
L 391.10876 197.38109 
L 394.798017 198.548485 
L 398.487273 204.790631 
" style="fill:none;stroke:#1e90ff;stroke-dasharray:9.6,2.4,1.5,2.4;stroke-dashoffset:0;stroke-width:1.5;"/>
   </g>
   <g id="line2d_17">
    <path clip-path="url(#pcab4d02ff1)" d="M 73.832727 152.179161 
L 77.521983 154.657009 
L 81.21124 160.156196 
L 84.900496 171.311198 
L 88.589752 188.571523 
L 92.279008 193.122024 
L 95.968264 197.418975 
L 99.657521 190.968325 
L 103.346777 189.907759 
L 107.036033 196.011507 
L 110.725289 201.420756 
L 114.414545 202.670095 
L 118.103802 199.75307 
L 121.793058 197.963337 
L 125.482314 182.07106 
L 129.17157 193.579553 
L 132.860826 189.030692 
L 136.550083 201.154465 
L 140.239339 195.790811 
L 143.928595 196.413437 
L 147.617851 196.481925 
L 151.307107 200.441378 
L 154.996364 199.132694 
L 158.68562 189.57756 
L 162.374876 193.717641 
L 166.064132 195.194607 
L 169.753388 195.891465 
L 173.442645 188.776321 
L 177.131901 205.838559 
L 180.821157 199.21217 
L 184.510413 188.307597 
L 188.199669 178.364825 
L 191.888926 184.479239 
L 195.578182 196.083597 
L 199.267438 190.945551 
L 202.956694 185.635858 
L 206.64595 191.101324 
L 210.335207 191.854499 
L 214.024463 179.564414 
L 217.713719 183.990576 
L 221.402975 194.196709 
L 225.092231 197.896609 
L 228.781488 193.000431 
L 232.470744 181.508425 
L 236.16 187.965077 
L 239.849256 180.549991 
L 243.538512 178.320738 
L 247.227769 178.39766 
L 250.917025 184.323707 
L 254.606281 179.448717 
L 258.295537 179.453852 
L 261.984793 180.668172 
L 265.67405 173.847163 
L 269.363306 173.565656 
L 273.052562 172.53081 
L 276.741818 173.95153 
L 280.431074 175.142129 
L 284.120331 175.676125 
L 287.809587 176.408848 
L 291.498843 176.58543 
L 295.188099 172.166609 
L 298.877355 167.532939 
L 302.566612 178.239559 
L 306.255868 189.496825 
L 309.945124 184.21537 
L 313.63438 186.84509 
L 317.323636 187.335312 
L 321.012893 185.745793 
L 324.702149 181.110951 
L 328.391405 175.932072 
L 332.080661 176.195629 
L 335.769917 181.318203 
L 339.459174 177.000302 
L 343.14843 177.730083 
L 346.837686 177.512906 
L 350.526942 174.990839 
L 354.216198 169.771315 
L 357.905455 170.535164 
L 361.594711 169.855364 
L 365.283967 170.050007 
L 368.973223 180.500545 
L 372.662479 177.765255 
L 376.351736 181.69444 
L 380.040992 181.762236 
L 383.730248 192.754378 
L 387.419504 191.405291 
L 391.10876 202.961284 
L 394.798017 203.227082 
L 398.487273 209.386579 
" style="fill:none;stroke:#dc143c;stroke-dasharray:5.55,2.4;stroke-dashoffset:0;stroke-width:1.5;"/>
   </g>
   <g id="line2d_18">
    <path clip-path="url(#pcab4d02ff1)" d="M 73.832727 153.998293 
L 77.521983 156.304098 
L 81.21124 161.989499 
L 84.900496 172.301447 
L 88.589752 190.267709 
L 92.279008 190.096934 
L 95.968264 195.524581 
L 99.657521 189.567388 
L 103.346777 188.775368 
L 107.036033 195.560603 
L 110.725289 201.272549 
L 114.414545 202.479362 
L 118.103802 199.339968 
L 121.793058 199.373691 
L 125.482314 183.010769 
L 129.17157 194.748174 
L 132.860826 189.910285 
L 136.550083 202.380696 
L 140.239339 197.714079 
L 143.928595 197.737276 
L 147.617851 197.27535 
L 151.307107 202.661354 
L 154.996364 201.008806 
L 158.68562 190.945398 
L 162.374876 196.198358 
L 166.064132 197.017056 
L 169.753388 197.756571 
L 173.442645 190.719571 
L 177.131901 206.9345 
L 180.821157 200.904875 
L 184.510413 190.206691 
L 188.199669 177.694139 
L 191.888926 184.162882 
L 195.578182 194.931501 
L 199.267438 189.041064 
L 202.956694 183.107415 
L 206.64595 188.589719 
L 210.335207 188.876411 
L 214.024463 177.165928 
L 217.713719 182.215205 
L 221.402975 193.01451 
L 225.092231 198.588085 
L 228.781488 194.246166 
L 232.470744 183.696543 
L 236.16 189.311228 
L 239.849256 182.949455 
L 243.538512 177.407053 
L 247.227769 177.919953 
L 250.917025 183.081196 
L 254.606281 178.057884 
L 258.295537 177.530578 
L 261.984793 177.675685 
L 265.67405 170.74075 
L 269.363306 170.331271 
L 273.052562 169.905808 
L 276.741818 171.819985 
L 280.431074 176.618491 
L 284.120331 177.200757 
L 287.809587 179.222066 
L 291.498843 179.350173 
L 295.188099 173.640785 
L 298.877355 169.562338 
L 302.566612 180.131183 
L 306.255868 191.722149 
L 309.945124 187.071484 
L 313.63438 189.934599 
L 317.323636 190.70827 
L 321.012893 188.676203 
L 324.702149 182.976584 
L 328.391405 177.566012 
L 332.080661 178.63868 
L 335.769917 184.280883 
L 339.459174 179.176007 
L 343.14843 178.689939 
L 346.837686 177.46452 
L 350.526942 174.087629 
L 354.216198 167.977365 
L 357.905455 168.660114 
L 361.594711 168.319555 
L 365.283967 168.236924 
L 368.973223 178.215554 
L 372.662479 177.091145 
L 376.351736 181.472952 
L 380.040992 181.908847 
L 383.730248 193.470067 
L 387.419504 192.473368 
L 391.10876 204.445664 
L 394.798017 205.24336 
L 398.487273 210.949392 
" style="fill:none;stroke:#ffa500;stroke-dasharray:5.55,2.4;stroke-dashoffset:0;stroke-width:1.5;"/>
   </g>
   <g id="patch_3">
    <path d="M 57.6 307.584 
L 57.6 41.472 
" style="fill:none;stroke:#000000;stroke-linecap:square;stroke-linejoin:miter;stroke-width:0.8;"/>
   </g>
   <g id="patch_4">
    <path d="M 414.72 307.584 
L 414.72 41.472 
" style="fill:none;stroke:#000000;stroke-linecap:square;stroke-linejoin:miter;stroke-width:0.8;"/>
   </g>
   <g id="patch_5">
    <path d="M 57.6 307.584 
L 414.72 307.584 
" style="fill:none;stroke:#000000;stroke-linecap:square;stroke-linejoin:miter;stroke-width:0.8;"/>
   </g>
   <g id="patch_6">
    <path d="M 57.6 41.472 
L 414.72 41.472 
" style="fill:none;stroke:#000000;stroke-linecap:square;stroke-linejoin:miter;stroke-width:0.8;"/>
   </g>
   <g id="text_16">
    <!-- Verification for Theorem 6 -->
    <defs>
     <path d="M 28.609375 0 
L 0.78125 72.90625 
L 11.078125 72.90625 
L 34.1875 11.53125 
L 57.328125 72.90625 
L 67.578125 72.90625 
L 39.796875 0 
z
" id="DejaVuSans-56"/>
     <path d="M 48.78125 52.59375 
L 48.78125 44.1875 
Q 44.96875 46.296875 41.140625 47.34375 
Q 37.3125 48.390625 33.40625 48.390625 
Q 24.65625 48.390625 19.8125 42.84375 
Q 14.984375 37.3125 14.984375 27.296875 
Q 14.984375 17.28125 19.8125 11.734375 
Q 24.65625 6.203125 33.40625 6.203125 
Q 37.3125 6.203125 41.140625 7.25 
Q 44.96875 8.296875 48.78125 10.40625 
L 48.78125 2.09375 
Q 45.015625 0.34375 40.984375 -0.53125 
Q 36.96875 -1.421875 32.421875 -1.421875 
Q 20.0625 -1.421875 12.78125 6.34375 
Q 5.515625 14.109375 5.515625 27.296875 
Q 5.515625 40.671875 12.859375 48.328125 
Q 20.21875 56 33.015625 56 
Q 37.15625 56 41.109375 55.140625 
Q 45.0625 54.296875 48.78125 52.59375 
z
" id="DejaVuSans-63"/>
     <path d="M -0.296875 72.90625 
L 61.375 72.90625 
L 61.375 64.59375 
L 35.5 64.59375 
L 35.5 0 
L 25.59375 0 
L 25.59375 64.59375 
L -0.296875 64.59375 
z
" id="DejaVuSans-54"/>
     <path d="M 54.890625 33.015625 
L 54.890625 0 
L 45.90625 0 
L 45.90625 32.71875 
Q 45.90625 40.484375 42.875 44.328125 
Q 39.84375 48.1875 33.796875 48.1875 
Q 26.515625 48.1875 22.3125 43.546875 
Q 18.109375 38.921875 18.109375 30.90625 
L 18.109375 0 
L 9.078125 0 
L 9.078125 75.984375 
L 18.109375 75.984375 
L 18.109375 46.1875 
Q 21.34375 51.125 25.703125 53.5625 
Q 30.078125 56 35.796875 56 
Q 45.21875 56 50.046875 50.171875 
Q 54.890625 44.34375 54.890625 33.015625 
z
" id="DejaVuSans-68"/>
     <path d="M 33.015625 40.375 
Q 26.375 40.375 22.484375 35.828125 
Q 18.609375 31.296875 18.609375 23.390625 
Q 18.609375 15.53125 22.484375 10.953125 
Q 26.375 6.390625 33.015625 6.390625 
Q 39.65625 6.390625 43.53125 10.953125 
Q 47.40625 15.53125 47.40625 23.390625 
Q 47.40625 31.296875 43.53125 35.828125 
Q 39.65625 40.375 33.015625 40.375 
z
M 52.59375 71.296875 
L 52.59375 62.3125 
Q 48.875 64.0625 45.09375 64.984375 
Q 41.3125 65.921875 37.59375 65.921875 
Q 27.828125 65.921875 22.671875 59.328125 
Q 17.53125 52.734375 16.796875 39.40625 
Q 19.671875 43.65625 24.015625 45.921875 
Q 28.375 48.1875 33.59375 48.1875 
Q 44.578125 48.1875 50.953125 41.515625 
Q 57.328125 34.859375 57.328125 23.390625 
Q 57.328125 12.15625 50.6875 5.359375 
Q 44.046875 -1.421875 33.015625 -1.421875 
Q 20.359375 -1.421875 13.671875 8.265625 
Q 6.984375 17.96875 6.984375 36.375 
Q 6.984375 53.65625 15.1875 63.9375 
Q 23.390625 74.21875 37.203125 74.21875 
Q 40.921875 74.21875 44.703125 73.484375 
Q 48.484375 72.75 52.59375 71.296875 
z
" id="DejaVuSans-36"/>
    </defs>
    <g transform="translate(144.237969 35.472)scale(0.14 -0.14)">
     <use xlink:href="#DejaVuSans-56"/>
     <use x="68.298828" xlink:href="#DejaVuSans-65"/>
     <use x="129.822266" xlink:href="#DejaVuSans-72"/>
     <use x="170.935547" xlink:href="#DejaVuSans-69"/>
     <use x="198.71875" xlink:href="#DejaVuSans-66"/>
     <use x="233.923828" xlink:href="#DejaVuSans-69"/>
     <use x="261.707031" xlink:href="#DejaVuSans-63"/>
     <use x="316.6875" xlink:href="#DejaVuSans-61"/>
     <use x="377.966797" xlink:href="#DejaVuSans-74"/>
     <use x="417.175781" xlink:href="#DejaVuSans-69"/>
     <use x="444.958984" xlink:href="#DejaVuSans-6f"/>
     <use x="506.140625" xlink:href="#DejaVuSans-6e"/>
     <use x="569.519531" xlink:href="#DejaVuSans-20"/>
     <use x="601.306641" xlink:href="#DejaVuSans-66"/>
     <use x="636.511719" xlink:href="#DejaVuSans-6f"/>
     <use x="697.693359" xlink:href="#DejaVuSans-72"/>
     <use x="738.806641" xlink:href="#DejaVuSans-20"/>
     <use x="770.59375" xlink:href="#DejaVuSans-54"/>
     <use x="831.677734" xlink:href="#DejaVuSans-68"/>
     <use x="895.056641" xlink:href="#DejaVuSans-65"/>
     <use x="956.580078" xlink:href="#DejaVuSans-6f"/>
     <use x="1017.761719" xlink:href="#DejaVuSans-72"/>
     <use x="1058.84375" xlink:href="#DejaVuSans-65"/>
     <use x="1120.367188" xlink:href="#DejaVuSans-6d"/>
     <use x="1217.779297" xlink:href="#DejaVuSans-20"/>
     <use x="1249.566406" xlink:href="#DejaVuSans-36"/>
    </g>
   </g>
   <g id="legend_1">
    <g id="patch_7">
     <path d="M 332.01 127.242 
L 408.42 127.242 
Q 410.22 127.242 410.22 125.442 
L 410.22 47.772 
Q 410.22 45.972 408.42 45.972 
L 332.01 45.972 
Q 330.21 45.972 330.21 47.772 
L 330.21 125.442 
Q 330.21 127.242 332.01 127.242 
z
" style="fill:#ffffff;opacity:0.8;stroke:#cccccc;stroke-linejoin:miter;"/>
    </g>
    <g id="line2d_19">
     <path d="M 333.81 54.360281 
L 351.81 54.360281 
" style="fill:none;stroke:#228b22;stroke-linecap:square;stroke-width:1.5;"/>
    </g>
    <g id="line2d_20"/>
    <g id="text_17">
     <!-- $I(x_t,\hat{x}_t)$ -->
     <defs>
      <path d="M 16.890625 72.90625 
L 26.8125 72.90625 
L 12.59375 0 
L 2.6875 0 
z
" id="DejaVuSans-Oblique-49"/>
      <path d="M 31 75.875 
Q 24.46875 64.65625 21.28125 53.65625 
Q 18.109375 42.671875 18.109375 31.390625 
Q 18.109375 20.125 21.3125 9.0625 
Q 24.515625 -2 31 -13.1875 
L 23.1875 -13.1875 
Q 15.875 -1.703125 12.234375 9.375 
Q 8.59375 20.453125 8.59375 31.390625 
Q 8.59375 42.28125 12.203125 53.3125 
Q 15.828125 64.359375 23.1875 75.875 
z
" id="DejaVuSans-28"/>
      <path d="M 60.015625 54.6875 
L 34.90625 27.875 
L 50.296875 0 
L 39.984375 0 
L 28.421875 21.6875 
L 8.296875 0 
L -2.59375 0 
L 24.3125 28.8125 
L 10.015625 54.6875 
L 20.3125 54.6875 
L 30.8125 34.90625 
L 49.125 54.6875 
z
" id="DejaVuSans-Oblique-78"/>
      <path d="M 42.28125 54.6875 
L 40.921875 47.703125 
L 23 47.703125 
L 17.1875 18.015625 
Q 16.890625 16.359375 16.75 15.234375 
Q 16.609375 14.109375 16.609375 13.484375 
Q 16.609375 10.359375 18.484375 8.9375 
Q 20.359375 7.515625 24.515625 7.515625 
L 33.59375 7.515625 
L 32.078125 0 
L 23.484375 0 
Q 15.484375 0 11.546875 3.125 
Q 7.625 6.25 7.625 12.59375 
Q 7.625 13.71875 7.765625 15.0625 
Q 7.90625 16.40625 8.203125 18.015625 
L 14.015625 47.703125 
L 6.390625 47.703125 
L 7.8125 54.6875 
L 15.28125 54.6875 
L 18.3125 70.21875 
L 27.296875 70.21875 
L 24.3125 54.6875 
z
" id="DejaVuSans-Oblique-74"/>
      <path d="M 11.71875 12.40625 
L 22.015625 12.40625 
L 22.015625 4 
L 14.015625 -11.625 
L 7.71875 -11.625 
L 11.71875 4 
z
" id="DejaVuSans-2c"/>
      <path d="M -28.609375 79.984375 
L -21.390625 79.984375 
L -9.421875 61.625 
L -16.21875 61.625 
L -25 73.578125 
L -33.796875 61.625 
L -40.578125 61.625 
z
M -25 56 
z
" id="DejaVuSans-302"/>
      <path d="M 8.015625 75.875 
L 15.828125 75.875 
Q 23.140625 64.359375 26.78125 53.3125 
Q 30.421875 42.28125 30.421875 31.390625 
Q 30.421875 20.453125 26.78125 9.375 
Q 23.140625 -1.703125 15.828125 -13.1875 
L 8.015625 -13.1875 
Q 14.5 -2 17.703125 9.0625 
Q 20.90625 20.125 20.90625 31.390625 
Q 20.90625 42.671875 17.703125 53.65625 
Q 14.5 64.65625 8.015625 75.875 
z
" id="DejaVuSans-29"/>
     </defs>
     <g transform="translate(359.01 57.510281)scale(0.09 -0.09)">
      <use transform="translate(0 0.828125)" xlink:href="#DejaVuSans-Oblique-49"/>
      <use transform="translate(29.492188 0.828125)" xlink:href="#DejaVuSans-28"/>
      <use transform="translate(68.505859 0.828125)" xlink:href="#DejaVuSans-Oblique-78"/>
      <use transform="translate(127.685547 -15.578125)scale(0.7)" xlink:href="#DejaVuSans-Oblique-74"/>
      <use transform="translate(157.866211 0.828125)" xlink:href="#DejaVuSans-2c"/>
      <use transform="translate(271.508789 12.015625)" xlink:href="#DejaVuSans-302"/>
      <use transform="translate(209.135742 0.828125)" xlink:href="#DejaVuSans-Oblique-78"/>
      <use transform="translate(269.272461 -15.578125)scale(0.7)" xlink:href="#DejaVuSans-Oblique-74"/>
      <use transform="translate(299.453125 0.828125)" xlink:href="#DejaVuSans-29"/>
     </g>
    </g>
    <g id="line2d_21">
     <path d="M 333.81 69.822 
L 351.81 69.822 
" style="fill:none;stroke:#800080;stroke-dasharray:9.6,2.4,1.5,2.4;stroke-dashoffset:0;stroke-width:1.5;"/>
    </g>
    <g id="line2d_22"/>
    <g id="text_18">
     <!-- $I(x_t,y_{t}^{q=6})$ -->
     <defs>
      <path d="M 24.8125 -5.078125 
Q 18.5625 -15.578125 14.625 -18.1875 
Q 10.6875 -20.796875 4.59375 -20.796875 
L -2.484375 -20.796875 
L -0.984375 -13.28125 
L 4.203125 -13.28125 
Q 7.953125 -13.28125 10.59375 -11.234375 
Q 13.234375 -9.1875 16.5 -3.21875 
L 19.28125 2 
L 7.171875 54.6875 
L 16.703125 54.6875 
L 25.78125 12.796875 
L 50.875 54.6875 
L 60.296875 54.6875 
z
" id="DejaVuSans-Oblique-79"/>
      <path d="M 41.703125 8.203125 
Q 38.09375 3.46875 33.171875 1.015625 
Q 28.265625 -1.421875 22.3125 -1.421875 
Q 14.015625 -1.421875 9.296875 4.171875 
Q 4.59375 9.765625 4.59375 19.578125 
Q 4.59375 27.484375 7.5 34.859375 
Q 10.40625 42.234375 15.828125 48.09375 
Q 19.34375 51.90625 23.90625 53.953125 
Q 28.46875 56 33.5 56 
Q 39.546875 56 43.453125 53.609375 
Q 47.359375 51.21875 49.125 46.390625 
L 50.6875 54.59375 
L 59.71875 54.59375 
L 45.125 -20.609375 
L 36.078125 -20.609375 
z
M 13.921875 20.90625 
Q 13.921875 13.671875 16.9375 9.890625 
Q 19.96875 6.109375 25.6875 6.109375 
Q 34.1875 6.109375 40.1875 14.234375 
Q 46.1875 22.359375 46.1875 33.984375 
Q 46.1875 41.015625 43.078125 44.75 
Q 39.984375 48.484375 34.1875 48.484375 
Q 29.9375 48.484375 26.3125 46.5 
Q 22.703125 44.53125 20.015625 40.71875 
Q 17.1875 36.71875 15.546875 31.34375 
Q 13.921875 25.984375 13.921875 20.90625 
z
" id="DejaVuSans-Oblique-71"/>
      <path d="M 10.59375 45.40625 
L 73.1875 45.40625 
L 73.1875 37.203125 
L 10.59375 37.203125 
z
M 10.59375 25.484375 
L 73.1875 25.484375 
L 73.1875 17.1875 
L 10.59375 17.1875 
z
" id="DejaVuSans-3d"/>
     </defs>
     <g transform="translate(359.01 72.972)scale(0.09 -0.09)">
      <use transform="translate(0 0.310938)" xlink:href="#DejaVuSans-Oblique-49"/>
      <use transform="translate(29.492188 0.310938)" xlink:href="#DejaVuSans-28"/>
      <use transform="translate(68.505859 0.310938)" xlink:href="#DejaVuSans-Oblique-78"/>
      <use transform="translate(127.685547 -16.095312)scale(0.7)" xlink:href="#DejaVuSans-Oblique-74"/>
      <use transform="translate(157.866211 0.310938)" xlink:href="#DejaVuSans-2c"/>
      <use transform="translate(209.135742 0.310938)" xlink:href="#DejaVuSans-Oblique-79"/>
      <use transform="translate(272.781576 49.046875)scale(0.7)" xlink:href="#DejaVuSans-Oblique-71"/>
      <use transform="translate(330.852865 49.046875)scale(0.7)" xlink:href="#DejaVuSans-3d"/>
      <use transform="translate(403.142904 49.046875)scale(0.7)" xlink:href="#DejaVuSans-36"/>
      <use transform="translate(268.31543 -27.032812)scale(0.7)" xlink:href="#DejaVuSans-Oblique-74"/>
      <use transform="translate(450.413411 0.310938)" xlink:href="#DejaVuSans-29"/>
     </g>
    </g>
    <g id="line2d_23">
     <path d="M 333.81 85.842 
L 351.81 85.842 
" style="fill:none;stroke:#1e90ff;stroke-dasharray:9.6,2.4,1.5,2.4;stroke-dashoffset:0;stroke-width:1.5;"/>
    </g>
    <g id="line2d_24"/>
    <g id="text_19">
     <!-- $I(x_t,y_{t}^{q=5})$ -->
     <g transform="translate(359.01 88.992)scale(0.09 -0.09)">
      <use transform="translate(0 0.229688)" xlink:href="#DejaVuSans-Oblique-49"/>
      <use transform="translate(29.492188 0.229688)" xlink:href="#DejaVuSans-28"/>
      <use transform="translate(68.505859 0.229688)" xlink:href="#DejaVuSans-Oblique-78"/>
      <use transform="translate(127.685547 -16.176562)scale(0.7)" xlink:href="#DejaVuSans-Oblique-74"/>
      <use transform="translate(157.866211 0.229688)" xlink:href="#DejaVuSans-2c"/>
      <use transform="translate(209.135742 0.229688)" xlink:href="#DejaVuSans-Oblique-79"/>
      <use transform="translate(272.781576 48.965625)scale(0.7)" xlink:href="#DejaVuSans-Oblique-71"/>
      <use transform="translate(330.852865 48.965625)scale(0.7)" xlink:href="#DejaVuSans-3d"/>
      <use transform="translate(403.142904 48.965625)scale(0.7)" xlink:href="#DejaVuSans-35"/>
      <use transform="translate(268.31543 -27.114062)scale(0.7)" xlink:href="#DejaVuSans-Oblique-74"/>
      <use transform="translate(450.413411 0.229688)" xlink:href="#DejaVuSans-29"/>
     </g>
    </g>
    <g id="line2d_25">
     <path d="M 333.81 101.862 
L 351.81 101.862 
" style="fill:none;stroke:#dc143c;stroke-dasharray:5.55,2.4;stroke-dashoffset:0;stroke-width:1.5;"/>
    </g>
    <g id="line2d_26"/>
    <g id="text_20">
     <!-- $I(x_t,y_{t}^{q=4})$ -->
     <g transform="translate(359.01 105.012)scale(0.09 -0.09)">
      <use transform="translate(0 0.229688)" xlink:href="#DejaVuSans-Oblique-49"/>
      <use transform="translate(29.492188 0.229688)" xlink:href="#DejaVuSans-28"/>
      <use transform="translate(68.505859 0.229688)" xlink:href="#DejaVuSans-Oblique-78"/>
      <use transform="translate(127.685547 -16.176562)scale(0.7)" xlink:href="#DejaVuSans-Oblique-74"/>
      <use transform="translate(157.866211 0.229688)" xlink:href="#DejaVuSans-2c"/>
      <use transform="translate(209.135742 0.229688)" xlink:href="#DejaVuSans-Oblique-79"/>
      <use transform="translate(272.781576 48.965625)scale(0.7)" xlink:href="#DejaVuSans-Oblique-71"/>
      <use transform="translate(330.852865 48.965625)scale(0.7)" xlink:href="#DejaVuSans-3d"/>
      <use transform="translate(403.142904 48.965625)scale(0.7)" xlink:href="#DejaVuSans-34"/>
      <use transform="translate(268.31543 -27.114062)scale(0.7)" xlink:href="#DejaVuSans-Oblique-74"/>
      <use transform="translate(450.413411 0.229688)" xlink:href="#DejaVuSans-29"/>
     </g>
    </g>
    <g id="line2d_27">
     <path d="M 333.81 117.972 
L 351.81 117.972 
" style="fill:none;stroke:#ffa500;stroke-dasharray:5.55,2.4;stroke-dashoffset:0;stroke-width:1.5;"/>
    </g>
    <g id="line2d_28"/>
    <g id="text_21">
     <!-- $I(x_t,y_{t}^{q=3})$) -->
     <g transform="translate(359.01 121.122)scale(0.09 -0.09)">
      <use transform="translate(0 0.310938)" xlink:href="#DejaVuSans-Oblique-49"/>
      <use transform="translate(29.492188 0.310938)" xlink:href="#DejaVuSans-28"/>
      <use transform="translate(68.505859 0.310938)" xlink:href="#DejaVuSans-Oblique-78"/>
      <use transform="translate(127.685547 -16.095312)scale(0.7)" xlink:href="#DejaVuSans-Oblique-74"/>
      <use transform="translate(157.866211 0.310938)" xlink:href="#DejaVuSans-2c"/>
      <use transform="translate(209.135742 0.310938)" xlink:href="#DejaVuSans-Oblique-79"/>
      <use transform="translate(272.781576 49.046875)scale(0.7)" xlink:href="#DejaVuSans-Oblique-71"/>
      <use transform="translate(330.852865 49.046875)scale(0.7)" xlink:href="#DejaVuSans-3d"/>
      <use transform="translate(403.142904 49.046875)scale(0.7)" xlink:href="#DejaVuSans-33"/>
      <use transform="translate(268.31543 -27.032812)scale(0.7)" xlink:href="#DejaVuSans-Oblique-74"/>
      <use transform="translate(450.413411 0.310938)" xlink:href="#DejaVuSans-29"/>
      <use transform="translate(489.427083 0.310938)" xlink:href="#DejaVuSans-29"/>
     </g>
    </g>
   </g>
  </g>
 </g>
 <defs>
  <clipPath id="pcab4d02ff1">
   <rect height="266.112" width="357.12" x="57.6" y="41.472"/>
  </clipPath>
 </defs>
</svg>
