<?xml version="1.0" encoding="utf-8" standalone="no"?>
<!DOCTYPE svg PUBLIC "-//W3C//DTD SVG 1.1//EN"
  "http://www.w3.org/Graphics/SVG/1.1/DTD/svg11.dtd">
<!-- Created with matplotlib (http://matplotlib.org/) -->
<svg height="345.6pt" version="1.1" viewBox="0 0 460.8 345.6" width="460.8pt" xmlns="http://www.w3.org/2000/svg" xmlns:xlink="http://www.w3.org/1999/xlink">
 <defs>
  <style type="text/css">
*{stroke-linecap:butt;stroke-linejoin:round;}
  </style>
 </defs>
 <g id="figure_1">
  <g id="patch_1">
   <path d="M 0 345.6 
L 460.8 345.6 
L 460.8 0 
L 0 0 
z
" style="fill:#ffffff;"/>
  </g>
  <g id="axes_1">
   <g id="patch_2">
    <path d="M 57.6 307.584 
L 414.72 307.584 
L 414.72 41.472 
L 57.6 41.472 
z
" style="fill:#ffffff;"/>
   </g>
   <g id="matplotlib.axis_1">
    <g id="xtick_1">
     <g id="line2d_1">
      <defs>
       <path d="M 0 0 
L 0 3.5 
" id="m00b90b83e4" style="stroke:#000000;stroke-width:0.8;"/>
      </defs>
      <g>
       <use style="stroke:#000000;stroke-width:0.8;" x="73.832727" xlink:href="#m00b90b83e4" y="307.584"/>
      </g>
     </g>
     <g id="text_1">
      <!-- 0 -->
      <defs>
       <path d="M 31.78125 66.40625 
Q 24.171875 66.40625 20.328125 58.90625 
Q 16.5 51.421875 16.5 36.375 
Q 16.5 21.390625 20.328125 13.890625 
Q 24.171875 6.390625 31.78125 6.390625 
Q 39.453125 6.390625 43.28125 13.890625 
Q 47.125 21.390625 47.125 36.375 
Q 47.125 51.421875 43.28125 58.90625 
Q 39.453125 66.40625 31.78125 66.40625 
z
M 31.78125 74.21875 
Q 44.046875 74.21875 50.515625 64.515625 
Q 56.984375 54.828125 56.984375 36.375 
Q 56.984375 17.96875 50.515625 8.265625 
Q 44.046875 -1.421875 31.78125 -1.421875 
Q 19.53125 -1.421875 13.0625 8.265625 
Q 6.59375 17.96875 6.59375 36.375 
Q 6.59375 54.828125 13.0625 64.515625 
Q 19.53125 74.21875 31.78125 74.21875 
z
" id="DejaVuSans-30"/>
      </defs>
      <g transform="translate(70.651477 322.182437)scale(0.1 -0.1)">
       <use xlink:href="#DejaVuSans-30"/>
      </g>
     </g>
    </g>
    <g id="xtick_2">
     <g id="line2d_2">
      <g>
       <use style="stroke:#000000;stroke-width:0.8;" x="114.414545" xlink:href="#m00b90b83e4" y="307.584"/>
      </g>
     </g>
     <g id="text_2">
      <!-- 2500 -->
      <defs>
       <path d="M 19.1875 8.296875 
L 53.609375 8.296875 
L 53.609375 0 
L 7.328125 0 
L 7.328125 8.296875 
Q 12.9375 14.109375 22.625 23.890625 
Q 32.328125 33.6875 34.8125 36.53125 
Q 39.546875 41.84375 41.421875 45.53125 
Q 43.3125 49.21875 43.3125 52.78125 
Q 43.3125 58.59375 39.234375 62.25 
Q 35.15625 65.921875 28.609375 65.921875 
Q 23.96875 65.921875 18.8125 64.3125 
Q 13.671875 62.703125 7.8125 59.421875 
L 7.8125 69.390625 
Q 13.765625 71.78125 18.9375 73 
Q 24.125 74.21875 28.421875 74.21875 
Q 39.75 74.21875 46.484375 68.546875 
Q 53.21875 62.890625 53.21875 53.421875 
Q 53.21875 48.921875 51.53125 44.890625 
Q 49.859375 40.875 45.40625 35.40625 
Q 44.1875 33.984375 37.640625 27.21875 
Q 31.109375 20.453125 19.1875 8.296875 
z
" id="DejaVuSans-32"/>
       <path d="M 10.796875 72.90625 
L 49.515625 72.90625 
L 49.515625 64.59375 
L 19.828125 64.59375 
L 19.828125 46.734375 
Q 21.96875 47.46875 24.109375 47.828125 
Q 26.265625 48.1875 28.421875 48.1875 
Q 40.625 48.1875 47.75 41.5 
Q 54.890625 34.8125 54.890625 23.390625 
Q 54.890625 11.625 47.5625 5.09375 
Q 40.234375 -1.421875 26.90625 -1.421875 
Q 22.3125 -1.421875 17.546875 -0.640625 
Q 12.796875 0.140625 7.71875 1.703125 
L 7.71875 11.625 
Q 12.109375 9.234375 16.796875 8.0625 
Q 21.484375 6.890625 26.703125 6.890625 
Q 35.15625 6.890625 40.078125 11.328125 
Q 45.015625 15.765625 45.015625 23.390625 
Q 45.015625 31 40.078125 35.4375 
Q 35.15625 39.890625 26.703125 39.890625 
Q 22.75 39.890625 18.8125 39.015625 
Q 14.890625 38.140625 10.796875 36.28125 
z
" id="DejaVuSans-35"/>
      </defs>
      <g transform="translate(101.689545 322.182437)scale(0.1 -0.1)">
       <use xlink:href="#DejaVuSans-32"/>
       <use x="63.623047" xlink:href="#DejaVuSans-35"/>
       <use x="127.246094" xlink:href="#DejaVuSans-30"/>
       <use x="190.869141" xlink:href="#DejaVuSans-30"/>
      </g>
     </g>
    </g>
    <g id="xtick_3">
     <g id="line2d_3">
      <g>
       <use style="stroke:#000000;stroke-width:0.8;" x="154.996364" xlink:href="#m00b90b83e4" y="307.584"/>
      </g>
     </g>
     <g id="text_3">
      <!-- 5000 -->
      <g transform="translate(142.271364 322.182437)scale(0.1 -0.1)">
       <use xlink:href="#DejaVuSans-35"/>
       <use x="63.623047" xlink:href="#DejaVuSans-30"/>
       <use x="127.246094" xlink:href="#DejaVuSans-30"/>
       <use x="190.869141" xlink:href="#DejaVuSans-30"/>
      </g>
     </g>
    </g>
    <g id="xtick_4">
     <g id="line2d_4">
      <g>
       <use style="stroke:#000000;stroke-width:0.8;" x="195.578182" xlink:href="#m00b90b83e4" y="307.584"/>
      </g>
     </g>
     <g id="text_4">
      <!-- 7500 -->
      <defs>
       <path d="M 8.203125 72.90625 
L 55.078125 72.90625 
L 55.078125 68.703125 
L 28.609375 0 
L 18.3125 0 
L 43.21875 64.59375 
L 8.203125 64.59375 
z
" id="DejaVuSans-37"/>
      </defs>
      <g transform="translate(182.853182 322.182437)scale(0.1 -0.1)">
       <use xlink:href="#DejaVuSans-37"/>
       <use x="63.623047" xlink:href="#DejaVuSans-35"/>
       <use x="127.246094" xlink:href="#DejaVuSans-30"/>
       <use x="190.869141" xlink:href="#DejaVuSans-30"/>
      </g>
     </g>
    </g>
    <g id="xtick_5">
     <g id="line2d_5">
      <g>
       <use style="stroke:#000000;stroke-width:0.8;" x="236.16" xlink:href="#m00b90b83e4" y="307.584"/>
      </g>
     </g>
     <g id="text_5">
      <!-- 10000 -->
      <defs>
       <path d="M 12.40625 8.296875 
L 28.515625 8.296875 
L 28.515625 63.921875 
L 10.984375 60.40625 
L 10.984375 69.390625 
L 28.421875 72.90625 
L 38.28125 72.90625 
L 38.28125 8.296875 
L 54.390625 8.296875 
L 54.390625 0 
L 12.40625 0 
z
" id="DejaVuSans-31"/>
      </defs>
      <g transform="translate(220.25375 322.182437)scale(0.1 -0.1)">
       <use xlink:href="#DejaVuSans-31"/>
       <use x="63.623047" xlink:href="#DejaVuSans-30"/>
       <use x="127.246094" xlink:href="#DejaVuSans-30"/>
       <use x="190.869141" xlink:href="#DejaVuSans-30"/>
       <use x="254.492188" xlink:href="#DejaVuSans-30"/>
      </g>
     </g>
    </g>
    <g id="xtick_6">
     <g id="line2d_6">
      <g>
       <use style="stroke:#000000;stroke-width:0.8;" x="276.741818" xlink:href="#m00b90b83e4" y="307.584"/>
      </g>
     </g>
     <g id="text_6">
      <!-- 12500 -->
      <g transform="translate(260.835568 322.182437)scale(0.1 -0.1)">
       <use xlink:href="#DejaVuSans-31"/>
       <use x="63.623047" xlink:href="#DejaVuSans-32"/>
       <use x="127.246094" xlink:href="#DejaVuSans-35"/>
       <use x="190.869141" xlink:href="#DejaVuSans-30"/>
       <use x="254.492188" xlink:href="#DejaVuSans-30"/>
      </g>
     </g>
    </g>
    <g id="xtick_7">
     <g id="line2d_7">
      <g>
       <use style="stroke:#000000;stroke-width:0.8;" x="317.323636" xlink:href="#m00b90b83e4" y="307.584"/>
      </g>
     </g>
     <g id="text_7">
      <!-- 15000 -->
      <g transform="translate(301.417386 322.182437)scale(0.1 -0.1)">
       <use xlink:href="#DejaVuSans-31"/>
       <use x="63.623047" xlink:href="#DejaVuSans-35"/>
       <use x="127.246094" xlink:href="#DejaVuSans-30"/>
       <use x="190.869141" xlink:href="#DejaVuSans-30"/>
       <use x="254.492188" xlink:href="#DejaVuSans-30"/>
      </g>
     </g>
    </g>
    <g id="xtick_8">
     <g id="line2d_8">
      <g>
       <use style="stroke:#000000;stroke-width:0.8;" x="357.905455" xlink:href="#m00b90b83e4" y="307.584"/>
      </g>
     </g>
     <g id="text_8">
      <!-- 17500 -->
      <g transform="translate(341.999205 322.182437)scale(0.1 -0.1)">
       <use xlink:href="#DejaVuSans-31"/>
       <use x="63.623047" xlink:href="#DejaVuSans-37"/>
       <use x="127.246094" xlink:href="#DejaVuSans-35"/>
       <use x="190.869141" xlink:href="#DejaVuSans-30"/>
       <use x="254.492188" xlink:href="#DejaVuSans-30"/>
      </g>
     </g>
    </g>
    <g id="xtick_9">
     <g id="line2d_9">
      <g>
       <use style="stroke:#000000;stroke-width:0.8;" x="398.487273" xlink:href="#m00b90b83e4" y="307.584"/>
      </g>
     </g>
     <g id="text_9">
      <!-- 20000 -->
      <g transform="translate(382.581023 322.182437)scale(0.1 -0.1)">
       <use xlink:href="#DejaVuSans-32"/>
       <use x="63.623047" xlink:href="#DejaVuSans-30"/>
       <use x="127.246094" xlink:href="#DejaVuSans-30"/>
       <use x="190.869141" xlink:href="#DejaVuSans-30"/>
       <use x="254.492188" xlink:href="#DejaVuSans-30"/>
      </g>
     </g>
    </g>
    <g id="text_10">
     <!-- Iter -->
     <defs>
      <path d="M 9.8125 72.90625 
L 19.671875 72.90625 
L 19.671875 0 
L 9.8125 0 
z
" id="DejaVuSans-49"/>
      <path d="M 18.3125 70.21875 
L 18.3125 54.6875 
L 36.8125 54.6875 
L 36.8125 47.703125 
L 18.3125 47.703125 
L 18.3125 18.015625 
Q 18.3125 11.328125 20.140625 9.421875 
Q 21.96875 7.515625 27.59375 7.515625 
L 36.8125 7.515625 
L 36.8125 0 
L 27.59375 0 
Q 17.1875 0 13.234375 3.875 
Q 9.28125 7.765625 9.28125 18.015625 
L 9.28125 47.703125 
L 2.6875 47.703125 
L 2.6875 54.6875 
L 9.28125 54.6875 
L 9.28125 70.21875 
z
" id="DejaVuSans-74"/>
      <path d="M 56.203125 29.59375 
L 56.203125 25.203125 
L 14.890625 25.203125 
Q 15.484375 15.921875 20.484375 11.0625 
Q 25.484375 6.203125 34.421875 6.203125 
Q 39.59375 6.203125 44.453125 7.46875 
Q 49.3125 8.734375 54.109375 11.28125 
L 54.109375 2.78125 
Q 49.265625 0.734375 44.1875 -0.34375 
Q 39.109375 -1.421875 33.890625 -1.421875 
Q 20.796875 -1.421875 13.15625 6.1875 
Q 5.515625 13.8125 5.515625 26.8125 
Q 5.515625 40.234375 12.765625 48.109375 
Q 20.015625 56 32.328125 56 
Q 43.359375 56 49.78125 48.890625 
Q 56.203125 41.796875 56.203125 29.59375 
z
M 47.21875 32.234375 
Q 47.125 39.59375 43.09375 43.984375 
Q 39.0625 48.390625 32.421875 48.390625 
Q 24.90625 48.390625 20.390625 44.140625 
Q 15.875 39.890625 15.1875 32.171875 
z
" id="DejaVuSans-65"/>
      <path d="M 41.109375 46.296875 
Q 39.59375 47.171875 37.8125 47.578125 
Q 36.03125 48 33.890625 48 
Q 26.265625 48 22.1875 43.046875 
Q 18.109375 38.09375 18.109375 28.8125 
L 18.109375 0 
L 9.078125 0 
L 9.078125 54.6875 
L 18.109375 54.6875 
L 18.109375 46.1875 
Q 20.953125 51.171875 25.484375 53.578125 
Q 30.03125 56 36.53125 56 
Q 37.453125 56 38.578125 55.875 
Q 39.703125 55.765625 41.0625 55.515625 
z
" id="DejaVuSans-72"/>
     </defs>
     <g transform="translate(225.022656 338.140094)scale(0.13 -0.13)">
      <use xlink:href="#DejaVuSans-49"/>
      <use x="29.492188" xlink:href="#DejaVuSans-74"/>
      <use x="68.701172" xlink:href="#DejaVuSans-65"/>
      <use x="130.224609" xlink:href="#DejaVuSans-72"/>
     </g>
    </g>
   </g>
   <g id="matplotlib.axis_2">
    <g id="ytick_1">
     <g id="line2d_10">
      <defs>
       <path d="M 0 0 
L -3.5 0 
" id="m6fe6cccb96" style="stroke:#000000;stroke-width:0.8;"/>
      </defs>
      <g>
       <use style="stroke:#000000;stroke-width:0.8;" x="57.6" xlink:href="#m6fe6cccb96" y="307.584"/>
      </g>
     </g>
     <g id="text_11">
      <!-- 5.5 -->
      <defs>
       <path d="M 10.6875 12.40625 
L 21 12.40625 
L 21 0 
L 10.6875 0 
z
" id="DejaVuSans-2e"/>
      </defs>
      <g transform="translate(34.696875 311.383219)scale(0.1 -0.1)">
       <use xlink:href="#DejaVuSans-35"/>
       <use x="63.623047" xlink:href="#DejaVuSans-2e"/>
       <use x="95.410156" xlink:href="#DejaVuSans-35"/>
      </g>
     </g>
    </g>
    <g id="ytick_2">
     <g id="line2d_11">
      <g>
       <use style="stroke:#000000;stroke-width:0.8;" x="57.6" xlink:href="#m6fe6cccb96" y="254.3616"/>
      </g>
     </g>
     <g id="text_12">
      <!-- 6.0 -->
      <defs>
       <path d="M 33.015625 40.375 
Q 26.375 40.375 22.484375 35.828125 
Q 18.609375 31.296875 18.609375 23.390625 
Q 18.609375 15.53125 22.484375 10.953125 
Q 26.375 6.390625 33.015625 6.390625 
Q 39.65625 6.390625 43.53125 10.953125 
Q 47.40625 15.53125 47.40625 23.390625 
Q 47.40625 31.296875 43.53125 35.828125 
Q 39.65625 40.375 33.015625 40.375 
z
M 52.59375 71.296875 
L 52.59375 62.3125 
Q 48.875 64.0625 45.09375 64.984375 
Q 41.3125 65.921875 37.59375 65.921875 
Q 27.828125 65.921875 22.671875 59.328125 
Q 17.53125 52.734375 16.796875 39.40625 
Q 19.671875 43.65625 24.015625 45.921875 
Q 28.375 48.1875 33.59375 48.1875 
Q 44.578125 48.1875 50.953125 41.515625 
Q 57.328125 34.859375 57.328125 23.390625 
Q 57.328125 12.15625 50.6875 5.359375 
Q 44.046875 -1.421875 33.015625 -1.421875 
Q 20.359375 -1.421875 13.671875 8.265625 
Q 6.984375 17.96875 6.984375 36.375 
Q 6.984375 53.65625 15.1875 63.9375 
Q 23.390625 74.21875 37.203125 74.21875 
Q 40.921875 74.21875 44.703125 73.484375 
Q 48.484375 72.75 52.59375 71.296875 
z
" id="DejaVuSans-36"/>
      </defs>
      <g transform="translate(34.696875 258.160819)scale(0.1 -0.1)">
       <use xlink:href="#DejaVuSans-36"/>
       <use x="63.623047" xlink:href="#DejaVuSans-2e"/>
       <use x="95.410156" xlink:href="#DejaVuSans-30"/>
      </g>
     </g>
    </g>
    <g id="ytick_3">
     <g id="line2d_12">
      <g>
       <use style="stroke:#000000;stroke-width:0.8;" x="57.6" xlink:href="#m6fe6cccb96" y="201.1392"/>
      </g>
     </g>
     <g id="text_13">
      <!-- 6.5 -->
      <g transform="translate(34.696875 204.938419)scale(0.1 -0.1)">
       <use xlink:href="#DejaVuSans-36"/>
       <use x="63.623047" xlink:href="#DejaVuSans-2e"/>
       <use x="95.410156" xlink:href="#DejaVuSans-35"/>
      </g>
     </g>
    </g>
    <g id="ytick_4">
     <g id="line2d_13">
      <g>
       <use style="stroke:#000000;stroke-width:0.8;" x="57.6" xlink:href="#m6fe6cccb96" y="147.9168"/>
      </g>
     </g>
     <g id="text_14">
      <!-- 7.0 -->
      <g transform="translate(34.696875 151.716019)scale(0.1 -0.1)">
       <use xlink:href="#DejaVuSans-37"/>
       <use x="63.623047" xlink:href="#DejaVuSans-2e"/>
       <use x="95.410156" xlink:href="#DejaVuSans-30"/>
      </g>
     </g>
    </g>
    <g id="ytick_5">
     <g id="line2d_14">
      <g>
       <use style="stroke:#000000;stroke-width:0.8;" x="57.6" xlink:href="#m6fe6cccb96" y="94.6944"/>
      </g>
     </g>
     <g id="text_15">
      <!-- 7.5 -->
      <g transform="translate(34.696875 98.493619)scale(0.1 -0.1)">
       <use xlink:href="#DejaVuSans-37"/>
       <use x="63.623047" xlink:href="#DejaVuSans-2e"/>
       <use x="95.410156" xlink:href="#DejaVuSans-35"/>
      </g>
     </g>
    </g>
    <g id="ytick_6">
     <g id="line2d_15">
      <g>
       <use style="stroke:#000000;stroke-width:0.8;" x="57.6" xlink:href="#m6fe6cccb96" y="41.472"/>
      </g>
     </g>
     <g id="text_16">
      <!-- 8.0 -->
      <defs>
       <path d="M 31.78125 34.625 
Q 24.75 34.625 20.71875 30.859375 
Q 16.703125 27.09375 16.703125 20.515625 
Q 16.703125 13.921875 20.71875 10.15625 
Q 24.75 6.390625 31.78125 6.390625 
Q 38.8125 6.390625 42.859375 10.171875 
Q 46.921875 13.96875 46.921875 20.515625 
Q 46.921875 27.09375 42.890625 30.859375 
Q 38.875 34.625 31.78125 34.625 
z
M 21.921875 38.8125 
Q 15.578125 40.375 12.03125 44.71875 
Q 8.5 49.078125 8.5 55.328125 
Q 8.5 64.0625 14.71875 69.140625 
Q 20.953125 74.21875 31.78125 74.21875 
Q 42.671875 74.21875 48.875 69.140625 
Q 55.078125 64.0625 55.078125 55.328125 
Q 55.078125 49.078125 51.53125 44.71875 
Q 48 40.375 41.703125 38.8125 
Q 48.828125 37.15625 52.796875 32.3125 
Q 56.78125 27.484375 56.78125 20.515625 
Q 56.78125 9.90625 50.3125 4.234375 
Q 43.84375 -1.421875 31.78125 -1.421875 
Q 19.734375 -1.421875 13.25 4.234375 
Q 6.78125 9.90625 6.78125 20.515625 
Q 6.78125 27.484375 10.78125 32.3125 
Q 14.796875 37.15625 21.921875 38.8125 
z
M 18.3125 54.390625 
Q 18.3125 48.734375 21.84375 45.5625 
Q 25.390625 42.390625 31.78125 42.390625 
Q 38.140625 42.390625 41.71875 45.5625 
Q 45.3125 48.734375 45.3125 54.390625 
Q 45.3125 60.0625 41.71875 63.234375 
Q 38.140625 66.40625 31.78125 66.40625 
Q 25.390625 66.40625 21.84375 63.234375 
Q 18.3125 60.0625 18.3125 54.390625 
z
" id="DejaVuSans-38"/>
      </defs>
      <g transform="translate(34.696875 45.271219)scale(0.1 -0.1)">
       <use xlink:href="#DejaVuSans-38"/>
       <use x="63.623047" xlink:href="#DejaVuSans-2e"/>
       <use x="95.410156" xlink:href="#DejaVuSans-30"/>
      </g>
     </g>
    </g>
    <g id="text_17">
     <!-- Mutual Information -->
     <defs>
      <path d="M 9.8125 72.90625 
L 24.515625 72.90625 
L 43.109375 23.296875 
L 61.8125 72.90625 
L 76.515625 72.90625 
L 76.515625 0 
L 66.890625 0 
L 66.890625 64.015625 
L 48.09375 14.015625 
L 38.1875 14.015625 
L 19.390625 64.015625 
L 19.390625 0 
L 9.8125 0 
z
" id="DejaVuSans-4d"/>
      <path d="M 8.5 21.578125 
L 8.5 54.6875 
L 17.484375 54.6875 
L 17.484375 21.921875 
Q 17.484375 14.15625 20.5 10.265625 
Q 23.53125 6.390625 29.59375 6.390625 
Q 36.859375 6.390625 41.078125 11.03125 
Q 45.3125 15.671875 45.3125 23.6875 
L 45.3125 54.6875 
L 54.296875 54.6875 
L 54.296875 0 
L 45.3125 0 
L 45.3125 8.40625 
Q 42.046875 3.421875 37.71875 1 
Q 33.40625 -1.421875 27.6875 -1.421875 
Q 18.265625 -1.421875 13.375 4.4375 
Q 8.5 10.296875 8.5 21.578125 
z
M 31.109375 56 
z
" id="DejaVuSans-75"/>
      <path d="M 34.28125 27.484375 
Q 23.390625 27.484375 19.1875 25 
Q 14.984375 22.515625 14.984375 16.5 
Q 14.984375 11.71875 18.140625 8.90625 
Q 21.296875 6.109375 26.703125 6.109375 
Q 34.1875 6.109375 38.703125 11.40625 
Q 43.21875 16.703125 43.21875 25.484375 
L 43.21875 27.484375 
z
M 52.203125 31.203125 
L 52.203125 0 
L 43.21875 0 
L 43.21875 8.296875 
Q 40.140625 3.328125 35.546875 0.953125 
Q 30.953125 -1.421875 24.3125 -1.421875 
Q 15.921875 -1.421875 10.953125 3.296875 
Q 6 8.015625 6 15.921875 
Q 6 25.140625 12.171875 29.828125 
Q 18.359375 34.515625 30.609375 34.515625 
L 43.21875 34.515625 
L 43.21875 35.40625 
Q 43.21875 41.609375 39.140625 45 
Q 35.0625 48.390625 27.6875 48.390625 
Q 23 48.390625 18.546875 47.265625 
Q 14.109375 46.140625 10.015625 43.890625 
L 10.015625 52.203125 
Q 14.9375 54.109375 19.578125 55.046875 
Q 24.21875 56 28.609375 56 
Q 40.484375 56 46.34375 49.84375 
Q 52.203125 43.703125 52.203125 31.203125 
z
" id="DejaVuSans-61"/>
      <path d="M 9.421875 75.984375 
L 18.40625 75.984375 
L 18.40625 0 
L 9.421875 0 
z
" id="DejaVuSans-6c"/>
      <path id="DejaVuSans-20"/>
      <path d="M 54.890625 33.015625 
L 54.890625 0 
L 45.90625 0 
L 45.90625 32.71875 
Q 45.90625 40.484375 42.875 44.328125 
Q 39.84375 48.1875 33.796875 48.1875 
Q 26.515625 48.1875 22.3125 43.546875 
Q 18.109375 38.921875 18.109375 30.90625 
L 18.109375 0 
L 9.078125 0 
L 9.078125 54.6875 
L 18.109375 54.6875 
L 18.109375 46.1875 
Q 21.34375 51.125 25.703125 53.5625 
Q 30.078125 56 35.796875 56 
Q 45.21875 56 50.046875 50.171875 
Q 54.890625 44.34375 54.890625 33.015625 
z
" id="DejaVuSans-6e"/>
      <path d="M 37.109375 75.984375 
L 37.109375 68.5 
L 28.515625 68.5 
Q 23.6875 68.5 21.796875 66.546875 
Q 19.921875 64.59375 19.921875 59.515625 
L 19.921875 54.6875 
L 34.71875 54.6875 
L 34.71875 47.703125 
L 19.921875 47.703125 
L 19.921875 0 
L 10.890625 0 
L 10.890625 47.703125 
L 2.296875 47.703125 
L 2.296875 54.6875 
L 10.890625 54.6875 
L 10.890625 58.5 
Q 10.890625 67.625 15.140625 71.796875 
Q 19.390625 75.984375 28.609375 75.984375 
z
" id="DejaVuSans-66"/>
      <path d="M 30.609375 48.390625 
Q 23.390625 48.390625 19.1875 42.75 
Q 14.984375 37.109375 14.984375 27.296875 
Q 14.984375 17.484375 19.15625 11.84375 
Q 23.34375 6.203125 30.609375 6.203125 
Q 37.796875 6.203125 41.984375 11.859375 
Q 46.1875 17.53125 46.1875 27.296875 
Q 46.1875 37.015625 41.984375 42.703125 
Q 37.796875 48.390625 30.609375 48.390625 
z
M 30.609375 56 
Q 42.328125 56 49.015625 48.375 
Q 55.71875 40.765625 55.71875 27.296875 
Q 55.71875 13.875 49.015625 6.21875 
Q 42.328125 -1.421875 30.609375 -1.421875 
Q 18.84375 -1.421875 12.171875 6.21875 
Q 5.515625 13.875 5.515625 27.296875 
Q 5.515625 40.765625 12.171875 48.375 
Q 18.84375 56 30.609375 56 
z
" id="DejaVuSans-6f"/>
      <path d="M 52 44.1875 
Q 55.375 50.25 60.0625 53.125 
Q 64.75 56 71.09375 56 
Q 79.640625 56 84.28125 50.015625 
Q 88.921875 44.046875 88.921875 33.015625 
L 88.921875 0 
L 79.890625 0 
L 79.890625 32.71875 
Q 79.890625 40.578125 77.09375 44.375 
Q 74.3125 48.1875 68.609375 48.1875 
Q 61.625 48.1875 57.5625 43.546875 
Q 53.515625 38.921875 53.515625 30.90625 
L 53.515625 0 
L 44.484375 0 
L 44.484375 32.71875 
Q 44.484375 40.625 41.703125 44.40625 
Q 38.921875 48.1875 33.109375 48.1875 
Q 26.21875 48.1875 22.15625 43.53125 
Q 18.109375 38.875 18.109375 30.90625 
L 18.109375 0 
L 9.078125 0 
L 9.078125 54.6875 
L 18.109375 54.6875 
L 18.109375 46.1875 
Q 21.1875 51.21875 25.484375 53.609375 
Q 29.78125 56 35.6875 56 
Q 41.65625 56 45.828125 52.96875 
Q 50 49.953125 52 44.1875 
z
" id="DejaVuSans-6d"/>
      <path d="M 9.421875 54.6875 
L 18.40625 54.6875 
L 18.40625 0 
L 9.421875 0 
z
M 9.421875 75.984375 
L 18.40625 75.984375 
L 18.40625 64.59375 
L 9.421875 64.59375 
z
" id="DejaVuSans-69"/>
     </defs>
     <g transform="translate(27.993281 236.516672)rotate(-90)scale(0.13 -0.13)">
      <use xlink:href="#DejaVuSans-4d"/>
      <use x="86.279297" xlink:href="#DejaVuSans-75"/>
      <use x="149.658203" xlink:href="#DejaVuSans-74"/>
      <use x="188.867188" xlink:href="#DejaVuSans-75"/>
      <use x="252.246094" xlink:href="#DejaVuSans-61"/>
      <use x="313.525391" xlink:href="#DejaVuSans-6c"/>
      <use x="341.308594" xlink:href="#DejaVuSans-20"/>
      <use x="373.095703" xlink:href="#DejaVuSans-49"/>
      <use x="402.587891" xlink:href="#DejaVuSans-6e"/>
      <use x="465.966797" xlink:href="#DejaVuSans-66"/>
      <use x="501.171875" xlink:href="#DejaVuSans-6f"/>
      <use x="562.353516" xlink:href="#DejaVuSans-72"/>
      <use x="603.451172" xlink:href="#DejaVuSans-6d"/>
      <use x="700.863281" xlink:href="#DejaVuSans-61"/>
      <use x="762.142578" xlink:href="#DejaVuSans-74"/>
      <use x="801.351562" xlink:href="#DejaVuSans-69"/>
      <use x="829.134766" xlink:href="#DejaVuSans-6f"/>
      <use x="890.316406" xlink:href="#DejaVuSans-6e"/>
     </g>
    </g>
   </g>
   <g id="line2d_16">
    <path clip-path="url(#p6bcb7cb458)" d="M 73.832727 275.267725 
L 74.644364 236.34529 
L 75.456 210.261529 
L 76.267636 246.372623 
L 77.079273 273.419817 
L 77.890909 256.401327 
L 78.702545 259.373928 
L 79.514182 258.943539 
L 80.325818 258.967965 
L 81.137455 254.057625 
L 82.760727 265.55397 
L 83.572364 253.995742 
L 84.384 251.274136 
L 85.195636 251.143646 
L 86.007273 259.411489 
L 86.818909 256.291159 
L 87.630545 258.230745 
L 89.253818 247.502864 
L 90.065455 253.092564 
L 90.877091 249.810559 
L 91.688727 250.091785 
L 92.500364 249.227777 
L 93.312 250.045896 
L 94.123636 247.268661 
L 94.935273 242.592125 
L 95.746909 243.655427 
L 96.558545 242.58232 
L 97.370182 238.689831 
L 98.181818 238.484888 
L 98.993455 237.651564 
L 99.805091 235.014115 
L 100.616727 233.31728 
L 101.428364 232.672182 
L 102.24 225.00992 
L 103.051636 234.651497 
L 103.863273 227.357436 
L 104.674909 224.84921 
L 105.486545 224.950443 
L 106.298182 219.362444 
L 107.109818 226.776858 
L 107.921455 218.307292 
L 108.733091 218.2072 
L 109.544727 212.768283 
L 110.356364 211.027089 
L 111.168 215.212704 
L 111.979636 218.258287 
L 112.791273 208.169194 
L 113.602909 206.36577 
L 114.414545 209.357979 
L 115.226182 205.266202 
L 116.037818 202.413663 
L 116.849455 201.426766 
L 117.661091 199.333549 
L 118.472727 203.050559 
L 119.284364 201.980643 
L 120.096 196.746146 
L 120.907636 195.237566 
L 121.719273 190.722156 
L 122.530909 188.518695 
L 123.342545 188.025381 
L 124.154182 186.976089 
L 124.965818 183.561018 
L 125.777455 189.575893 
L 126.589091 178.917581 
L 127.400727 182.446191 
L 128.212364 178.090449 
L 129.024 172.816407 
L 129.835636 179.535976 
L 130.647273 172.525436 
L 131.458909 168.870916 
L 132.270545 165.807853 
L 133.082182 171.91764 
L 134.705455 166.330893 
L 135.517091 163.776075 
L 136.328727 159.046984 
L 137.140364 162.893616 
L 137.952 161.632653 
L 138.763636 155.626852 
L 139.575273 153.362218 
L 140.386909 156.926901 
L 141.198545 158.108771 
L 142.010182 154.913925 
L 142.821818 147.928055 
L 143.633455 149.678729 
L 144.445091 147.971836 
L 145.256727 149.778373 
L 146.068364 149.002204 
L 146.88 143.573233 
L 147.691636 144.102936 
L 148.503273 142.139605 
L 149.314909 139.355329 
L 150.126545 140.638938 
L 150.938182 139.595286 
L 151.749818 134.519891 
L 152.561455 140.320073 
L 153.373091 131.691566 
L 154.184727 127.953249 
L 154.996364 130.413731 
L 156.619636 125.388361 
L 157.431273 126.405808 
L 158.242909 122.019852 
L 159.054545 127.908714 
L 159.866182 123.153682 
L 160.677818 120.640137 
L 161.489455 122.530341 
L 162.301091 121.639614 
L 163.112727 116.968741 
L 163.924364 117.153176 
L 164.736 113.686266 
L 165.547636 114.129923 
L 166.359273 107.526231 
L 167.170909 109.021829 
L 167.982545 106.988113 
L 168.794182 105.704029 
L 169.605818 104.933901 
L 170.417455 106.334872 
L 171.229091 105.247299 
L 172.040727 101.664737 
L 172.852364 105.148296 
L 173.664 103.145867 
L 174.475636 102.850118 
L 175.287273 97.779123 
L 176.098909 95.357205 
L 176.910545 95.948643 
L 177.722182 94.031061 
L 178.533818 95.121964 
L 179.345455 96.467523 
L 180.157091 93.327879 
L 180.968727 97.672164 
L 181.780364 92.621814 
L 182.592 91.547386 
L 183.403636 86.756642 
L 184.215273 89.386338 
L 185.026909 85.566826 
L 185.838545 88.772938 
L 186.650182 82.24264 
L 187.461818 81.236031 
L 188.273455 86.307694 
L 189.085091 79.465174 
L 189.896727 80.314954 
L 190.708364 82.438603 
L 191.52 85.184512 
L 192.331636 82.625174 
L 193.143273 77.191116 
L 193.954909 79.558777 
L 194.766545 77.764503 
L 195.578182 75.695831 
L 196.389818 75.685276 
L 197.201455 75.901718 
L 198.013091 73.418407 
L 198.824727 73.879094 
L 199.636364 73.471784 
L 200.448 71.094232 
L 201.259636 70.879664 
L 202.071273 70.113651 
L 202.882909 70.231307 
L 203.694545 66.638453 
L 204.506182 68.333476 
L 205.317818 67.324684 
L 206.129455 67.285696 
L 206.941091 68.025011 
L 207.752727 67.436576 
L 209.376 68.549076 
L 210.187636 65.435506 
L 210.999273 66.96982 
L 211.810909 66.655386 
L 212.622545 63.699098 
L 213.434182 64.661322 
L 214.245818 62.384258 
L 215.057455 63.627849 
L 215.869091 63.421269 
L 216.680727 64.038032 
L 217.492364 61.221106 
L 218.304 60.998984 
L 219.115636 62.156106 
L 219.927273 62.308155 
L 220.738909 63.523703 
L 221.550545 61.001065 
L 222.362182 62.470426 
L 223.173818 58.130928 
L 223.985455 58.774754 
L 225.608727 60.72963 
L 226.420364 58.016362 
L 227.232 57.805146 
L 228.043636 58.417527 
L 228.855273 58.791939 
L 229.666909 58.352261 
L 230.478545 55.689329 
L 231.290182 57.919469 
L 232.101818 55.370555 
L 232.913455 54.523801 
L 233.725091 55.461354 
L 234.536727 58.387727 
L 235.348364 58.013437 
L 236.16 55.945092 
L 236.971636 55.636738 
L 237.783273 55.756058 
L 238.594909 54.681031 
L 239.406545 55.116925 
L 240.218182 54.255302 
L 241.029818 53.708127 
L 241.841455 53.902158 
L 242.653091 55.381646 
L 244.276364 54.212157 
L 245.088 54.402288 
L 245.899636 55.574153 
L 246.711273 53.800877 
L 247.522909 53.508672 
L 248.334545 54.507226 
L 249.146182 53.945059 
L 249.957818 53.557667 
L 251.581091 55.842531 
L 252.392727 53.665347 
L 253.204364 52.878193 
L 254.016 56.053869 
L 254.827636 53.719279 
L 255.639273 53.060036 
L 256.450909 55.231552 
L 257.262545 52.086711 
L 258.074182 51.579208 
L 258.885818 52.224191 
L 259.697455 53.973396 
L 260.509091 50.870238 
L 261.320727 55.293344 
L 262.132364 56.286048 
L 262.944 51.355072 
L 263.755636 52.348934 
L 264.567273 54.470845 
L 265.378909 51.063477 
L 266.190545 54.82533 
L 267.002182 55.175244 
L 267.813818 54.160602 
L 268.625455 55.879521 
L 269.437091 54.49065 
L 270.248727 54.19613 
L 271.060364 53.17838 
L 271.872 53.538654 
L 272.683636 55.535396 
L 273.495273 52.41487 
L 274.306909 53.259674 
L 275.930182 54.072301 
L 276.741818 54.276387 
L 277.553455 53.441395 
L 278.365091 53.781803 
L 279.176727 54.741782 
L 279.988364 56.505064 
L 280.8 53.596059 
L 281.611636 53.043217 
L 282.423273 54.415268 
L 283.234909 56.740169 
L 284.046545 55.325155 
L 284.858182 56.365574 
L 285.669818 54.513807 
L 286.481455 54.937214 
L 287.293091 56.852053 
L 288.104727 51.881223 
L 288.916364 55.518394 
L 289.728 55.320036 
L 290.539636 54.155849 
L 291.351273 54.763171 
L 292.162909 53.001168 
L 292.974545 54.989866 
L 293.786182 56.183731 
L 294.597818 56.012552 
L 295.409455 56.430292 
L 296.221091 52.973014 
L 297.032727 54.244699 
L 297.844364 55.763005 
L 298.656 56.436325 
L 299.467636 55.468484 
L 300.279273 56.299028 
L 301.902545 54.191316 
L 302.714182 56.472584 
L 303.525818 56.517313 
L 304.337455 54.68785 
L 305.149091 53.279235 
L 305.960727 55.175244 
L 306.772364 56.744922 
L 307.584 55.646915 
L 308.395636 55.97416 
L 309.207273 56.737975 
L 310.018909 55.462269 
L 310.830545 56.384404 
L 311.642182 56.030468 
L 312.453818 54.088572 
L 313.265455 56.157405 
L 314.077091 55.412359 
L 314.888727 56.329071 
L 315.700364 58.007282 
L 316.512 56.944742 
L 317.323636 53.90356 
L 318.135273 57.455537 
L 318.946909 56.659729 
L 319.758545 56.785508 
L 320.570182 56.205242 
L 321.381818 56.735781 
L 322.193455 56.167764 
L 323.005091 56.610185 
L 323.816727 56.239064 
L 324.628364 54.616185 
L 325.44 56.761376 
L 326.251636 56.082205 
L 327.063273 56.385135 
L 327.874909 60.304577 
L 328.686545 54.453599 
L 329.498182 57.707095 
L 330.309818 58.042566 
L 331.121455 56.343087 
L 331.933091 58.374382 
L 332.744727 56.603421 
L 333.556364 57.544569 
L 334.368 57.696674 
L 335.179636 56.528709 
L 335.991273 57.447493 
L 336.802909 55.923519 
L 337.614545 57.145477 
L 338.426182 56.172518 
L 339.237818 54.54708 
L 340.049455 57.04255 
L 340.861091 57.987172 
L 341.672727 54.247624 
L 342.484364 56.254603 
L 343.296 54.302835 
L 344.107636 57.689422 
L 344.919273 59.885253 
L 345.730909 57.947866 
L 346.542545 60.313353 
L 347.354182 57.458157 
L 348.165818 59.688662 
L 348.977455 59.260995 
L 349.789091 59.360686 
L 350.600727 58.268408 
L 351.412364 57.610749 
L 352.224 56.201464 
L 353.035636 56.256797 
L 353.847273 57.387772 
L 354.658909 56.290618 
L 355.470545 57.525373 
L 356.282182 56.714026 
L 357.093818 59.097428 
L 357.905455 57.068327 
L 358.717091 60.181358 
L 359.528727 56.297931 
L 360.340364 56.92774 
L 361.152 59.359224 
L 361.963636 57.052788 
L 362.775273 57.656637 
L 363.586909 56.159903 
L 364.398545 56.057525 
L 365.210182 58.321364 
L 366.021818 59.577021 
L 366.833455 58.298878 
L 367.645091 56.562835 
L 368.456727 57.083867 
L 369.268364 58.735813 
L 370.08 59.938636 
L 370.891636 57.966148 
L 371.703273 60.612992 
L 373.326545 57.851034 
L 374.138182 56.931762 
L 374.949818 57.237617 
L 375.761455 59.040023 
L 376.573091 58.82253 
L 377.384727 55.811086 
L 378.196364 58.225202 
L 379.008 58.628682 
L 379.819636 59.622848 
L 380.631273 55.386765 
L 381.442909 56.144912 
L 382.254545 60.655406 
L 383.066182 58.208565 
L 383.877818 58.150612 
L 384.689455 59.457946 
L 385.501091 56.326451 
L 386.312727 58.941301 
L 387.124364 59.502188 
L 387.936 59.729065 
L 388.747636 58.203629 
L 389.559273 59.96289 
L 390.370909 59.954907 
L 391.182545 58.394492 
L 391.994182 55.974586 
L 392.805818 59.95119 
L 393.617455 56.791723 
L 394.429091 56.727006 
L 395.240727 58.297049 
L 396.052364 59.236187 
L 397.675636 59.95448 
L 398.487273 59.048433 
L 398.487273 59.048433 
" style="fill:none;stroke:#dc143c;stroke-linecap:square;stroke-width:1.5;"/>
   </g>
   <g id="line2d_17">
    <path clip-path="url(#p6bcb7cb458)" d="M 73.832727 274.04808 
L 75.456 204.81002 
L 77.079273 263.915954 
L 77.890909 256.314566 
L 78.702545 259.432514 
L 79.514182 259.808717 
L 80.325818 260.655842 
L 81.137455 255.647563 
L 81.949091 262.002264 
L 82.760727 267.366247 
L 83.572364 256.225826 
L 84.384 253.011223 
L 85.195636 252.589795 
L 86.007273 260.407656 
L 86.818909 258.300303 
L 87.630545 260.890125 
L 88.442182 254.239466 
L 89.253818 248.57426 
L 90.065455 255.718439 
L 90.877091 251.232027 
L 91.688727 251.454773 
L 92.500364 250.173126 
L 93.312 251.568136 
L 94.123636 248.669101 
L 94.935273 243.612077 
L 95.746909 246.997828 
L 96.558545 244.999212 
L 97.370182 240.532644 
L 98.181818 240.186999 
L 98.993455 240.366522 
L 100.616727 234.789162 
L 101.428364 233.688075 
L 102.24 226.848041 
L 103.051636 235.905731 
L 103.863273 229.15685 
L 104.674909 226.350284 
L 105.486545 226.547268 
L 106.298182 220.26759 
L 107.109818 227.594898 
L 107.921455 219.58459 
L 108.733091 218.893472 
L 110.356364 211.515153 
L 111.168 216.418621 
L 111.979636 218.779998 
L 112.791273 209.126854 
L 113.602909 207.330396 
L 114.414545 211.381852 
L 115.226182 205.792769 
L 116.037818 203.49062 
L 116.849455 202.225578 
L 117.661091 202.022472 
L 118.472727 204.095263 
L 119.284364 203.465889 
L 120.096 199.081795 
L 120.907636 196.088171 
L 121.719273 191.476434 
L 122.530909 189.530082 
L 123.342545 189.222915 
L 124.154182 186.864745 
L 124.965818 186.317435 
L 125.777455 190.765089 
L 126.589091 179.718178 
L 127.400727 183.381091 
L 128.212364 179.907372 
L 129.024 174.486838 
L 129.835636 182.678829 
L 130.647273 173.496448 
L 131.458909 170.50906 
L 132.270545 167.059149 
L 133.082182 172.970908 
L 135.517091 165.458508 
L 136.328727 160.429286 
L 137.140364 164.515551 
L 137.952 163.255195 
L 138.763636 157.903945 
L 139.575273 155.871007 
L 140.386909 158.680705 
L 141.198545 159.606771 
L 142.010182 156.549935 
L 142.821818 149.723064 
L 143.633455 150.515203 
L 144.445091 149.732476 
L 145.256727 151.589754 
L 146.068364 149.352991 
L 146.88 144.884204 
L 147.691636 145.726125 
L 149.314909 139.200524 
L 150.126545 142.226399 
L 150.938182 141.979761 
L 151.749818 136.144201 
L 152.561455 142.286417 
L 153.373091 132.733987 
L 154.184727 129.940628 
L 154.996364 131.378934 
L 155.808 129.546676 
L 156.619636 126.660753 
L 157.431273 128.120693 
L 158.242909 123.550668 
L 159.054545 128.861237 
L 159.866182 124.027821 
L 160.677818 121.190292 
L 161.489455 123.903576 
L 162.301091 122.076924 
L 163.112727 118.630328 
L 163.924364 117.982084 
L 164.736 115.385339 
L 165.547636 115.19527 
L 166.359273 108.836207 
L 167.170909 109.662586 
L 167.982545 109.26273 
L 168.794182 107.352279 
L 169.605818 107.209372 
L 170.417455 107.971604 
L 171.229091 106.654963 
L 172.040727 102.085739 
L 172.852364 107.307025 
L 173.664 104.433003 
L 174.475636 103.430244 
L 175.287273 99.836171 
L 176.098909 97.591819 
L 176.910545 96.703477 
L 177.722182 95.50248 
L 178.533818 96.53626 
L 179.345455 96.996411 
L 180.157091 93.193936 
L 180.968727 99.058217 
L 181.780364 94.048878 
L 182.592 92.931861 
L 183.403636 88.377215 
L 184.215273 89.059712 
L 185.026909 86.211408 
L 185.838545 89.586822 
L 186.650182 85.198765 
L 187.461818 82.564138 
L 188.273455 86.030658 
L 189.085091 80.395331 
L 189.896727 80.035524 
L 190.708364 83.821087 
L 191.52 86.716096 
L 192.331636 82.726014 
L 193.143273 79.42584 
L 193.954909 80.527948 
L 195.578182 76.915093 
L 196.389818 77.302616 
L 197.201455 77.252817 
L 198.013091 73.673915 
L 198.824727 75.31476 
L 199.636364 73.829626 
L 200.448 73.64924 
L 201.259636 71.268952 
L 202.071273 71.815618 
L 202.882909 70.298955 
L 203.694545 67.599534 
L 204.506182 69.372986 
L 205.317818 68.411728 
L 206.129455 69.29467 
L 206.941091 67.875089 
L 207.752727 68.557934 
L 208.564364 69.053715 
L 209.376 69.860066 
L 210.187636 66.457638 
L 210.999273 68.697724 
L 211.810909 65.755671 
L 212.622545 63.589717 
L 213.434182 64.10075 
L 214.245818 62.754165 
L 215.057455 64.909837 
L 215.869091 62.511754 
L 216.680727 64.704161 
L 217.492364 60.993437 
L 218.304 61.512031 
L 219.115636 63.614082 
L 219.927273 61.981941 
L 220.738909 64.937072 
L 221.550545 60.756445 
L 222.362182 62.479932 
L 223.173818 59.003155 
L 223.985455 58.908272 
L 224.797091 61.224397 
L 225.608727 60.455646 
L 226.420364 57.275034 
L 228.043636 59.682452 
L 229.666909 57.700087 
L 230.478545 54.66646 
L 231.290182 58.775546 
L 232.101818 55.490179 
L 232.913455 55.103945 
L 233.725091 55.70237 
L 234.536727 59.170921 
L 235.348364 58.454639 
L 236.16 55.935585 
L 236.971636 55.529058 
L 237.783273 54.389856 
L 238.594909 54.702476 
L 239.406545 54.153655 
L 240.218182 54.515209 
L 241.029818 54.482359 
L 241.841455 53.597522 
L 242.653091 55.554592 
L 243.464727 54.016602 
L 244.276364 53.296237 
L 245.088 53.974127 
L 245.899636 56.140342 
L 246.711273 52.945592 
L 247.522909 52.625721 
L 248.334545 54.05603 
L 249.146182 54.726425 
L 249.957818 53.617632 
L 251.581091 55.20419 
L 252.392727 52.882154 
L 253.204364 52.703967 
L 254.016 55.407972 
L 254.827636 51.499133 
L 256.450909 53.954749 
L 257.262545 51.306991 
L 258.074182 51.954351 
L 258.885818 52.806284 
L 259.697455 53.880159 
L 260.509091 52.028575 
L 261.320727 54.194972 
L 262.132364 54.986393 
L 262.944 51.036968 
L 263.755636 52.433335 
L 264.567273 53.604103 
L 265.378909 50.377726 
L 266.190545 54.267551 
L 267.002182 54.361337 
L 267.813818 54.206672 
L 268.625455 55.013328 
L 270.248727 54.031532 
L 271.060364 52.068247 
L 271.872 52.879777 
L 272.683636 55.123141 
L 273.495273 51.261835 
L 274.306909 53.985462 
L 275.118545 53.5105 
L 275.930182 54.069559 
L 276.741818 52.777399 
L 277.553455 52.298415 
L 278.365091 52.345033 
L 279.176727 53.611599 
L 279.988364 55.385119 
L 281.611636 52.126017 
L 282.423273 54.824598 
L 283.234909 56.238881 
L 284.046545 54.847816 
L 284.858182 56.268132 
L 285.669818 54.543058 
L 286.481455 54.688947 
L 287.293091 56.382576 
L 288.104727 51.536794 
L 288.916364 55.135938 
L 289.728 56.116027 
L 290.539636 54.535928 
L 291.351273 54.236289 
L 292.162909 51.072435 
L 292.974545 54.307588 
L 293.786182 54.745804 
L 294.597818 55.85094 
L 295.409455 56.196162 
L 296.221091 52.862592 
L 297.032727 53.736464 
L 297.844364 54.892972 
L 298.656 55.274697 
L 299.467636 54.84544 
L 301.090909 54.887853 
L 301.902545 53.944511 
L 302.714182 55.67513 
L 303.525818 54.922223 
L 304.337455 54.360605 
L 305.149091 52.978133 
L 305.960727 55.858984 
L 306.772364 55.841068 
L 307.584 54.530809 
L 308.395636 55.074511 
L 309.207273 56.089518 
L 310.018909 53.793137 
L 310.830545 56.438884 
L 311.642182 55.863006 
L 312.453818 53.864619 
L 313.265455 54.766462 
L 314.077091 54.528981 
L 314.888727 55.118022 
L 315.700364 57.491613 
L 316.512 56.44254 
L 317.323636 53.57924 
L 318.135273 55.572508 
L 318.946909 55.971235 
L 319.758545 55.035753 
L 320.570182 55.814194 
L 321.381818 55.448374 
L 322.193455 54.722768 
L 323.005091 56.650831 
L 323.816727 55.652765 
L 324.628364 53.869921 
L 325.44 55.897193 
L 326.251636 54.433733 
L 327.063273 55.421317 
L 327.874909 58.650498 
L 328.686545 55.880435 
L 329.498182 56.882584 
L 330.309818 58.141288 
L 331.121455 56.720059 
L 331.933091 57.078931 
L 332.744727 55.515773 
L 333.556364 56.314568 
L 334.368 56.497752 
L 335.179636 55.802859 
L 335.991273 57.487164 
L 336.802909 55.686404 
L 337.614545 56.899038 
L 338.426182 54.377059 
L 339.237818 54.819845 
L 340.049455 57.537622 
L 340.861091 55.577627 
L 341.672727 54.191681 
L 342.484364 56.387695 
L 343.296 53.542676 
L 344.107636 57.757431 
L 344.919273 58.12776 
L 345.730909 58.371822 
L 346.542545 58.332882 
L 347.354182 56.711832 
L 348.977455 59.432534 
L 349.789091 59.343867 
L 350.600727 57.540547 
L 351.412364 57.291914 
L 352.224 54.120017 
L 353.035636 54.493514 
L 353.847273 57.024329 
L 354.658909 56.082023 
L 355.470545 56.570696 
L 356.282182 56.299394 
L 357.093818 59.180245 
L 357.905455 56.678742 
L 358.717091 59.052272 
L 359.528727 55.262814 
L 360.340364 56.396105 
L 361.152 58.640931 
L 361.963636 56.656438 
L 362.775273 55.355868 
L 363.586909 55.351846 
L 364.398545 56.674537 
L 365.210182 58.566889 
L 366.021818 58.434529 
L 366.833455 57.485702 
L 367.645091 56.335043 
L 368.456727 55.750025 
L 369.268364 58.301803 
L 370.08 59.345939 
L 370.891636 55.550753 
L 371.703273 60.038211 
L 372.514909 58.686087 
L 373.326545 56.023155 
L 374.138182 56.703239 
L 374.949818 57.867061 
L 375.761455 58.57018 
L 376.573091 57.715017 
L 377.384727 56.339065 
L 378.196364 58.474078 
L 379.008 58.609669 
L 379.819636 59.424673 
L 380.631273 55.272198 
L 381.442909 55.391884 
L 382.254545 60.247355 
L 383.066182 58.750073 
L 383.877818 58.344399 
L 384.689455 59.618826 
L 385.501091 55.905603 
L 386.312727 58.88024 
L 387.124364 60.353755 
L 387.936 58.29449 
L 388.747636 57.766145 
L 389.559273 59.196698 
L 390.370909 59.716146 
L 391.182545 59.266901 
L 391.994182 56.432485 
L 392.805818 60.575697 
L 393.617455 57.220432 
L 394.429091 55.292796 
L 395.240727 57.445847 
L 396.052364 58.525207 
L 396.864 59.373301 
L 397.675636 60.818114 
L 398.487273 59.204194 
L 398.487273 59.204194 
" style="fill:none;stroke:#1e90ff;stroke-dasharray:9.6,2.4,1.5,2.4;stroke-dashoffset:0;stroke-width:1.5;"/>
   </g>
   <g id="line2d_18">
    <path clip-path="url(#p6bcb7cb458)" d="M 74.123703 346.6 
L 74.644364 299.275893 
L 75.456 279.150603 
L 76.267636 289.062739 
L 77.079273 294.712126 
L 77.890909 276.700202 
L 78.702545 272.083464 
L 79.514182 270.996903 
L 80.325818 273.635887 
L 81.137455 271.882952 
L 81.949091 266.970258 
L 82.760727 269.540315 
L 83.572364 267.312664 
L 84.384 266.231118 
L 85.195636 263.453524 
L 86.007273 261.521354 
L 86.818909 259.216433 
L 87.630545 265.511063 
L 88.442182 263.678996 
L 89.253818 258.973623 
L 90.065455 265.983522 
L 90.877091 261.256246 
L 91.688727 258.114552 
L 92.500364 263.479982 
L 93.312 258.521669 
L 94.123636 258.422299 
L 94.935273 248.691161 
L 95.746909 261.52759 
L 96.558545 253.574505 
L 97.370182 252.19776 
L 98.181818 256.011647 
L 98.993455 256.221631 
L 99.805091 254.145314 
L 100.616727 253.084525 
L 101.428364 246.461134 
L 102.24 249.150736 
L 103.051636 251.379476 
L 103.863273 258.22562 
L 104.674909 249.650704 
L 105.486545 243.762231 
L 106.298182 247.957872 
L 107.109818 254.810929 
L 107.921455 250.679673 
L 108.733091 242.265779 
L 109.544727 251.943787 
L 110.356364 243.455403 
L 111.168 244.073868 
L 111.979636 245.196714 
L 112.791273 234.678793 
L 113.602909 248.326129 
L 114.414545 240.057357 
L 115.226182 239.606454 
L 116.037818 242.425578 
L 117.661091 241.691967 
L 118.472727 245.859745 
L 119.284364 242.765875 
L 120.096 244.566295 
L 120.907636 249.326751 
L 121.719273 236.920167 
L 122.530909 241.071445 
L 123.342545 237.817158 
L 124.154182 239.355632 
L 124.965818 238.354752 
L 125.777455 243.455911 
L 126.589091 243.181308 
L 127.400727 236.084347 
L 128.212364 241.421966 
L 129.024 238.467637 
L 129.835636 237.264116 
L 130.647273 236.474102 
L 131.458909 234.211964 
L 132.270545 236.904041 
L 133.082182 238.778329 
L 133.893818 234.26841 
L 134.705455 236.474688 
L 135.517091 235.853241 
L 136.328727 237.561575 
L 137.140364 229.647985 
L 137.952 234.243057 
L 138.763636 226.803819 
L 139.575273 234.544379 
L 140.386909 240.170464 
L 141.198545 228.501954 
L 142.010182 226.570839 
L 142.821818 238.070196 
L 143.633455 228.71559 
L 144.445091 237.932608 
L 145.256727 237.585014 
L 146.068364 237.928902 
L 146.88 236.047649 
L 148.503273 233.100474 
L 149.314909 233.839846 
L 150.126545 236.441896 
L 150.938182 240.993346 
L 151.749818 236.437442 
L 152.561455 238.686817 
L 153.373091 231.195983 
L 154.184727 238.677489 
L 154.996364 233.699166 
L 155.808 238.718298 
L 156.619636 238.425854 
L 157.431273 235.403379 
L 158.242909 234.946566 
L 159.054545 236.663983 
L 159.866182 237.05158 
L 160.677818 233.075299 
L 161.489455 236.852032 
L 162.301091 231.079064 
L 163.112727 228.670299 
L 163.924364 230.019787 
L 164.736 237.155448 
L 165.547636 237.868807 
L 166.359273 233.975267 
L 167.170909 239.75729 
L 167.982545 233.298581 
L 168.794182 239.001246 
L 169.605818 236.556272 
L 170.417455 233.421719 
L 171.229091 237.817707 
L 172.040727 235.911104 
L 172.852364 236.824904 
L 173.664 242.573438 
L 174.475636 232.043736 
L 175.287273 238.741912 
L 176.098909 233.623242 
L 176.910545 243.246452 
L 177.722182 239.02988 
L 178.533818 237.146326 
L 179.345455 239.435903 
L 180.157091 239.675378 
L 180.968727 239.67594 
L 181.780364 235.201614 
L 182.592 239.455486 
L 183.403636 238.136182 
L 184.215273 236.148187 
L 185.026909 244.041175 
L 185.838545 242.333931 
L 186.650182 247.133342 
L 187.461818 234.175412 
L 188.273455 244.893614 
L 189.085091 238.158558 
L 189.896727 242.799729 
L 190.708364 244.267401 
L 191.52 243.76484 
L 192.331636 247.17627 
L 193.143273 246.259399 
L 193.954909 248.313989 
L 194.766545 238.971555 
L 195.578182 243.351533 
L 196.389818 241.788623 
L 197.201455 246.905393 
L 198.013091 245.067817 
L 198.824727 243.912966 
L 199.636364 249.601387 
L 200.448 251.280694 
L 201.259636 247.939019 
L 202.071273 241.975686 
L 202.882909 249.691109 
L 203.694545 243.312153 
L 204.506182 246.432569 
L 205.317818 245.522971 
L 206.129455 249.657806 
L 206.941091 242.808739 
L 207.752727 250.677355 
L 208.564364 247.990547 
L 209.376 251.291846 
L 210.187636 248.259908 
L 211.810909 253.871229 
L 212.622545 250.07869 
L 213.434182 250.409711 
L 214.245818 256.127482 
L 215.869091 245.008825 
L 216.680727 255.64475 
L 217.492364 253.857956 
L 218.304 255.280806 
L 219.115636 250.669049 
L 219.927273 259.634679 
L 220.738909 252.047412 
L 221.550545 251.945117 
L 222.362182 257.612362 
L 223.173818 258.564358 
L 223.985455 253.161482 
L 224.797091 252.478641 
L 225.608727 252.787926 
L 226.420364 256.595163 
L 227.232 258.166032 
L 228.043636 260.059457 
L 228.855273 253.478793 
L 229.666909 253.977776 
L 230.478545 258.302372 
L 231.290182 258.562344 
L 232.101818 260.886729 
L 232.913455 256.626476 
L 233.725091 259.491379 
L 234.536727 259.695178 
L 235.348364 260.534331 
L 236.16 263.753669 
L 236.971636 257.452524 
L 237.783273 260.887369 
L 238.594909 266.782351 
L 239.406545 261.650742 
L 240.218182 259.66152 
L 241.029818 261.656409 
L 241.841455 267.026575 
L 242.653091 262.038668 
L 243.464727 260.975768 
L 244.276364 263.392328 
L 245.088 266.566758 
L 245.899636 262.708648 
L 246.711273 261.389733 
L 247.522909 269.37506 
L 248.334545 269.538583 
L 249.957818 263.237485 
L 250.769455 267.387412 
L 251.581091 264.957084 
L 252.392727 264.657035 
L 253.204364 273.462806 
L 254.016 264.289241 
L 254.827636 260.267402 
L 255.639273 262.467365 
L 256.450909 261.724541 
L 258.074182 272.644885 
L 258.885818 267.958158 
L 259.697455 268.717246 
L 260.509091 264.653062 
L 261.320727 272.859174 
L 262.132364 270.719925 
L 262.944 270.708661 
L 263.755636 274.128458 
L 264.567273 269.818347 
L 265.378909 273.967746 
L 266.190545 274.169352 
L 267.002182 274.869565 
L 267.813818 270.024553 
L 268.625455 269.409148 
L 269.437091 273.829378 
L 270.248727 269.832732 
L 271.060364 276.744494 
L 271.872 273.222572 
L 272.683636 271.921373 
L 273.495273 280.682077 
L 274.306909 272.54072 
L 275.118545 278.939603 
L 275.930182 278.495262 
L 276.741818 269.436129 
L 278.365091 276.550988 
L 279.176727 275.147824 
L 279.988364 275.155538 
L 280.8 279.840355 
L 281.611636 272.498807 
L 282.423273 274.291208 
L 283.234909 275.5725 
L 284.046545 274.585549 
L 284.858182 277.285793 
L 285.669818 277.022083 
L 286.481455 280.221221 
L 287.293091 277.746948 
L 288.104727 282.987837 
L 288.916364 282.164847 
L 289.728 277.251262 
L 290.539636 278.512562 
L 291.351273 284.122231 
L 292.162909 281.056363 
L 292.974545 280.57285 
L 293.786182 280.636449 
L 294.597818 278.214567 
L 295.409455 282.901502 
L 296.221091 278.623008 
L 297.844364 281.61667 
L 298.656 271.963393 
L 299.467636 281.64004 
L 300.279273 278.129655 
L 301.090909 282.155531 
L 301.902545 282.561964 
L 302.714182 282.664684 
L 303.525818 277.685276 
L 304.337455 285.886495 
L 305.149091 287.68997 
L 305.960727 288.381596 
L 306.772364 283.526611 
L 307.584 282.429777 
L 308.395636 282.199319 
L 309.207273 284.336805 
L 310.018909 286.925374 
L 310.830545 281.129527 
L 311.642182 285.508683 
L 312.453818 284.227235 
L 313.265455 279.871166 
L 314.077091 283.95313 
L 314.888727 278.720405 
L 315.700364 279.686188 
L 316.512 284.210578 
L 317.323636 284.974843 
L 318.135273 286.716538 
L 318.946909 279.795502 
L 319.758545 282.147503 
L 320.570182 284.860145 
L 321.381818 281.111058 
L 322.193455 279.19809 
L 323.005091 283.589212 
L 323.816727 281.012501 
L 324.628364 279.128689 
L 325.44 283.552205 
L 326.251636 282.002776 
L 327.063273 281.526944 
L 327.874909 285.763793 
L 328.686545 286.937988 
L 329.498182 280.317772 
L 330.309818 284.563757 
L 331.121455 283.087103 
L 331.933091 287.143726 
L 332.744727 284.207538 
L 333.556364 284.250504 
L 334.368 285.659979 
L 335.179636 288.554427 
L 335.991273 284.000399 
L 336.802909 286.299272 
L 337.614545 282.695769 
L 338.426182 282.534968 
L 339.237818 284.695186 
L 340.049455 286.326784 
L 340.861091 290.791717 
L 341.672727 281.352896 
L 342.484364 286.791039 
L 343.296 287.21548 
L 344.107636 286.042387 
L 344.919273 280.530251 
L 345.730909 282.42574 
L 346.542545 291.32143 
L 347.354182 285.34533 
L 348.165818 287.412399 
L 348.977455 290.756165 
L 349.789091 285.129747 
L 350.600727 284.784528 
L 351.412364 282.491255 
L 352.224 283.724322 
L 353.035636 289.877063 
L 353.847273 281.41077 
L 354.658909 290.562289 
L 355.470545 288.48243 
L 356.282182 289.574376 
L 357.093818 283.440057 
L 357.905455 285.592591 
L 358.717091 285.639337 
L 359.528727 276.030687 
L 360.340364 286.654309 
L 361.152 287.89126 
L 361.963636 284.388764 
L 362.775273 287.223213 
L 363.586909 282.133538 
L 364.398545 289.559988 
L 365.210182 284.518919 
L 366.021818 280.64095 
L 366.833455 284.61665 
L 367.645091 285.005597 
L 368.456727 284.398221 
L 369.268364 287.289039 
L 370.08 287.665532 
L 370.891636 282.756387 
L 371.703273 285.41738 
L 372.514909 290.689102 
L 373.326545 290.164218 
L 374.138182 283.710225 
L 374.949818 280.336356 
L 375.761455 283.300843 
L 376.573091 287.18105 
L 377.384727 283.518493 
L 378.196364 282.307579 
L 379.008 286.062512 
L 379.819636 282.953688 
L 380.631273 290.41293 
L 381.442909 285.082899 
L 382.254545 283.099829 
L 383.066182 284.470134 
L 383.877818 284.401675 
L 384.689455 281.590311 
L 385.501091 285.663863 
L 386.312727 278.741334 
L 387.124364 287.134794 
L 387.936 282.138388 
L 388.747636 285.918627 
L 389.559273 284.199634 
L 390.370909 280.5911 
L 391.182545 285.781566 
L 391.994182 287.031243 
L 392.805818 288.552021 
L 393.617455 281.439671 
L 394.429091 277.60798 
L 395.240727 285.761099 
L 396.052364 285.044813 
L 396.864 288.957808 
L 397.675636 278.280013 
L 398.487273 279.332103 
L 398.487273 279.332103 
" style="fill:none;stroke:#228b22;stroke-linecap:square;stroke-width:1.5;"/>
   </g>
   <g id="line2d_19">
    <path clip-path="url(#p6bcb7cb458)" d="M 74.143024 346.6 
L 74.644364 300.441577 
L 75.456 281.153775 
L 77.079273 288.597399 
L 77.890909 278.220955 
L 78.702545 273.175744 
L 79.514182 273.332857 
L 80.325818 274.995151 
L 81.137455 274.030925 
L 81.949091 268.181043 
L 82.760727 270.905414 
L 83.572364 269.54611 
L 85.195636 264.258061 
L 86.007273 263.529716 
L 86.818909 261.425299 
L 87.630545 266.923305 
L 88.442182 264.907514 
L 89.253818 259.79067 
L 90.065455 266.414749 
L 91.688727 256.935872 
L 92.500364 265.65984 
L 93.312 258.959594 
L 94.123636 257.931744 
L 94.935273 249.150375 
L 95.746909 261.248037 
L 96.558545 254.484682 
L 97.370182 252.993663 
L 98.181818 256.63087 
L 98.993455 255.104936 
L 99.805091 254.934251 
L 100.616727 253.574808 
L 101.428364 246.566261 
L 102.24 249.405711 
L 103.051636 251.384645 
L 103.863273 259.518673 
L 104.674909 250.794641 
L 105.486545 245.081624 
L 106.298182 248.30817 
L 107.109818 254.699565 
L 107.921455 251.906474 
L 108.733091 242.684902 
L 109.544727 251.871837 
L 110.356364 243.564998 
L 111.168 243.711172 
L 111.979636 244.38961 
L 112.791273 235.850591 
L 113.602909 248.220673 
L 114.414545 241.021184 
L 115.226182 241.21825 
L 116.037818 242.068396 
L 116.849455 241.853434 
L 117.661091 243.866639 
L 118.472727 246.687847 
L 119.284364 242.064528 
L 120.096 243.638145 
L 120.907636 249.431513 
L 121.719273 237.152044 
L 122.530909 241.569197 
L 123.342545 238.133642 
L 124.154182 239.10745 
L 124.965818 239.123737 
L 125.777455 240.853388 
L 126.589091 243.545837 
L 127.400727 235.864361 
L 128.212364 240.956786 
L 129.024 237.808692 
L 129.835636 236.953292 
L 131.458909 233.070925 
L 132.270545 236.839831 
L 133.082182 238.713873 
L 133.893818 232.866356 
L 134.705455 235.751785 
L 136.328727 237.239864 
L 137.140364 230.182327 
L 137.952 234.163809 
L 138.763636 226.839003 
L 139.575273 234.848314 
L 140.386909 239.482701 
L 141.198545 229.23309 
L 142.010182 226.120426 
L 142.821818 237.965355 
L 143.633455 228.78332 
L 144.445091 237.986377 
L 145.256727 237.898497 
L 146.068364 237.518005 
L 146.88 237.33157 
L 148.503273 233.018704 
L 149.314909 233.337687 
L 150.126545 236.781814 
L 150.938182 241.6745 
L 151.749818 235.728794 
L 152.561455 238.668283 
L 153.373091 231.108369 
L 154.184727 237.454685 
L 154.996364 235.066494 
L 155.808 238.948469 
L 156.619636 238.468787 
L 158.242909 235.50084 
L 159.054545 236.245508 
L 159.866182 235.936723 
L 160.677818 234.483786 
L 161.489455 236.637987 
L 162.301091 231.216574 
L 163.112727 228.572306 
L 163.924364 230.378756 
L 164.736 238.940403 
L 165.547636 237.756284 
L 166.359273 233.296033 
L 167.170909 238.476314 
L 167.982545 232.976421 
L 168.794182 238.50097 
L 169.605818 236.542824 
L 170.417455 231.973084 
L 171.229091 236.775463 
L 172.040727 237.277262 
L 172.852364 237.181987 
L 173.664 242.433382 
L 174.475636 232.984173 
L 175.287273 240.687014 
L 176.098909 234.018571 
L 176.910545 242.185014 
L 177.722182 237.317507 
L 178.533818 237.001877 
L 179.345455 239.526194 
L 180.157091 240.301676 
L 180.968727 238.706572 
L 181.780364 235.765914 
L 182.592 238.725611 
L 183.403636 239.123375 
L 184.215273 237.140949 
L 185.026909 244.092909 
L 185.838545 241.707608 
L 186.650182 246.17839 
L 187.461818 233.461008 
L 188.273455 244.761178 
L 189.085091 239.886786 
L 189.896727 243.944209 
L 190.708364 244.789055 
L 191.52 243.318042 
L 192.331636 246.97193 
L 193.143273 246.499612 
L 193.954909 247.731126 
L 194.766545 239.335385 
L 195.578182 243.111988 
L 196.389818 241.55399 
L 197.201455 245.88245 
L 198.013091 244.550472 
L 198.824727 244.361922 
L 199.636364 250.448034 
L 200.448 250.139677 
L 201.259636 247.226245 
L 202.071273 242.150968 
L 202.882909 248.99247 
L 203.694545 242.829489 
L 204.506182 245.37462 
L 205.317818 245.12027 
L 206.129455 249.319326 
L 206.941091 241.722958 
L 207.752727 251.147014 
L 208.564364 247.235843 
L 209.376 250.848061 
L 210.187636 247.04643 
L 210.999273 251.056889 
L 211.810909 253.971413 
L 212.622545 249.50684 
L 213.434182 250.149448 
L 214.245818 255.986853 
L 215.869091 244.000359 
L 216.680727 254.731188 
L 217.492364 253.469911 
L 218.304 255.182613 
L 219.115636 250.962659 
L 219.927273 258.921052 
L 220.738909 251.278556 
L 221.550545 251.485702 
L 222.362182 257.639037 
L 223.173818 258.402262 
L 223.985455 253.208057 
L 224.797091 251.872631 
L 225.608727 252.936417 
L 227.232 258.24131 
L 228.043636 258.727407 
L 228.855273 253.675047 
L 229.666909 253.443856 
L 230.478545 257.705953 
L 231.290182 258.003793 
L 232.101818 259.580011 
L 232.913455 256.783485 
L 233.725091 259.758618 
L 234.536727 258.73437 
L 235.348364 259.080839 
L 236.16 263.39806 
L 236.971636 255.675257 
L 237.783273 259.878192 
L 238.594909 266.706268 
L 239.406545 261.398927 
L 240.218182 259.636095 
L 241.029818 262.457342 
L 241.841455 266.797386 
L 242.653091 261.871749 
L 243.464727 259.854173 
L 244.276364 264.274404 
L 245.088 266.042638 
L 245.899636 262.00108 
L 246.711273 260.791265 
L 247.522909 269.425181 
L 248.334545 269.415254 
L 249.146182 265.647291 
L 249.957818 262.90197 
L 250.769455 267.061525 
L 251.581091 265.536496 
L 252.392727 263.657699 
L 253.204364 273.766476 
L 254.016 262.092202 
L 254.827636 260.352315 
L 255.639273 261.656065 
L 256.450909 261.356524 
L 258.074182 272.570979 
L 258.885818 267.138371 
L 259.697455 267.641266 
L 260.509091 263.923249 
L 261.320727 272.75393 
L 262.132364 270.010006 
L 262.944 270.280623 
L 263.755636 274.321847 
L 264.567273 267.970233 
L 265.378909 273.276147 
L 266.190545 274.996795 
L 267.002182 275.152907 
L 267.813818 269.61079 
L 268.625455 269.293244 
L 269.437091 274.20506 
L 270.248727 269.429229 
L 271.060364 276.259486 
L 271.872 273.262684 
L 272.683636 271.868604 
L 273.495273 280.01858 
L 274.306909 272.22689 
L 275.118545 278.642058 
L 275.930182 278.091522 
L 276.741818 268.164034 
L 277.553455 272.837566 
L 278.365091 276.018785 
L 279.176727 275.083835 
L 279.988364 274.730338 
L 280.8 279.024056 
L 281.611636 272.690847 
L 282.423273 274.438533 
L 283.234909 274.587929 
L 284.046545 274.465389 
L 284.858182 276.499432 
L 285.669818 276.250083 
L 286.481455 279.135065 
L 287.293091 277.347479 
L 288.104727 282.568118 
L 288.916364 281.631634 
L 289.728 276.536246 
L 290.539636 278.602698 
L 291.351273 282.279157 
L 292.162909 280.928611 
L 292.974545 281.066578 
L 293.786182 280.327854 
L 294.597818 276.782051 
L 295.409455 282.867394 
L 296.221091 276.828299 
L 297.844364 281.434489 
L 298.656 271.885285 
L 299.467636 281.379087 
L 300.279273 277.231356 
L 301.090909 281.394412 
L 302.714182 282.205058 
L 303.525818 277.352563 
L 304.337455 285.672856 
L 305.149091 287.465619 
L 305.960727 287.941612 
L 306.772364 282.067513 
L 307.584 282.48676 
L 308.395636 281.826977 
L 309.207273 283.402247 
L 310.018909 286.46155 
L 310.830545 281.247396 
L 311.642182 284.197511 
L 312.453818 283.928328 
L 313.265455 278.780408 
L 314.077091 283.898146 
L 314.888727 279.111954 
L 315.700364 279.045646 
L 316.512 282.439798 
L 317.323636 284.811599 
L 318.135273 286.039225 
L 318.946909 278.944673 
L 320.570182 284.099713 
L 321.381818 280.668025 
L 322.193455 278.677016 
L 323.005091 283.685381 
L 323.816727 279.993471 
L 324.628364 278.542467 
L 325.44 283.396732 
L 326.251636 281.480579 
L 327.063273 280.5722 
L 327.874909 284.788245 
L 328.686545 285.803656 
L 329.498182 278.691611 
L 330.309818 283.623876 
L 331.121455 281.463009 
L 331.933091 286.813412 
L 332.744727 283.16632 
L 333.556364 282.925334 
L 334.368 284.35357 
L 335.179636 287.955818 
L 335.991273 282.4906 
L 336.802909 285.497928 
L 337.614545 281.224666 
L 338.426182 282.217085 
L 339.237818 284.00925 
L 340.049455 285.068744 
L 340.861091 290.021364 
L 341.672727 281.632213 
L 342.484364 286.076729 
L 343.296 286.652656 
L 344.107636 285.387769 
L 344.919273 280.769428 
L 345.730909 281.643673 
L 346.542545 290.459725 
L 347.354182 284.331316 
L 348.165818 286.309458 
L 348.977455 290.083817 
L 349.789091 284.287401 
L 350.600727 284.107445 
L 351.412364 281.097414 
L 352.224 283.39716 
L 353.035636 289.814002 
L 353.847273 280.845005 
L 354.658909 289.915815 
L 355.470545 287.455171 
L 356.282182 289.047028 
L 357.093818 282.247263 
L 357.905455 285.365594 
L 358.717091 284.100598 
L 359.528727 275.50357 
L 360.340364 285.979439 
L 361.152 287.846288 
L 361.963636 283.850876 
L 362.775273 285.2523 
L 363.586909 281.388619 
L 364.398545 288.809085 
L 365.210182 283.673071 
L 366.021818 279.287701 
L 366.833455 283.528207 
L 367.645091 284.449848 
L 368.456727 283.019574 
L 369.268364 287.877977 
L 370.08 286.067329 
L 370.891636 281.673822 
L 371.703273 284.456623 
L 372.514909 290.142948 
L 373.326545 288.758745 
L 374.138182 283.020006 
L 374.949818 279.733639 
L 375.761455 282.935401 
L 376.573091 285.594264 
L 377.384727 283.050963 
L 378.196364 281.46403 
L 379.008 285.558995 
L 379.819636 282.432232 
L 380.631273 289.134225 
L 381.442909 283.256161 
L 382.254545 281.895005 
L 383.066182 283.818594 
L 383.877818 284.208249 
L 384.689455 279.867223 
L 385.501091 286.082922 
L 386.312727 277.503504 
L 387.124364 286.182855 
L 387.936 282.251933 
L 388.747636 284.325035 
L 389.559273 283.770936 
L 390.370909 279.600333 
L 391.182545 284.253834 
L 392.805818 287.800404 
L 393.617455 281.122155 
L 394.429091 276.703608 
L 395.240727 285.259144 
L 396.052364 284.31067 
L 396.864 288.743077 
L 397.675636 277.727026 
L 398.487273 278.597885 
L 398.487273 278.597885 
" style="fill:none;stroke:#ff8c00;stroke-dasharray:9.6,2.4,1.5,2.4;stroke-dashoffset:0;stroke-width:1.5;"/>
   </g>
   <g id="patch_3">
    <path d="M 57.6 307.584 
L 57.6 41.472 
" style="fill:none;stroke:#000000;stroke-linecap:square;stroke-linejoin:miter;stroke-width:0.8;"/>
   </g>
   <g id="patch_4">
    <path d="M 414.72 307.584 
L 414.72 41.472 
" style="fill:none;stroke:#000000;stroke-linecap:square;stroke-linejoin:miter;stroke-width:0.8;"/>
   </g>
   <g id="patch_5">
    <path d="M 57.6 307.584 
L 414.72 307.584 
" style="fill:none;stroke:#000000;stroke-linecap:square;stroke-linejoin:miter;stroke-width:0.8;"/>
   </g>
   <g id="patch_6">
    <path d="M 57.6 41.472 
L 414.72 41.472 
" style="fill:none;stroke:#000000;stroke-linecap:square;stroke-linejoin:miter;stroke-width:0.8;"/>
   </g>
   <g id="text_18">
    <!-- Verification for Information Bottleneck on NIS -->
    <defs>
     <path d="M 28.609375 0 
L 0.78125 72.90625 
L 11.078125 72.90625 
L 34.1875 11.53125 
L 57.328125 72.90625 
L 67.578125 72.90625 
L 39.796875 0 
z
" id="DejaVuSans-56"/>
     <path d="M 48.78125 52.59375 
L 48.78125 44.1875 
Q 44.96875 46.296875 41.140625 47.34375 
Q 37.3125 48.390625 33.40625 48.390625 
Q 24.65625 48.390625 19.8125 42.84375 
Q 14.984375 37.3125 14.984375 27.296875 
Q 14.984375 17.28125 19.8125 11.734375 
Q 24.65625 6.203125 33.40625 6.203125 
Q 37.3125 6.203125 41.140625 7.25 
Q 44.96875 8.296875 48.78125 10.40625 
L 48.78125 2.09375 
Q 45.015625 0.34375 40.984375 -0.53125 
Q 36.96875 -1.421875 32.421875 -1.421875 
Q 20.0625 -1.421875 12.78125 6.34375 
Q 5.515625 14.109375 5.515625 27.296875 
Q 5.515625 40.671875 12.859375 48.328125 
Q 20.21875 56 33.015625 56 
Q 37.15625 56 41.109375 55.140625 
Q 45.0625 54.296875 48.78125 52.59375 
z
" id="DejaVuSans-63"/>
     <path d="M 19.671875 34.8125 
L 19.671875 8.109375 
L 35.5 8.109375 
Q 43.453125 8.109375 47.28125 11.40625 
Q 51.125 14.703125 51.125 21.484375 
Q 51.125 28.328125 47.28125 31.5625 
Q 43.453125 34.8125 35.5 34.8125 
z
M 19.671875 64.796875 
L 19.671875 42.828125 
L 34.28125 42.828125 
Q 41.5 42.828125 45.03125 45.53125 
Q 48.578125 48.25 48.578125 53.8125 
Q 48.578125 59.328125 45.03125 62.0625 
Q 41.5 64.796875 34.28125 64.796875 
z
M 9.8125 72.90625 
L 35.015625 72.90625 
Q 46.296875 72.90625 52.390625 68.21875 
Q 58.5 63.53125 58.5 54.890625 
Q 58.5 48.1875 55.375 44.234375 
Q 52.25 40.28125 46.1875 39.3125 
Q 53.46875 37.75 57.5 32.78125 
Q 61.53125 27.828125 61.53125 20.40625 
Q 61.53125 10.640625 54.890625 5.3125 
Q 48.25 0 35.984375 0 
L 9.8125 0 
z
" id="DejaVuSans-42"/>
     <path d="M 9.078125 75.984375 
L 18.109375 75.984375 
L 18.109375 31.109375 
L 44.921875 54.6875 
L 56.390625 54.6875 
L 27.390625 29.109375 
L 57.625 0 
L 45.90625 0 
L 18.109375 26.703125 
L 18.109375 0 
L 9.078125 0 
z
" id="DejaVuSans-6b"/>
     <path d="M 9.8125 72.90625 
L 23.09375 72.90625 
L 55.421875 11.921875 
L 55.421875 72.90625 
L 64.984375 72.90625 
L 64.984375 0 
L 51.703125 0 
L 19.390625 60.984375 
L 19.390625 0 
L 9.8125 0 
z
" id="DejaVuSans-4e"/>
     <path d="M 53.515625 70.515625 
L 53.515625 60.890625 
Q 47.90625 63.578125 42.921875 64.890625 
Q 37.9375 66.21875 33.296875 66.21875 
Q 25.25 66.21875 20.875 63.09375 
Q 16.5 59.96875 16.5 54.203125 
Q 16.5 49.359375 19.40625 46.890625 
Q 22.3125 44.4375 30.421875 42.921875 
L 36.375 41.703125 
Q 47.40625 39.59375 52.65625 34.296875 
Q 57.90625 29 57.90625 20.125 
Q 57.90625 9.515625 50.796875 4.046875 
Q 43.703125 -1.421875 29.984375 -1.421875 
Q 24.8125 -1.421875 18.96875 -0.25 
Q 13.140625 0.921875 6.890625 3.21875 
L 6.890625 13.375 
Q 12.890625 10.015625 18.65625 8.296875 
Q 24.421875 6.59375 29.984375 6.59375 
Q 38.421875 6.59375 43.015625 9.90625 
Q 47.609375 13.234375 47.609375 19.390625 
Q 47.609375 24.75 44.3125 27.78125 
Q 41.015625 30.8125 33.5 32.328125 
L 27.484375 33.5 
Q 16.453125 35.6875 11.515625 40.375 
Q 6.59375 45.0625 6.59375 53.421875 
Q 6.59375 63.09375 13.40625 68.65625 
Q 20.21875 74.21875 32.171875 74.21875 
Q 37.3125 74.21875 42.625 73.28125 
Q 47.953125 72.359375 53.515625 70.515625 
z
" id="DejaVuSans-53"/>
    </defs>
    <g transform="translate(76.966875 35.472)scale(0.14 -0.14)">
     <use xlink:href="#DejaVuSans-56"/>
     <use x="68.298828" xlink:href="#DejaVuSans-65"/>
     <use x="129.822266" xlink:href="#DejaVuSans-72"/>
     <use x="170.935547" xlink:href="#DejaVuSans-69"/>
     <use x="198.71875" xlink:href="#DejaVuSans-66"/>
     <use x="233.923828" xlink:href="#DejaVuSans-69"/>
     <use x="261.707031" xlink:href="#DejaVuSans-63"/>
     <use x="316.6875" xlink:href="#DejaVuSans-61"/>
     <use x="377.966797" xlink:href="#DejaVuSans-74"/>
     <use x="417.175781" xlink:href="#DejaVuSans-69"/>
     <use x="444.958984" xlink:href="#DejaVuSans-6f"/>
     <use x="506.140625" xlink:href="#DejaVuSans-6e"/>
     <use x="569.519531" xlink:href="#DejaVuSans-20"/>
     <use x="601.306641" xlink:href="#DejaVuSans-66"/>
     <use x="636.511719" xlink:href="#DejaVuSans-6f"/>
     <use x="697.693359" xlink:href="#DejaVuSans-72"/>
     <use x="738.806641" xlink:href="#DejaVuSans-20"/>
     <use x="770.59375" xlink:href="#DejaVuSans-49"/>
     <use x="800.085938" xlink:href="#DejaVuSans-6e"/>
     <use x="863.464844" xlink:href="#DejaVuSans-66"/>
     <use x="898.669922" xlink:href="#DejaVuSans-6f"/>
     <use x="959.851562" xlink:href="#DejaVuSans-72"/>
     <use x="1000.949219" xlink:href="#DejaVuSans-6d"/>
     <use x="1098.361328" xlink:href="#DejaVuSans-61"/>
     <use x="1159.640625" xlink:href="#DejaVuSans-74"/>
     <use x="1198.849609" xlink:href="#DejaVuSans-69"/>
     <use x="1226.632812" xlink:href="#DejaVuSans-6f"/>
     <use x="1287.814453" xlink:href="#DejaVuSans-6e"/>
     <use x="1351.193359" xlink:href="#DejaVuSans-20"/>
     <use x="1382.980469" xlink:href="#DejaVuSans-42"/>
     <use x="1451.583984" xlink:href="#DejaVuSans-6f"/>
     <use x="1512.765625" xlink:href="#DejaVuSans-74"/>
     <use x="1551.974609" xlink:href="#DejaVuSans-74"/>
     <use x="1591.183594" xlink:href="#DejaVuSans-6c"/>
     <use x="1618.966797" xlink:href="#DejaVuSans-65"/>
     <use x="1680.490234" xlink:href="#DejaVuSans-6e"/>
     <use x="1743.869141" xlink:href="#DejaVuSans-65"/>
     <use x="1805.392578" xlink:href="#DejaVuSans-63"/>
     <use x="1860.373047" xlink:href="#DejaVuSans-6b"/>
     <use x="1918.283203" xlink:href="#DejaVuSans-20"/>
     <use x="1950.070312" xlink:href="#DejaVuSans-6f"/>
     <use x="2011.251953" xlink:href="#DejaVuSans-6e"/>
     <use x="2074.630859" xlink:href="#DejaVuSans-20"/>
     <use x="2106.417969" xlink:href="#DejaVuSans-4e"/>
     <use x="2181.222656" xlink:href="#DejaVuSans-49"/>
     <use x="2210.714844" xlink:href="#DejaVuSans-53"/>
    </g>
   </g>
   <g id="legend_1">
    <g id="patch_7">
     <path d="M 301.42 207.028 
L 407.72 207.028 
Q 409.72 207.028 409.72 205.028 
L 409.72 144.028 
Q 409.72 142.028 407.72 142.028 
L 301.42 142.028 
Q 299.42 142.028 299.42 144.028 
L 299.42 205.028 
Q 299.42 207.028 301.42 207.028 
z
" style="fill:#ffffff;opacity:0.8;stroke:#cccccc;stroke-linejoin:miter;"/>
    </g>
    <g id="line2d_20">
     <path d="M 303.42 151.728 
L 323.42 151.728 
" style="fill:none;stroke:#dc143c;stroke-linecap:square;stroke-width:1.5;"/>
    </g>
    <g id="line2d_21"/>
    <g id="text_19">
     <!-- $I(\hat{x}_{t+1},y_t)$ -->
     <defs>
      <path d="M 16.890625 72.90625 
L 26.8125 72.90625 
L 12.59375 0 
L 2.6875 0 
z
" id="DejaVuSans-Oblique-49"/>
      <path d="M 31 75.875 
Q 24.46875 64.65625 21.28125 53.65625 
Q 18.109375 42.671875 18.109375 31.390625 
Q 18.109375 20.125 21.3125 9.0625 
Q 24.515625 -2 31 -13.1875 
L 23.1875 -13.1875 
Q 15.875 -1.703125 12.234375 9.375 
Q 8.59375 20.453125 8.59375 31.390625 
Q 8.59375 42.28125 12.203125 53.3125 
Q 15.828125 64.359375 23.1875 75.875 
z
" id="DejaVuSans-28"/>
      <path d="M -28.609375 79.984375 
L -21.390625 79.984375 
L -9.421875 61.625 
L -16.21875 61.625 
L -25 73.578125 
L -33.796875 61.625 
L -40.578125 61.625 
z
M -25 56 
z
" id="DejaVuSans-302"/>
      <path d="M 60.015625 54.6875 
L 34.90625 27.875 
L 50.296875 0 
L 39.984375 0 
L 28.421875 21.6875 
L 8.296875 0 
L -2.59375 0 
L 24.3125 28.8125 
L 10.015625 54.6875 
L 20.3125 54.6875 
L 30.8125 34.90625 
L 49.125 54.6875 
z
" id="DejaVuSans-Oblique-78"/>
      <path d="M 42.28125 54.6875 
L 40.921875 47.703125 
L 23 47.703125 
L 17.1875 18.015625 
Q 16.890625 16.359375 16.75 15.234375 
Q 16.609375 14.109375 16.609375 13.484375 
Q 16.609375 10.359375 18.484375 8.9375 
Q 20.359375 7.515625 24.515625 7.515625 
L 33.59375 7.515625 
L 32.078125 0 
L 23.484375 0 
Q 15.484375 0 11.546875 3.125 
Q 7.625 6.25 7.625 12.59375 
Q 7.625 13.71875 7.765625 15.0625 
Q 7.90625 16.40625 8.203125 18.015625 
L 14.015625 47.703125 
L 6.390625 47.703125 
L 7.8125 54.6875 
L 15.28125 54.6875 
L 18.3125 70.21875 
L 27.296875 70.21875 
L 24.3125 54.6875 
z
" id="DejaVuSans-Oblique-74"/>
      <path d="M 46 62.703125 
L 46 35.5 
L 73.1875 35.5 
L 73.1875 27.203125 
L 46 27.203125 
L 46 0 
L 37.796875 0 
L 37.796875 27.203125 
L 10.59375 27.203125 
L 10.59375 35.5 
L 37.796875 35.5 
L 37.796875 62.703125 
z
" id="DejaVuSans-2b"/>
      <path d="M 11.71875 12.40625 
L 22.015625 12.40625 
L 22.015625 4 
L 14.015625 -11.625 
L 7.71875 -11.625 
L 11.71875 4 
z
" id="DejaVuSans-2c"/>
      <path d="M 24.8125 -5.078125 
Q 18.5625 -15.578125 14.625 -18.1875 
Q 10.6875 -20.796875 4.59375 -20.796875 
L -2.484375 -20.796875 
L -0.984375 -13.28125 
L 4.203125 -13.28125 
Q 7.953125 -13.28125 10.59375 -11.234375 
Q 13.234375 -9.1875 16.5 -3.21875 
L 19.28125 2 
L 7.171875 54.6875 
L 16.703125 54.6875 
L 25.78125 12.796875 
L 50.875 54.6875 
L 60.296875 54.6875 
z
" id="DejaVuSans-Oblique-79"/>
      <path d="M 8.015625 75.875 
L 15.828125 75.875 
Q 23.140625 64.359375 26.78125 53.3125 
Q 30.421875 42.28125 30.421875 31.390625 
Q 30.421875 20.453125 26.78125 9.375 
Q 23.140625 -1.703125 15.828125 -13.1875 
L 8.015625 -13.1875 
Q 14.5 -2 17.703125 9.0625 
Q 20.90625 20.125 20.90625 31.390625 
Q 20.90625 42.671875 17.703125 53.65625 
Q 14.5 64.65625 8.015625 75.875 
z
" id="DejaVuSans-29"/>
     </defs>
     <g transform="translate(331.42 155.228)scale(0.1 -0.1)">
      <use transform="translate(0 0.828125)" xlink:href="#DejaVuSans-Oblique-49"/>
      <use transform="translate(29.492188 0.828125)" xlink:href="#DejaVuSans-28"/>
      <use transform="translate(130.878906 12.015625)" xlink:href="#DejaVuSans-302"/>
      <use transform="translate(68.505859 0.828125)" xlink:href="#DejaVuSans-Oblique-78"/>
      <use transform="translate(128.642578 -15.578125)scale(0.7)" xlink:href="#DejaVuSans-Oblique-74"/>
      <use transform="translate(169.726562 -15.578125)scale(0.7)" xlink:href="#DejaVuSans-2b"/>
      <use transform="translate(242.016602 -15.578125)scale(0.7)" xlink:href="#DejaVuSans-31"/>
      <use transform="translate(289.287109 0.828125)" xlink:href="#DejaVuSans-2c"/>
      <use transform="translate(340.556641 0.828125)" xlink:href="#DejaVuSans-Oblique-79"/>
      <use transform="translate(399.736328 -15.578125)scale(0.7)" xlink:href="#DejaVuSans-Oblique-74"/>
      <use transform="translate(429.916992 0.828125)" xlink:href="#DejaVuSans-29"/>
     </g>
    </g>
    <g id="line2d_22">
     <path d="M 303.42 168.028 
L 323.42 168.028 
" style="fill:none;stroke:#1e90ff;stroke-dasharray:9.6,2.4,1.5,2.4;stroke-dashoffset:0;stroke-width:1.5;"/>
    </g>
    <g id="line2d_23"/>
    <g id="text_20">
     <!-- $I(\hat{x}_{t+1},y(t+1))$ -->
     <g transform="translate(331.42 171.528)scale(0.1 -0.1)">
      <use transform="translate(0 0.828125)" xlink:href="#DejaVuSans-Oblique-49"/>
      <use transform="translate(29.492188 0.828125)" xlink:href="#DejaVuSans-28"/>
      <use transform="translate(130.878906 12.015625)" xlink:href="#DejaVuSans-302"/>
      <use transform="translate(68.505859 0.828125)" xlink:href="#DejaVuSans-Oblique-78"/>
      <use transform="translate(128.642578 -15.578125)scale(0.7)" xlink:href="#DejaVuSans-Oblique-74"/>
      <use transform="translate(169.726562 -15.578125)scale(0.7)" xlink:href="#DejaVuSans-2b"/>
      <use transform="translate(242.016602 -15.578125)scale(0.7)" xlink:href="#DejaVuSans-31"/>
      <use transform="translate(289.287109 0.828125)" xlink:href="#DejaVuSans-2c"/>
      <use transform="translate(340.556641 0.828125)" xlink:href="#DejaVuSans-Oblique-79"/>
      <use transform="translate(399.736328 0.828125)" xlink:href="#DejaVuSans-28"/>
      <use transform="translate(438.75 0.828125)" xlink:href="#DejaVuSans-Oblique-74"/>
      <use transform="translate(497.441406 0.828125)" xlink:href="#DejaVuSans-2b"/>
      <use transform="translate(600.712891 0.828125)" xlink:href="#DejaVuSans-31"/>
      <use transform="translate(664.335938 0.828125)" xlink:href="#DejaVuSans-29"/>
      <use transform="translate(703.349609 0.828125)" xlink:href="#DejaVuSans-29"/>
     </g>
    </g>
    <g id="line2d_24">
     <path d="M 303.42 182.728 
L 323.42 182.728 
" style="fill:none;stroke:#228b22;stroke-linecap:square;stroke-width:1.5;"/>
    </g>
    <g id="line2d_25"/>
    <g id="text_21">
     <!-- $I(x_t,y_t)$ -->
     <g transform="translate(331.42 186.228)scale(0.1 -0.1)">
      <use transform="translate(0 0.125)" xlink:href="#DejaVuSans-Oblique-49"/>
      <use transform="translate(29.492188 0.125)" xlink:href="#DejaVuSans-28"/>
      <use transform="translate(68.505859 0.125)" xlink:href="#DejaVuSans-Oblique-78"/>
      <use transform="translate(127.685547 -16.28125)scale(0.7)" xlink:href="#DejaVuSans-Oblique-74"/>
      <use transform="translate(157.866211 0.125)" xlink:href="#DejaVuSans-2c"/>
      <use transform="translate(209.135742 0.125)" xlink:href="#DejaVuSans-Oblique-79"/>
      <use transform="translate(268.31543 -16.28125)scale(0.7)" xlink:href="#DejaVuSans-Oblique-74"/>
      <use transform="translate(298.496094 0.125)" xlink:href="#DejaVuSans-29"/>
     </g>
    </g>
    <g id="line2d_26">
     <path d="M 303.42 197.428 
L 323.42 197.428 
" style="fill:none;stroke:#ff8c00;stroke-dasharray:9.6,2.4,1.5,2.4;stroke-dashoffset:0;stroke-width:1.5;"/>
    </g>
    <g id="line2d_27"/>
    <g id="text_22">
     <!-- $I(x_t,y(t+1))$ -->
     <g transform="translate(331.42 200.928)scale(0.1 -0.1)">
      <use transform="translate(0 0.125)" xlink:href="#DejaVuSans-Oblique-49"/>
      <use transform="translate(29.492188 0.125)" xlink:href="#DejaVuSans-28"/>
      <use transform="translate(68.505859 0.125)" xlink:href="#DejaVuSans-Oblique-78"/>
      <use transform="translate(127.685547 -16.28125)scale(0.7)" xlink:href="#DejaVuSans-Oblique-74"/>
      <use transform="translate(157.866211 0.125)" xlink:href="#DejaVuSans-2c"/>
      <use transform="translate(209.135742 0.125)" xlink:href="#DejaVuSans-Oblique-79"/>
      <use transform="translate(268.31543 0.125)" xlink:href="#DejaVuSans-28"/>
      <use transform="translate(307.329102 0.125)" xlink:href="#DejaVuSans-Oblique-74"/>
      <use transform="translate(366.020508 0.125)" xlink:href="#DejaVuSans-2b"/>
      <use transform="translate(469.291992 0.125)" xlink:href="#DejaVuSans-31"/>
      <use transform="translate(532.915039 0.125)" xlink:href="#DejaVuSans-29"/>
      <use transform="translate(571.928711 0.125)" xlink:href="#DejaVuSans-29"/>
     </g>
    </g>
   </g>
  </g>
 </g>
 <defs>
  <clipPath id="p6bcb7cb458">
   <rect height="266.112" width="357.12" x="57.6" y="41.472"/>
  </clipPath>
 </defs>
</svg>
