<?xml version="1.0" encoding="utf-8" standalone="no"?>
<!DOCTYPE svg PUBLIC "-//W3C//DTD SVG 1.1//EN"
  "http://www.w3.org/Graphics/SVG/1.1/DTD/svg11.dtd">
<!-- Created with matplotlib (http://matplotlib.org/) -->
<svg height="345.6pt" version="1.1" viewBox="0 0 460.8 345.6" width="460.8pt" xmlns="http://www.w3.org/2000/svg" xmlns:xlink="http://www.w3.org/1999/xlink">
 <defs>
  <style type="text/css">
*{stroke-linecap:butt;stroke-linejoin:round;}
  </style>
 </defs>
 <g id="figure_1">
  <g id="patch_1">
   <path d="M 0 345.6 
L 460.8 345.6 
L 460.8 0 
L 0 0 
z
" style="fill:#ffffff;"/>
  </g>
  <g id="axes_1">
   <g id="patch_2">
    <path d="M 57.6 307.584 
L 414.72 307.584 
L 414.72 41.472 
L 57.6 41.472 
z
" style="fill:#ffffff;"/>
   </g>
   <g id="matplotlib.axis_1">
    <g id="xtick_1">
     <g id="line2d_1">
      <defs>
       <path d="M 0 0 
L 0 3.5 
" id="m9847214e7d" style="stroke:#000000;stroke-width:0.8;"/>
      </defs>
      <g>
       <use style="stroke:#000000;stroke-width:0.8;" x="73.832727" xlink:href="#m9847214e7d" y="307.584"/>
      </g>
     </g>
     <g id="text_1">
      <!-- 0 -->
      <defs>
       <path d="M 31.78125 66.40625 
Q 24.171875 66.40625 20.328125 58.90625 
Q 16.5 51.421875 16.5 36.375 
Q 16.5 21.390625 20.328125 13.890625 
Q 24.171875 6.390625 31.78125 6.390625 
Q 39.453125 6.390625 43.28125 13.890625 
Q 47.125 21.390625 47.125 36.375 
Q 47.125 51.421875 43.28125 58.90625 
Q 39.453125 66.40625 31.78125 66.40625 
z
M 31.78125 74.21875 
Q 44.046875 74.21875 50.515625 64.515625 
Q 56.984375 54.828125 56.984375 36.375 
Q 56.984375 17.96875 50.515625 8.265625 
Q 44.046875 -1.421875 31.78125 -1.421875 
Q 19.53125 -1.421875 13.0625 8.265625 
Q 6.59375 17.96875 6.59375 36.375 
Q 6.59375 54.828125 13.0625 64.515625 
Q 19.53125 74.21875 31.78125 74.21875 
z
" id="DejaVuSans-30"/>
      </defs>
      <g transform="translate(70.651477 322.182437)scale(0.1 -0.1)">
       <use xlink:href="#DejaVuSans-30"/>
      </g>
     </g>
    </g>
    <g id="xtick_2">
     <g id="line2d_2">
      <g>
       <use style="stroke:#000000;stroke-width:0.8;" x="138.763636" xlink:href="#m9847214e7d" y="307.584"/>
      </g>
     </g>
     <g id="text_2">
      <!-- 10000 -->
      <defs>
       <path d="M 12.40625 8.296875 
L 28.515625 8.296875 
L 28.515625 63.921875 
L 10.984375 60.40625 
L 10.984375 69.390625 
L 28.421875 72.90625 
L 38.28125 72.90625 
L 38.28125 8.296875 
L 54.390625 8.296875 
L 54.390625 0 
L 12.40625 0 
z
" id="DejaVuSans-31"/>
      </defs>
      <g transform="translate(122.857386 322.182437)scale(0.1 -0.1)">
       <use xlink:href="#DejaVuSans-31"/>
       <use x="63.623047" xlink:href="#DejaVuSans-30"/>
       <use x="127.246094" xlink:href="#DejaVuSans-30"/>
       <use x="190.869141" xlink:href="#DejaVuSans-30"/>
       <use x="254.492188" xlink:href="#DejaVuSans-30"/>
      </g>
     </g>
    </g>
    <g id="xtick_3">
     <g id="line2d_3">
      <g>
       <use style="stroke:#000000;stroke-width:0.8;" x="203.694545" xlink:href="#m9847214e7d" y="307.584"/>
      </g>
     </g>
     <g id="text_3">
      <!-- 20000 -->
      <defs>
       <path d="M 19.1875 8.296875 
L 53.609375 8.296875 
L 53.609375 0 
L 7.328125 0 
L 7.328125 8.296875 
Q 12.9375 14.109375 22.625 23.890625 
Q 32.328125 33.6875 34.8125 36.53125 
Q 39.546875 41.84375 41.421875 45.53125 
Q 43.3125 49.21875 43.3125 52.78125 
Q 43.3125 58.59375 39.234375 62.25 
Q 35.15625 65.921875 28.609375 65.921875 
Q 23.96875 65.921875 18.8125 64.3125 
Q 13.671875 62.703125 7.8125 59.421875 
L 7.8125 69.390625 
Q 13.765625 71.78125 18.9375 73 
Q 24.125 74.21875 28.421875 74.21875 
Q 39.75 74.21875 46.484375 68.546875 
Q 53.21875 62.890625 53.21875 53.421875 
Q 53.21875 48.921875 51.53125 44.890625 
Q 49.859375 40.875 45.40625 35.40625 
Q 44.1875 33.984375 37.640625 27.21875 
Q 31.109375 20.453125 19.1875 8.296875 
z
" id="DejaVuSans-32"/>
      </defs>
      <g transform="translate(187.788295 322.182437)scale(0.1 -0.1)">
       <use xlink:href="#DejaVuSans-32"/>
       <use x="63.623047" xlink:href="#DejaVuSans-30"/>
       <use x="127.246094" xlink:href="#DejaVuSans-30"/>
       <use x="190.869141" xlink:href="#DejaVuSans-30"/>
       <use x="254.492188" xlink:href="#DejaVuSans-30"/>
      </g>
     </g>
    </g>
    <g id="xtick_4">
     <g id="line2d_4">
      <g>
       <use style="stroke:#000000;stroke-width:0.8;" x="268.625455" xlink:href="#m9847214e7d" y="307.584"/>
      </g>
     </g>
     <g id="text_4">
      <!-- 30000 -->
      <defs>
       <path d="M 40.578125 39.3125 
Q 47.65625 37.796875 51.625 33 
Q 55.609375 28.21875 55.609375 21.1875 
Q 55.609375 10.40625 48.1875 4.484375 
Q 40.765625 -1.421875 27.09375 -1.421875 
Q 22.515625 -1.421875 17.65625 -0.515625 
Q 12.796875 0.390625 7.625 2.203125 
L 7.625 11.71875 
Q 11.71875 9.328125 16.59375 8.109375 
Q 21.484375 6.890625 26.8125 6.890625 
Q 36.078125 6.890625 40.9375 10.546875 
Q 45.796875 14.203125 45.796875 21.1875 
Q 45.796875 27.640625 41.28125 31.265625 
Q 36.765625 34.90625 28.71875 34.90625 
L 20.21875 34.90625 
L 20.21875 43.015625 
L 29.109375 43.015625 
Q 36.375 43.015625 40.234375 45.921875 
Q 44.09375 48.828125 44.09375 54.296875 
Q 44.09375 59.90625 40.109375 62.90625 
Q 36.140625 65.921875 28.71875 65.921875 
Q 24.65625 65.921875 20.015625 65.03125 
Q 15.375 64.15625 9.8125 62.3125 
L 9.8125 71.09375 
Q 15.4375 72.65625 20.34375 73.4375 
Q 25.25 74.21875 29.59375 74.21875 
Q 40.828125 74.21875 47.359375 69.109375 
Q 53.90625 64.015625 53.90625 55.328125 
Q 53.90625 49.265625 50.4375 45.09375 
Q 46.96875 40.921875 40.578125 39.3125 
z
" id="DejaVuSans-33"/>
      </defs>
      <g transform="translate(252.719205 322.182437)scale(0.1 -0.1)">
       <use xlink:href="#DejaVuSans-33"/>
       <use x="63.623047" xlink:href="#DejaVuSans-30"/>
       <use x="127.246094" xlink:href="#DejaVuSans-30"/>
       <use x="190.869141" xlink:href="#DejaVuSans-30"/>
       <use x="254.492188" xlink:href="#DejaVuSans-30"/>
      </g>
     </g>
    </g>
    <g id="xtick_5">
     <g id="line2d_5">
      <g>
       <use style="stroke:#000000;stroke-width:0.8;" x="333.556364" xlink:href="#m9847214e7d" y="307.584"/>
      </g>
     </g>
     <g id="text_5">
      <!-- 40000 -->
      <defs>
       <path d="M 37.796875 64.3125 
L 12.890625 25.390625 
L 37.796875 25.390625 
z
M 35.203125 72.90625 
L 47.609375 72.90625 
L 47.609375 25.390625 
L 58.015625 25.390625 
L 58.015625 17.1875 
L 47.609375 17.1875 
L 47.609375 0 
L 37.796875 0 
L 37.796875 17.1875 
L 4.890625 17.1875 
L 4.890625 26.703125 
z
" id="DejaVuSans-34"/>
      </defs>
      <g transform="translate(317.650114 322.182437)scale(0.1 -0.1)">
       <use xlink:href="#DejaVuSans-34"/>
       <use x="63.623047" xlink:href="#DejaVuSans-30"/>
       <use x="127.246094" xlink:href="#DejaVuSans-30"/>
       <use x="190.869141" xlink:href="#DejaVuSans-30"/>
       <use x="254.492188" xlink:href="#DejaVuSans-30"/>
      </g>
     </g>
    </g>
    <g id="xtick_6">
     <g id="line2d_6">
      <g>
       <use style="stroke:#000000;stroke-width:0.8;" x="398.487273" xlink:href="#m9847214e7d" y="307.584"/>
      </g>
     </g>
     <g id="text_6">
      <!-- 50000 -->
      <defs>
       <path d="M 10.796875 72.90625 
L 49.515625 72.90625 
L 49.515625 64.59375 
L 19.828125 64.59375 
L 19.828125 46.734375 
Q 21.96875 47.46875 24.109375 47.828125 
Q 26.265625 48.1875 28.421875 48.1875 
Q 40.625 48.1875 47.75 41.5 
Q 54.890625 34.8125 54.890625 23.390625 
Q 54.890625 11.625 47.5625 5.09375 
Q 40.234375 -1.421875 26.90625 -1.421875 
Q 22.3125 -1.421875 17.546875 -0.640625 
Q 12.796875 0.140625 7.71875 1.703125 
L 7.71875 11.625 
Q 12.109375 9.234375 16.796875 8.0625 
Q 21.484375 6.890625 26.703125 6.890625 
Q 35.15625 6.890625 40.078125 11.328125 
Q 45.015625 15.765625 45.015625 23.390625 
Q 45.015625 31 40.078125 35.4375 
Q 35.15625 39.890625 26.703125 39.890625 
Q 22.75 39.890625 18.8125 39.015625 
Q 14.890625 38.140625 10.796875 36.28125 
z
" id="DejaVuSans-35"/>
      </defs>
      <g transform="translate(382.581023 322.182437)scale(0.1 -0.1)">
       <use xlink:href="#DejaVuSans-35"/>
       <use x="63.623047" xlink:href="#DejaVuSans-30"/>
       <use x="127.246094" xlink:href="#DejaVuSans-30"/>
       <use x="190.869141" xlink:href="#DejaVuSans-30"/>
       <use x="254.492188" xlink:href="#DejaVuSans-30"/>
      </g>
     </g>
    </g>
    <g id="text_7">
     <!-- Iter -->
     <defs>
      <path d="M 9.8125 72.90625 
L 19.671875 72.90625 
L 19.671875 0 
L 9.8125 0 
z
" id="DejaVuSans-49"/>
      <path d="M 18.3125 70.21875 
L 18.3125 54.6875 
L 36.8125 54.6875 
L 36.8125 47.703125 
L 18.3125 47.703125 
L 18.3125 18.015625 
Q 18.3125 11.328125 20.140625 9.421875 
Q 21.96875 7.515625 27.59375 7.515625 
L 36.8125 7.515625 
L 36.8125 0 
L 27.59375 0 
Q 17.1875 0 13.234375 3.875 
Q 9.28125 7.765625 9.28125 18.015625 
L 9.28125 47.703125 
L 2.6875 47.703125 
L 2.6875 54.6875 
L 9.28125 54.6875 
L 9.28125 70.21875 
z
" id="DejaVuSans-74"/>
      <path d="M 56.203125 29.59375 
L 56.203125 25.203125 
L 14.890625 25.203125 
Q 15.484375 15.921875 20.484375 11.0625 
Q 25.484375 6.203125 34.421875 6.203125 
Q 39.59375 6.203125 44.453125 7.46875 
Q 49.3125 8.734375 54.109375 11.28125 
L 54.109375 2.78125 
Q 49.265625 0.734375 44.1875 -0.34375 
Q 39.109375 -1.421875 33.890625 -1.421875 
Q 20.796875 -1.421875 13.15625 6.1875 
Q 5.515625 13.8125 5.515625 26.8125 
Q 5.515625 40.234375 12.765625 48.109375 
Q 20.015625 56 32.328125 56 
Q 43.359375 56 49.78125 48.890625 
Q 56.203125 41.796875 56.203125 29.59375 
z
M 47.21875 32.234375 
Q 47.125 39.59375 43.09375 43.984375 
Q 39.0625 48.390625 32.421875 48.390625 
Q 24.90625 48.390625 20.390625 44.140625 
Q 15.875 39.890625 15.1875 32.171875 
z
" id="DejaVuSans-65"/>
      <path d="M 41.109375 46.296875 
Q 39.59375 47.171875 37.8125 47.578125 
Q 36.03125 48 33.890625 48 
Q 26.265625 48 22.1875 43.046875 
Q 18.109375 38.09375 18.109375 28.8125 
L 18.109375 0 
L 9.078125 0 
L 9.078125 54.6875 
L 18.109375 54.6875 
L 18.109375 46.1875 
Q 20.953125 51.171875 25.484375 53.578125 
Q 30.03125 56 36.53125 56 
Q 37.453125 56 38.578125 55.875 
Q 39.703125 55.765625 41.0625 55.515625 
z
" id="DejaVuSans-72"/>
     </defs>
     <g transform="translate(225.022656 338.140094)scale(0.13 -0.13)">
      <use xlink:href="#DejaVuSans-49"/>
      <use x="29.492188" xlink:href="#DejaVuSans-74"/>
      <use x="68.701172" xlink:href="#DejaVuSans-65"/>
      <use x="130.224609" xlink:href="#DejaVuSans-72"/>
     </g>
    </g>
   </g>
   <g id="matplotlib.axis_2">
    <g id="ytick_1">
     <g id="line2d_7">
      <defs>
       <path d="M 0 0 
L -3.5 0 
" id="mb751240304" style="stroke:#000000;stroke-width:0.8;"/>
      </defs>
      <g>
       <use style="stroke:#000000;stroke-width:0.8;" x="57.6" xlink:href="#mb751240304" y="307.584"/>
      </g>
     </g>
     <g id="text_8">
      <!-- 0 -->
      <g transform="translate(44.2375 311.383219)scale(0.1 -0.1)">
       <use xlink:href="#DejaVuSans-30"/>
      </g>
     </g>
    </g>
    <g id="ytick_2">
     <g id="line2d_8">
      <g>
       <use style="stroke:#000000;stroke-width:0.8;" x="57.6" xlink:href="#mb751240304" y="278.016"/>
      </g>
     </g>
     <g id="text_9">
      <!-- 1 -->
      <g transform="translate(44.2375 281.815219)scale(0.1 -0.1)">
       <use xlink:href="#DejaVuSans-31"/>
      </g>
     </g>
    </g>
    <g id="ytick_3">
     <g id="line2d_9">
      <g>
       <use style="stroke:#000000;stroke-width:0.8;" x="57.6" xlink:href="#mb751240304" y="248.448"/>
      </g>
     </g>
     <g id="text_10">
      <!-- 2 -->
      <g transform="translate(44.2375 252.247219)scale(0.1 -0.1)">
       <use xlink:href="#DejaVuSans-32"/>
      </g>
     </g>
    </g>
    <g id="ytick_4">
     <g id="line2d_10">
      <g>
       <use style="stroke:#000000;stroke-width:0.8;" x="57.6" xlink:href="#mb751240304" y="218.88"/>
      </g>
     </g>
     <g id="text_11">
      <!-- 3 -->
      <g transform="translate(44.2375 222.679219)scale(0.1 -0.1)">
       <use xlink:href="#DejaVuSans-33"/>
      </g>
     </g>
    </g>
    <g id="ytick_5">
     <g id="line2d_11">
      <g>
       <use style="stroke:#000000;stroke-width:0.8;" x="57.6" xlink:href="#mb751240304" y="189.312"/>
      </g>
     </g>
     <g id="text_12">
      <!-- 4 -->
      <g transform="translate(44.2375 193.111219)scale(0.1 -0.1)">
       <use xlink:href="#DejaVuSans-34"/>
      </g>
     </g>
    </g>
    <g id="ytick_6">
     <g id="line2d_12">
      <g>
       <use style="stroke:#000000;stroke-width:0.8;" x="57.6" xlink:href="#mb751240304" y="159.744"/>
      </g>
     </g>
     <g id="text_13">
      <!-- 5 -->
      <g transform="translate(44.2375 163.543219)scale(0.1 -0.1)">
       <use xlink:href="#DejaVuSans-35"/>
      </g>
     </g>
    </g>
    <g id="ytick_7">
     <g id="line2d_13">
      <g>
       <use style="stroke:#000000;stroke-width:0.8;" x="57.6" xlink:href="#mb751240304" y="130.176"/>
      </g>
     </g>
     <g id="text_14">
      <!-- 6 -->
      <defs>
       <path d="M 33.015625 40.375 
Q 26.375 40.375 22.484375 35.828125 
Q 18.609375 31.296875 18.609375 23.390625 
Q 18.609375 15.53125 22.484375 10.953125 
Q 26.375 6.390625 33.015625 6.390625 
Q 39.65625 6.390625 43.53125 10.953125 
Q 47.40625 15.53125 47.40625 23.390625 
Q 47.40625 31.296875 43.53125 35.828125 
Q 39.65625 40.375 33.015625 40.375 
z
M 52.59375 71.296875 
L 52.59375 62.3125 
Q 48.875 64.0625 45.09375 64.984375 
Q 41.3125 65.921875 37.59375 65.921875 
Q 27.828125 65.921875 22.671875 59.328125 
Q 17.53125 52.734375 16.796875 39.40625 
Q 19.671875 43.65625 24.015625 45.921875 
Q 28.375 48.1875 33.59375 48.1875 
Q 44.578125 48.1875 50.953125 41.515625 
Q 57.328125 34.859375 57.328125 23.390625 
Q 57.328125 12.15625 50.6875 5.359375 
Q 44.046875 -1.421875 33.015625 -1.421875 
Q 20.359375 -1.421875 13.671875 8.265625 
Q 6.984375 17.96875 6.984375 36.375 
Q 6.984375 53.65625 15.1875 63.9375 
Q 23.390625 74.21875 37.203125 74.21875 
Q 40.921875 74.21875 44.703125 73.484375 
Q 48.484375 72.75 52.59375 71.296875 
z
" id="DejaVuSans-36"/>
      </defs>
      <g transform="translate(44.2375 133.975219)scale(0.1 -0.1)">
       <use xlink:href="#DejaVuSans-36"/>
      </g>
     </g>
    </g>
    <g id="ytick_8">
     <g id="line2d_14">
      <g>
       <use style="stroke:#000000;stroke-width:0.8;" x="57.6" xlink:href="#mb751240304" y="100.608"/>
      </g>
     </g>
     <g id="text_15">
      <!-- 7 -->
      <defs>
       <path d="M 8.203125 72.90625 
L 55.078125 72.90625 
L 55.078125 68.703125 
L 28.609375 0 
L 18.3125 0 
L 43.21875 64.59375 
L 8.203125 64.59375 
z
" id="DejaVuSans-37"/>
      </defs>
      <g transform="translate(44.2375 104.407219)scale(0.1 -0.1)">
       <use xlink:href="#DejaVuSans-37"/>
      </g>
     </g>
    </g>
    <g id="ytick_9">
     <g id="line2d_15">
      <g>
       <use style="stroke:#000000;stroke-width:0.8;" x="57.6" xlink:href="#mb751240304" y="71.04"/>
      </g>
     </g>
     <g id="text_16">
      <!-- 8 -->
      <defs>
       <path d="M 31.78125 34.625 
Q 24.75 34.625 20.71875 30.859375 
Q 16.703125 27.09375 16.703125 20.515625 
Q 16.703125 13.921875 20.71875 10.15625 
Q 24.75 6.390625 31.78125 6.390625 
Q 38.8125 6.390625 42.859375 10.171875 
Q 46.921875 13.96875 46.921875 20.515625 
Q 46.921875 27.09375 42.890625 30.859375 
Q 38.875 34.625 31.78125 34.625 
z
M 21.921875 38.8125 
Q 15.578125 40.375 12.03125 44.71875 
Q 8.5 49.078125 8.5 55.328125 
Q 8.5 64.0625 14.71875 69.140625 
Q 20.953125 74.21875 31.78125 74.21875 
Q 42.671875 74.21875 48.875 69.140625 
Q 55.078125 64.0625 55.078125 55.328125 
Q 55.078125 49.078125 51.53125 44.71875 
Q 48 40.375 41.703125 38.8125 
Q 48.828125 37.15625 52.796875 32.3125 
Q 56.78125 27.484375 56.78125 20.515625 
Q 56.78125 9.90625 50.3125 4.234375 
Q 43.84375 -1.421875 31.78125 -1.421875 
Q 19.734375 -1.421875 13.25 4.234375 
Q 6.78125 9.90625 6.78125 20.515625 
Q 6.78125 27.484375 10.78125 32.3125 
Q 14.796875 37.15625 21.921875 38.8125 
z
M 18.3125 54.390625 
Q 18.3125 48.734375 21.84375 45.5625 
Q 25.390625 42.390625 31.78125 42.390625 
Q 38.140625 42.390625 41.71875 45.5625 
Q 45.3125 48.734375 45.3125 54.390625 
Q 45.3125 60.0625 41.71875 63.234375 
Q 38.140625 66.40625 31.78125 66.40625 
Q 25.390625 66.40625 21.84375 63.234375 
Q 18.3125 60.0625 18.3125 54.390625 
z
" id="DejaVuSans-38"/>
      </defs>
      <g transform="translate(44.2375 74.839219)scale(0.1 -0.1)">
       <use xlink:href="#DejaVuSans-38"/>
      </g>
     </g>
    </g>
    <g id="ytick_10">
     <g id="line2d_16">
      <g>
       <use style="stroke:#000000;stroke-width:0.8;" x="57.6" xlink:href="#mb751240304" y="41.472"/>
      </g>
     </g>
     <g id="text_17">
      <!-- 9 -->
      <defs>
       <path d="M 10.984375 1.515625 
L 10.984375 10.5 
Q 14.703125 8.734375 18.5 7.8125 
Q 22.3125 6.890625 25.984375 6.890625 
Q 35.75 6.890625 40.890625 13.453125 
Q 46.046875 20.015625 46.78125 33.40625 
Q 43.953125 29.203125 39.59375 26.953125 
Q 35.25 24.703125 29.984375 24.703125 
Q 19.046875 24.703125 12.671875 31.3125 
Q 6.296875 37.9375 6.296875 49.421875 
Q 6.296875 60.640625 12.9375 67.421875 
Q 19.578125 74.21875 30.609375 74.21875 
Q 43.265625 74.21875 49.921875 64.515625 
Q 56.59375 54.828125 56.59375 36.375 
Q 56.59375 19.140625 48.40625 8.859375 
Q 40.234375 -1.421875 26.421875 -1.421875 
Q 22.703125 -1.421875 18.890625 -0.6875 
Q 15.09375 0.046875 10.984375 1.515625 
z
M 30.609375 32.421875 
Q 37.25 32.421875 41.125 36.953125 
Q 45.015625 41.5 45.015625 49.421875 
Q 45.015625 57.28125 41.125 61.84375 
Q 37.25 66.40625 30.609375 66.40625 
Q 23.96875 66.40625 20.09375 61.84375 
Q 16.21875 57.28125 16.21875 49.421875 
Q 16.21875 41.5 20.09375 36.953125 
Q 23.96875 32.421875 30.609375 32.421875 
z
" id="DejaVuSans-39"/>
      </defs>
      <g transform="translate(44.2375 45.271219)scale(0.1 -0.1)">
       <use xlink:href="#DejaVuSans-39"/>
      </g>
     </g>
    </g>
    <g id="text_18">
     <!-- Mutual Information, Scale(q)=2 -->
     <defs>
      <path d="M 9.8125 72.90625 
L 24.515625 72.90625 
L 43.109375 23.296875 
L 61.8125 72.90625 
L 76.515625 72.90625 
L 76.515625 0 
L 66.890625 0 
L 66.890625 64.015625 
L 48.09375 14.015625 
L 38.1875 14.015625 
L 19.390625 64.015625 
L 19.390625 0 
L 9.8125 0 
z
" id="DejaVuSans-4d"/>
      <path d="M 8.5 21.578125 
L 8.5 54.6875 
L 17.484375 54.6875 
L 17.484375 21.921875 
Q 17.484375 14.15625 20.5 10.265625 
Q 23.53125 6.390625 29.59375 6.390625 
Q 36.859375 6.390625 41.078125 11.03125 
Q 45.3125 15.671875 45.3125 23.6875 
L 45.3125 54.6875 
L 54.296875 54.6875 
L 54.296875 0 
L 45.3125 0 
L 45.3125 8.40625 
Q 42.046875 3.421875 37.71875 1 
Q 33.40625 -1.421875 27.6875 -1.421875 
Q 18.265625 -1.421875 13.375 4.4375 
Q 8.5 10.296875 8.5 21.578125 
z
M 31.109375 56 
z
" id="DejaVuSans-75"/>
      <path d="M 34.28125 27.484375 
Q 23.390625 27.484375 19.1875 25 
Q 14.984375 22.515625 14.984375 16.5 
Q 14.984375 11.71875 18.140625 8.90625 
Q 21.296875 6.109375 26.703125 6.109375 
Q 34.1875 6.109375 38.703125 11.40625 
Q 43.21875 16.703125 43.21875 25.484375 
L 43.21875 27.484375 
z
M 52.203125 31.203125 
L 52.203125 0 
L 43.21875 0 
L 43.21875 8.296875 
Q 40.140625 3.328125 35.546875 0.953125 
Q 30.953125 -1.421875 24.3125 -1.421875 
Q 15.921875 -1.421875 10.953125 3.296875 
Q 6 8.015625 6 15.921875 
Q 6 25.140625 12.171875 29.828125 
Q 18.359375 34.515625 30.609375 34.515625 
L 43.21875 34.515625 
L 43.21875 35.40625 
Q 43.21875 41.609375 39.140625 45 
Q 35.0625 48.390625 27.6875 48.390625 
Q 23 48.390625 18.546875 47.265625 
Q 14.109375 46.140625 10.015625 43.890625 
L 10.015625 52.203125 
Q 14.9375 54.109375 19.578125 55.046875 
Q 24.21875 56 28.609375 56 
Q 40.484375 56 46.34375 49.84375 
Q 52.203125 43.703125 52.203125 31.203125 
z
" id="DejaVuSans-61"/>
      <path d="M 9.421875 75.984375 
L 18.40625 75.984375 
L 18.40625 0 
L 9.421875 0 
z
" id="DejaVuSans-6c"/>
      <path id="DejaVuSans-20"/>
      <path d="M 54.890625 33.015625 
L 54.890625 0 
L 45.90625 0 
L 45.90625 32.71875 
Q 45.90625 40.484375 42.875 44.328125 
Q 39.84375 48.1875 33.796875 48.1875 
Q 26.515625 48.1875 22.3125 43.546875 
Q 18.109375 38.921875 18.109375 30.90625 
L 18.109375 0 
L 9.078125 0 
L 9.078125 54.6875 
L 18.109375 54.6875 
L 18.109375 46.1875 
Q 21.34375 51.125 25.703125 53.5625 
Q 30.078125 56 35.796875 56 
Q 45.21875 56 50.046875 50.171875 
Q 54.890625 44.34375 54.890625 33.015625 
z
" id="DejaVuSans-6e"/>
      <path d="M 37.109375 75.984375 
L 37.109375 68.5 
L 28.515625 68.5 
Q 23.6875 68.5 21.796875 66.546875 
Q 19.921875 64.59375 19.921875 59.515625 
L 19.921875 54.6875 
L 34.71875 54.6875 
L 34.71875 47.703125 
L 19.921875 47.703125 
L 19.921875 0 
L 10.890625 0 
L 10.890625 47.703125 
L 2.296875 47.703125 
L 2.296875 54.6875 
L 10.890625 54.6875 
L 10.890625 58.5 
Q 10.890625 67.625 15.140625 71.796875 
Q 19.390625 75.984375 28.609375 75.984375 
z
" id="DejaVuSans-66"/>
      <path d="M 30.609375 48.390625 
Q 23.390625 48.390625 19.1875 42.75 
Q 14.984375 37.109375 14.984375 27.296875 
Q 14.984375 17.484375 19.15625 11.84375 
Q 23.34375 6.203125 30.609375 6.203125 
Q 37.796875 6.203125 41.984375 11.859375 
Q 46.1875 17.53125 46.1875 27.296875 
Q 46.1875 37.015625 41.984375 42.703125 
Q 37.796875 48.390625 30.609375 48.390625 
z
M 30.609375 56 
Q 42.328125 56 49.015625 48.375 
Q 55.71875 40.765625 55.71875 27.296875 
Q 55.71875 13.875 49.015625 6.21875 
Q 42.328125 -1.421875 30.609375 -1.421875 
Q 18.84375 -1.421875 12.171875 6.21875 
Q 5.515625 13.875 5.515625 27.296875 
Q 5.515625 40.765625 12.171875 48.375 
Q 18.84375 56 30.609375 56 
z
" id="DejaVuSans-6f"/>
      <path d="M 52 44.1875 
Q 55.375 50.25 60.0625 53.125 
Q 64.75 56 71.09375 56 
Q 79.640625 56 84.28125 50.015625 
Q 88.921875 44.046875 88.921875 33.015625 
L 88.921875 0 
L 79.890625 0 
L 79.890625 32.71875 
Q 79.890625 40.578125 77.09375 44.375 
Q 74.3125 48.1875 68.609375 48.1875 
Q 61.625 48.1875 57.5625 43.546875 
Q 53.515625 38.921875 53.515625 30.90625 
L 53.515625 0 
L 44.484375 0 
L 44.484375 32.71875 
Q 44.484375 40.625 41.703125 44.40625 
Q 38.921875 48.1875 33.109375 48.1875 
Q 26.21875 48.1875 22.15625 43.53125 
Q 18.109375 38.875 18.109375 30.90625 
L 18.109375 0 
L 9.078125 0 
L 9.078125 54.6875 
L 18.109375 54.6875 
L 18.109375 46.1875 
Q 21.1875 51.21875 25.484375 53.609375 
Q 29.78125 56 35.6875 56 
Q 41.65625 56 45.828125 52.96875 
Q 50 49.953125 52 44.1875 
z
" id="DejaVuSans-6d"/>
      <path d="M 9.421875 54.6875 
L 18.40625 54.6875 
L 18.40625 0 
L 9.421875 0 
z
M 9.421875 75.984375 
L 18.40625 75.984375 
L 18.40625 64.59375 
L 9.421875 64.59375 
z
" id="DejaVuSans-69"/>
      <path d="M 11.71875 12.40625 
L 22.015625 12.40625 
L 22.015625 4 
L 14.015625 -11.625 
L 7.71875 -11.625 
L 11.71875 4 
z
" id="DejaVuSans-2c"/>
      <path d="M 53.515625 70.515625 
L 53.515625 60.890625 
Q 47.90625 63.578125 42.921875 64.890625 
Q 37.9375 66.21875 33.296875 66.21875 
Q 25.25 66.21875 20.875 63.09375 
Q 16.5 59.96875 16.5 54.203125 
Q 16.5 49.359375 19.40625 46.890625 
Q 22.3125 44.4375 30.421875 42.921875 
L 36.375 41.703125 
Q 47.40625 39.59375 52.65625 34.296875 
Q 57.90625 29 57.90625 20.125 
Q 57.90625 9.515625 50.796875 4.046875 
Q 43.703125 -1.421875 29.984375 -1.421875 
Q 24.8125 -1.421875 18.96875 -0.25 
Q 13.140625 0.921875 6.890625 3.21875 
L 6.890625 13.375 
Q 12.890625 10.015625 18.65625 8.296875 
Q 24.421875 6.59375 29.984375 6.59375 
Q 38.421875 6.59375 43.015625 9.90625 
Q 47.609375 13.234375 47.609375 19.390625 
Q 47.609375 24.75 44.3125 27.78125 
Q 41.015625 30.8125 33.5 32.328125 
L 27.484375 33.5 
Q 16.453125 35.6875 11.515625 40.375 
Q 6.59375 45.0625 6.59375 53.421875 
Q 6.59375 63.09375 13.40625 68.65625 
Q 20.21875 74.21875 32.171875 74.21875 
Q 37.3125 74.21875 42.625 73.28125 
Q 47.953125 72.359375 53.515625 70.515625 
z
" id="DejaVuSans-53"/>
      <path d="M 48.78125 52.59375 
L 48.78125 44.1875 
Q 44.96875 46.296875 41.140625 47.34375 
Q 37.3125 48.390625 33.40625 48.390625 
Q 24.65625 48.390625 19.8125 42.84375 
Q 14.984375 37.3125 14.984375 27.296875 
Q 14.984375 17.28125 19.8125 11.734375 
Q 24.65625 6.203125 33.40625 6.203125 
Q 37.3125 6.203125 41.140625 7.25 
Q 44.96875 8.296875 48.78125 10.40625 
L 48.78125 2.09375 
Q 45.015625 0.34375 40.984375 -0.53125 
Q 36.96875 -1.421875 32.421875 -1.421875 
Q 20.0625 -1.421875 12.78125 6.34375 
Q 5.515625 14.109375 5.515625 27.296875 
Q 5.515625 40.671875 12.859375 48.328125 
Q 20.21875 56 33.015625 56 
Q 37.15625 56 41.109375 55.140625 
Q 45.0625 54.296875 48.78125 52.59375 
z
" id="DejaVuSans-63"/>
      <path d="M 31 75.875 
Q 24.46875 64.65625 21.28125 53.65625 
Q 18.109375 42.671875 18.109375 31.390625 
Q 18.109375 20.125 21.3125 9.0625 
Q 24.515625 -2 31 -13.1875 
L 23.1875 -13.1875 
Q 15.875 -1.703125 12.234375 9.375 
Q 8.59375 20.453125 8.59375 31.390625 
Q 8.59375 42.28125 12.203125 53.3125 
Q 15.828125 64.359375 23.1875 75.875 
z
" id="DejaVuSans-28"/>
      <path d="M 14.796875 27.296875 
Q 14.796875 17.390625 18.875 11.75 
Q 22.953125 6.109375 30.078125 6.109375 
Q 37.203125 6.109375 41.296875 11.75 
Q 45.40625 17.390625 45.40625 27.296875 
Q 45.40625 37.203125 41.296875 42.84375 
Q 37.203125 48.484375 30.078125 48.484375 
Q 22.953125 48.484375 18.875 42.84375 
Q 14.796875 37.203125 14.796875 27.296875 
z
M 45.40625 8.203125 
Q 42.578125 3.328125 38.25 0.953125 
Q 33.9375 -1.421875 27.875 -1.421875 
Q 17.96875 -1.421875 11.734375 6.484375 
Q 5.515625 14.40625 5.515625 27.296875 
Q 5.515625 40.1875 11.734375 48.09375 
Q 17.96875 56 27.875 56 
Q 33.9375 56 38.25 53.625 
Q 42.578125 51.265625 45.40625 46.390625 
L 45.40625 54.6875 
L 54.390625 54.6875 
L 54.390625 -20.796875 
L 45.40625 -20.796875 
z
" id="DejaVuSans-71"/>
      <path d="M 8.015625 75.875 
L 15.828125 75.875 
Q 23.140625 64.359375 26.78125 53.3125 
Q 30.421875 42.28125 30.421875 31.390625 
Q 30.421875 20.453125 26.78125 9.375 
Q 23.140625 -1.703125 15.828125 -13.1875 
L 8.015625 -13.1875 
Q 14.5 -2 17.703125 9.0625 
Q 20.90625 20.125 20.90625 31.390625 
Q 20.90625 42.671875 17.703125 53.65625 
Q 14.5 64.65625 8.015625 75.875 
z
" id="DejaVuSans-29"/>
      <path d="M 10.59375 45.40625 
L 73.1875 45.40625 
L 73.1875 37.203125 
L 10.59375 37.203125 
z
M 10.59375 25.484375 
L 73.1875 25.484375 
L 73.1875 17.1875 
L 10.59375 17.1875 
z
" id="DejaVuSans-3d"/>
     </defs>
     <g transform="translate(37.533906 276.918234)rotate(-90)scale(0.13 -0.13)">
      <use xlink:href="#DejaVuSans-4d"/>
      <use x="86.279297" xlink:href="#DejaVuSans-75"/>
      <use x="149.658203" xlink:href="#DejaVuSans-74"/>
      <use x="188.867188" xlink:href="#DejaVuSans-75"/>
      <use x="252.246094" xlink:href="#DejaVuSans-61"/>
      <use x="313.525391" xlink:href="#DejaVuSans-6c"/>
      <use x="341.308594" xlink:href="#DejaVuSans-20"/>
      <use x="373.095703" xlink:href="#DejaVuSans-49"/>
      <use x="402.587891" xlink:href="#DejaVuSans-6e"/>
      <use x="465.966797" xlink:href="#DejaVuSans-66"/>
      <use x="501.171875" xlink:href="#DejaVuSans-6f"/>
      <use x="562.353516" xlink:href="#DejaVuSans-72"/>
      <use x="603.451172" xlink:href="#DejaVuSans-6d"/>
      <use x="700.863281" xlink:href="#DejaVuSans-61"/>
      <use x="762.142578" xlink:href="#DejaVuSans-74"/>
      <use x="801.351562" xlink:href="#DejaVuSans-69"/>
      <use x="829.134766" xlink:href="#DejaVuSans-6f"/>
      <use x="890.316406" xlink:href="#DejaVuSans-6e"/>
      <use x="953.695312" xlink:href="#DejaVuSans-2c"/>
      <use x="985.482422" xlink:href="#DejaVuSans-20"/>
      <use x="1017.269531" xlink:href="#DejaVuSans-53"/>
      <use x="1080.746094" xlink:href="#DejaVuSans-63"/>
      <use x="1135.726562" xlink:href="#DejaVuSans-61"/>
      <use x="1197.005859" xlink:href="#DejaVuSans-6c"/>
      <use x="1224.789062" xlink:href="#DejaVuSans-65"/>
      <use x="1286.3125" xlink:href="#DejaVuSans-28"/>
      <use x="1325.326172" xlink:href="#DejaVuSans-71"/>
      <use x="1388.802734" xlink:href="#DejaVuSans-29"/>
      <use x="1427.816406" xlink:href="#DejaVuSans-3d"/>
      <use x="1511.605469" xlink:href="#DejaVuSans-32"/>
     </g>
    </g>
   </g>
   <g id="line2d_17">
    <path clip-path="url(#pd8a25999fd)" d="M 73.832727 144.18851 
L 77.079273 143.802834 
L 80.325818 146.79476 
L 83.572364 144.163291 
L 86.818909 146.26961 
L 90.065455 145.366728 
L 93.312 143.295149 
L 96.558545 143.603857 
L 99.805091 144.740276 
L 103.051636 145.846382 
L 106.298182 144.62814 
L 109.544727 143.270443 
L 112.791273 144.636876 
L 116.037818 143.863942 
L 119.284364 144.176913 
L 122.530909 143.966551 
L 125.777455 144.470894 
L 129.024 143.604548 
L 132.270545 145.121003 
L 135.517091 144.387373 
L 138.763636 144.939634 
L 142.010182 146.057369 
L 145.256727 142.955089 
L 148.503273 142.146488 
L 151.749818 143.1829 
L 154.996364 143.876021 
L 158.242909 144.504181 
L 161.489455 145.084962 
L 164.736 144.581392 
L 167.982545 145.660967 
L 171.229091 146.708516 
L 174.475636 143.481705 
L 177.722182 144.931831 
L 180.968727 144.863723 
L 184.215273 143.615169 
L 187.461818 142.527071 
L 190.708364 145.255825 
L 193.954909 143.354297 
L 197.201455 143.455733 
L 200.448 143.08127 
L 203.694545 143.68274 
L 206.941091 143.957202 
L 210.187636 144.865264 
L 213.434182 143.082788 
L 216.680727 145.299802 
L 219.927273 145.537687 
L 223.173818 145.228698 
L 226.420364 143.245717 
L 229.666909 144.163483 
L 232.913455 142.493288 
L 236.16 144.319741 
L 239.406545 145.133669 
L 242.653091 142.258511 
L 245.899636 143.701856 
L 249.146182 144.277844 
L 252.392727 144.500797 
L 255.639273 144.903658 
L 258.885818 145.534936 
L 262.132364 142.889554 
L 265.378909 142.353352 
L 268.625455 145.220375 
L 271.872 143.01001 
L 275.118545 141.966836 
L 278.365091 143.792857 
L 281.611636 145.921844 
L 284.858182 142.758924 
L 288.104727 143.242845 
L 291.351273 147.266641 
L 294.597818 143.714468 
L 297.844364 145.5221 
L 301.090909 143.802906 
L 304.337455 143.27205 
L 307.584 144.756006 
L 310.830545 145.171061 
L 314.077091 145.024492 
L 317.323636 143.396246 
L 320.570182 145.131316 
L 323.816727 142.594958 
L 327.063273 142.941293 
L 330.309818 144.97029 
L 333.556364 144.682379 
L 336.802909 143.049237 
L 340.049455 145.789859 
L 343.296 145.422053 
L 346.542545 143.97916 
L 349.789091 146.106805 
L 353.035636 143.697606 
L 356.282182 144.022601 
L 359.528727 143.105334 
L 362.775273 145.228601 
L 366.021818 146.308478 
L 369.268364 145.121441 
L 372.514909 144.542257 
L 375.761455 144.776023 
L 379.008 144.248152 
L 382.254545 144.769088 
L 385.501091 144.723349 
L 388.747636 146.280858 
L 391.994182 144.122269 
L 395.240727 142.217927 
L 398.487273 144.454852 
" style="fill:none;stroke:#228b22;stroke-linecap:square;stroke-width:1.5;"/>
   </g>
   <g id="line2d_18">
    <path clip-path="url(#pd8a25999fd)" d="M 73.832727 142.414845 
L 77.079273 141.424892 
L 80.325818 141.303384 
L 83.572364 141.061413 
L 86.818909 141.265542 
L 90.065455 141.027158 
L 93.312 141.058906 
L 96.558545 141.328389 
L 99.805091 141.361761 
L 103.051636 141.061137 
L 106.298182 141.119079 
L 109.544727 141.148243 
L 112.791273 141.145966 
L 116.037818 141.192228 
L 119.284364 141.149306 
L 122.530909 141.115251 
L 125.777455 141.061347 
L 129.024 141.235593 
L 132.270545 141.147408 
L 135.517091 141.138441 
L 138.763636 141.259683 
L 142.010182 141.24112 
L 145.256727 141.2554 
L 148.503273 141.049193 
L 151.749818 141.253584 
L 154.996364 141.115616 
L 158.242909 141.144928 
L 161.489455 141.05766 
L 164.736 141.201118 
L 167.982545 141.282274 
L 171.229091 141.066684 
L 174.475636 141.248842 
L 177.722182 141.27341 
L 180.968727 141.200033 
L 184.215273 140.984644 
L 187.461818 141.177656 
L 190.708364 141.08197 
L 193.954909 141.084954 
L 197.201455 141.048175 
L 200.448 141.114622 
L 203.694545 141.079913 
L 206.941091 141.036116 
L 210.187636 141.046213 
L 213.434182 141.211508 
L 216.680727 141.235704 
L 219.927273 141.312704 
L 223.173818 141.236103 
L 226.420364 141.226857 
L 229.666909 140.940046 
L 232.913455 141.066067 
L 236.16 141.221515 
L 239.406545 141.11683 
L 242.653091 141.109307 
L 245.899636 141.288085 
L 249.146182 141.103306 
L 252.392727 141.107639 
L 255.639273 141.176476 
L 258.885818 141.277011 
L 262.132364 141.134535 
L 265.378909 140.918246 
L 268.625455 141.18819 
L 271.872 141.047403 
L 275.118545 141.209181 
L 278.365091 141.182309 
L 281.611636 141.176588 
L 284.858182 140.987147 
L 288.104727 141.111507 
L 291.351273 140.994954 
L 294.597818 141.019887 
L 297.844364 140.877386 
L 301.090909 141.098256 
L 304.337455 141.086275 
L 307.584 141.038215 
L 310.830545 140.979268 
L 314.077091 140.966803 
L 317.323636 141.2197 
L 320.570182 141.136412 
L 323.816727 141.214616 
L 327.063273 140.970882 
L 330.309818 141.107231 
L 333.556364 141.136341 
L 336.802909 141.043375 
L 340.049455 141.191271 
L 343.296 141.092356 
L 346.542545 141.116899 
L 349.789091 140.862661 
L 353.035636 141.163565 
L 356.282182 140.947903 
L 359.528727 141.150192 
L 362.775273 141.050275 
L 366.021818 140.972963 
L 369.268364 141.152708 
L 372.514909 140.8921 
L 375.761455 141.143871 
L 379.008 141.080537 
L 382.254545 141.058648 
L 385.501091 141.068425 
L 388.747636 140.959843 
L 391.994182 140.879347 
L 395.240727 140.924186 
L 398.487273 141.008966 
" style="fill:none;stroke:#dc143c;stroke-dasharray:9.6,2.4,1.5,2.4;stroke-dashoffset:0;stroke-width:1.5;"/>
   </g>
   <g id="line2d_19">
    <path clip-path="url(#pd8a25999fd)" d="M 73.832727 180.237912 
L 77.079273 132.62284 
L 80.325818 133.947574 
L 83.572364 132.564073 
L 86.818909 132.905066 
L 90.065455 135.400306 
L 93.312 134.502561 
L 96.558545 135.277836 
L 99.805091 134.985926 
L 103.051636 135.47006 
L 106.298182 135.980163 
L 109.544727 135.339714 
L 112.791273 135.498835 
L 116.037818 136.868772 
L 119.284364 134.704241 
L 122.530909 136.132724 
L 125.777455 135.675479 
L 129.024 137.60221 
L 132.270545 138.027424 
L 135.517091 137.357887 
L 138.763636 137.262913 
L 142.010182 137.369648 
L 145.256727 136.432095 
L 148.503273 135.815516 
L 151.749818 136.277702 
L 154.996364 136.243173 
L 158.242909 137.702709 
L 161.489455 138.171105 
L 164.736 137.963709 
L 167.982545 137.734336 
L 171.229091 137.90557 
L 174.475636 137.528695 
L 177.722182 137.50786 
L 180.968727 136.408501 
L 184.215273 137.448251 
L 187.461818 137.722986 
L 190.708364 136.718695 
L 193.954909 137.641372 
L 197.201455 138.20213 
L 200.448 136.849185 
L 203.694545 136.652402 
L 206.941091 137.34229 
L 210.187636 138.025603 
L 213.434182 136.926445 
L 216.680727 137.859468 
L 219.927273 139.346237 
L 223.173818 139.830789 
L 226.420364 137.395859 
L 229.666909 138.042132 
L 232.913455 138.379176 
L 236.16 138.349883 
L 239.406545 138.950859 
L 242.653091 137.520389 
L 245.899636 137.668496 
L 249.146182 137.438442 
L 252.392727 138.971094 
L 255.639273 137.884222 
L 258.885818 137.528508 
L 262.132364 138.577725 
L 265.378909 136.066341 
L 268.625455 139.572673 
L 271.872 138.21593 
L 275.118545 137.911744 
L 278.365091 138.700971 
L 281.611636 137.900093 
L 284.858182 139.312411 
L 288.104727 138.788544 
L 291.351273 139.97394 
L 294.597818 138.005859 
L 297.844364 138.062294 
L 301.090909 137.597432 
L 304.337455 138.617811 
L 307.584 138.621083 
L 310.830545 139.027899 
L 314.077091 139.449563 
L 317.323636 135.28362 
L 320.570182 138.870755 
L 323.816727 135.64775 
L 327.063273 137.341768 
L 330.309818 137.508405 
L 333.556364 137.445007 
L 336.802909 138.418417 
L 340.049455 137.562571 
L 343.296 137.688474 
L 346.542545 138.134786 
L 349.789091 139.466261 
L 353.035636 137.575267 
L 356.282182 139.07486 
L 359.528727 139.213187 
L 362.775273 138.519679 
L 366.021818 138.904705 
L 369.268364 139.535467 
L 372.514909 139.54658 
L 375.761455 139.176854 
L 379.008 138.486159 
L 382.254545 138.375401 
L 385.501091 139.484601 
L 388.747636 138.480056 
L 391.994182 138.073479 
L 395.240727 136.392686 
L 398.487273 138.940721 
" style="fill:none;stroke:#1e90ff;stroke-dasharray:5.55,2.4;stroke-dashoffset:0;stroke-width:1.5;"/>
   </g>
   <g id="patch_3">
    <path d="M 57.6 307.584 
L 57.6 41.472 
" style="fill:none;stroke:#000000;stroke-linecap:square;stroke-linejoin:miter;stroke-width:0.8;"/>
   </g>
   <g id="patch_4">
    <path d="M 414.72 307.584 
L 414.72 41.472 
" style="fill:none;stroke:#000000;stroke-linecap:square;stroke-linejoin:miter;stroke-width:0.8;"/>
   </g>
   <g id="patch_5">
    <path d="M 57.6 307.584 
L 414.72 307.584 
" style="fill:none;stroke:#000000;stroke-linecap:square;stroke-linejoin:miter;stroke-width:0.8;"/>
   </g>
   <g id="patch_6">
    <path d="M 57.6 41.472 
L 414.72 41.472 
" style="fill:none;stroke:#000000;stroke-linecap:square;stroke-linejoin:miter;stroke-width:0.8;"/>
   </g>
   <g id="text_19">
    <!-- Verification for Theorem 2 when Scale(q)=2 -->
    <defs>
     <path d="M 28.609375 0 
L 0.78125 72.90625 
L 11.078125 72.90625 
L 34.1875 11.53125 
L 57.328125 72.90625 
L 67.578125 72.90625 
L 39.796875 0 
z
" id="DejaVuSans-56"/>
     <path d="M -0.296875 72.90625 
L 61.375 72.90625 
L 61.375 64.59375 
L 35.5 64.59375 
L 35.5 0 
L 25.59375 0 
L 25.59375 64.59375 
L -0.296875 64.59375 
z
" id="DejaVuSans-54"/>
     <path d="M 54.890625 33.015625 
L 54.890625 0 
L 45.90625 0 
L 45.90625 32.71875 
Q 45.90625 40.484375 42.875 44.328125 
Q 39.84375 48.1875 33.796875 48.1875 
Q 26.515625 48.1875 22.3125 43.546875 
Q 18.109375 38.921875 18.109375 30.90625 
L 18.109375 0 
L 9.078125 0 
L 9.078125 75.984375 
L 18.109375 75.984375 
L 18.109375 46.1875 
Q 21.34375 51.125 25.703125 53.5625 
Q 30.078125 56 35.796875 56 
Q 45.21875 56 50.046875 50.171875 
Q 54.890625 44.34375 54.890625 33.015625 
z
" id="DejaVuSans-68"/>
     <path d="M 4.203125 54.6875 
L 13.1875 54.6875 
L 24.421875 12.015625 
L 35.59375 54.6875 
L 46.1875 54.6875 
L 57.421875 12.015625 
L 68.609375 54.6875 
L 77.59375 54.6875 
L 63.28125 0 
L 52.6875 0 
L 40.921875 44.828125 
L 29.109375 0 
L 18.5 0 
z
" id="DejaVuSans-77"/>
    </defs>
    <g transform="translate(81.824219 35.472)scale(0.14 -0.14)">
     <use xlink:href="#DejaVuSans-56"/>
     <use x="68.298828" xlink:href="#DejaVuSans-65"/>
     <use x="129.822266" xlink:href="#DejaVuSans-72"/>
     <use x="170.935547" xlink:href="#DejaVuSans-69"/>
     <use x="198.71875" xlink:href="#DejaVuSans-66"/>
     <use x="233.923828" xlink:href="#DejaVuSans-69"/>
     <use x="261.707031" xlink:href="#DejaVuSans-63"/>
     <use x="316.6875" xlink:href="#DejaVuSans-61"/>
     <use x="377.966797" xlink:href="#DejaVuSans-74"/>
     <use x="417.175781" xlink:href="#DejaVuSans-69"/>
     <use x="444.958984" xlink:href="#DejaVuSans-6f"/>
     <use x="506.140625" xlink:href="#DejaVuSans-6e"/>
     <use x="569.519531" xlink:href="#DejaVuSans-20"/>
     <use x="601.306641" xlink:href="#DejaVuSans-66"/>
     <use x="636.511719" xlink:href="#DejaVuSans-6f"/>
     <use x="697.693359" xlink:href="#DejaVuSans-72"/>
     <use x="738.806641" xlink:href="#DejaVuSans-20"/>
     <use x="770.59375" xlink:href="#DejaVuSans-54"/>
     <use x="831.677734" xlink:href="#DejaVuSans-68"/>
     <use x="895.056641" xlink:href="#DejaVuSans-65"/>
     <use x="956.580078" xlink:href="#DejaVuSans-6f"/>
     <use x="1017.761719" xlink:href="#DejaVuSans-72"/>
     <use x="1058.84375" xlink:href="#DejaVuSans-65"/>
     <use x="1120.367188" xlink:href="#DejaVuSans-6d"/>
     <use x="1217.779297" xlink:href="#DejaVuSans-20"/>
     <use x="1249.566406" xlink:href="#DejaVuSans-32"/>
     <use x="1313.189453" xlink:href="#DejaVuSans-20"/>
     <use x="1344.976562" xlink:href="#DejaVuSans-77"/>
     <use x="1426.763672" xlink:href="#DejaVuSans-68"/>
     <use x="1490.142578" xlink:href="#DejaVuSans-65"/>
     <use x="1551.666016" xlink:href="#DejaVuSans-6e"/>
     <use x="1615.044922" xlink:href="#DejaVuSans-20"/>
     <use x="1646.832031" xlink:href="#DejaVuSans-53"/>
     <use x="1710.308594" xlink:href="#DejaVuSans-63"/>
     <use x="1765.289062" xlink:href="#DejaVuSans-61"/>
     <use x="1826.568359" xlink:href="#DejaVuSans-6c"/>
     <use x="1854.351562" xlink:href="#DejaVuSans-65"/>
     <use x="1915.875" xlink:href="#DejaVuSans-28"/>
     <use x="1954.888672" xlink:href="#DejaVuSans-71"/>
     <use x="2018.365234" xlink:href="#DejaVuSans-29"/>
     <use x="2057.378906" xlink:href="#DejaVuSans-3d"/>
     <use x="2141.167969" xlink:href="#DejaVuSans-32"/>
    </g>
   </g>
   <g id="legend_1">
    <g id="patch_7">
     <path d="M 314.62 94.750125 
L 407.72 94.750125 
Q 409.72 94.750125 409.72 92.750125 
L 409.72 48.472 
Q 409.72 46.472 407.72 46.472 
L 314.62 46.472 
Q 312.62 46.472 312.62 48.472 
L 312.62 92.750125 
Q 312.62 94.750125 314.62 94.750125 
z
" style="fill:#ffffff;opacity:0.8;stroke:#cccccc;stroke-linejoin:miter;"/>
    </g>
    <g id="line2d_20">
     <path d="M 316.62 54.570437 
L 336.62 54.570437 
" style="fill:none;stroke:#228b22;stroke-linecap:square;stroke-width:1.5;"/>
    </g>
    <g id="line2d_21"/>
    <g id="text_20">
     <!-- $I(x_t,x_{t+1})$ -->
     <defs>
      <path d="M 16.890625 72.90625 
L 26.8125 72.90625 
L 12.59375 0 
L 2.6875 0 
z
" id="DejaVuSans-Oblique-49"/>
      <path d="M 60.015625 54.6875 
L 34.90625 27.875 
L 50.296875 0 
L 39.984375 0 
L 28.421875 21.6875 
L 8.296875 0 
L -2.59375 0 
L 24.3125 28.8125 
L 10.015625 54.6875 
L 20.3125 54.6875 
L 30.8125 34.90625 
L 49.125 54.6875 
z
" id="DejaVuSans-Oblique-78"/>
      <path d="M 42.28125 54.6875 
L 40.921875 47.703125 
L 23 47.703125 
L 17.1875 18.015625 
Q 16.890625 16.359375 16.75 15.234375 
Q 16.609375 14.109375 16.609375 13.484375 
Q 16.609375 10.359375 18.484375 8.9375 
Q 20.359375 7.515625 24.515625 7.515625 
L 33.59375 7.515625 
L 32.078125 0 
L 23.484375 0 
Q 15.484375 0 11.546875 3.125 
Q 7.625 6.25 7.625 12.59375 
Q 7.625 13.71875 7.765625 15.0625 
Q 7.90625 16.40625 8.203125 18.015625 
L 14.015625 47.703125 
L 6.390625 47.703125 
L 7.8125 54.6875 
L 15.28125 54.6875 
L 18.3125 70.21875 
L 27.296875 70.21875 
L 24.3125 54.6875 
z
" id="DejaVuSans-Oblique-74"/>
      <path d="M 46 62.703125 
L 46 35.5 
L 73.1875 35.5 
L 73.1875 27.203125 
L 46 27.203125 
L 46 0 
L 37.796875 0 
L 37.796875 27.203125 
L 10.59375 27.203125 
L 10.59375 35.5 
L 37.796875 35.5 
L 37.796875 62.703125 
z
" id="DejaVuSans-2b"/>
     </defs>
     <g transform="translate(344.62 58.070437)scale(0.1 -0.1)">
      <use transform="translate(0 0.125)" xlink:href="#DejaVuSans-Oblique-49"/>
      <use transform="translate(29.492188 0.125)" xlink:href="#DejaVuSans-28"/>
      <use transform="translate(68.505859 0.125)" xlink:href="#DejaVuSans-Oblique-78"/>
      <use transform="translate(127.685547 -16.28125)scale(0.7)" xlink:href="#DejaVuSans-Oblique-74"/>
      <use transform="translate(157.866211 0.125)" xlink:href="#DejaVuSans-2c"/>
      <use transform="translate(209.135742 0.125)" xlink:href="#DejaVuSans-Oblique-78"/>
      <use transform="translate(268.31543 -16.28125)scale(0.7)" xlink:href="#DejaVuSans-Oblique-74"/>
      <use transform="translate(309.399414 -16.28125)scale(0.7)" xlink:href="#DejaVuSans-2b"/>
      <use transform="translate(381.689453 -16.28125)scale(0.7)" xlink:href="#DejaVuSans-31"/>
      <use transform="translate(428.959961 0.125)" xlink:href="#DejaVuSans-29"/>
     </g>
    </g>
    <g id="line2d_22">
     <path d="M 316.62 69.250125 
L 336.62 69.250125 
" style="fill:none;stroke:#dc143c;stroke-dasharray:9.6,2.4,1.5,2.4;stroke-dashoffset:0;stroke-width:1.5;"/>
    </g>
    <g id="line2d_23"/>
    <g id="text_21">
     <!-- $I(y_t,y(t+1))$ -->
     <defs>
      <path d="M 24.8125 -5.078125 
Q 18.5625 -15.578125 14.625 -18.1875 
Q 10.6875 -20.796875 4.59375 -20.796875 
L -2.484375 -20.796875 
L -0.984375 -13.28125 
L 4.203125 -13.28125 
Q 7.953125 -13.28125 10.59375 -11.234375 
Q 13.234375 -9.1875 16.5 -3.21875 
L 19.28125 2 
L 7.171875 54.6875 
L 16.703125 54.6875 
L 25.78125 12.796875 
L 50.875 54.6875 
L 60.296875 54.6875 
z
" id="DejaVuSans-Oblique-79"/>
     </defs>
     <g transform="translate(344.62 72.750125)scale(0.1 -0.1)">
      <use transform="translate(0 0.125)" xlink:href="#DejaVuSans-Oblique-49"/>
      <use transform="translate(29.492188 0.125)" xlink:href="#DejaVuSans-28"/>
      <use transform="translate(68.505859 0.125)" xlink:href="#DejaVuSans-Oblique-79"/>
      <use transform="translate(127.685547 -16.28125)scale(0.7)" xlink:href="#DejaVuSans-Oblique-74"/>
      <use transform="translate(157.866211 0.125)" xlink:href="#DejaVuSans-2c"/>
      <use transform="translate(209.135742 0.125)" xlink:href="#DejaVuSans-Oblique-79"/>
      <use transform="translate(268.31543 0.125)" xlink:href="#DejaVuSans-28"/>
      <use transform="translate(307.329102 0.125)" xlink:href="#DejaVuSans-Oblique-74"/>
      <use transform="translate(366.020508 0.125)" xlink:href="#DejaVuSans-2b"/>
      <use transform="translate(469.291992 0.125)" xlink:href="#DejaVuSans-31"/>
      <use transform="translate(532.915039 0.125)" xlink:href="#DejaVuSans-29"/>
      <use transform="translate(571.928711 0.125)" xlink:href="#DejaVuSans-29"/>
     </g>
    </g>
    <g id="line2d_24">
     <path d="M 316.62 85.170437 
L 336.62 85.170437 
" style="fill:none;stroke:#1e90ff;stroke-dasharray:5.55,2.4;stroke-dashoffset:0;stroke-width:1.5;"/>
    </g>
    <g id="line2d_25"/>
    <g id="text_22">
     <!-- $I(x_t,\hat{x}_{t+1})$ -->
     <defs>
      <path d="M -28.609375 79.984375 
L -21.390625 79.984375 
L -9.421875 61.625 
L -16.21875 61.625 
L -25 73.578125 
L -33.796875 61.625 
L -40.578125 61.625 
z
M -25 56 
z
" id="DejaVuSans-302"/>
     </defs>
     <g transform="translate(344.62 88.670437)scale(0.1 -0.1)">
      <use transform="translate(0 0.828125)" xlink:href="#DejaVuSans-Oblique-49"/>
      <use transform="translate(29.492188 0.828125)" xlink:href="#DejaVuSans-28"/>
      <use transform="translate(68.505859 0.828125)" xlink:href="#DejaVuSans-Oblique-78"/>
      <use transform="translate(127.685547 -15.578125)scale(0.7)" xlink:href="#DejaVuSans-Oblique-74"/>
      <use transform="translate(157.866211 0.828125)" xlink:href="#DejaVuSans-2c"/>
      <use transform="translate(271.508789 12.015625)" xlink:href="#DejaVuSans-302"/>
      <use transform="translate(209.135742 0.828125)" xlink:href="#DejaVuSans-Oblique-78"/>
      <use transform="translate(269.272461 -15.578125)scale(0.7)" xlink:href="#DejaVuSans-Oblique-74"/>
      <use transform="translate(310.356445 -15.578125)scale(0.7)" xlink:href="#DejaVuSans-2b"/>
      <use transform="translate(382.646484 -15.578125)scale(0.7)" xlink:href="#DejaVuSans-31"/>
      <use transform="translate(429.916992 0.828125)" xlink:href="#DejaVuSans-29"/>
     </g>
    </g>
   </g>
  </g>
 </g>
 <defs>
  <clipPath id="pd8a25999fd">
   <rect height="266.112" width="357.12" x="57.6" y="41.472"/>
  </clipPath>
 </defs>
</svg>
