<?xml version="1.0" encoding="utf-8" standalone="no"?>
<!DOCTYPE svg PUBLIC "-//W3C//DTD SVG 1.1//EN"
  "http://www.w3.org/Graphics/SVG/1.1/DTD/svg11.dtd">
<!-- Created with matplotlib (http://matplotlib.org/) -->
<svg height="345.6pt" version="1.1" viewBox="0 0 460.8 345.6" width="460.8pt" xmlns="http://www.w3.org/2000/svg" xmlns:xlink="http://www.w3.org/1999/xlink">
 <defs>
  <style type="text/css">
*{stroke-linecap:butt;stroke-linejoin:round;}
  </style>
 </defs>
 <g id="figure_1">
  <g id="patch_1">
   <path d="M 0 345.6 
L 460.8 345.6 
L 460.8 0 
L 0 0 
z
" style="fill:#ffffff;"/>
  </g>
  <g id="axes_1">
   <g id="patch_2">
    <path d="M 57.6 307.584 
L 414.72 307.584 
L 414.72 41.472 
L 57.6 41.472 
z
" style="fill:#ffffff;"/>
   </g>
   <g id="matplotlib.axis_1">
    <g id="xtick_1">
     <g id="line2d_1">
      <defs>
       <path d="M 0 0 
L 0 3.5 
" id="m99901e3d1e" style="stroke:#000000;stroke-width:0.8;"/>
      </defs>
      <g>
       <use style="stroke:#000000;stroke-width:0.8;" x="59.188043" xlink:href="#m99901e3d1e" y="307.584"/>
      </g>
     </g>
     <g id="text_1">
      <!-- −30 -->
      <defs>
       <path d="M 10.59375 35.5 
L 73.1875 35.5 
L 73.1875 27.203125 
L 10.59375 27.203125 
z
" id="DejaVuSans-2212"/>
       <path d="M 40.578125 39.3125 
Q 47.65625 37.796875 51.625 33 
Q 55.609375 28.21875 55.609375 21.1875 
Q 55.609375 10.40625 48.1875 4.484375 
Q 40.765625 -1.421875 27.09375 -1.421875 
Q 22.515625 -1.421875 17.65625 -0.515625 
Q 12.796875 0.390625 7.625 2.203125 
L 7.625 11.71875 
Q 11.71875 9.328125 16.59375 8.109375 
Q 21.484375 6.890625 26.8125 6.890625 
Q 36.078125 6.890625 40.9375 10.546875 
Q 45.796875 14.203125 45.796875 21.1875 
Q 45.796875 27.640625 41.28125 31.265625 
Q 36.765625 34.90625 28.71875 34.90625 
L 20.21875 34.90625 
L 20.21875 43.015625 
L 29.109375 43.015625 
Q 36.375 43.015625 40.234375 45.921875 
Q 44.09375 48.828125 44.09375 54.296875 
Q 44.09375 59.90625 40.109375 62.90625 
Q 36.140625 65.921875 28.71875 65.921875 
Q 24.65625 65.921875 20.015625 65.03125 
Q 15.375 64.15625 9.8125 62.3125 
L 9.8125 71.09375 
Q 15.4375 72.65625 20.34375 73.4375 
Q 25.25 74.21875 29.59375 74.21875 
Q 40.828125 74.21875 47.359375 69.109375 
Q 53.90625 64.015625 53.90625 55.328125 
Q 53.90625 49.265625 50.4375 45.09375 
Q 46.96875 40.921875 40.578125 39.3125 
z
" id="DejaVuSans-33"/>
       <path d="M 31.78125 66.40625 
Q 24.171875 66.40625 20.328125 58.90625 
Q 16.5 51.421875 16.5 36.375 
Q 16.5 21.390625 20.328125 13.890625 
Q 24.171875 6.390625 31.78125 6.390625 
Q 39.453125 6.390625 43.28125 13.890625 
Q 47.125 21.390625 47.125 36.375 
Q 47.125 51.421875 43.28125 58.90625 
Q 39.453125 66.40625 31.78125 66.40625 
z
M 31.78125 74.21875 
Q 44.046875 74.21875 50.515625 64.515625 
Q 56.984375 54.828125 56.984375 36.375 
Q 56.984375 17.96875 50.515625 8.265625 
Q 44.046875 -1.421875 31.78125 -1.421875 
Q 19.53125 -1.421875 13.0625 8.265625 
Q 6.59375 17.96875 6.59375 36.375 
Q 6.59375 54.828125 13.0625 64.515625 
Q 19.53125 74.21875 31.78125 74.21875 
z
" id="DejaVuSans-30"/>
      </defs>
      <g transform="translate(48.635699 322.182437)scale(0.1 -0.1)">
       <use xlink:href="#DejaVuSans-2212"/>
       <use x="83.789062" xlink:href="#DejaVuSans-33"/>
       <use x="147.412109" xlink:href="#DejaVuSans-30"/>
      </g>
     </g>
    </g>
    <g id="xtick_2">
     <g id="line2d_2">
      <g>
       <use style="stroke:#000000;stroke-width:0.8;" x="112.617837" xlink:href="#m99901e3d1e" y="307.584"/>
      </g>
     </g>
     <g id="text_2">
      <!-- −20 -->
      <defs>
       <path d="M 19.1875 8.296875 
L 53.609375 8.296875 
L 53.609375 0 
L 7.328125 0 
L 7.328125 8.296875 
Q 12.9375 14.109375 22.625 23.890625 
Q 32.328125 33.6875 34.8125 36.53125 
Q 39.546875 41.84375 41.421875 45.53125 
Q 43.3125 49.21875 43.3125 52.78125 
Q 43.3125 58.59375 39.234375 62.25 
Q 35.15625 65.921875 28.609375 65.921875 
Q 23.96875 65.921875 18.8125 64.3125 
Q 13.671875 62.703125 7.8125 59.421875 
L 7.8125 69.390625 
Q 13.765625 71.78125 18.9375 73 
Q 24.125 74.21875 28.421875 74.21875 
Q 39.75 74.21875 46.484375 68.546875 
Q 53.21875 62.890625 53.21875 53.421875 
Q 53.21875 48.921875 51.53125 44.890625 
Q 49.859375 40.875 45.40625 35.40625 
Q 44.1875 33.984375 37.640625 27.21875 
Q 31.109375 20.453125 19.1875 8.296875 
z
" id="DejaVuSans-32"/>
      </defs>
      <g transform="translate(102.065493 322.182437)scale(0.1 -0.1)">
       <use xlink:href="#DejaVuSans-2212"/>
       <use x="83.789062" xlink:href="#DejaVuSans-32"/>
       <use x="147.412109" xlink:href="#DejaVuSans-30"/>
      </g>
     </g>
    </g>
    <g id="xtick_3">
     <g id="line2d_3">
      <g>
       <use style="stroke:#000000;stroke-width:0.8;" x="166.047632" xlink:href="#m99901e3d1e" y="307.584"/>
      </g>
     </g>
     <g id="text_3">
      <!-- −10 -->
      <defs>
       <path d="M 12.40625 8.296875 
L 28.515625 8.296875 
L 28.515625 63.921875 
L 10.984375 60.40625 
L 10.984375 69.390625 
L 28.421875 72.90625 
L 38.28125 72.90625 
L 38.28125 8.296875 
L 54.390625 8.296875 
L 54.390625 0 
L 12.40625 0 
z
" id="DejaVuSans-31"/>
      </defs>
      <g transform="translate(155.495288 322.182437)scale(0.1 -0.1)">
       <use xlink:href="#DejaVuSans-2212"/>
       <use x="83.789062" xlink:href="#DejaVuSans-31"/>
       <use x="147.412109" xlink:href="#DejaVuSans-30"/>
      </g>
     </g>
    </g>
    <g id="xtick_4">
     <g id="line2d_4">
      <g>
       <use style="stroke:#000000;stroke-width:0.8;" x="219.477426" xlink:href="#m99901e3d1e" y="307.584"/>
      </g>
     </g>
     <g id="text_4">
      <!-- 0 -->
      <g transform="translate(216.296176 322.182437)scale(0.1 -0.1)">
       <use xlink:href="#DejaVuSans-30"/>
      </g>
     </g>
    </g>
    <g id="xtick_5">
     <g id="line2d_5">
      <g>
       <use style="stroke:#000000;stroke-width:0.8;" x="272.90722" xlink:href="#m99901e3d1e" y="307.584"/>
      </g>
     </g>
     <g id="text_5">
      <!-- 10 -->
      <g transform="translate(266.54472 322.182437)scale(0.1 -0.1)">
       <use xlink:href="#DejaVuSans-31"/>
       <use x="63.623047" xlink:href="#DejaVuSans-30"/>
      </g>
     </g>
    </g>
    <g id="xtick_6">
     <g id="line2d_6">
      <g>
       <use style="stroke:#000000;stroke-width:0.8;" x="326.337015" xlink:href="#m99901e3d1e" y="307.584"/>
      </g>
     </g>
     <g id="text_6">
      <!-- 20 -->
      <g transform="translate(319.974515 322.182437)scale(0.1 -0.1)">
       <use xlink:href="#DejaVuSans-32"/>
       <use x="63.623047" xlink:href="#DejaVuSans-30"/>
      </g>
     </g>
    </g>
    <g id="xtick_7">
     <g id="line2d_7">
      <g>
       <use style="stroke:#000000;stroke-width:0.8;" x="379.766809" xlink:href="#m99901e3d1e" y="307.584"/>
      </g>
     </g>
     <g id="text_7">
      <!-- 30 -->
      <g transform="translate(373.404309 322.182437)scale(0.1 -0.1)">
       <use xlink:href="#DejaVuSans-33"/>
       <use x="63.623047" xlink:href="#DejaVuSans-30"/>
      </g>
     </g>
    </g>
    <g id="text_8">
     <!-- Position (z) -->
     <defs>
      <path d="M 19.671875 64.796875 
L 19.671875 37.40625 
L 32.078125 37.40625 
Q 38.96875 37.40625 42.71875 40.96875 
Q 46.484375 44.53125 46.484375 51.125 
Q 46.484375 57.671875 42.71875 61.234375 
Q 38.96875 64.796875 32.078125 64.796875 
z
M 9.8125 72.90625 
L 32.078125 72.90625 
Q 44.34375 72.90625 50.609375 67.359375 
Q 56.890625 61.8125 56.890625 51.125 
Q 56.890625 40.328125 50.609375 34.8125 
Q 44.34375 29.296875 32.078125 29.296875 
L 19.671875 29.296875 
L 19.671875 0 
L 9.8125 0 
z
" id="DejaVuSans-50"/>
      <path d="M 30.609375 48.390625 
Q 23.390625 48.390625 19.1875 42.75 
Q 14.984375 37.109375 14.984375 27.296875 
Q 14.984375 17.484375 19.15625 11.84375 
Q 23.34375 6.203125 30.609375 6.203125 
Q 37.796875 6.203125 41.984375 11.859375 
Q 46.1875 17.53125 46.1875 27.296875 
Q 46.1875 37.015625 41.984375 42.703125 
Q 37.796875 48.390625 30.609375 48.390625 
z
M 30.609375 56 
Q 42.328125 56 49.015625 48.375 
Q 55.71875 40.765625 55.71875 27.296875 
Q 55.71875 13.875 49.015625 6.21875 
Q 42.328125 -1.421875 30.609375 -1.421875 
Q 18.84375 -1.421875 12.171875 6.21875 
Q 5.515625 13.875 5.515625 27.296875 
Q 5.515625 40.765625 12.171875 48.375 
Q 18.84375 56 30.609375 56 
z
" id="DejaVuSans-6f"/>
      <path d="M 44.28125 53.078125 
L 44.28125 44.578125 
Q 40.484375 46.53125 36.375 47.5 
Q 32.28125 48.484375 27.875 48.484375 
Q 21.1875 48.484375 17.84375 46.4375 
Q 14.5 44.390625 14.5 40.28125 
Q 14.5 37.15625 16.890625 35.375 
Q 19.28125 33.59375 26.515625 31.984375 
L 29.59375 31.296875 
Q 39.15625 29.25 43.1875 25.515625 
Q 47.21875 21.78125 47.21875 15.09375 
Q 47.21875 7.46875 41.1875 3.015625 
Q 35.15625 -1.421875 24.609375 -1.421875 
Q 20.21875 -1.421875 15.453125 -0.5625 
Q 10.6875 0.296875 5.421875 2 
L 5.421875 11.28125 
Q 10.40625 8.6875 15.234375 7.390625 
Q 20.0625 6.109375 24.8125 6.109375 
Q 31.15625 6.109375 34.5625 8.28125 
Q 37.984375 10.453125 37.984375 14.40625 
Q 37.984375 18.0625 35.515625 20.015625 
Q 33.0625 21.96875 24.703125 23.78125 
L 21.578125 24.515625 
Q 13.234375 26.265625 9.515625 29.90625 
Q 5.8125 33.546875 5.8125 39.890625 
Q 5.8125 47.609375 11.28125 51.796875 
Q 16.75 56 26.8125 56 
Q 31.78125 56 36.171875 55.265625 
Q 40.578125 54.546875 44.28125 53.078125 
z
" id="DejaVuSans-73"/>
      <path d="M 9.421875 54.6875 
L 18.40625 54.6875 
L 18.40625 0 
L 9.421875 0 
z
M 9.421875 75.984375 
L 18.40625 75.984375 
L 18.40625 64.59375 
L 9.421875 64.59375 
z
" id="DejaVuSans-69"/>
      <path d="M 18.3125 70.21875 
L 18.3125 54.6875 
L 36.8125 54.6875 
L 36.8125 47.703125 
L 18.3125 47.703125 
L 18.3125 18.015625 
Q 18.3125 11.328125 20.140625 9.421875 
Q 21.96875 7.515625 27.59375 7.515625 
L 36.8125 7.515625 
L 36.8125 0 
L 27.59375 0 
Q 17.1875 0 13.234375 3.875 
Q 9.28125 7.765625 9.28125 18.015625 
L 9.28125 47.703125 
L 2.6875 47.703125 
L 2.6875 54.6875 
L 9.28125 54.6875 
L 9.28125 70.21875 
z
" id="DejaVuSans-74"/>
      <path d="M 54.890625 33.015625 
L 54.890625 0 
L 45.90625 0 
L 45.90625 32.71875 
Q 45.90625 40.484375 42.875 44.328125 
Q 39.84375 48.1875 33.796875 48.1875 
Q 26.515625 48.1875 22.3125 43.546875 
Q 18.109375 38.921875 18.109375 30.90625 
L 18.109375 0 
L 9.078125 0 
L 9.078125 54.6875 
L 18.109375 54.6875 
L 18.109375 46.1875 
Q 21.34375 51.125 25.703125 53.5625 
Q 30.078125 56 35.796875 56 
Q 45.21875 56 50.046875 50.171875 
Q 54.890625 44.34375 54.890625 33.015625 
z
" id="DejaVuSans-6e"/>
      <path id="DejaVuSans-20"/>
      <path d="M 31 75.875 
Q 24.46875 64.65625 21.28125 53.65625 
Q 18.109375 42.671875 18.109375 31.390625 
Q 18.109375 20.125 21.3125 9.0625 
Q 24.515625 -2 31 -13.1875 
L 23.1875 -13.1875 
Q 15.875 -1.703125 12.234375 9.375 
Q 8.59375 20.453125 8.59375 31.390625 
Q 8.59375 42.28125 12.203125 53.3125 
Q 15.828125 64.359375 23.1875 75.875 
z
" id="DejaVuSans-28"/>
      <path d="M 5.515625 54.6875 
L 48.1875 54.6875 
L 48.1875 46.484375 
L 14.40625 7.171875 
L 48.1875 7.171875 
L 48.1875 0 
L 4.296875 0 
L 4.296875 8.203125 
L 38.09375 47.515625 
L 5.515625 47.515625 
z
" id="DejaVuSans-7a"/>
      <path d="M 8.015625 75.875 
L 15.828125 75.875 
Q 23.140625 64.359375 26.78125 53.3125 
Q 30.421875 42.28125 30.421875 31.390625 
Q 30.421875 20.453125 26.78125 9.375 
Q 23.140625 -1.703125 15.828125 -13.1875 
L 8.015625 -13.1875 
Q 14.5 -2 17.703125 9.0625 
Q 20.90625 20.125 20.90625 31.390625 
Q 20.90625 42.671875 17.703125 53.65625 
Q 14.5 64.65625 8.015625 75.875 
z
" id="DejaVuSans-29"/>
     </defs>
     <g transform="translate(200.074844 338.140094)scale(0.13 -0.13)">
      <use xlink:href="#DejaVuSans-50"/>
      <use x="60.255859" xlink:href="#DejaVuSans-6f"/>
      <use x="121.4375" xlink:href="#DejaVuSans-73"/>
      <use x="173.537109" xlink:href="#DejaVuSans-69"/>
      <use x="201.320312" xlink:href="#DejaVuSans-74"/>
      <use x="240.529297" xlink:href="#DejaVuSans-69"/>
      <use x="268.3125" xlink:href="#DejaVuSans-6f"/>
      <use x="329.494141" xlink:href="#DejaVuSans-6e"/>
      <use x="392.873047" xlink:href="#DejaVuSans-20"/>
      <use x="424.660156" xlink:href="#DejaVuSans-28"/>
      <use x="463.673828" xlink:href="#DejaVuSans-7a"/>
      <use x="516.164062" xlink:href="#DejaVuSans-29"/>
     </g>
    </g>
   </g>
   <g id="matplotlib.axis_2">
    <g id="ytick_1">
     <g id="line2d_8">
      <defs>
       <path d="M 0 0 
L -3.5 0 
" id="m96a2310f23" style="stroke:#000000;stroke-width:0.8;"/>
      </defs>
      <g>
       <use style="stroke:#000000;stroke-width:0.8;" x="57.6" xlink:href="#m96a2310f23" y="306.972875"/>
      </g>
     </g>
     <g id="text_9">
      <!-- −40 -->
      <defs>
       <path d="M 37.796875 64.3125 
L 12.890625 25.390625 
L 37.796875 25.390625 
z
M 35.203125 72.90625 
L 47.609375 72.90625 
L 47.609375 25.390625 
L 58.015625 25.390625 
L 58.015625 17.1875 
L 47.609375 17.1875 
L 47.609375 0 
L 37.796875 0 
L 37.796875 17.1875 
L 4.890625 17.1875 
L 4.890625 26.703125 
z
" id="DejaVuSans-34"/>
      </defs>
      <g transform="translate(29.495313 310.772094)scale(0.1 -0.1)">
       <use xlink:href="#DejaVuSans-2212"/>
       <use x="83.789062" xlink:href="#DejaVuSans-34"/>
       <use x="147.412109" xlink:href="#DejaVuSans-30"/>
      </g>
     </g>
    </g>
    <g id="ytick_2">
     <g id="line2d_9">
      <g>
       <use style="stroke:#000000;stroke-width:0.8;" x="57.6" xlink:href="#m96a2310f23" y="271.178997"/>
      </g>
     </g>
     <g id="text_10">
      <!-- −30 -->
      <g transform="translate(29.495313 274.978216)scale(0.1 -0.1)">
       <use xlink:href="#DejaVuSans-2212"/>
       <use x="83.789062" xlink:href="#DejaVuSans-33"/>
       <use x="147.412109" xlink:href="#DejaVuSans-30"/>
      </g>
     </g>
    </g>
    <g id="ytick_3">
     <g id="line2d_10">
      <g>
       <use style="stroke:#000000;stroke-width:0.8;" x="57.6" xlink:href="#m96a2310f23" y="235.385119"/>
      </g>
     </g>
     <g id="text_11">
      <!-- −20 -->
      <g transform="translate(29.495313 239.184338)scale(0.1 -0.1)">
       <use xlink:href="#DejaVuSans-2212"/>
       <use x="83.789062" xlink:href="#DejaVuSans-32"/>
       <use x="147.412109" xlink:href="#DejaVuSans-30"/>
      </g>
     </g>
    </g>
    <g id="ytick_4">
     <g id="line2d_11">
      <g>
       <use style="stroke:#000000;stroke-width:0.8;" x="57.6" xlink:href="#m96a2310f23" y="199.591241"/>
      </g>
     </g>
     <g id="text_12">
      <!-- −10 -->
      <g transform="translate(29.495313 203.39046)scale(0.1 -0.1)">
       <use xlink:href="#DejaVuSans-2212"/>
       <use x="83.789062" xlink:href="#DejaVuSans-31"/>
       <use x="147.412109" xlink:href="#DejaVuSans-30"/>
      </g>
     </g>
    </g>
    <g id="ytick_5">
     <g id="line2d_12">
      <g>
       <use style="stroke:#000000;stroke-width:0.8;" x="57.6" xlink:href="#m96a2310f23" y="163.797364"/>
      </g>
     </g>
     <g id="text_13">
      <!-- 0 -->
      <g transform="translate(44.2375 167.596582)scale(0.1 -0.1)">
       <use xlink:href="#DejaVuSans-30"/>
      </g>
     </g>
    </g>
    <g id="ytick_6">
     <g id="line2d_13">
      <g>
       <use style="stroke:#000000;stroke-width:0.8;" x="57.6" xlink:href="#m96a2310f23" y="128.003486"/>
      </g>
     </g>
     <g id="text_14">
      <!-- 10 -->
      <g transform="translate(37.875 131.802704)scale(0.1 -0.1)">
       <use xlink:href="#DejaVuSans-31"/>
       <use x="63.623047" xlink:href="#DejaVuSans-30"/>
      </g>
     </g>
    </g>
    <g id="ytick_7">
     <g id="line2d_14">
      <g>
       <use style="stroke:#000000;stroke-width:0.8;" x="57.6" xlink:href="#m96a2310f23" y="92.209608"/>
      </g>
     </g>
     <g id="text_15">
      <!-- 20 -->
      <g transform="translate(37.875 96.008827)scale(0.1 -0.1)">
       <use xlink:href="#DejaVuSans-32"/>
       <use x="63.623047" xlink:href="#DejaVuSans-30"/>
      </g>
     </g>
    </g>
    <g id="ytick_8">
     <g id="line2d_15">
      <g>
       <use style="stroke:#000000;stroke-width:0.8;" x="57.6" xlink:href="#m96a2310f23" y="56.41573"/>
      </g>
     </g>
     <g id="text_16">
      <!-- 30 -->
      <g transform="translate(37.875 60.214949)scale(0.1 -0.1)">
       <use xlink:href="#DejaVuSans-33"/>
       <use x="63.623047" xlink:href="#DejaVuSans-30"/>
      </g>
     </g>
    </g>
    <g id="text_17">
     <!-- Velocity (v) -->
     <defs>
      <path d="M 28.609375 0 
L 0.78125 72.90625 
L 11.078125 72.90625 
L 34.1875 11.53125 
L 57.328125 72.90625 
L 67.578125 72.90625 
L 39.796875 0 
z
" id="DejaVuSans-56"/>
      <path d="M 56.203125 29.59375 
L 56.203125 25.203125 
L 14.890625 25.203125 
Q 15.484375 15.921875 20.484375 11.0625 
Q 25.484375 6.203125 34.421875 6.203125 
Q 39.59375 6.203125 44.453125 7.46875 
Q 49.3125 8.734375 54.109375 11.28125 
L 54.109375 2.78125 
Q 49.265625 0.734375 44.1875 -0.34375 
Q 39.109375 -1.421875 33.890625 -1.421875 
Q 20.796875 -1.421875 13.15625 6.1875 
Q 5.515625 13.8125 5.515625 26.8125 
Q 5.515625 40.234375 12.765625 48.109375 
Q 20.015625 56 32.328125 56 
Q 43.359375 56 49.78125 48.890625 
Q 56.203125 41.796875 56.203125 29.59375 
z
M 47.21875 32.234375 
Q 47.125 39.59375 43.09375 43.984375 
Q 39.0625 48.390625 32.421875 48.390625 
Q 24.90625 48.390625 20.390625 44.140625 
Q 15.875 39.890625 15.1875 32.171875 
z
" id="DejaVuSans-65"/>
      <path d="M 9.421875 75.984375 
L 18.40625 75.984375 
L 18.40625 0 
L 9.421875 0 
z
" id="DejaVuSans-6c"/>
      <path d="M 48.78125 52.59375 
L 48.78125 44.1875 
Q 44.96875 46.296875 41.140625 47.34375 
Q 37.3125 48.390625 33.40625 48.390625 
Q 24.65625 48.390625 19.8125 42.84375 
Q 14.984375 37.3125 14.984375 27.296875 
Q 14.984375 17.28125 19.8125 11.734375 
Q 24.65625 6.203125 33.40625 6.203125 
Q 37.3125 6.203125 41.140625 7.25 
Q 44.96875 8.296875 48.78125 10.40625 
L 48.78125 2.09375 
Q 45.015625 0.34375 40.984375 -0.53125 
Q 36.96875 -1.421875 32.421875 -1.421875 
Q 20.0625 -1.421875 12.78125 6.34375 
Q 5.515625 14.109375 5.515625 27.296875 
Q 5.515625 40.671875 12.859375 48.328125 
Q 20.21875 56 33.015625 56 
Q 37.15625 56 41.109375 55.140625 
Q 45.0625 54.296875 48.78125 52.59375 
z
" id="DejaVuSans-63"/>
      <path d="M 32.171875 -5.078125 
Q 28.375 -14.84375 24.75 -17.8125 
Q 21.140625 -20.796875 15.09375 -20.796875 
L 7.90625 -20.796875 
L 7.90625 -13.28125 
L 13.1875 -13.28125 
Q 16.890625 -13.28125 18.9375 -11.515625 
Q 21 -9.765625 23.484375 -3.21875 
L 25.09375 0.875 
L 2.984375 54.6875 
L 12.5 54.6875 
L 29.59375 11.921875 
L 46.6875 54.6875 
L 56.203125 54.6875 
z
" id="DejaVuSans-79"/>
      <path d="M 2.984375 54.6875 
L 12.5 54.6875 
L 29.59375 8.796875 
L 46.6875 54.6875 
L 56.203125 54.6875 
L 35.6875 0 
L 23.484375 0 
z
" id="DejaVuSans-76"/>
     </defs>
     <g transform="translate(22.791719 211.509953)rotate(-90)scale(0.13 -0.13)">
      <use xlink:href="#DejaVuSans-56"/>
      <use x="68.298828" xlink:href="#DejaVuSans-65"/>
      <use x="129.822266" xlink:href="#DejaVuSans-6c"/>
      <use x="157.605469" xlink:href="#DejaVuSans-6f"/>
      <use x="218.787109" xlink:href="#DejaVuSans-63"/>
      <use x="273.767578" xlink:href="#DejaVuSans-69"/>
      <use x="301.550781" xlink:href="#DejaVuSans-74"/>
      <use x="340.759766" xlink:href="#DejaVuSans-79"/>
      <use x="399.939453" xlink:href="#DejaVuSans-20"/>
      <use x="431.726562" xlink:href="#DejaVuSans-28"/>
      <use x="470.740234" xlink:href="#DejaVuSans-76"/>
      <use x="529.919922" xlink:href="#DejaVuSans-29"/>
     </g>
    </g>
   </g>
   <g id="line2d_16">
    <defs>
     <path d="M 0 1.5 
C 0.397805 1.5 0.77937 1.341951 1.06066 1.06066 
C 1.341951 0.77937 1.5 0.397805 1.5 0 
C 1.5 -0.397805 1.341951 -0.77937 1.06066 -1.06066 
C 0.77937 -1.341951 0.397805 -1.5 0 -1.5 
C -0.397805 -1.5 -0.77937 -1.341951 -1.06066 -1.06066 
C -1.341951 -0.77937 -1.5 -0.397805 -1.5 0 
C -1.5 0.397805 -1.341951 0.77937 -1.06066 1.06066 
C -0.77937 1.341951 -0.397805 1.5 0 1.5 
z
" id="ma762496a20" style="stroke:#007f00;"/>
    </defs>
    <g clip-path="url(#p504bf13237)">
     <use style="fill:#007f00;stroke:#007f00;" x="250.4507" xlink:href="#ma762496a20" y="163.730136"/>
     <use style="fill:#007f00;stroke:#007f00;" x="250.735486" xlink:href="#ma762496a20" y="165.832395"/>
     <use style="fill:#007f00;stroke:#007f00;" x="250.710263" xlink:href="#ma762496a20" y="167.983439"/>
     <use style="fill:#007f00;stroke:#007f00;" x="250.386763" xlink:href="#ma762496a20" y="170.120766"/>
     <use style="fill:#007f00;stroke:#007f00;" x="249.772584" xlink:href="#ma762496a20" y="172.197576"/>
     <use style="fill:#007f00;stroke:#007f00;" x="248.892439" xlink:href="#ma762496a20" y="174.19425"/>
     <use style="fill:#007f00;stroke:#007f00;" x="247.677215" xlink:href="#ma762496a20" y="176.125528"/>
     <use style="fill:#007f00;stroke:#007f00;" x="246.246162" xlink:href="#ma762496a20" y="178.066126"/>
     <use style="fill:#007f00;stroke:#007f00;" x="244.543725" xlink:href="#ma762496a20" y="179.927022"/>
     <use style="fill:#007f00;stroke:#007f00;" x="242.51127" xlink:href="#ma762496a20" y="181.639993"/>
     <use style="fill:#007f00;stroke:#007f00;" x="240.212501" xlink:href="#ma762496a20" y="183.182187"/>
     <use style="fill:#007f00;stroke:#007f00;" x="237.700551" xlink:href="#ma762496a20" y="184.561493"/>
     <use style="fill:#007f00;stroke:#007f00;" x="234.896867" xlink:href="#ma762496a20" y="185.754399"/>
     <use style="fill:#007f00;stroke:#007f00;" x="231.867284" xlink:href="#ma762496a20" y="186.72947"/>
     <use style="fill:#007f00;stroke:#007f00;" x="228.726359" xlink:href="#ma762496a20" y="187.482711"/>
     <use style="fill:#007f00;stroke:#007f00;" x="225.478794" xlink:href="#ma762496a20" y="187.999728"/>
     <use style="fill:#007f00;stroke:#007f00;" x="222.073497" xlink:href="#ma762496a20" y="188.255669"/>
     <use style="fill:#007f00;stroke:#007f00;" x="218.671534" xlink:href="#ma762496a20" y="188.266849"/>
     <use style="fill:#007f00;stroke:#007f00;" x="215.311107" xlink:href="#ma762496a20" y="188.089807"/>
     <use style="fill:#007f00;stroke:#007f00;" x="211.927901" xlink:href="#ma762496a20" y="187.6459"/>
     <use style="fill:#007f00;stroke:#007f00;" x="208.607539" xlink:href="#ma762496a20" y="186.926503"/>
     <use style="fill:#007f00;stroke:#007f00;" x="205.42068" xlink:href="#ma762496a20" y="185.938084"/>
     <use style="fill:#007f00;stroke:#007f00;" x="202.374247" xlink:href="#ma762496a20" y="184.700584"/>
     <use style="fill:#007f00;stroke:#007f00;" x="199.518788" xlink:href="#ma762496a20" y="183.277871"/>
     <use style="fill:#007f00;stroke:#007f00;" x="196.870901" xlink:href="#ma762496a20" y="181.608164"/>
     <use style="fill:#007f00;stroke:#007f00;" x="194.383974" xlink:href="#ma762496a20" y="179.712042"/>
     <use style="fill:#007f00;stroke:#007f00;" x="192.137731" xlink:href="#ma762496a20" y="177.628554"/>
     <use style="fill:#007f00;stroke:#007f00;" x="190.164294" xlink:href="#ma762496a20" y="175.423312"/>
     <use style="fill:#007f00;stroke:#007f00;" x="188.450507" xlink:href="#ma762496a20" y="173.171178"/>
     <use style="fill:#007f00;stroke:#007f00;" x="187.008531" xlink:href="#ma762496a20" y="170.907514"/>
     <use style="fill:#007f00;stroke:#007f00;" x="185.968239" xlink:href="#ma762496a20" y="168.568218"/>
     <use style="fill:#007f00;stroke:#007f00;" x="185.200053" xlink:href="#ma762496a20" y="166.167602"/>
     <use style="fill:#007f00;stroke:#007f00;" x="184.689268" xlink:href="#ma762496a20" y="163.703501"/>
     <use style="fill:#007f00;stroke:#007f00;" x="184.513271" xlink:href="#ma762496a20" y="161.235411"/>
     <use style="fill:#007f00;stroke:#007f00;" x="184.689197" xlink:href="#ma762496a20" y="158.762575"/>
     <use style="fill:#007f00;stroke:#007f00;" x="185.267608" xlink:href="#ma762496a20" y="156.313195"/>
     <use style="fill:#007f00;stroke:#007f00;" x="186.196982" xlink:href="#ma762496a20" y="153.888503"/>
     <use style="fill:#007f00;stroke:#007f00;" x="187.511347" xlink:href="#ma762496a20" y="151.542524"/>
     <use style="fill:#007f00;stroke:#007f00;" x="189.189552" xlink:href="#ma762496a20" y="149.353514"/>
     <use style="fill:#007f00;stroke:#007f00;" x="191.155578" xlink:href="#ma762496a20" y="147.251618"/>
     <use style="fill:#007f00;stroke:#007f00;" x="193.384231" xlink:href="#ma762496a20" y="145.288293"/>
     <use style="fill:#007f00;stroke:#007f00;" x="195.948278" xlink:href="#ma762496a20" y="143.508521"/>
     <use style="fill:#007f00;stroke:#007f00;" x="198.740707" xlink:href="#ma762496a20" y="141.922195"/>
     <use style="fill:#007f00;stroke:#007f00;" x="201.681555" xlink:href="#ma762496a20" y="140.528266"/>
     <use style="fill:#007f00;stroke:#007f00;" x="204.830661" xlink:href="#ma762496a20" y="139.38333"/>
     <use style="fill:#007f00;stroke:#007f00;" x="208.25774" xlink:href="#ma762496a20" y="138.395537"/>
     <use style="fill:#007f00;stroke:#007f00;" x="211.918226" xlink:href="#ma762496a20" y="137.625929"/>
     <use style="fill:#007f00;stroke:#007f00;" x="215.77274" xlink:href="#ma762496a20" y="137.191508"/>
     <use style="fill:#007f00;stroke:#007f00;" x="219.742773" xlink:href="#ma762496a20" y="137.100304"/>
     <use style="fill:#007f00;stroke:#007f00;" x="223.721836" xlink:href="#ma762496a20" y="137.335422"/>
     <use style="fill:#007f00;stroke:#007f00;" x="227.653732" xlink:href="#ma762496a20" y="137.827713"/>
     <use style="fill:#007f00;stroke:#007f00;" x="231.589792" xlink:href="#ma762496a20" y="138.547772"/>
     <use style="fill:#007f00;stroke:#007f00;" x="235.519861" xlink:href="#ma762496a20" y="139.497594"/>
     <use style="fill:#007f00;stroke:#007f00;" x="239.339886" xlink:href="#ma762496a20" y="140.708999"/>
     <use style="fill:#007f00;stroke:#007f00;" x="243.012737" xlink:href="#ma762496a20" y="142.161471"/>
     <use style="fill:#007f00;stroke:#007f00;" x="246.48907" xlink:href="#ma762496a20" y="143.816834"/>
     <use style="fill:#007f00;stroke:#007f00;" x="249.660071" xlink:href="#ma762496a20" y="145.648742"/>
     <use style="fill:#007f00;stroke:#007f00;" x="252.530897" xlink:href="#ma762496a20" y="147.727489"/>
     <use style="fill:#007f00;stroke:#007f00;" x="255.230303" xlink:href="#ma762496a20" y="150.026633"/>
     <use style="fill:#007f00;stroke:#007f00;" x="257.621827" xlink:href="#ma762496a20" y="152.476944"/>
     <use style="fill:#007f00;stroke:#007f00;" x="259.693082" xlink:href="#ma762496a20" y="155.103871"/>
     <use style="fill:#007f00;stroke:#007f00;" x="261.444583" xlink:href="#ma762496a20" y="157.936159"/>
     <use style="fill:#007f00;stroke:#007f00;" x="262.785813" xlink:href="#ma762496a20" y="160.968612"/>
     <use style="fill:#007f00;stroke:#007f00;" x="263.617556" xlink:href="#ma762496a20" y="164.017823"/>
     <use style="fill:#007f00;stroke:#007f00;" x="263.924282" xlink:href="#ma762496a20" y="167.083487"/>
     <use style="fill:#007f00;stroke:#007f00;" x="263.816483" xlink:href="#ma762496a20" y="170.192447"/>
     <use style="fill:#007f00;stroke:#007f00;" x="263.30367" xlink:href="#ma762496a20" y="173.289464"/>
     <use style="fill:#007f00;stroke:#007f00;" x="262.428224" xlink:href="#ma762496a20" y="176.303189"/>
     <use style="fill:#007f00;stroke:#007f00;" x="261.160103" xlink:href="#ma762496a20" y="179.206537"/>
     <use style="fill:#007f00;stroke:#007f00;" x="259.339344" xlink:href="#ma762496a20" y="181.993942"/>
     <use style="fill:#007f00;stroke:#007f00;" x="257.190259" xlink:href="#ma762496a20" y="184.751141"/>
     <use style="fill:#007f00;stroke:#007f00;" x="254.6812" xlink:href="#ma762496a20" y="187.351578"/>
     <use style="fill:#007f00;stroke:#007f00;" x="251.664498" xlink:href="#ma762496a20" y="189.716797"/>
     <use style="fill:#007f00;stroke:#007f00;" x="248.29909" xlink:href="#ma762496a20" y="191.82152"/>
     <use style="fill:#007f00;stroke:#007f00;" x="244.617469" xlink:href="#ma762496a20" y="193.654227"/>
     <use style="fill:#007f00;stroke:#007f00;" x="240.565223" xlink:href="#ma762496a20" y="195.206067"/>
     <use style="fill:#007f00;stroke:#007f00;" x="236.283517" xlink:href="#ma762496a20" y="196.41913"/>
     <use style="fill:#007f00;stroke:#007f00;" x="231.902642" xlink:href="#ma762496a20" y="197.313776"/>
     <use style="fill:#007f00;stroke:#007f00;" x="227.319732" xlink:href="#ma762496a20" y="197.855646"/>
     <use style="fill:#007f00;stroke:#007f00;" x="222.563855" xlink:href="#ma762496a20" y="198.045362"/>
     <use style="fill:#007f00;stroke:#007f00;" x="217.852465" xlink:href="#ma762496a20" y="197.910638"/>
     <use style="fill:#007f00;stroke:#007f00;" x="213.182549" xlink:href="#ma762496a20" y="197.513695"/>
     <use style="fill:#007f00;stroke:#007f00;" x="208.522309" xlink:href="#ma762496a20" y="196.776104"/>
     <use style="fill:#007f00;stroke:#007f00;" x="203.956259" xlink:href="#ma762496a20" y="195.691661"/>
     <use style="fill:#007f00;stroke:#007f00;" x="199.599502" xlink:href="#ma762496a20" y="194.246584"/>
     <use style="fill:#007f00;stroke:#007f00;" x="195.469784" xlink:href="#ma762496a20" y="192.490002"/>
     <use style="fill:#007f00;stroke:#007f00;" x="191.629086" xlink:href="#ma762496a20" y="190.49748"/>
     <use style="fill:#007f00;stroke:#007f00;" x="188.09615" xlink:href="#ma762496a20" y="188.179816"/>
     <use style="fill:#007f00;stroke:#007f00;" x="184.741797" xlink:href="#ma762496a20" y="185.597493"/>
     <use style="fill:#007f00;stroke:#007f00;" x="181.717151" xlink:href="#ma762496a20" y="182.762229"/>
     <use style="fill:#007f00;stroke:#007f00;" x="178.967833" xlink:href="#ma762496a20" y="179.777113"/>
     <use style="fill:#007f00;stroke:#007f00;" x="176.548508" xlink:href="#ma762496a20" y="176.701692"/>
     <use style="fill:#007f00;stroke:#007f00;" x="174.487531" xlink:href="#ma762496a20" y="173.597555"/>
     <use style="fill:#007f00;stroke:#007f00;" x="172.96009" xlink:href="#ma762496a20" y="170.396864"/>
     <use style="fill:#007f00;stroke:#007f00;" x="171.867404" xlink:href="#ma762496a20" y="167.098096"/>
     <use style="fill:#007f00;stroke:#007f00;" x="171.137412" xlink:href="#ma762496a20" y="163.725152"/>
     <use style="fill:#007f00;stroke:#007f00;" x="170.840148" xlink:href="#ma762496a20" y="160.314378"/>
     <use style="fill:#007f00;stroke:#007f00;" x="171.043452" xlink:href="#ma762496a20" y="156.885874"/>
     <use style="fill:#007f00;stroke:#007f00;" x="171.79169" xlink:href="#ma762496a20" y="153.478853"/>
     <use style="fill:#007f00;stroke:#007f00;" x="173.076496" xlink:href="#ma762496a20" y="150.100292"/>
     <use style="fill:#007f00;stroke:#007f00;" x="174.870236" xlink:href="#ma762496a20" y="146.826753"/>
     <use style="fill:#007f00;stroke:#007f00;" x="177.141576" xlink:href="#ma762496a20" y="143.769111"/>
     <use style="fill:#007f00;stroke:#007f00;" x="179.821598" xlink:href="#ma762496a20" y="140.825347"/>
     <use style="fill:#007f00;stroke:#007f00;" x="182.921061" xlink:href="#ma762496a20" y="138.089459"/>
     <use style="fill:#007f00;stroke:#007f00;" x="186.509849" xlink:href="#ma762496a20" y="135.642318"/>
     <use style="fill:#007f00;stroke:#007f00;" x="190.381893" xlink:href="#ma762496a20" y="133.460112"/>
     <use style="fill:#007f00;stroke:#007f00;" x="194.479409" xlink:href="#ma762496a20" y="131.564003"/>
     <use style="fill:#007f00;stroke:#007f00;" x="198.916915" xlink:href="#ma762496a20" y="129.92634"/>
     <use style="fill:#007f00;stroke:#007f00;" x="203.739123" xlink:href="#ma762496a20" y="128.487114"/>
     <use style="fill:#007f00;stroke:#007f00;" x="208.913138" xlink:href="#ma762496a20" y="127.441803"/>
     <use style="fill:#007f00;stroke:#007f00;" x="214.359177" xlink:href="#ma762496a20" y="126.861967"/>
     <use style="fill:#007f00;stroke:#007f00;" x="219.919197" xlink:href="#ma762496a20" y="126.770013"/>
     <use style="fill:#007f00;stroke:#007f00;" x="225.44091" xlink:href="#ma762496a20" y="127.124078"/>
     <use style="fill:#007f00;stroke:#007f00;" x="230.951169" xlink:href="#ma762496a20" y="127.826717"/>
     <use style="fill:#007f00;stroke:#007f00;" x="236.450928" xlink:href="#ma762496a20" y="128.851795"/>
     <use style="fill:#007f00;stroke:#007f00;" x="241.887506" xlink:href="#ma762496a20" y="130.209314"/>
     <use style="fill:#007f00;stroke:#007f00;" x="247.144637" xlink:href="#ma762496a20" y="131.903322"/>
     <use style="fill:#007f00;stroke:#007f00;" x="252.189937" xlink:href="#ma762496a20" y="133.931205"/>
     <use style="fill:#007f00;stroke:#007f00;" x="256.907688" xlink:href="#ma762496a20" y="136.286756"/>
     <use style="fill:#007f00;stroke:#007f00;" x="261.216429" xlink:href="#ma762496a20" y="138.880202"/>
     <use style="fill:#007f00;stroke:#007f00;" x="265.072091" xlink:href="#ma762496a20" y="141.794914"/>
     <use style="fill:#007f00;stroke:#007f00;" x="268.705874" xlink:href="#ma762496a20" y="144.928972"/>
     <use style="fill:#007f00;stroke:#007f00;" x="271.930053" xlink:href="#ma762496a20" y="148.304776"/>
     <use style="fill:#007f00;stroke:#007f00;" x="274.729404" xlink:href="#ma762496a20" y="151.929505"/>
     <use style="fill:#007f00;stroke:#007f00;" x="277.111196" xlink:href="#ma762496a20" y="155.830084"/>
     <use style="fill:#007f00;stroke:#007f00;" x="278.933134" xlink:href="#ma762496a20" y="160.010865"/>
     <use style="fill:#007f00;stroke:#007f00;" x="280.020048" xlink:href="#ma762496a20" y="164.206614"/>
     <use style="fill:#007f00;stroke:#007f00;" x="280.387863" xlink:href="#ma762496a20" y="168.474248"/>
     <use style="fill:#007f00;stroke:#007f00;" x="280.195963" xlink:href="#ma762496a20" y="172.77733"/>
     <use style="fill:#007f00;stroke:#007f00;" x="279.426085" xlink:href="#ma762496a20" y="177.057212"/>
     <use style="fill:#007f00;stroke:#007f00;" x="278.16078" xlink:href="#ma762496a20" y="181.220212"/>
     <use style="fill:#007f00;stroke:#007f00;" x="276.384807" xlink:href="#ma762496a20" y="185.239107"/>
     <use style="fill:#007f00;stroke:#007f00;" x="273.841917" xlink:href="#ma762496a20" y="189.080241"/>
     <use style="fill:#007f00;stroke:#007f00;" x="270.82443" xlink:href="#ma762496a20" y="192.832557"/>
     <use style="fill:#007f00;stroke:#007f00;" x="267.251135" xlink:href="#ma762496a20" y="196.328213"/>
     <use style="fill:#007f00;stroke:#007f00;" x="262.995889" xlink:href="#ma762496a20" y="199.483175"/>
     <use style="fill:#007f00;stroke:#007f00;" x="258.336191" xlink:href="#ma762496a20" y="202.286791"/>
     <use style="fill:#007f00;stroke:#007f00;" x="253.231837" xlink:href="#ma762496a20" y="204.670955"/>
     <use style="fill:#007f00;stroke:#007f00;" x="247.68566" xlink:href="#ma762496a20" y="206.644732"/>
     <use style="fill:#007f00;stroke:#007f00;" x="241.926675" xlink:href="#ma762496a20" y="208.181057"/>
     <use style="fill:#007f00;stroke:#007f00;" x="236.01843" xlink:href="#ma762496a20" y="209.252693"/>
     <use style="fill:#007f00;stroke:#007f00;" x="229.820492" xlink:href="#ma762496a20" y="209.84461"/>
     <use style="fill:#007f00;stroke:#007f00;" x="223.447883" xlink:href="#ma762496a20" y="209.984269"/>
     <use style="fill:#007f00;stroke:#007f00;" x="217.125249" xlink:href="#ma762496a20" y="209.693914"/>
     <use style="fill:#007f00;stroke:#007f00;" x="210.872789" xlink:href="#ma762496a20" y="209.040082"/>
     <use style="fill:#007f00;stroke:#007f00;" x="204.65894" xlink:href="#ma762496a20" y="207.935833"/>
     <use style="fill:#007f00;stroke:#007f00;" x="198.572746" xlink:href="#ma762496a20" y="206.402236"/>
     <use style="fill:#007f00;stroke:#007f00;" x="192.753849" xlink:href="#ma762496a20" y="204.411237"/>
     <use style="fill:#007f00;stroke:#007f00;" x="187.285462" xlink:href="#ma762496a20" y="202.020802"/>
     <use style="fill:#007f00;stroke:#007f00;" x="182.200201" xlink:href="#ma762496a20" y="199.318398"/>
     <use style="fill:#007f00;stroke:#007f00;" x="177.468002" xlink:href="#ma762496a20" y="196.266803"/>
     <use style="fill:#007f00;stroke:#007f00;" x="173.048165" xlink:href="#ma762496a20" y="192.852861"/>
     <use style="fill:#007f00;stroke:#007f00;" x="169.030296" xlink:href="#ma762496a20" y="189.109842"/>
     <use style="fill:#007f00;stroke:#007f00;" x="165.361981" xlink:href="#ma762496a20" y="185.169114"/>
     <use style="fill:#007f00;stroke:#007f00;" x="162.085492" xlink:href="#ma762496a20" y="181.108411"/>
     <use style="fill:#007f00;stroke:#007f00;" x="159.239666" xlink:href="#ma762496a20" y="176.960189"/>
     <use style="fill:#007f00;stroke:#007f00;" x="157.082441" xlink:href="#ma762496a20" y="172.695141"/>
     <use style="fill:#007f00;stroke:#007f00;" x="155.58756" xlink:href="#ma762496a20" y="168.299778"/>
     <use style="fill:#007f00;stroke:#007f00;" x="154.577114" xlink:href="#ma762496a20" y="163.812083"/>
     <use style="fill:#007f00;stroke:#007f00;" x="154.117957" xlink:href="#ma762496a20" y="159.243649"/>
     <use style="fill:#007f00;stroke:#007f00;" x="154.346055" xlink:href="#ma762496a20" y="154.646341"/>
     <use style="fill:#007f00;stroke:#007f00;" x="155.293062" xlink:href="#ma762496a20" y="150.064642"/>
     <use style="fill:#007f00;stroke:#007f00;" x="156.985286" xlink:href="#ma762496a20" y="145.537511"/>
     <use style="fill:#007f00;stroke:#007f00;" x="159.353651" xlink:href="#ma762496a20" y="141.124417"/>
     <use style="fill:#007f00;stroke:#007f00;" x="162.31571" xlink:href="#ma762496a20" y="136.988825"/>
     <use style="fill:#007f00;stroke:#007f00;" x="165.848435" xlink:href="#ma762496a20" y="133.006179"/>
     <use style="fill:#007f00;stroke:#007f00;" x="169.980768" xlink:href="#ma762496a20" y="129.308842"/>
     <use style="fill:#007f00;stroke:#007f00;" x="174.801743" xlink:href="#ma762496a20" y="126.009346"/>
     <use style="fill:#007f00;stroke:#007f00;" x="179.990765" xlink:href="#ma762496a20" y="123.080995"/>
     <use style="fill:#007f00;stroke:#007f00;" x="185.530188" xlink:href="#ma762496a20" y="120.54562"/>
     <use style="fill:#007f00;stroke:#007f00;" x="191.544408" xlink:href="#ma762496a20" y="118.294763"/>
     <use style="fill:#007f00;stroke:#007f00;" x="198.069578" xlink:href="#ma762496a20" y="116.290495"/>
     <use style="fill:#007f00;stroke:#007f00;" x="205.082768" xlink:href="#ma762496a20" y="114.911099"/>
     <use style="fill:#007f00;stroke:#007f00;" x="212.458996" xlink:href="#ma762496a20" y="114.1442"/>
     <use style="fill:#007f00;stroke:#007f00;" x="219.950878" xlink:href="#ma762496a20" y="114.034399"/>
     <use style="fill:#007f00;stroke:#007f00;" x="227.407199" xlink:href="#ma762496a20" y="114.51604"/>
     <use style="fill:#007f00;stroke:#007f00;" x="234.867987" xlink:href="#ma762496a20" y="115.460049"/>
     <use style="fill:#007f00;stroke:#007f00;" x="242.316883" xlink:href="#ma762496a20" y="116.835086"/>
     <use style="fill:#007f00;stroke:#007f00;" x="249.619284" xlink:href="#ma762496a20" y="118.659452"/>
     <use style="fill:#007f00;stroke:#007f00;" x="256.6732" xlink:href="#ma762496a20" y="120.930824"/>
     <use style="fill:#007f00;stroke:#007f00;" x="263.399934" xlink:href="#ma762496a20" y="123.670959"/>
     <use style="fill:#007f00;stroke:#007f00;" x="269.680758" xlink:href="#ma762496a20" y="126.853177"/>
     <use style="fill:#007f00;stroke:#007f00;" x="275.425617" xlink:href="#ma762496a20" y="130.387933"/>
     <use style="fill:#007f00;stroke:#007f00;" x="280.499836" xlink:href="#ma762496a20" y="134.320966"/>
     <use style="fill:#007f00;stroke:#007f00;" x="285.308011" xlink:href="#ma762496a20" y="138.47808"/>
     <use style="fill:#007f00;stroke:#007f00;" x="289.600658" xlink:href="#ma762496a20" y="142.988337"/>
     <use style="fill:#007f00;stroke:#007f00;" x="293.351983" xlink:href="#ma762496a20" y="147.842335"/>
     <use style="fill:#007f00;stroke:#007f00;" x="296.539027" xlink:href="#ma762496a20" y="153.062333"/>
     <use style="fill:#007f00;stroke:#007f00;" x="298.986642" xlink:href="#ma762496a20" y="158.630928"/>
     <use style="fill:#007f00;stroke:#007f00;" x="300.412225" xlink:href="#ma762496a20" y="164.248901"/>
     <use style="fill:#007f00;stroke:#007f00;" x="300.901624" xlink:href="#ma762496a20" y="169.969871"/>
     <use style="fill:#007f00;stroke:#007f00;" x="300.579545" xlink:href="#ma762496a20" y="175.743496"/>
     <use style="fill:#007f00;stroke:#007f00;" x="299.489799" xlink:href="#ma762496a20" y="181.482325"/>
     <use style="fill:#007f00;stroke:#007f00;" x="297.765387" xlink:href="#ma762496a20" y="187.077436"/>
     <use style="fill:#007f00;stroke:#007f00;" x="295.375585" xlink:href="#ma762496a20" y="192.482925"/>
     <use style="fill:#007f00;stroke:#007f00;" x="291.972122" xlink:href="#ma762496a20" y="197.639089"/>
     <use style="fill:#007f00;stroke:#007f00;" x="287.900022" xlink:href="#ma762496a20" y="202.620758"/>
     <use style="fill:#007f00;stroke:#007f00;" x="283.055134" xlink:href="#ma762496a20" y="207.24039"/>
     <use style="fill:#007f00;stroke:#007f00;" x="277.30996" xlink:href="#ma762496a20" y="211.40526"/>
     <use style="fill:#007f00;stroke:#007f00;" x="271.047193" xlink:href="#ma762496a20" y="215.087218"/>
     <use style="fill:#007f00;stroke:#007f00;" x="264.216181" xlink:href="#ma762496a20" y="218.178572"/>
     <use style="fill:#007f00;stroke:#007f00;" x="256.889788" xlink:href="#ma762496a20" y="220.707539"/>
     <use style="fill:#007f00;stroke:#007f00;" x="249.309699" xlink:href="#ma762496a20" y="222.671898"/>
     <use style="fill:#007f00;stroke:#007f00;" x="241.474501" xlink:href="#ma762496a20" y="224.014831"/>
     <use style="fill:#007f00;stroke:#007f00;" x="233.289032" xlink:href="#ma762496a20" y="224.696828"/>
     <use style="fill:#007f00;stroke:#007f00;" x="224.917224" xlink:href="#ma762496a20" y="224.799816"/>
     <use style="fill:#007f00;stroke:#007f00;" x="216.575328" xlink:href="#ma762496a20" y="224.343967"/>
     <use style="fill:#007f00;stroke:#007f00;" x="208.353851" xlink:href="#ma762496a20" y="223.389738"/>
     <use style="fill:#007f00;stroke:#007f00;" x="200.205906" xlink:href="#ma762496a20" y="221.855454"/>
     <use style="fill:#007f00;stroke:#007f00;" x="192.269874" xlink:href="#ma762496a20" y="219.771992"/>
     <use style="fill:#007f00;stroke:#007f00;" x="184.652387" xlink:href="#ma762496a20" y="217.107724"/>
     <use style="fill:#007f00;stroke:#007f00;" x="177.476914" xlink:href="#ma762496a20" y="213.948489"/>
     <use style="fill:#007f00;stroke:#007f00;" x="170.797463" xlink:href="#ma762496a20" y="210.407364"/>
     <use style="fill:#007f00;stroke:#007f00;" x="164.53886" xlink:href="#ma762496a20" y="206.466691"/>
     <use style="fill:#007f00;stroke:#007f00;" x="158.757426" xlink:href="#ma762496a20" y="202.035378"/>
     <use style="fill:#007f00;stroke:#007f00;" x="153.449127" xlink:href="#ma762496a20" y="197.172887"/>
     <use style="fill:#007f00;stroke:#007f00;" x="148.617222" xlink:href="#ma762496a20" y="192.048412"/>
     <use style="fill:#007f00;stroke:#007f00;" x="144.245978" xlink:href="#ma762496a20" y="186.755255"/>
     <use style="fill:#007f00;stroke:#007f00;" x="140.416692" xlink:href="#ma762496a20" y="181.326634"/>
     <use style="fill:#007f00;stroke:#007f00;" x="137.440438" xlink:href="#ma762496a20" y="175.747319"/>
     <use style="fill:#007f00;stroke:#007f00;" x="135.411633" xlink:href="#ma762496a20" y="169.988286"/>
     <use style="fill:#007f00;stroke:#007f00;" x="134.019125" xlink:href="#ma762496a20" y="164.111614"/>
     <use style="fill:#007f00;stroke:#007f00;" x="133.337138" xlink:href="#ma762496a20" y="158.116548"/>
     <use style="fill:#007f00;stroke:#007f00;" x="133.564294" xlink:href="#ma762496a20" y="152.06666"/>
     <use style="fill:#007f00;stroke:#007f00;" x="134.73596" xlink:href="#ma762496a20" y="146.028065"/>
     <use style="fill:#007f00;stroke:#007f00;" x="136.901516" xlink:href="#ma762496a20" y="140.071842"/>
     <use style="fill:#007f00;stroke:#007f00;" x="139.90923" xlink:href="#ma762496a20" y="134.276754"/>
     <use style="fill:#007f00;stroke:#007f00;" x="143.703581" xlink:href="#ma762496a20" y="128.77966"/>
     <use style="fill:#007f00;stroke:#007f00;" x="148.245447" xlink:href="#ma762496a20" y="123.49517"/>
     <use style="fill:#007f00;stroke:#007f00;" x="153.616467" xlink:href="#ma762496a20" y="118.586156"/>
     <use style="fill:#007f00;stroke:#007f00;" x="159.886142" xlink:href="#ma762496a20" y="114.186613"/>
     <use style="fill:#007f00;stroke:#007f00;" x="166.71902" xlink:href="#ma762496a20" y="110.304124"/>
     <use style="fill:#007f00;stroke:#007f00;" x="174.038341" xlink:href="#ma762496a20" y="106.944362"/>
     <use style="fill:#007f00;stroke:#007f00;" x="181.995613" xlink:href="#ma762496a20" y="103.892798"/>
     <use style="fill:#007f00;stroke:#007f00;" x="190.614363" xlink:href="#ma762496a20" y="101.191346"/>
     <use style="fill:#007f00;stroke:#007f00;" x="199.887005" xlink:href="#ma762496a20" y="99.355999"/>
     <use style="fill:#007f00;stroke:#007f00;" x="209.624594" xlink:href="#ma762496a20" y="98.346354"/>
     <use style="fill:#007f00;stroke:#007f00;" x="219.522977" xlink:href="#ma762496a20" y="98.171476"/>
     <use style="fill:#007f00;stroke:#007f00;" x="229.416792" xlink:href="#ma762496a20" y="98.754125"/>
     <use style="fill:#007f00;stroke:#007f00;" x="239.311485" xlink:href="#ma762496a20" y="99.95775"/>
     <use style="fill:#007f00;stroke:#007f00;" x="249.195576" xlink:href="#ma762496a20" y="101.734008"/>
     <use style="fill:#007f00;stroke:#007f00;" x="258.840677" xlink:href="#ma762496a20" y="104.114304"/>
     <use style="fill:#007f00;stroke:#007f00;" x="268.160833" xlink:href="#ma762496a20" y="107.077263"/>
     <use style="fill:#007f00;stroke:#007f00;" x="276.99986" xlink:href="#ma762496a20" y="110.673404"/>
     <use style="fill:#007f00;stroke:#007f00;" x="285.261189" xlink:href="#ma762496a20" y="114.863923"/>
     <use style="fill:#007f00;stroke:#007f00;" x="292.851492" xlink:href="#ma762496a20" y="119.536183"/>
     <use style="fill:#007f00;stroke:#007f00;" x="299.523734" xlink:href="#ma762496a20" y="124.704236"/>
     <use style="fill:#007f00;stroke:#007f00;" x="305.842689" xlink:href="#ma762496a20" y="130.122043"/>
     <use style="fill:#007f00;stroke:#007f00;" x="311.53755" xlink:href="#ma762496a20" y="136.02599"/>
     <use style="fill:#007f00;stroke:#007f00;" x="316.518885" xlink:href="#ma762496a20" y="142.406385"/>
     <use style="fill:#007f00;stroke:#007f00;" x="320.751848" xlink:href="#ma762496a20" y="149.261006"/>
     <use style="fill:#007f00;stroke:#007f00;" x="324.010192" xlink:href="#ma762496a20" y="156.549769"/>
     <use style="fill:#007f00;stroke:#007f00;" x="325.918698" xlink:href="#ma762496a20" y="163.946908"/>
     <use style="fill:#007f00;stroke:#007f00;" x="326.579997" xlink:href="#ma762496a20" y="171.461758"/>
     <use style="fill:#007f00;stroke:#007f00;" x="326.150521" xlink:href="#ma762496a20" y="179.08336"/>
     <use style="fill:#007f00;stroke:#007f00;" x="324.704714" xlink:href="#ma762496a20" y="186.649304"/>
     <use style="fill:#007f00;stroke:#007f00;" x="322.452143" xlink:href="#ma762496a20" y="194.051249"/>
     <use style="fill:#007f00;stroke:#007f00;" x="319.337409" xlink:href="#ma762496a20" y="201.205939"/>
     <use style="fill:#007f00;stroke:#007f00;" x="314.911429" xlink:href="#ma762496a20" y="208.021456"/>
     <use style="fill:#007f00;stroke:#007f00;" x="309.561092" xlink:href="#ma762496a20" y="214.55293"/>
     <use style="fill:#007f00;stroke:#007f00;" x="303.191061" xlink:href="#ma762496a20" y="220.604391"/>
     <use style="fill:#007f00;stroke:#007f00;" x="295.621986" xlink:href="#ma762496a20" y="226.053012"/>
     <use style="fill:#007f00;stroke:#007f00;" x="287.3667" xlink:href="#ma762496a20" y="230.856971"/>
     <use style="fill:#007f00;stroke:#007f00;" x="278.429066" xlink:href="#ma762496a20" y="234.869233"/>
     <use style="fill:#007f00;stroke:#007f00;" x="268.908944" xlink:href="#ma762496a20" y="238.133617"/>
     <use style="fill:#007f00;stroke:#007f00;" x="259.070972" xlink:href="#ma762496a20" y="240.668165"/>
     <use style="fill:#007f00;stroke:#007f00;" x="248.847783" xlink:href="#ma762496a20" y="242.396442"/>
     <use style="fill:#007f00;stroke:#007f00;" x="238.205892" xlink:href="#ma762496a20" y="243.237048"/>
     <use style="fill:#007f00;stroke:#007f00;" x="227.344231" xlink:href="#ma762496a20" y="243.334403"/>
     <use style="fill:#007f00;stroke:#007f00;" x="216.460542" xlink:href="#ma762496a20" y="242.708354"/>
     <use style="fill:#007f00;stroke:#007f00;" x="205.778039" xlink:href="#ma762496a20" y="241.422674"/>
     <use style="fill:#007f00;stroke:#007f00;" x="195.19964" xlink:href="#ma762496a20" y="239.391674"/>
     <use style="fill:#007f00;stroke:#007f00;" x="184.897451" xlink:href="#ma762496a20" y="236.631202"/>
     <use style="fill:#007f00;stroke:#007f00;" x="175.006703" xlink:href="#ma762496a20" y="233.163329"/>
     <use style="fill:#007f00;stroke:#007f00;" x="165.707881" xlink:href="#ma762496a20" y="229.05677"/>
     <use style="fill:#007f00;stroke:#007f00;" x="156.962952" xlink:href="#ma762496a20" y="224.495209"/>
     <use style="fill:#007f00;stroke:#007f00;" x="148.769902" xlink:href="#ma762496a20" y="219.4656"/>
     <use style="fill:#007f00;stroke:#007f00;" x="141.24951" xlink:href="#ma762496a20" y="213.786092"/>
     <use style="fill:#007f00;stroke:#007f00;" x="134.262576" xlink:href="#ma762496a20" y="207.544894"/>
     <use style="fill:#007f00;stroke:#007f00;" x="127.915964" xlink:href="#ma762496a20" y="200.942312"/>
     <use style="fill:#007f00;stroke:#007f00;" x="122.143325" xlink:href="#ma762496a20" y="194.114161"/>
     <use style="fill:#007f00;stroke:#007f00;" x="117.065126" xlink:href="#ma762496a20" y="187.106064"/>
     <use style="fill:#007f00;stroke:#007f00;" x="113.018595" xlink:href="#ma762496a20" y="179.893733"/>
     <use style="fill:#007f00;stroke:#007f00;" x="110.254032" xlink:href="#ma762496a20" y="172.427494"/>
     <use style="fill:#007f00;stroke:#007f00;" x="108.353822" xlink:href="#ma762496a20" y="164.814464"/>
     <use style="fill:#007f00;stroke:#007f00;" x="107.353236" xlink:href="#ma762496a20" y="157.044312"/>
     <use style="fill:#007f00;stroke:#007f00;" x="107.526594" xlink:href="#ma762496a20" y="149.177991"/>
     <use style="fill:#007f00;stroke:#007f00;" x="108.926389" xlink:href="#ma762496a20" y="141.316078"/>
     <use style="fill:#007f00;stroke:#007f00;" x="111.596584" xlink:href="#ma762496a20" y="133.540372"/>
     <use style="fill:#007f00;stroke:#007f00;" x="115.352786" xlink:href="#ma762496a20" y="126.005448"/>
     <use style="fill:#007f00;stroke:#007f00;" x="120.168008" xlink:href="#ma762496a20" y="118.785385"/>
     <use style="fill:#007f00;stroke:#007f00;" x="125.88158" xlink:href="#ma762496a20" y="111.862368"/>
     <use style="fill:#007f00;stroke:#007f00;" x="132.741713" xlink:href="#ma762496a20" y="105.413748"/>
     <use style="fill:#007f00;stroke:#007f00;" x="140.733085" xlink:href="#ma762496a20" y="99.594478"/>
     <use style="fill:#007f00;stroke:#007f00;" x="149.648238" xlink:href="#ma762496a20" y="94.550252"/>
     <use style="fill:#007f00;stroke:#007f00;" x="159.159484" xlink:href="#ma762496a20" y="90.122421"/>
     <use style="fill:#007f00;stroke:#007f00;" x="169.501575" xlink:href="#ma762496a20" y="86.108322"/>
     <use style="fill:#007f00;stroke:#007f00;" x="180.685819" xlink:href="#ma762496a20" y="82.524981"/>
     <use style="fill:#007f00;stroke:#007f00;" x="192.73165" xlink:href="#ma762496a20" y="80.043753"/>
     <use style="fill:#007f00;stroke:#007f00;" x="205.393013" xlink:href="#ma762496a20" y="78.664869"/>
     <use style="fill:#007f00;stroke:#007f00;" x="218.303289" xlink:href="#ma762496a20" y="78.327826"/>
     <use style="fill:#007f00;stroke:#007f00;" x="231.242833" xlink:href="#ma762496a20" y="78.992114"/>
     <use style="fill:#007f00;stroke:#007f00;" x="244.176859" xlink:href="#ma762496a20" y="80.480383"/>
     <use style="fill:#007f00;stroke:#007f00;" x="257.110946" xlink:href="#ma762496a20" y="82.717691"/>
     <use style="fill:#007f00;stroke:#007f00;" x="269.703061" xlink:href="#ma762496a20" y="85.751468"/>
     <use style="fill:#007f00;stroke:#007f00;" x="281.882057" xlink:href="#ma762496a20" y="89.545221"/>
     <use style="fill:#007f00;stroke:#007f00;" x="293.424864" xlink:href="#ma762496a20" y="94.162211"/>
     <use style="fill:#007f00;stroke:#007f00;" x="304.202689" xlink:href="#ma762496a20" y="99.578461"/>
     <use style="fill:#007f00;stroke:#007f00;" x="314.143574" xlink:href="#ma762496a20" y="105.639706"/>
     <use style="fill:#007f00;stroke:#007f00;" x="322.873517" xlink:href="#ma762496a20" y="112.310884"/>
     <use style="fill:#007f00;stroke:#007f00;" x="331.117975" xlink:href="#ma762496a20" y="119.284794"/>
     <use style="fill:#007f00;stroke:#007f00;" x="338.608784" xlink:href="#ma762496a20" y="126.895103"/>
     <use style="fill:#007f00;stroke:#007f00;" x="345.18196" xlink:href="#ma762496a20" y="135.15454"/>
     <use style="fill:#007f00;stroke:#007f00;" x="350.775117" xlink:href="#ma762496a20" y="144.021462"/>
     <use style="fill:#007f00;stroke:#007f00;" x="355.112823" xlink:href="#ma762496a20" y="153.440383"/>
     <use style="fill:#007f00;stroke:#007f00;" x="357.699524" xlink:href="#ma762496a20" y="163.067558"/>
     <use style="fill:#007f00;stroke:#007f00;" x="358.619326" xlink:href="#ma762496a20" y="172.811857"/>
     <use style="fill:#007f00;stroke:#007f00;" x="358.130559" xlink:href="#ma762496a20" y="182.748901"/>
     <use style="fill:#007f00;stroke:#007f00;" x="356.300086" xlink:href="#ma762496a20" y="192.595723"/>
     <use style="fill:#007f00;stroke:#007f00;" x="353.451091" xlink:href="#ma762496a20" y="202.27113"/>
     <use style="fill:#007f00;stroke:#007f00;" x="349.480176" xlink:href="#ma762496a20" y="211.629849"/>
     <use style="fill:#007f00;stroke:#007f00;" x="343.86084" xlink:href="#ma762496a20" y="220.542018"/>
     <use style="fill:#007f00;stroke:#007f00;" x="336.971194" xlink:href="#ma762496a20" y="229.033182"/>
     <use style="fill:#007f00;stroke:#007f00;" x="328.780748" xlink:href="#ma762496a20" y="236.908602"/>
     <use style="fill:#007f00;stroke:#007f00;" x="319.002963" xlink:href="#ma762496a20" y="244.00306"/>
     <use style="fill:#007f00;stroke:#007f00;" x="308.295053" xlink:href="#ma762496a20" y="250.243919"/>
     <use style="fill:#007f00;stroke:#007f00;" x="296.801147" xlink:href="#ma762496a20" y="255.456694"/>
     <use style="fill:#007f00;stroke:#007f00;" x="284.582259" xlink:href="#ma762496a20" y="259.710787"/>
     <use style="fill:#007f00;stroke:#007f00;" x="271.949651" xlink:href="#ma762496a20" y="263.004084"/>
     <use style="fill:#007f00;stroke:#007f00;" x="258.769934" xlink:href="#ma762496a20" y="265.27335"/>
     <use style="fill:#007f00;stroke:#007f00;" x="245.111425" xlink:href="#ma762496a20" y="266.392168"/>
     <use style="fill:#007f00;stroke:#007f00;" x="231.147674" xlink:href="#ma762496a20" y="266.534787"/>
     <use style="fill:#007f00;stroke:#007f00;" x="217.123958" xlink:href="#ma762496a20" y="265.751455"/>
     <use style="fill:#007f00;stroke:#007f00;" x="203.391683" xlink:href="#ma762496a20" y="264.121243"/>
     <use style="fill:#007f00;stroke:#007f00;" x="189.754132" xlink:href="#ma762496a20" y="261.528459"/>
     <use style="fill:#007f00;stroke:#007f00;" x="176.463297" xlink:href="#ma762496a20" y="257.969061"/>
     <use style="fill:#007f00;stroke:#007f00;" x="163.687199" xlink:href="#ma762496a20" y="253.554809"/>
     <use style="fill:#007f00;stroke:#007f00;" x="151.679121" xlink:href="#ma762496a20" y="248.289562"/>
     <use style="fill:#007f00;stroke:#007f00;" x="140.321167" xlink:href="#ma762496a20" y="242.483837"/>
     <use style="fill:#007f00;stroke:#007f00;" x="129.63717" xlink:href="#ma762496a20" y="236.083802"/>
     <use style="fill:#007f00;stroke:#007f00;" x="119.907844" xlink:href="#ma762496a20" y="228.891765"/>
     <use style="fill:#007f00;stroke:#007f00;" x="110.793152" xlink:href="#ma762496a20" y="220.969592"/>
     <use style="fill:#007f00;stroke:#007f00;" x="102.434097" xlink:href="#ma762496a20" y="212.51735"/>
     <use style="fill:#007f00;stroke:#007f00;" x="94.861853" xlink:href="#ma762496a20" y="203.785004"/>
     <use style="fill:#007f00;stroke:#007f00;" x="88.173814" xlink:href="#ma762496a20" y="194.811383"/>
     <use style="fill:#007f00;stroke:#007f00;" x="82.749134" xlink:href="#ma762496a20" y="185.578377"/>
     <use style="fill:#007f00;stroke:#007f00;" x="79.000402" xlink:href="#ma762496a20" y="175.988174"/>
     <use style="fill:#007f00;stroke:#007f00;" x="76.423688" xlink:href="#ma762496a20" y="166.209606"/>
     <use style="fill:#007f00;stroke:#007f00;" x="74.966641" xlink:href="#ma762496a20" y="156.234862"/>
     <use style="fill:#007f00;stroke:#007f00;" x="74.990691" xlink:href="#ma762496a20" y="146.104269"/>
     <use style="fill:#007f00;stroke:#007f00;" x="76.591625" xlink:href="#ma762496a20" y="135.967471"/>
     <use style="fill:#007f00;stroke:#007f00;" x="79.801929" xlink:href="#ma762496a20" y="125.911005"/>
     <use style="fill:#007f00;stroke:#007f00;" x="84.463737" xlink:href="#ma762496a20" y="116.185344"/>
     <use style="fill:#007f00;stroke:#007f00;" x="90.485809" xlink:href="#ma762496a20" y="106.821361"/>
     <use style="fill:#007f00;stroke:#007f00;" x="97.601072" xlink:href="#ma762496a20" y="97.842975"/>
     <use style="fill:#007f00;stroke:#007f00;" x="106.236983" xlink:href="#ma762496a20" y="89.441318"/>
     <use style="fill:#007f00;stroke:#007f00;" x="116.36506" xlink:href="#ma762496a20" y="81.820509"/>
     <use style="fill:#007f00;stroke:#007f00;" x="127.794814" xlink:href="#ma762496a20" y="75.266932"/>
     <use style="fill:#007f00;stroke:#007f00;" x="139.983863" xlink:href="#ma762496a20" y="69.462532"/>
     <use style="fill:#007f00;stroke:#007f00;" x="153.221222" xlink:href="#ma762496a20" y="64.243606"/>
     <use style="fill:#007f00;stroke:#007f00;" x="167.557407" xlink:href="#ma762496a20" y="59.490121"/>
     <use style="fill:#007f00;stroke:#007f00;" x="182.999913" xlink:href="#ma762496a20" y="56.102562"/>
     <use style="fill:#007f00;stroke:#007f00;" x="199.268011" xlink:href="#ma762496a20" y="54.177937"/>
     <use style="fill:#007f00;stroke:#007f00;" x="215.936407" xlink:href="#ma762496a20" y="53.568"/>
     <use style="fill:#007f00;stroke:#007f00;" x="232.671998" xlink:href="#ma762496a20" y="54.278944"/>
     <use style="fill:#007f00;stroke:#007f00;" x="249.391746" xlink:href="#ma762496a20" y="56.072844"/>
     <use style="fill:#007f00;stroke:#007f00;" x="266.133782" xlink:href="#ma762496a20" y="58.835569"/>
     <use style="fill:#007f00;stroke:#007f00;" x="282.42321" xlink:href="#ma762496a20" y="62.632783"/>
     <use style="fill:#007f00;stroke:#007f00;" x="298.197732" xlink:href="#ma762496a20" y="67.414192"/>
     <use style="fill:#007f00;stroke:#007f00;" x="313.16391" xlink:href="#ma762496a20" y="73.248331"/>
     <use style="fill:#007f00;stroke:#007f00;" x="327.120503" xlink:href="#ma762496a20" y="80.127351"/>
     <use style="fill:#007f00;stroke:#007f00;" x="340.023437" xlink:href="#ma762496a20" y="87.863696"/>
     <use style="fill:#007f00;stroke:#007f00;" x="351.389008" xlink:href="#ma762496a20" y="96.377181"/>
     <use style="fill:#007f00;stroke:#007f00;" x="362.055951" xlink:href="#ma762496a20" y="105.30519"/>
     <use style="fill:#007f00;stroke:#007f00;" x="371.835651" xlink:href="#ma762496a20" y="114.99241"/>
     <use style="fill:#007f00;stroke:#007f00;" x="380.458284" xlink:href="#ma762496a20" y="125.528692"/>
     <use style="fill:#007f00;stroke:#007f00;" x="387.813553" xlink:href="#ma762496a20" y="136.85872"/>
     <use style="fill:#007f00;stroke:#007f00;" x="393.584378" xlink:href="#ma762496a20" y="148.903069"/>
     <use style="fill:#007f00;stroke:#007f00;" x="397.163818" xlink:href="#ma762496a20" y="161.33465"/>
     <use style="fill:#007f00;stroke:#007f00;" x="398.487273" xlink:href="#ma762496a20" y="173.822954"/>
     <use style="fill:#007f00;stroke:#007f00;" x="398.010174" xlink:href="#ma762496a20" y="186.630919"/>
     <use style="fill:#007f00;stroke:#007f00;" x="395.781725" xlink:href="#ma762496a20" y="199.316394"/>
     <use style="fill:#007f00;stroke:#007f00;" x="392.275354" xlink:href="#ma762496a20" y="211.845395"/>
     <use style="fill:#007f00;stroke:#007f00;" x="387.310356" xlink:href="#ma762496a20" y="223.97281"/>
     <use style="fill:#007f00;stroke:#007f00;" x="380.376053" xlink:href="#ma762496a20" y="235.541748"/>
     <use style="fill:#007f00;stroke:#007f00;" x="371.614141" xlink:href="#ma762496a20" y="246.499376"/>
     <use style="fill:#007f00;stroke:#007f00;" x="361.270699" xlink:href="#ma762496a20" y="256.696407"/>
     <use style="fill:#007f00;stroke:#007f00;" x="348.855514" xlink:href="#ma762496a20" y="265.891848"/>
     <use style="fill:#007f00;stroke:#007f00;" x="335.146896" xlink:href="#ma762496a20" y="273.975462"/>
     <use style="fill:#007f00;stroke:#007f00;" x="320.546328" xlink:href="#ma762496a20" y="280.782913"/>
     <use style="fill:#007f00;stroke:#007f00;" x="305.006258" xlink:href="#ma762496a20" y="286.343878"/>
     <use style="fill:#007f00;stroke:#007f00;" x="288.898249" xlink:href="#ma762496a20" y="290.654822"/>
     <use style="fill:#007f00;stroke:#007f00;" x="272.071208" xlink:href="#ma762496a20" y="293.677729"/>
     <use style="fill:#007f00;stroke:#007f00;" x="254.614689" xlink:href="#ma762496a20" y="295.227203"/>
     <use style="fill:#007f00;stroke:#007f00;" x="236.79681" xlink:href="#ma762496a20" y="295.488"/>
     <use style="fill:#007f00;stroke:#007f00;" x="218.836075" xlink:href="#ma762496a20" y="294.562581"/>
     <use style="fill:#007f00;stroke:#007f00;" x="201.29941" xlink:href="#ma762496a20" y="292.555525"/>
     <use style="fill:#007f00;stroke:#007f00;" x="183.864583" xlink:href="#ma762496a20" y="289.344884"/>
     <use style="fill:#007f00;stroke:#007f00;" x="166.825026" xlink:href="#ma762496a20" y="284.877013"/>
     <use style="fill:#007f00;stroke:#007f00;" x="150.401291" xlink:href="#ma762496a20" y="279.348012"/>
     <use style="fill:#007f00;stroke:#007f00;" x="134.946581" xlink:href="#ma762496a20" y="272.669068"/>
    </g>
   </g>
   <g id="line2d_17">
    <path clip-path="url(#p504bf13237)" d="M 245.298342 162.883082 
L 245.434816 164.612886 
L 245.313083 166.351833 
L 244.931775 168.082624 
L 244.292111 169.787871 
L 243.397903 171.450265 
L 242.255549 173.052755 
L 240.87399 174.578715 
L 239.26465 176.01212 
L 237.441343 177.337713 
L 235.420164 178.541159 
L 233.219346 179.6092 
L 230.859101 180.529804 
L 228.361437 181.29229 
L 225.749956 181.887451 
L 223.049635 182.307663 
L 220.286588 182.546973 
L 217.48782 182.601181 
L 214.680959 182.467893 
L 211.893995 182.146566 
L 209.154996 181.638535 
L 206.49183 180.947011 
L 203.931889 180.077074 
L 201.501804 179.035642 
L 199.227175 177.831413 
L 197.1323 176.474801 
L 195.23993 174.977848 
L 193.57101 173.354121 
L 192.144467 171.618589 
L 190.976987 169.78749 
L 190.082835 167.878178 
L 189.473688 165.908965 
L 189.158488 163.898944 
L 189.143324 161.867807 
L 189.43135 159.835654 
L 190.022717 157.822796 
L 190.914545 155.849556 
L 192.100921 153.936061 
L 193.572926 152.102045 
L 195.318695 150.366641 
L 197.32351 148.74819 
L 199.569912 147.264047 
L 202.037853 145.930396 
L 204.704869 144.762077 
L 207.546281 143.772429 
L 210.535418 142.973133 
L 213.643867 142.374087 
L 216.841736 141.983283 
L 220.09794 141.806713 
L 223.380502 141.848283 
L 226.656858 142.109759 
L 229.894183 142.590726 
L 233.059714 143.288569 
L 236.121078 144.198478 
L 239.046619 145.313475 
L 241.805724 146.624462 
L 244.369136 148.120286 
L 246.709265 149.787841 
L 248.800476 151.612166 
L 250.61937 153.576587 
L 252.145033 155.662859 
L 253.359277 157.851339 
L 254.246845 160.121164 
L 254.795593 162.45045 
L 254.996648 164.816497 
L 254.84452 167.196013 
L 254.337201 169.565338 
L 253.47621 171.900677 
L 252.266621 174.178335 
L 250.717045 176.374961 
L 248.839579 178.467777 
L 246.649715 180.434816 
L 244.16623 182.255152 
L 241.411022 183.909114 
L 238.408926 185.378497 
L 235.187493 186.646763 
L 231.776746 187.699218 
L 228.208898 188.523179 
L 224.518057 189.108121 
L 220.7399 189.445805 
L 216.911338 189.530382 
L 213.070151 189.358472 
L 209.254624 188.929235 
L 205.50317 188.244386 
L 201.853944 187.308217 
L 198.344461 186.12758 
L 195.011212 184.711832 
L 191.889294 183.072782 
L 189.012037 181.224588 
L 186.41066 179.18364 
L 184.113939 176.968419 
L 182.147886 174.599336 
L 180.535468 172.098542 
L 179.296345 169.489728 
L 178.446641 166.797903 
L 177.998748 164.049154 
L 177.961164 161.2704 
L 178.338365 158.489127 
L 179.13073 155.733125 
L 180.334485 153.030204 
L 181.941706 150.407926 
L 183.940357 147.89332 
L 186.314366 145.512607 
L 189.043746 143.290936 
L 192.104756 141.252111 
L 195.470102 139.418352 
L 199.109175 137.810045 
L 202.988323 136.445528 
L 207.071152 135.340885 
L 211.318872 134.509761 
L 215.690655 133.9632 
L 220.144024 133.709514 
L 224.63526 133.75417 
L 229.11983 134.099706 
L 233.552823 134.745673 
L 237.889391 135.688617 
L 242.085205 136.922078 
L 246.0969 138.436626 
L 249.882518 140.219928 
L 253.401939 142.256836 
L 256.61731 144.529519 
L 259.493436 147.017608 
L 261.998164 149.698375 
L 264.10273 152.546939 
L 265.782088 155.536494 
L 267.015195 158.638552 
L 267.785257 161.823219 
L 268.079937 165.059475 
L 267.891543 168.315472 
L 267.217123 171.558848 
L 266.058562 174.757042 
L 264.422603 177.877622 
L 262.320832 180.888606 
L 259.76961 183.758787 
L 256.789952 186.458056 
L 253.407373 188.957709 
L 249.651668 191.230756 
L 245.556664 193.252201 
L 241.159917 194.99931 
L 236.502379 196.45187 
L 231.628017 197.592412 
L 226.583404 198.406408 
L 221.417286 198.882455 
L 216.180107 199.012409 
L 210.923531 198.791514 
L 205.699928 198.218467 
L 200.561864 197.295479 
L 195.561573 196.02828 
L 190.75044 194.4261 
L 186.178465 192.501611 
L 181.89376 190.270836 
L 177.942046 187.753018 
L 174.366167 184.970465 
L 171.205641 181.948356 
L 168.49623 178.714515 
L 166.269534 175.299165 
L 164.552653 171.734643 
L 163.367851 168.055103 
L 162.732294 164.296191 
L 162.657834 160.494701 
L 163.150826 156.688222 
L 164.212012 152.91477 
L 165.836465 149.21241 
L 168.013573 145.618877 
L 170.72709 142.171191 
L 173.955244 138.905292 
L 177.670903 135.855655 
L 181.841784 133.054938 
L 186.430729 130.533638 
L 191.39603 128.31976 
L 196.6918 126.438521 
L 202.268384 124.912058 
L 208.072823 123.759182 
L 214.049354 122.99516 
L 220.13993 122.63152 
L 226.284786 122.675903 
L 232.423019 123.131946 
L 238.493177 123.999201 
L 244.433879 125.273111 
L 250.184424 126.945002 
L 255.685404 129.002136 
L 260.879313 131.427795 
L 265.711144 134.201406 
L 270.128955 137.298712 
L 274.08443 140.691977 
L 277.533391 144.350229 
L 280.436281 148.239534 
L 282.758609 152.323311 
L 284.471352 156.562667 
L 285.551279 160.916763 
L 285.98127 165.343206 
L 285.750522 169.798455 
L 284.854734 174.238246 
L 283.296216 178.618025 
L 281.083924 182.893398 
L 278.233446 187.020563 
L 274.766901 190.956768 
L 270.712798 194.660739 
L 266.105797 198.093118 
L 260.986445 201.216862 
L 255.400807 203.997649 
L 249.40008 206.404239 
L 243.040117 208.408828 
L 236.380929 209.987348 
L 229.486114 211.119752 
L 222.422266 211.790259 
L 215.258329 211.98754 
L 208.064945 211.704893 
L 200.913751 210.940345 
L 193.876682 209.69672 
L 187.02525 207.981667 
L 180.429823 205.807619 
L 174.15892 203.191728 
L 168.278491 200.155737 
L 162.851248 196.725798 
L 157.935997 192.932277 
L 153.587005 188.809471 
L 149.853427 184.395317 
L 146.778754 179.731042 
L 144.400319 174.860787 
L 142.748875 169.831195 
L 141.848201 164.690968 
L 141.714812 159.490404 
L 142.357717 154.280903 
L 143.778245 149.114472 
L 145.969971 144.043205 
L 148.91869 139.118767 
L 152.602485 134.39187 
L 156.991864 129.91176 
L 162.049992 125.725706 
L 167.732976 121.878506 
L 173.990234 118.412022 
L 180.764939 115.364728 
L 187.994516 112.771289 
L 195.611218 110.662174 
L 203.542749 109.063319 
L 211.712941 107.995817 
L 220.042481 107.475657 
L 228.449665 107.51351 
L 236.851199 108.114582 
L 245.163012 109.278493 
L 253.301084 110.99923 
L 261.182302 113.265157 
L 268.725283 116.059066 
L 275.851215 119.358295 
L 282.484672 123.134909 
L 288.554386 127.355911 
L 293.994032 131.983538 
L 298.742906 136.97558 
L 302.746614 142.285761 
L 305.957673 147.864159 
L 308.336031 153.657675 
L 309.849587 159.610522 
L 310.474555 165.664767 
L 310.195803 171.760878 
L 309.007083 177.838317 
L 306.911176 183.83612 
L 303.919977 189.693513 
L 300.054437 195.350519 
L 295.344472 200.748561 
L 289.828741 205.831074 
L 283.554337 210.544074 
L 276.576422 214.836737 
L 268.957738 218.661933 
L 260.768061 221.976738 
L 252.083582 224.742898 
L 242.986195 226.927262 
L 233.562746 228.502167 
L 223.904211 229.445773 
L 214.104822 229.742338 
L 204.261165 229.382418 
L 194.471233 228.363044 
L 184.833465 226.68782 
L 175.445758 224.366941 
L 166.404492 221.417159 
L 157.80354 217.86168 
L 149.733317 213.73 
L 142.279832 209.057679 
L 135.52379 203.886032 
L 129.539725 198.261779 
L 124.395193 192.23664 
L 120.150041 185.866856 
L 116.855713 179.212681 
L 114.554653 172.337811 
L 113.279809 165.308787 
L 113.054202 158.194358 
L 113.890571 151.064816 
L 115.791169 143.991304 
L 118.747637 137.045117 
L 122.740961 130.296992 
L 127.741587 123.816387 
L 133.709576 117.670786 
L 140.594926 111.924997 
L 148.337955 106.640472 
L 156.869807 101.874674 
L 166.113052 97.680441 
L 175.982377 94.105436 
L 186.385344 91.191599 
L 197.223262 88.974683 
L 208.392101 87.483827 
L 219.783481 86.741198 
L 231.285714 86.7617 
L 242.784886 87.552768 
L 254.165975 89.114189 
L 265.313988 91.438059 
L 276.11512 94.508757 
L 286.457884 98.303049 
L 296.234272 102.790228 
L 305.340857 107.932348 
L 313.679866 113.684542 
L 321.160249 119.995387 
L 327.698604 126.807357 
L 333.220128 134.05735 
L 337.659438 141.677241 
L 340.961328 149.594532 
L 343.081397 157.733026 
L 343.986626 166.013547 
L 343.655819 174.354712 
L 342.079914 182.673714 
L 339.262226 190.887143 
L 335.218518 198.911808 
L 329.976958 206.665576 
L 323.577985 214.068199 
L 316.07402 221.04214 
L 307.529052 227.513372 
L 298.018117 233.412158 
L 287.626666 238.67378 
L 276.449805 243.23926 
L 264.591451 247.055972 
L 252.163374 250.078266 
L 239.284158 252.267975 
L 226.078081 253.594878 
L 212.673938 254.037072 
L 199.203788 253.581292 
L 185.801674 252.223114 
L 172.602291 249.967099 
L 159.739668 246.826826 
L 147.345797 242.824852 
L 135.549303 237.992582 
L 124.474122 232.370036 
L 114.238225 226.005543 
L 104.952366 218.955323 
L 96.718894 211.28302 
L 89.630678 203.059135 
L 83.77004 194.360396 
L 79.207869 185.269038 
L 76.002773 175.87205 
L 74.200375 166.260345 
L 73.832727 156.527893 
L 74.917847 146.77081 
L 77.459412 137.086423 
L 81.446571 127.572301 
L 86.853916 118.325287 
L 93.641571 109.440525 
L 101.755453 101.010488 
L 111.1277 93.124015 
L 121.677161 85.865413 
L 133.310122 79.313542 
L 145.921085 73.54099 
L 159.393722 68.613277 
L 173.601924 64.588131 
L 188.410963 61.514826 
L 203.678755 59.433613 
L 219.257213 58.375222 
L 234.993656 58.360468 
L 250.732304 59.399934 
L 266.315786 61.493771 
L 281.586724 64.631586 
L 296.389276 68.792434 
L 310.570737 73.944939 
L 323.983074 80.047494 
L 336.484485 87.048576 
L 347.940837 94.887158 
L 358.227118 103.493226 
L 367.228762 112.788394 
L 374.842911 122.686604 
L 380.97955 133.094904 
L 385.562531 143.914312 
L 388.530485 155.040744 
L 389.837593 166.366007 
L 389.45417 177.778836 
L 387.36714 189.16598 
L 383.580345 200.413308 
L 378.114657 211.406949 
L 371.007934 222.034428 
L 362.314841 232.185812 
L 352.106449 241.754828 
L 340.469677 250.639955 
L 327.506617 258.745511 
L 313.33364 265.982642 
L 298.080363 272.270288 
L 281.888528 277.536082 
L 264.910662 281.717153 
L 247.308683 284.760828 
L 229.252374 286.625307 
L 210.917753 287.280152 
L 192.485381 286.706714 
L 174.138609 284.89845 
L 156.061759 281.861096 
L 138.438297 277.61273 
L 121.448987 272.183727 
L 121.448987 272.183727 
" style="fill:none;stroke:#00203f;stroke-linecap:square;stroke-width:1.5;"/>
   </g>
   <g id="patch_3">
    <path d="M 57.6 307.584 
L 57.6 41.472 
" style="fill:none;stroke:#000000;stroke-linecap:square;stroke-linejoin:miter;stroke-width:0.8;"/>
   </g>
   <g id="patch_4">
    <path d="M 414.72 307.584 
L 414.72 41.472 
" style="fill:none;stroke:#000000;stroke-linecap:square;stroke-linejoin:miter;stroke-width:0.8;"/>
   </g>
   <g id="patch_5">
    <path d="M 57.6 307.584 
L 414.72 307.584 
" style="fill:none;stroke:#000000;stroke-linecap:square;stroke-linejoin:miter;stroke-width:0.8;"/>
   </g>
   <g id="patch_6">
    <path d="M 57.6 41.472 
L 414.72 41.472 
" style="fill:none;stroke:#000000;stroke-linecap:square;stroke-linejoin:miter;stroke-width:0.8;"/>
   </g>
   <g id="text_18">
    <!-- The Real and Predicted Trajectories -->
    <defs>
     <path d="M -0.296875 72.90625 
L 61.375 72.90625 
L 61.375 64.59375 
L 35.5 64.59375 
L 35.5 0 
L 25.59375 0 
L 25.59375 64.59375 
L -0.296875 64.59375 
z
" id="DejaVuSans-54"/>
     <path d="M 54.890625 33.015625 
L 54.890625 0 
L 45.90625 0 
L 45.90625 32.71875 
Q 45.90625 40.484375 42.875 44.328125 
Q 39.84375 48.1875 33.796875 48.1875 
Q 26.515625 48.1875 22.3125 43.546875 
Q 18.109375 38.921875 18.109375 30.90625 
L 18.109375 0 
L 9.078125 0 
L 9.078125 75.984375 
L 18.109375 75.984375 
L 18.109375 46.1875 
Q 21.34375 51.125 25.703125 53.5625 
Q 30.078125 56 35.796875 56 
Q 45.21875 56 50.046875 50.171875 
Q 54.890625 44.34375 54.890625 33.015625 
z
" id="DejaVuSans-68"/>
     <path d="M 44.390625 34.1875 
Q 47.5625 33.109375 50.5625 29.59375 
Q 53.5625 26.078125 56.59375 19.921875 
L 66.609375 0 
L 56 0 
L 46.6875 18.703125 
Q 43.0625 26.03125 39.671875 28.421875 
Q 36.28125 30.8125 30.421875 30.8125 
L 19.671875 30.8125 
L 19.671875 0 
L 9.8125 0 
L 9.8125 72.90625 
L 32.078125 72.90625 
Q 44.578125 72.90625 50.734375 67.671875 
Q 56.890625 62.453125 56.890625 51.90625 
Q 56.890625 45.015625 53.6875 40.46875 
Q 50.484375 35.9375 44.390625 34.1875 
z
M 19.671875 64.796875 
L 19.671875 38.921875 
L 32.078125 38.921875 
Q 39.203125 38.921875 42.84375 42.21875 
Q 46.484375 45.515625 46.484375 51.90625 
Q 46.484375 58.296875 42.84375 61.546875 
Q 39.203125 64.796875 32.078125 64.796875 
z
" id="DejaVuSans-52"/>
     <path d="M 34.28125 27.484375 
Q 23.390625 27.484375 19.1875 25 
Q 14.984375 22.515625 14.984375 16.5 
Q 14.984375 11.71875 18.140625 8.90625 
Q 21.296875 6.109375 26.703125 6.109375 
Q 34.1875 6.109375 38.703125 11.40625 
Q 43.21875 16.703125 43.21875 25.484375 
L 43.21875 27.484375 
z
M 52.203125 31.203125 
L 52.203125 0 
L 43.21875 0 
L 43.21875 8.296875 
Q 40.140625 3.328125 35.546875 0.953125 
Q 30.953125 -1.421875 24.3125 -1.421875 
Q 15.921875 -1.421875 10.953125 3.296875 
Q 6 8.015625 6 15.921875 
Q 6 25.140625 12.171875 29.828125 
Q 18.359375 34.515625 30.609375 34.515625 
L 43.21875 34.515625 
L 43.21875 35.40625 
Q 43.21875 41.609375 39.140625 45 
Q 35.0625 48.390625 27.6875 48.390625 
Q 23 48.390625 18.546875 47.265625 
Q 14.109375 46.140625 10.015625 43.890625 
L 10.015625 52.203125 
Q 14.9375 54.109375 19.578125 55.046875 
Q 24.21875 56 28.609375 56 
Q 40.484375 56 46.34375 49.84375 
Q 52.203125 43.703125 52.203125 31.203125 
z
" id="DejaVuSans-61"/>
     <path d="M 45.40625 46.390625 
L 45.40625 75.984375 
L 54.390625 75.984375 
L 54.390625 0 
L 45.40625 0 
L 45.40625 8.203125 
Q 42.578125 3.328125 38.25 0.953125 
Q 33.9375 -1.421875 27.875 -1.421875 
Q 17.96875 -1.421875 11.734375 6.484375 
Q 5.515625 14.40625 5.515625 27.296875 
Q 5.515625 40.1875 11.734375 48.09375 
Q 17.96875 56 27.875 56 
Q 33.9375 56 38.25 53.625 
Q 42.578125 51.265625 45.40625 46.390625 
z
M 14.796875 27.296875 
Q 14.796875 17.390625 18.875 11.75 
Q 22.953125 6.109375 30.078125 6.109375 
Q 37.203125 6.109375 41.296875 11.75 
Q 45.40625 17.390625 45.40625 27.296875 
Q 45.40625 37.203125 41.296875 42.84375 
Q 37.203125 48.484375 30.078125 48.484375 
Q 22.953125 48.484375 18.875 42.84375 
Q 14.796875 37.203125 14.796875 27.296875 
z
" id="DejaVuSans-64"/>
     <path d="M 41.109375 46.296875 
Q 39.59375 47.171875 37.8125 47.578125 
Q 36.03125 48 33.890625 48 
Q 26.265625 48 22.1875 43.046875 
Q 18.109375 38.09375 18.109375 28.8125 
L 18.109375 0 
L 9.078125 0 
L 9.078125 54.6875 
L 18.109375 54.6875 
L 18.109375 46.1875 
Q 20.953125 51.171875 25.484375 53.578125 
Q 30.03125 56 36.53125 56 
Q 37.453125 56 38.578125 55.875 
Q 39.703125 55.765625 41.0625 55.515625 
z
" id="DejaVuSans-72"/>
     <path d="M 9.421875 54.6875 
L 18.40625 54.6875 
L 18.40625 -0.984375 
Q 18.40625 -11.421875 14.421875 -16.109375 
Q 10.453125 -20.796875 1.609375 -20.796875 
L -1.8125 -20.796875 
L -1.8125 -13.1875 
L 0.59375 -13.1875 
Q 5.71875 -13.1875 7.5625 -10.8125 
Q 9.421875 -8.453125 9.421875 -0.984375 
z
M 9.421875 75.984375 
L 18.40625 75.984375 
L 18.40625 64.59375 
L 9.421875 64.59375 
z
" id="DejaVuSans-6a"/>
    </defs>
    <g transform="translate(111.204531 35.472)scale(0.14 -0.14)">
     <use xlink:href="#DejaVuSans-54"/>
     <use x="61.083984" xlink:href="#DejaVuSans-68"/>
     <use x="124.462891" xlink:href="#DejaVuSans-65"/>
     <use x="185.986328" xlink:href="#DejaVuSans-20"/>
     <use x="217.773438" xlink:href="#DejaVuSans-52"/>
     <use x="287.193359" xlink:href="#DejaVuSans-65"/>
     <use x="348.716797" xlink:href="#DejaVuSans-61"/>
     <use x="409.996094" xlink:href="#DejaVuSans-6c"/>
     <use x="437.779297" xlink:href="#DejaVuSans-20"/>
     <use x="469.566406" xlink:href="#DejaVuSans-61"/>
     <use x="530.845703" xlink:href="#DejaVuSans-6e"/>
     <use x="594.224609" xlink:href="#DejaVuSans-64"/>
     <use x="657.701172" xlink:href="#DejaVuSans-20"/>
     <use x="689.488281" xlink:href="#DejaVuSans-50"/>
     <use x="749.775391" xlink:href="#DejaVuSans-72"/>
     <use x="790.857422" xlink:href="#DejaVuSans-65"/>
     <use x="852.380859" xlink:href="#DejaVuSans-64"/>
     <use x="915.857422" xlink:href="#DejaVuSans-69"/>
     <use x="943.640625" xlink:href="#DejaVuSans-63"/>
     <use x="998.621094" xlink:href="#DejaVuSans-74"/>
     <use x="1037.830078" xlink:href="#DejaVuSans-65"/>
     <use x="1099.353516" xlink:href="#DejaVuSans-64"/>
     <use x="1162.830078" xlink:href="#DejaVuSans-20"/>
     <use x="1194.617188" xlink:href="#DejaVuSans-54"/>
     <use x="1255.482422" xlink:href="#DejaVuSans-72"/>
     <use x="1296.595703" xlink:href="#DejaVuSans-61"/>
     <use x="1357.875" xlink:href="#DejaVuSans-6a"/>
     <use x="1385.658203" xlink:href="#DejaVuSans-65"/>
     <use x="1447.181641" xlink:href="#DejaVuSans-63"/>
     <use x="1502.162109" xlink:href="#DejaVuSans-74"/>
     <use x="1541.371094" xlink:href="#DejaVuSans-6f"/>
     <use x="1602.552734" xlink:href="#DejaVuSans-72"/>
     <use x="1643.666016" xlink:href="#DejaVuSans-69"/>
     <use x="1671.449219" xlink:href="#DejaVuSans-65"/>
     <use x="1732.972656" xlink:href="#DejaVuSans-73"/>
    </g>
   </g>
   <g id="legend_1">
    <g id="patch_7">
     <path d="M 328.384063 78.82825 
L 407.72 78.82825 
Q 409.72 78.82825 409.72 76.82825 
L 409.72 48.472 
Q 409.72 46.472 407.72 46.472 
L 328.384063 46.472 
Q 326.384063 46.472 326.384063 48.472 
L 326.384063 76.82825 
Q 326.384063 78.82825 328.384063 78.82825 
z
" style="fill:#ffffff;opacity:0.8;stroke:#cccccc;stroke-linejoin:miter;"/>
    </g>
    <g id="line2d_18"/>
    <g id="line2d_19">
     <g>
      <use style="fill:#007f00;stroke:#007f00;" x="340.384063" xlink:href="#ma762496a20" y="54.570437"/>
     </g>
    </g>
    <g id="text_19">
     <!-- Predicted -->
     <g transform="translate(358.384063 58.070437)scale(0.1 -0.1)">
      <use xlink:href="#DejaVuSans-50"/>
      <use x="60.287109" xlink:href="#DejaVuSans-72"/>
      <use x="101.369141" xlink:href="#DejaVuSans-65"/>
      <use x="162.892578" xlink:href="#DejaVuSans-64"/>
      <use x="226.369141" xlink:href="#DejaVuSans-69"/>
      <use x="254.152344" xlink:href="#DejaVuSans-63"/>
      <use x="309.132812" xlink:href="#DejaVuSans-74"/>
      <use x="348.341797" xlink:href="#DejaVuSans-65"/>
      <use x="409.865234" xlink:href="#DejaVuSans-64"/>
     </g>
    </g>
    <g id="line2d_20">
     <path d="M 330.384063 69.248562 
L 350.384063 69.248562 
" style="fill:none;stroke:#00203f;stroke-linecap:square;stroke-width:1.5;"/>
    </g>
    <g id="line2d_21"/>
    <g id="text_20">
     <!-- Real -->
     <g transform="translate(358.384063 72.748562)scale(0.1 -0.1)">
      <use xlink:href="#DejaVuSans-52"/>
      <use x="69.419922" xlink:href="#DejaVuSans-65"/>
      <use x="130.943359" xlink:href="#DejaVuSans-61"/>
      <use x="192.222656" xlink:href="#DejaVuSans-6c"/>
     </g>
    </g>
   </g>
  </g>
 </g>
 <defs>
  <clipPath id="p504bf13237">
   <rect height="266.112" width="357.12" x="57.6" y="41.472"/>
  </clipPath>
 </defs>
</svg>
